<?xml version="1.0" encoding="utf-8"?>
<!-- Generator: Adobe Illustrator 18.1.1, SVG Export Plug-In . SVG Version: 6.00 Build 0)  -->
<svg version="1.1" id="Lager_1" xmlns="http://www.w3.org/2000/svg" xmlns:xlink="http://www.w3.org/1999/xlink" x="0px" y="0px"
	 viewBox="307 0 380 555" enable-background="new 307 0 380 555" xml:space="preserve">
<line fill="none" stroke="#70CC62" stroke-width="4" stroke-miterlimit="10" x1="464.5" y1="397.7" x2="417.6" y2="507.1"/>
<circle fill="#70CC62" cx="494.6" cy="154.1" r="66.6"/>
<ellipse fill="#70CC62" cx="495.5" cy="322.9" rx="93" ry="94.9"/>
<ellipse fill="#70CC62" cx="495.5" cy="219.8" rx="7.3" ry="31.9"/>
<line fill="none" stroke="#000000" stroke-width="4" stroke-miterlimit="10" x1="454.6" y1="76.8" x2="429.8" y2="32.8"/>
<line fill="none" stroke="#000000" stroke-width="4" stroke-miterlimit="10" x1="555.5" y1="41.2" x2="533.4" y2="86.6"/>
<circle fill="#70CC62" cx="429.8" cy="32.8" r="12.8"/>
<circle fill="#70CC62" cx="557.5" cy="32.8" r="12.8"/>
<line fill="none" stroke="#70CC62" stroke-width="4" stroke-miterlimit="10" x1="581.2" y1="507.1" x2="534.4" y2="397.7"/>
<line fill="none" stroke="#70CC62" stroke-width="4" stroke-miterlimit="10" x1="427.6" y1="309.4" x2="323.1" y2="252.5"/>
<line fill="none" stroke="#70CC62" stroke-width="4" stroke-miterlimit="10" x1="546.8" y1="312.1" x2="630.9" y2="227.8"/>
<ellipse stroke="#000000" stroke-width="2" stroke-miterlimit="10" cx="484.6" cy="134.1" rx="10.9" ry="11.9"/>
<ellipse stroke="#000000" stroke-width="2" stroke-miterlimit="10" cx="506.4" cy="134.1" rx="10.9" ry="11.9"/>
<ellipse fill="#FFFFFF" stroke="#FFFFFF" stroke-width="2" stroke-miterlimit="10" cx="484.9" cy="134.6" rx="3.6" ry="3.5"/>
<ellipse fill="#FFFFFF" stroke="#FFFFFF" stroke-width="2" stroke-miterlimit="10" cx="506.8" cy="134.6" rx="3.6" ry="3.5"/>
<path fill="#BA2B5A" d="M510.5,168c-0.5,1.6-1.6,2.9-2.9,3.6l-4.4-8.6l-12.2-0.7l-5.5,8.4c-0.5-0.2-1.1-0.2-1.6-0.2
	c-1.8,0.4-3.6-0.4-5.1-1.5c-1.1-0.9-3.1-0.2-3.8,0.9c-0.9,1.5-0.2,2.9,0.9,3.8c2.7,2,6,2.7,9.3,2c0.2,0,0.4,0,0.5-0.2l3.8,7.8
	l12.2,0.7l4.2-6.2c4.4-0.7,8.4-4,9.7-8.4C516.7,166.2,511.4,164.7,510.5,168z"/>
<path fill="#AA4017" d="M604,147.4c-2.4-2.6-6.2,1.3-3.8,3.8c-3.5,0.4-6,0-7.5-1.1v-0.2c0.7-0.2,1.5-0.7,1.8-1.8
	c1.1-4.2-0.2-7.8-3.5-9.9c0.7-2.2,0.5-4.7-0.2-6.9c1.3-1.3,2.6-2.7,3.5-4.4c1.6-3.1-2.9-5.8-4.7-2.7c-0.5,0.9-1.3,1.8-1.8,2.6
	c-1.3-1.1-2.9-1.8-4.9-2c-1.6-0.2-3.3,0.2-4.6,0.9c-0.2-5.5-0.5-10.9-0.7-16.4c0-0.9-0.5-2-1.3-2.4c-2.9-1.3-4.9-3.3-5.7-6.2
	c-0.2-0.5-0.7-0.9-1.1-1.1c1.6,0,3.1-0.2,4.7-0.5l0,0c1.8,2.4,5.5,0.7,5.3-1.6c0.9-0.4,1.8-0.7,2.7-1.3c1.5-0.7,1.8-3.1,0.5-4.4
	c-2.7-2.6-6.9-1.1-8.6,1.5c-3.8,0.9-7.8,0.9-11.7,0c-3.5-0.7-4.9,4.4-1.5,5.3c2.2,0.5,4.2,0.7,6.2,0.9c-0.5,0.2-0.9,0.5-1.3,1.1
	c-5.8,3.3-9.1,1.8-10.2-4c-0.5-2.2-0.7-4.4-0.9-6.6c-0.2-2.2-3.1-3.8-4.7-2c-1.1,1.6-2.4,2.6-4,3.1c-0.4-3.1-3.3-5.8-6.7-6.7
	c-2.9-0.7-5.1,0.2-8-1.5c-3.6-2-3.3-3.6-4.4-7.3c-1.1-3.8-1.8-6.6-4.6-9.5c-1.3-1.5-3.5-0.9-4.4,0.7c-1.1-0.5-2.4-0.9-4-0.9
	c-2.2,0-4,0.4-5.5,1.1c-0.2-0.9-0.2-2-0.4-2.9c0-0.5-0.2-0.9-0.5-1.1c6.2-5.1,10.8-12.2,7.8-19.5c-4.2-10.4-19.7-4.6-14,4.7
	c1.8,3.1,6.6,0.4,4.7-2.7c3.5-3.1,4.9-2,4.6,3.5c-0.4,1.6-1.1,3.1-2,4.6c-1.1,1.8-2.4,3.3-3.8,4.7c-2,2-4.4,3.6-6.9,4.9
	c-4-1.1-8.4-1.1-12,0.2c-0.5,0.2-1.1,0.4-1.6,0.7c-1.3-1.5-1.5-4-0.4-5.5c2-2.9-2.7-5.7-4.7-2.7c-2.6,3.5-1.8,7.8,0.5,10.9l0,0
	c-1.1-0.5-2.2-0.7-3.5-0.9c-1.1,0-2,0-2.9,0.2c-0.7-0.4-1.5-0.9-2.4-1.3c-3.1-1.1-6,0-8,2.4c-5.1,5.5-2.2,15.3-13.1,15.3
	c-0.9,0-1.8,0.5-2.4,1.3h-0.2c-8.4,3.3-14.4,9.7-22.1,14.4c-4.2,2.7-8.9,4.9-13.7,6.7c-2.2,0.9-4.6,1.6-6.9,2.2
	c-6.4,1.5-6.7,2.2-11.1-4.2c1.1,1.8,4.6,1.8,4.9-0.7c0.7-5.1-3.3-8.8-8.6-6.4c-4,1.8-6.7,6.4-10.8,8.6c-8.2,4.6-19.9,2.9-21.3-8
	c-0.5-3.5-5.8-2-5.3,1.5c1.1,7.7,6.9,13.1,14.6,14.4c3.8,0.7,7.7,0,11.3-1.5c2.6-0.9,4.7-2.4,6.9-3.8c0,0,0.2,0,0.2-0.2
	c0.5,2.2,2.2,4.4,5.5,5.8c7.7,3.6,19-0.9,26.1-3.8c3.8-1.6,7.3-3.8,10.8-6.2c-0.2,1.5-0.4,3.1-0.4,4.7c-5.3,2.4-10.6,4.7-16.1,7.3
	c-4.4,2-8.8,3.8-13,5.8c-2,0.9-19.7,9.5-20.2,1.6c0.2-0.9,0.2-1.8,0.2-2.7c0-3.1-4.7-3.8-5.3-0.7c-0.2,0.9-0.2,1.8-0.4,2.6
	c-1.3,6.9-8.8,11.9-15.7,8.9c-3.3-1.3-6,3.3-2.7,4.7c8.2,3.5,17.3,0.4,21.5-6.6c3.6,2.9,10.2,3.3,15.3,1.3
	c8.4-3.1,16.6-6.7,24.8-10.6c-0.4,1.5-0.4,3.1-0.2,4.6c-1.1-0.4-2.4-0.2-3.1,0.5c-8,7.1-8.2,22.6,4,24.1c-0.4,1.1-0.7,2.2-1.3,3.3
	c-0.9,2-2.2,3.3-3.6,4.2c-2-5.8-6.2-10.4-11.7-9.5c-2.6,0.4-4.2,1.8-4.9,3.8l0,0c-0.9-2.4-4.7-2.9-5.3,0c-1.3,6.2-0.5,12.6,2.9,17.9
	c-0.2,0.9-0.5,1.8-1.1,2.9c-2.6,3.8-6.2,4.6-10.6,2.4c-2.6-2.4-6.4,1.5-3.8,3.8c4.9,4.7,11.9,4,16.8-0.5c1.3-1.3,2.2-2.6,2.9-3.8
	c3.5,2.7,7.8,4,11.7,1.3c3.5-2.4,4.6-7.3,4.2-12.2c6-2.2,8.6-7.5,9.1-13.5c5.7-1.6,7.5-7.5,7.5-14c2.9-0.2,5.3-1.3,7.1-2.7
	c1.5,0.7,3.5,0,3.8-1.6c0.5-2.4,1.1-4.2,1.3-6.4c0.4-1.5,0.5-4.4,0.4-4.4l0,0c4.4-3.6,3.6-7.8,3.1-12.4c3.8-0.4,7.7-2.7,9.9-5.8
	c0.7-1.1,1.6-2.7,2.2-4.2c2,0.5,3.8,1.3,5.3,1.8c1.1,0.4,2.4-0.2,2.9-1.1c1.1,1.3,2.7,2,4.7,2.2c2.9,0,5.5-1.5,7.5-3.6
	c3.1,1.8,7.1,1.5,9.3-1.1c2.2,1.6,5.3,2,8.4-0.2c4-2.7,4.6-6.4,3.3-9.7c0,0,0.2,0,0.2-0.2c1.6,0.4,2.7,1.1,3.8,1.8
	c0.2,0.5,0.4,1.1,0.5,1.6c0.2,0.4,0.4,0.5,0.5,0.9c-2.4,4.9-3.5,10.9-3.8,15.7c-0.2,2,2.6,3.5,4.2,2.4c2.4-1.6,4.2-3.8,5.5-6.4
	c3.5,1.8,6.4,0.4,8.2-2.6c-0.2,1.3-0.2,2.7,0,4.2c0.2,2,2.2,3.5,4.2,2.4c4.2-2.4,6.6-6.7,6.9-10.9c0.9-0.2,1.8-0.4,2.9-0.4
	c-4.7,3.8-2,9.1,2.2,11.7c-0.5,4.2,2.7,8.9,7.1,9.5c1.5,0.2,2.9,0,4-0.4c1.1,1.1,2.4,2,3.8,2.9c0,1.6,0.4,3.1,1.1,4.6l0,0
	c2.2,6.9,6.2,12.4,12,16.1c0.2,0.5,0.4,1.3,0.7,1.8c0.2,0.4,0.2,0.5,0.4,0.9c-2.2,3.5-2.7,7.8,0.5,11.3c0.2,0.2,0.4,0.4,0.5,0.5
	c-0.7,2.2-0.9,4.6-0.7,6.9c-1.5,1.5-2.4,2.9-2.9,4.4c-3.6,12.2,11.3,18.8,21,15.5c3.3-1.1,1.8-6.4-1.5-5.3
	c-2.9,0.9-8.2,1.6-10.8-0.7c-0.7-2.2-1.3-4.4-2-6.6c5.7,4,15.7,0.7,13.1-7.3c-1.6-5.3-6.4-5.8-10.8-4c0.2-0.2,0.4-0.5,0.5-0.7
	c2.4-0.2,4.6-1.1,6-2.9c2.6,2.7,5.8,4.4,8.9,4.2c0.7,0,1.6-0.2,2.2-0.5c1.6,4.4,4.9,7.7,10.8,7.3C606.2,162,609.1,152.9,604,147.4z
	 M405.8,156.7c-0.4,0-0.7,0-1.1-0.2C404.3,153.6,404.7,153.6,405.8,156.7z M399.6,167.3c-0.4-0.2-0.7-0.4-1.1-0.7
	c0.2-2.6,0-5.1-0.7-7.7c2.4,2.2,5.8,3.5,9.3,3.5C406.7,164.5,404.1,166.2,399.6,167.3z M414.9,141.7c-4.4-1.1-2.9-6.7-0.7-10.6
	c1.3,2.7,2.4,5.7,2.7,8.8C416.2,140.6,415.4,141.2,414.9,141.7z M421.6,118.2c0.7,2.6,1.5,5.1,1.6,7.8
	C421.1,123.9,420,120.8,421.6,118.2z M420.9,136.4c-0.4-2-1.1-4-1.6-5.8c1.3,1.1,2.7,2,4.4,2.6c0,0.2,0,0.5,0,0.7
	C422.7,134.6,421.8,135.5,420.9,136.4z M428.9,127.7c-0.7-5.1-2-10.2-2.9-13.9c0.7-0.4,1.6-0.7,2.4-1.1c0.4,0.7,0.5,1.3,1.1,1.8
	c-0.9,4.2-0.2,8.6,2.4,12C430.9,127.3,430,127.7,428.9,127.7z M436.2,121.3c-0.2,0.4-0.4,0.9-0.5,1.3c-0.7-1.3-1.1-2.7-1.1-4.2
	c0.5,0.2,1.1,0.4,1.6,0.4C436.4,119.7,436.4,120.4,436.2,121.3z M437.5,102.5C437.3,102.5,437.3,102.7,437.5,102.5
	c-1.1-1.6-2.2-3.1-3.3-4.7c0.5-0.5,1.3-0.9,1.8-1.5c0,0.7,0,1.5,0.2,2.4C436.4,100.3,437,101.6,437.5,102.5L437.5,102.5z M449,98.1
	c-0.4-0.9-0.7-2-1.1-2.9c1.1,0,2.2,0,3.1,0c0.2,0,0.5,0,0.7,0C450.6,96.3,449.4,97.6,449,98.1z M461.6,91.9
	c-0.7-0.4-1.6-0.5-2.6-0.7c0.9-0.2,2-0.5,2.9-0.9C461.8,90.8,461.6,91.4,461.6,91.9z M458.3,85.9L458.3,85.9c1.3-0.9,2.6-2,3.6-3.5
	c1.3-1.6,1.8-3.3,2.6-5.1l0,0c-0.2,1.5,0,2.9,0.2,4.2C462.7,83.7,460.5,85.4,458.3,85.9z M485.7,84.5c-0.5-0.4-0.9-0.7-1.5-0.9
	c0.7-0.2,1.6-0.5,2.6-0.5C486.2,83.4,485.8,83.9,485.7,84.5z M488.9,68c0.7-0.2,1.3-0.4,2-0.4c0,0,0,0,0.2,0c0,0,0,0,0,0.2
	c-0.9,0.4-1.6,0.9-2.4,1.5C488.9,69,488.9,68.6,488.9,68z M493.5,78.8c-0.9-0.5-2-0.9-3.1-1.1c0.4-0.4,0.5-0.9,0.5-1.5
	c0.2-2.7,2-3.8,4.4-3.8c-0.2,1.8,0.5,3.6,2.7,5.5c0.7,0.5,1.5,1.1,2.2,1.3C498.1,78.4,495.7,78.4,493.5,78.8z M512.5,90.7
	c-0.4,0.2-0.7,0.4-1.1,0.5c0-0.5-0.2-1.1-0.4-1.8C516.1,89.4,516.5,89.9,512.5,90.7z M515.9,79.7c-0.2,0.2-0.4,0.5-0.4,0.7
	c-0.4-0.2-0.7-0.2-1.3-0.4c0.2-0.7,0.2-1.8,0-2.7v-0.2c0.5,0.2,1.3,0.2,1.8,0.4C515.9,78.3,515.9,79,515.9,79.7L515.9,79.7z
	 M520.1,92.5c0.2-1.1,0.2-2.2,0.2-3.1c0.5,0,1.1,0,1.6,0c0.2,0.2,0.4,0.5,0.5,0.7C521.6,90.7,520.9,91.6,520.1,92.5z M552.6,106.7
	c-0.9,1.1-1.8,2.6-2.4,4c-0.4,0-0.7-0.2-1.1-0.4c1.8-3.8,1.5-9.7-0.7-14c0.5-0.2,1.1-0.4,1.5-0.7c0.5,3.8,1.8,7.8,4.6,10.4
	C553.7,106,553,106.2,552.6,106.7z M561.2,129.7c-0.9-0.9-1.6-1.8-2.4-2.9c0.9,0,1.8-0.2,2.6-0.4
	C561.2,127.5,561.2,128.6,561.2,129.7z M567.4,126.2c0-1.6,0.2-3.3,0.2-5.1c1.5-2.6,1.8-5.7,0.5-8.6c-1.3-2.9-5.1-2.4-5.3,0.7
	c0,0.2,0,0.5-0.2,0.7c-2.7,1.3-4.9,2.2-6.2,2.4c2-2.7,2-5.7,0.5-8.8c0.2,0.2,0.5,0.2,0.7,0.4c3.5,1.3,7.1,0.9,9.7-1.1
	c2,2.9,4.2,4.6,4.7,9.1c0.4,2.9,0.5,5.8,0.7,8.8C571,124.8,569,125.3,567.4,126.2z M571.2,136.3c-0.4-0.4-0.7-0.7-1.3-0.9
	c-0.7-0.2-1.5-0.5-2-0.9c1.1-3.8,2.9-4.6,5.3-2.2c-0.4,1.1-0.5,2.4-0.5,3.6C572.1,136.1,571.6,136.3,571.2,136.3z M586.3,145.6
	c-2.2,2.4-4,3.3-5.3,2.6c3.1-1.5,4.9-4.2,3.3-8.2c-0.5-1.5-1.6-2.6-3.1-3.3c0.2-0.2,0.2-0.5,0.4-0.7c1.6-0.2,3.3-0.7,4.7-1.5
	c0.2,0.7-0.4,2-1.5,3.8c-1.1,1.5,0,3.6,1.6,4l0,0C586.3,143.4,586.3,144.5,586.3,145.6z"/>
<path fill="#9E523B" d="M419.3,91.6c-7.3,6.9-16.1,10.6-25.7,11.3c-2-0.7-4.4-0.5-6.6,0.5c-2.6,1.3-1.1,4.9,1.5,5.1
	c0.5,0,1.1,0,1.5,0c2,5.1,1.1,7.3-2.9,6.2c-2.6,0.2-4.7-0.4-6.9-2c-2-1.1-4-2.7-5.8-4c-1.8-1.5-18.6-13.9-17.7-14.6
	c2.9-2,0.2-6.7-2.7-4.7c-5.3,3.6-2,8.8,1.8,12.4c5.3,4.9,12.6,9.3,18.6,13.5c3.6,2.6,7.5,5.1,12,5.5c6.2,0.5,14.2-3.8,13.1-10.9
	c-0.2-0.5-0.2-1.3-0.4-1.8c9.1-1.6,17.3-5.8,24.4-12.4C425.6,93,421.8,89.2,419.3,91.6z"/>
<path fill="#9E523B" d="M407,116.9c-0.7,0.2-1.3,0.5-2,0.7c-2-0.2-3.8,0.5-5.3,2.2c-10.4,4.2-21.3,8.6-32.3,7.8
	c-2.2-1.3-5.1-1.8-8-0.9c-2.6,0.7-2.7,4.6,0,5.3c0.5,0.2,1.1,0.2,1.6,0.4c6,7.5,5.5,11.5-2.2,11.9c-2.9,0.2-5.7-0.5-8.2-2
	c-3.8-2-6.7-5.1-9.7-8c-2.6-2.6-6.4,1.5-3.8,3.8c8.2,8.2,24.1,18.4,33.6,5.8c2.6-3.5,2.6-7.5,1.3-10.8c9.1-0.5,17.9-3.6,26.4-6.9
	c0.4,1.1,0.7,2.2,0.9,3.5c1.6,10.4-10.4,6.6-15.7,3.6c-1.6-0.9-4.2,0.2-4.2,2.4c0.2,4.4,0.2,8.8,0,13c-1.5-0.7-3.5-0.4-3.6,1.6
	c-0.4,2.4-0.4,4.4,0.2,6.4c-0.7,1.5-2.2,2.6-4.6,3.3c-2.9,0.7-2.4,5.5,0.7,5.3l4.6-0.2c1.6,0,2.6-1.3,2.6-2.6c1.8,1.8,4.4,0,4.6-2
	c0.9-6.9,1.3-13.7,1.1-20.6c5.5,2.2,12,3.3,17,0.4c2.4-1.3,3.6-3.1,3.8-5.8c0.2-1.1,0-2-0.2-2.9c0-0.2-1.6-6.6-1.3-7.8
	c0.2,0,0.4-0.2,0.4-0.2l0,0c1.8,1.3,3.5,0,3.8-1.6C411.6,120.4,410.1,115.6,407,116.9z"/>
<path fill="#9E523B" d="M592.2,72.2c-2.2,12.2-14.8,13.9-25,13c0.5-6.7-3.8-14.2-11.5-10.8c-3.5,1.5-5.8,5.7-4.9,9.3
	c0.7,3.3,3.5,4.7,6.6,5.5c-0.5,1.1-1.6,1.6-3.3,1.5c-1.1,0.4-2.2,0.4-3.3,0.4c-6,0-11.3-2.7-15-7.5c-2.2-2.7-6,1.1-3.8,3.8
	c7.1,8.8,25.2,13.9,33.2,3.3c0-0.2,0.2-0.2,0.2-0.4c13.1,1.6,29.4-1.5,32.1-16.8C598.2,70.2,592.9,68.8,592.2,72.2z"/>
<path fill="#9E523B" d="M599.3,113.3c-3.1-0.4-6.9-1.3-8.9-3.8c-0.2-0.4-0.2-0.5-0.4-0.9c3.8-1.3,7.5-3.1,10.8-5.5
	c1.1-0.7,1.6-1.8,1.3-3.1c-2.6-8.8-14.6-9.7-18.4-1.3c-1.1,2.2-1.5,4.4-1.3,6.2c-6.6,1.3-13.3,0.9-20.2-1.1
	c-3.5-1.1-4.7,4.2-1.5,5.3c7.8,2.4,15.9,2.6,23.5,1.1c3.1,4.7,9.5,7.8,15.1,8.4C602.9,119.1,602.8,113.6,599.3,113.3z M595.6,100.1
	c-2.4,1.3-4.7,2.6-7.3,3.3C590.4,98.1,592.7,97,595.6,100.1z"/>
<path fill="#9E523B" d="M607.3,127c0.2-2.6-3.1-3.5-4.7-2c-2,1.8-3.5,4-4.7,6.2c-8.8,2.6-29.7-6-34.5-7.5c-3.5-1.1-4.7,4.2-1.5,5.3
	c6.9,2,22.8,9.3,33.7,8.6c-0.5,2.9-0.4,6,0.2,9.1c0.7,3.5,6,2,5.3-1.5c-0.7-3.3-0.5-6.4,0.5-9.3C604.8,134.6,607,131.7,607.3,127z"
	/>
<path fill="#9E523B" d="M488,64.9c-7.3,1.5-10.2,7.7-8.9,13.5c-3.3-0.9-6.7-1.3-10.4-0.2c-2.4,0.7-4.7,2-6.4,3.8
	c-1.5,1.6-3.1,8.8-5.1,3.3c-0.7-2.2-3.6-2.7-4.9-0.7c-5.8,8.6-16.6,12.6-23.2,20.8c-4,4.9-7.1,10.4-9.3,16.2c-1.5,0-2.9,0.9-3.1,2.6
	c-0.4,2.6-0.2,4.7,0.4,6.9c-1.5,10,2.2,24.6-4.6,32.3c-4.9,5.7-9.5,1.5-14.4,4.6c-1.3,0.7-4.9,7.8-4.9,7.8c-3.5-0.9-4.9,4.4-1.5,5.3
	c2.7,0.7,4.6,0.4,6.6-1.8c0.7-0.9,1.3-4,2-4.6c2.6-2.4,6.9-1.3,9.9-2.4c4.7-1.8,7.8-5.7,9.7-10.2c0.7,0,1.3-0.2,2-0.4
	c-0.2,3.3,0.2,6.6,0.4,9.9c0.2,2.2,0,4.6-0.7,6.7c-0.5,1.6-1.1,2.6-2.7,3.1c-0.7,0.2-5.7,0.7-3.8-2.6c1.8-3.1-2.9-5.8-4.7-2.7
	c-2.2,3.8-0.2,7.8,3.1,9.9c-0.5,0.4-1.1,0.7-1.3,1.5c-2.6,7.1,5.7,13.9,12.4,11.7c1.5-0.4,2.6-1.1,3.5-2c0.7,1.3,1.6,2.6,2.7,3.5
	c0.2,1.5,0.5,2.9,1.3,4.4c2.2,4.9,7.5,7.1,11.7,2.9c1.5-1.5,2.4-3.5,2.7-5.8c0.9-0.9,0.9-2.2,0.4-3.1c0.2-7.5-2.6-16.6-3.3-21.7
	c-0.2-1.6-1.6-2.6-2.9-2.6c0-0.7,0-1.5,0-2.4c0-0.4,0-0.7,0-1.1c0-5.5-0.5-10.9-2.7-16.1c-1.3-2.9-3.1-5.7-5.3-8.4
	c-0.2-0.5-0.5-1.1-0.7-1.5c0-1.6-0.4-3.5-0.5-5.1c0-4.2,0-8.6,0-12.8c0-3.1-4.6-3.8-5.3-0.7c-0.5,2.2-0.7,4.4-0.7,6.4
	c-0.5-0.9-0.9-1.8-1.3-2.6c1.1-5.8,3.1-11.3,6.7-17.1c6.2-9.5,16.8-14,23.9-22.1c1.6,2.4,3.8,4.2,6.7,3.6c1.6-0.4,2.2-1.6,3.3-2.6
	c0.4-0.9,0.7-2,0.7-3.1c2.7-2,5.5-4,8.2-6c3.8-0.9,9.3,2.6,12.4,4.2c3.1,1.6,5.8-3.1,2.7-4.7c-3.1-12.2-1.6-15.1,4.6-8.8
	c4.9,1.5,5.8,4.2,2.9,8.2c-1.8,3.1,2.9,5.8,4.7,2.7C505.9,75.3,499.9,62.6,488,64.9z M421.3,156c0.2-1.1,0.4-2.2,0.4-3.5
	c0.2-3.8,0.4-7.3,0.5-10.8c1.1,1.5,2.2,2.9,3.3,4.6c0,0.4,0.2,0.9,0.4,1.1C425.6,151.2,424.5,154.9,421.3,156z M423.3,193.5
	c-2.9,1.8-7.5-1.3-6.2-4.7c0.2-0.5,0.2-1.1,0-1.6c1.3,0,2.4,0,3.6-0.5c1.8-0.7,3.1-1.8,4-2.9c0,0.2,0.2,0.2,0.2,0.4
	C426.6,187,426.4,191.7,423.3,193.5z M429.7,181.3c-0.7-1.3-2-1.5-2.9-1.3c2-6.4-0.5-15,0.9-20.6c0.2-0.5,0.2-1.1,0-1.5
	c0.9-1.1,1.6-2.2,2.2-3.6c2.2,4.7,3.8,9.5,4.4,14c0.2,2,0.2,4,0.2,6c0,0.7,0,1.3-0.2,2c-0.5,4-2,8.2-2.9,12.4
	C431.3,186.1,430.7,183.5,429.7,181.3z M436.2,194.1c0.5,2,2.7,2.4,4,1.5c0.2,0.9,0.2,1.8-0.2,2.4c0,0.2-0.2,0.4-0.4,0.5
	c-1.3,0.2-2.6,0-3.8-0.5c-0.2-0.2-0.4-0.4-0.4-0.5c-0.7-1.5-0.7-3.6-0.2-6.2C435.7,192.1,435.9,193.2,436.2,194.1z"/>
<path fill="#9E523B" d="M611.3,175.7c-2.4,0.7-4.7,0.9-7.1,0.9c-1.3-0.2-2.4-0.5-3.5-0.9c1.8-4.2,1.6-8.9-1.6-13.1
	c-0.9-1.1-2.4-1.8-3.8-0.9c-4.9,3.5-6.2,9.5-2.7,14.6c0.2,0.2,0.4,0.5,0.5,0.7c-2.9,2.4-7.5,3.5-11.1,2.4
	c-8.4-2.4-15.5-10.9-14.2-19.9c0.5-3.5-4.7-4.9-5.3-1.5c-0.7,5.3,0.5,10.6,3.1,15c-0.9,0-1.6,0.4-2.4,1.3c-2,3.1-1.8,6.6-0.5,9.7
	c-0.5,0.5-0.9,1.1-1.3,1.8c-3.6,8.2,5.1,14,12.4,13.5c3.5-0.4,3.5-5.8,0-5.5c-2.7,0.2-6.2,0-7.3-2.7c-0.4-0.7-0.4-1.6,0-2.4
	c1.6,1.1,3.6,1.8,6,1.8c1.8,0,3.1-1.6,2.6-3.5c-0.7-3.8-4.2-5.7-7.5-5.3c-0.5-1.5-0.5-3.1,0.4-4.6c0-0.2,0.2-0.2,0.2-0.4
	c4.6,5.3,11.1,8.8,18.4,8.8c4.4,0,8.2-2,11.1-4.9c4.6,2.2,10.4,1.5,15.3,0.4C616.3,180.2,614.8,174.9,611.3,175.7z"/>
<path fill="#721D09" d="M613,139.5c-7.3-2.2-14.8-4.7-21-9.3c-3.3-2.4-6.2-5.5-7.7-9.3c-0.4-0.9-0.5-1.6-0.7-2.4c0.2,0,0.5,0,0.7,0
	c7.8,0,10.8-9.9,2.2-11.3c-2.7-0.5-4.7,0.2-6,1.3c-3.1-4.9-2.6-7.1-1.3-12.8c0.7-3.5-4.6-4.9-5.3-1.5c-1.6,6.9-2.2,18.1,4.2,22.4
	c0.2,3.6,1.3,7.3,2.7,9.5c6.4,10.6,19.5,15,30.6,18.4C615,145.9,616.3,140.6,613,139.5z"/>
<path fill="#721D09" d="M570.8,164c-1.1-13.5-15.1-22.4-15.5-35.9c0-2.6,0.4-5.1,1.1-7.7c1.6,1.3,4.7,0.7,4.4-2
	c-0.4-2.4-0.9-4.9-2-7.5c0.9-4.6,0.7-8.9-2.2-13c-2.4-3.3-5.8-4.9-9.3-4.7c-3.6-3.8-7.7-6.7-11.7-8.6c-4.7-2-10.4-2.7-15.1-0.7
	c-4.7,1.8-7.1,6.9-11.9,0.9c-0.7-0.9-1.3-2-1.6-3.3c2.2-4.7,1.3-10.6-4.7-13.9c-2-1.1-4.7,0.7-4,3.1c0.7,2.2,1.6,6,2.7,9.9
	c-2.2,1.6-5.5,2.6-7.7,2c-1.6-0.5-2.9-1.5-4-2.6c1.8,0.4,3.8,1.1,5.7,2.2c3.1,1.8,5.8-2.9,2.7-4.7c-3.6-2.2-7.5-3.1-11.5-3.1
	c-0.5-1.8-0.7-3.6-0.9-5.5c-0.2-6.4,3.3-12,3.6-18.2c0.4-5.3-2.9-9.3-8.4-7.8c-3.5,0.9-2,6.2,1.5,5.3c1.6-0.4-1.8,15.9-2,17.1
	c-0.4,3.1-0.2,6.4,0.5,9.5c-1.6,0.4-3.3,0.7-5.1,1.3c-2.7,0.9-5.3,1.8-7.8,2.9c-6.6-9.3-24.3-6.7-21.3,5.8c-1.8,0-3.6,0-5.5-0.2
	c-9.7-1.1-18.1-1.8-26.3,4.2c-4.4,3.3-8.4,7.5-12.6,11.3c-2.7,2.6-5.7,5.7-8.8,7.5c-5.1,2.9-22.1,4-15.9-9.9c1.5-3.1-3.3-6-4.7-2.7
	c-3.3,7.3-1.1,15.3,6.4,18.8c11.3,5.1,20.4-4,28.1-10.9c7.3-6.7,13.5-13.9,24.3-13.7c6.2,0,12.4,1.6,18.6,1.5
	c3.5,2.6,8.4,3.6,12.8,4.2c-0.4,0.4-0.9,0.7-1.5,1.1c-1.5,2.7-3.5,3.3-6.4,1.8c-1.1-0.2-2.2-0.4-3.5-0.4c-2-0.2-4,0-6.2,0.2
	c-4.7,0.7-9.3,2.4-13.1,5.1c-1.6,1.1-3.1,2.6-4.7,4c-0.7,0.7-1.3,1.3-2,2c2.4-6.4,5.8-11.7,13.5-11.1c3.5,0.4,3.5-5.3,0-5.5
	c-9.9-0.7-15.7,6.6-18.6,15.1c-0.7,2-1.3,4-2,6c-0.9,0.2-1.8,0.4-2.7,0.5c-1.3-0.7-2.4-2.4-3.1-5.1c1.3-3.3-4-4.7-5.3-1.5
	s-0.5,6.4,1.6,8.6c-9.3,3.6-17.3,9.7-23.5,17.7c-4.9-6.9-10.9-20.6-20.2-11.5c-2.6,2.6,1.3,6.4,3.8,3.8c4.9-4.9,11.9,11.5,14.6,14
	c1.3,1.3,3.3,0.9,4.4-0.5c6.7-10,16.6-17,27.9-20.1c0.2,0,0.4,0,0.4,0c-0.9,2.2-1.8,4.6-3.1,6.7c-1.3,2.4-14.4,21-17.9,16.1
	c-0.9-1.3-2.9-2-4.4-0.5c-2.7,2.9-2.4,5.5-3.8,8.9c-1.1,2.7,0.9,4.2-4,3.5c-6.2-0.9-10.9-11.5-8-16.4c1.8-3.1-2.9-5.8-4.7-2.7
	c-5.8,9.7,2.2,21.2,11.7,25c9.5,4,8.8-6.4,11.5-12.2c6.2,3.1,14.2-5.3,18.1-9.9c4.2-4.9,7.5-10.4,9.9-16.2c0.5-1.1,0.9-2.4,1.3-3.6
	c1.1-0.2,2.2-0.4,3.5-0.4c1.5-0.2,2.2-1.1,2.6-2.2c0.7,8.2,0.7,16.2-0.2,24.4c0,0,0,0.2,0,0.5c-0.7-2-2.2-3.5-4.4-4.2
	c-9.1-2.4-10.9,14.8-6.6,22.1c-2,2-4.2,3.8-6.6,5.3c-4.2,2.7-24.8,13.9-26.1,2.9c0-0.4,0-0.9,0-1.3c-0.2-3.5-5.3-3.5-5.5,0
	c0,0.9,0,1.6,0.2,2.4c0.2,4.4,0.4,8.8,0.5,13.3c0.2,3.5,5.7,3.5,5.5,0l-0.2-5.3c8.4,2.9,23.7-4,29.6-8c2.6-1.8,4.9-3.8,7.1-6.2
	c1.1,0.2,2.2,0.2,3.1,0c0,3.6,0,7.5,0,11.1c0,3.5,0.2,7.1,0,10.6c0,2-0.2,3.8-0.7,5.8c-1.1,4.9-2.2,4.4-3.5-1.5
	c1.6-3.1-3.1-5.8-4.7-2.7c-3.8,7.3,1.1,21,10,12.4c3.6-3.5,4.2-9.3,4.6-14c0.4-8.9,0.2-17.9,0.2-27c5.5-11.1,3.8-36.1,3.3-41
	c-0.4-3.1-4.7-3.5-5.5-0.9c0-0.4-0.2-0.5-0.4-0.9c1.8-1.6,3.5-3.5,5.1-4.7c6.9-5.7,14-6,22.4-5.1c3.1,0.4,6,0.7,8.8-1.1
	c2.4-1.6,4-4.6,4.9-7.7c6.4-1.1,11.3-5.5,10.9-12.6c0-0.5-0.2-1.1-0.5-1.5c0.7-0.2,1.6-0.4,2.4-0.5c2.6,4.6,6.7,8,12.2,8.6
	c3.1,0.4,5.8-0.5,8-2.2c2.4,5.3,5.7,9.3,11.1,8c2.2-0.5,3.5-2.4,5.3-3.3c7.8-4.2,13.7-3.1,20.2,2.7c0.5,0.5,1.1,0.9,1.6,1.5
	c-0.2,0.2-0.5,0.4-0.7,0.5c-2.7,2.2,1.1,6,3.8,3.8c0.2-0.2,0.5-0.4,0.7-0.5c3.1,3.6,6.2,7.7,8,12c0,0.9,0,1.6-0.2,2
	c-0.5,2.4-1.3,4.6-2,6.9c-0.9,3.8-1.5,7.7-0.7,11.5c2,10.8,11.7,18.1,14.2,28.5c3.5,14.4-10,16.2-13.1,27.7
	c-1.5,5.3,0,10.8,5.1,13.1c3.1,1.5,6-3.3,2.7-4.7c-10.2-4.7,5.8-16.2,8.4-20.1C570.1,172.6,571.2,168.4,570.8,164z M421.4,152.5
	c-0.7-1.8,0.7-7.1,1.5-8C424.7,141.6,422.7,148.7,421.4,152.5z M464.9,88.1c0,0.2,0,0.4,0,0.5c-1.6,0.2-3.3,0.2-4.9-0.4
	c1.6-0.5,3.1-1.3,4.7-2C464.9,86.8,464.9,87.6,464.9,88.1z M463.2,80.6c-0.7,0.4-1.6,0.5-2.4,0.9C461.8,80.3,462.7,79.9,463.2,80.6z
	 M470.3,86.5c0-0.9-0.2-1.6-0.4-2.4c1.6-0.7,3.3-1.5,4.9-2C473.4,83.9,472,85.4,470.3,86.5z"/>
<path fill="#7A3A2B" d="M592.4,160.2c-0.2-1.8-1.6-2.9-3.5-2.6c-3.1-1.1-6.2-2.2-9.3-3.3c-1.1-1.8-2.2-3.8-3.3-5.7
	c-0.9-2-1.3-4.4-1.6-6.6c-0.9-4-1.5-8.2-2.4-12.2c-2.2-9.9-4.9-19.5-8.2-29c-2-6-5.3-16.6-11.3-21.3c0.2-1.6-0.5-3.6-2.2-5.5
	c-3.8-4.6-9.7-2.6-11.9,1.5c-1.8-1.8-3.8-3.5-5.8-4.6c-2.9-3.6-3.6-9.3-7.3-12c-6.6-4.9-22.4,2.7-29,5.1c-4.6,1.6-13.9,7.8-18.6,5.7
	c-3.5-1.6-3.5-4.9-8-5.5c-6.4-0.7-11.3,4.6-11.7,10.4c-0.2,3.5,5.3,3.5,5.5,0c0.7-11.5,10.9,0,13.1,0.7c2.6,1.1,4.9,0.4,7.5-0.4
	c9.9-3.1,21.3-11.5,31.9-11.3c6.4,0.2,7.1,2.6,9.3,6.2c-0.9,0.4-2,0.7-3.1,1.5c-1.8,1.3-1.6,3.5,0,4.7c5.3,4,10.9,6.4,17.7,7.5
	c0.2,0,0.4,0,0.5,0c-3.1,0.4-2.9,5.3,0.5,5.5c2.4,0,4.7-0.7,6.7-1.8c1.1,0.2,2.2,0,3.3-0.4c1.1,1.1,2.2,2,2.6,2.7
	c1.6,2.6,2.7,6.6,3.8,9.5c1.5,4.2,2.9,8.4,4.2,12.8c2.9,9.5,5.1,19.2,6.9,29c2,10.6,6.7,22.3,18.2,22.3c0.5,7.1,0.7,14,0.4,21.2
	c-0.2,3.5,5.3,3.5,5.5,0C593.5,176.2,593.3,168.2,592.4,160.2z"/>
<path fill="#C163B0" d="M606.8,246.4c-3.5-0.5-6,1.8-8.4,4.2c-0.4,0.4-0.9,0.5-1.3,0.9c-4.9,4.2-12,8.9-17.7,14.6
	c-2.9,1.3-5.7,1.6-8.4,0.2c-2-2.7-4.4-5.3-6.9-7.8c-2-2.9-3.8-6-6-8.6c-4.4-5.1-9.1-9.9-14.6-14c-10-7.7-21.7-12.6-34.5-13.1
	c-28.8-1.3-60.6,11.5-84.1,27.5c-7.5,5.1-12.4,12.6-16.1,20.6c-1.5,0.9-2.6,2-3.5,4c-0.2,0.5-0.4,1.1-0.4,1.5
	c-0.4,0.4-0.7,0.7-1.1,1.1c-10.8-1.3-20.6-4.9-29.6-11.1c-0.7-0.5-2-0.5-2.7,0c-2.7,2-4.4,3.8-5.8,6.6l-0.2,0.2
	c-1.1,1.3-2,2.6-3.1,3.8c-0.9,1.1-1.1,2.7,0,3.8c10,9.7,21.5,17.3,34.1,23.2c0.4,2.4,0.7,4.7,1.1,6.9c-0.2,7.1,1.1,14,4,21
	c0.7,1.6,3.3,1.6,4.4,0.5c19.7-21.3,57.8-14.8,83.9-14.4c8.4,0.2,16.6,0.2,25,0.4c11.1,0.9,22.3,1.5,33.4,1.8c3.3,0,6.6,0,9.7-0.5
	c6.4,0.9,12.4,2.7,17.7,6.4c0.5,0.7,1.3,1.5,1.8,2.2c0.7,0.9,1.8,1.5,2.9,1.8l0.2,0.2c0.9,1.1,2.2,1.1,3.1,0.4c0.5,0,1.1,0,1.6-0.2
	l0,0c4.4-0.7,8.2-4,7.7-8.8c-1.5-11.3-3.8-23.2-4.2-34.5c0-1.6,0.4-3.1,1.1-4.7c4.6-4.2,9.1-8.4,13.7-12.6c3.6-1.8,7.3-4.2,9.1-7.8
	C615.3,257.4,613.9,247.5,606.8,246.4z"/>
<path fill="#E2C5DE" d="M385.3,273.4c-7.8,1.1-13.1,9.7-10.9,17.3c0.9,3.5,6.2,2,5.3-1.5c-1.5-4.9,2.2-9.9,7.1-10.6
	C390.3,278.2,388.8,272.9,385.3,273.4z"/>
<path fill="#E2C5DE" d="M398.6,279.1c-4.7,7.3-6,15.9-3.8,24.3c0.9,3.5,6.2,2,5.3-1.5c-1.8-7.1-0.7-14,3.3-20.1
	C405.2,278.9,400.5,276.2,398.6,279.1z"/>
<path fill="#E2C5DE" d="M436,243.3c-7.8,10.6-19,21.7-21.3,35.2c-2.4,13.9-0.5,29.4-0.5,43.4c0,3.5,5.5,3.5,5.5,0
	c0-13.3-1.3-27.4,0.2-40.7c1.6-13.5,13-24.6,20.8-35.2C443,243.3,438.2,240.6,436,243.3z"/>
<path fill="#E2C5DE" d="M467.8,228.9c-24.1,22.4-28.5,56-21,86.6c0.9,3.5,6.2,2,5.3-1.5c-7.1-29-3.1-60.4,19.5-81.4
	C474.2,230.4,470.3,226.6,467.8,228.9z"/>
<path fill="#E2C5DE" d="M496.4,226.4c1.8-3.1-2.9-5.8-4.7-2.7c-7.7,13.1-15.5,26.8-17.7,42.3c-2.4,16.2,2.9,32.5,2.2,48.7
	c-0.2,3.5,5.3,3.5,5.5,0c0.7-14.6-3.6-29-2.7-43.6C480,254.6,488.6,240.2,496.4,226.4z"/>
<path fill="#E2C5DE" d="M527.6,228.4c-6.7,14.2-16.1,27.9-21.9,42.7c-5.7,14.2-2,29.7-3.1,44.5c-0.2,3.5,5.3,3.5,5.5,0
	c0.9-15.1-2.7-31,3.8-45.2c6.2-13.3,14-25.9,20.2-39.2C533.8,228,529.3,225.3,527.6,228.4z"/>
<path fill="#E2C5DE" d="M546.9,241.5c-27.9,16.1-13.3,52.2-12.2,76.8c0.2,3.5,5.7,3.5,5.5,0c-1.1-22.4-15.9-57.6,9.5-72.1
	C552.8,244.4,550,239.7,546.9,241.5z"/>
<path fill="#E2C5DE" d="M565.2,263.8c-6.7,3.8-7.8,10.9-8,18.2c-0.4,12.4,0.9,24.8,3.3,36.8c0.7,3.5,6,2,5.3-1.5
	c-1.6-8.2-2.7-16.6-2.9-25c-0.2-6.9-2-19.7,5.3-23.9C571,266.9,568.3,262.1,565.2,263.8z"/>
<path fill="#E2C5DE" d="M589.1,323.8c-2.7-19.2-4-38.3-4-57.6c0-3.5-5.5-3.5-5.5,0c-0.2,19.7,1.3,39.4,4.2,58.9
	C584.3,328.7,589.6,327.2,589.1,323.8z"/>
<path fill="#E2C5DE" d="M599.8,250.3c-3.1,6.7-4,13.9-2.7,21.2c0.5,3.5,5.8,2,5.3-1.5c-0.9-5.8-0.2-11.7,2.2-17
	C606,249.9,601.3,247.2,599.8,250.3z"/>
<path fill="#1388A3" d="M484.6,131.3c-3.5,0-3.5,5.5,0,5.5C488,136.8,488,131.3,484.6,131.3z"/>
<path fill="#1388A3" d="M506.4,131.3c-1.8,0-1.8,5.5,0,5.5C510.1,136.8,510.1,131.3,506.4,131.3z"/>
<path fill="#1D75D6" d="M637.8,477.6c-5.5-0.4-10.9-0.9-16.1-2c-0.5-0.9-1.5-1.6-2.4-2.4c-1.8-1.3-3.6-2.6-5.5-3.6
	c-1.5-3.5-4.9-6.6-8.6-7.1c-11.3-1.5-21.9-6.4-31-13.3c-2.6-2.9-4.9-6.2-7.3-9.7c-6.7-10.4-19.7-28.1-14-40.7
	c4-2.7,7.7-5.5,10.9-9.5c4-4.7,7.1-10,9.3-15.9c3.8-3.5,7.8-6.9,11.7-10.2c4.7-4.2,2.7-11.3-1.8-14.4c-23.9-16.4-49.3-16.1-75-10.9
	c-2.9,0.2-6,0.2-8.9,0.4c-21.9,1.5-43.8,4.7-65.3,9.5c-8,0.7-15.9,1.6-23.9,3.1c-6.7,1.3-8.8,10.8-4,15.3c1.1,0.9,2.2,2,3.3,2.9
	c2.7,7.3,6.7,13.9,11.9,19.7c4.7,8.2,11.5,15.3,19.3,20.6c0,0.4,0,0.7,0,0.9c-0.9,2.7-4,5.3-5.8,7.5c-5.7,7.3-11.7,14.6-18.1,21.3
	c-12.8,13.3-26.8,21.9-43.6,29.4c-11.3,5.1-22.4,11.3-24.3,24.6c-0.2,1.5,1.5,2.7,2.7,2.7c1.5,0,3.1,0,4.6,0
	c1.5,1.1,3.1,1.6,5.5,1.3c2-0.2,4-0.5,6-0.9c35.8,1.6,71,8.9,104.7,21.5c1.8,0.7,4-1.5,3.3-3.3c-1.1-2.9-2.2-6-3.1-8.9
	c1.3-3.6,0.5-8-2.9-10.8c-4.2-17.5-5.5-35.4-3.6-53.4c0.5-4.6,0.4-13.7,2.9-17.7c1.5-2.2,4-3.3,6.9-4c2.9-0.2,6-0.4,8.9-0.9
	c2.9,0,5.7,0,7.7-0.2c12.2-0.9,24.3-1.6,36.5-2.6c6.2,16.4,9.3,33.6,8,51.1c-0.2,2-0.2,4-0.5,5.8c-4.2,9.9-11.9,18.1-22.1,22.6
	c-5.7,1.5-11.5,2.7-17.1,4.2c-9.9,2.4-8,18.8,2.4,17.9c6.4-0.5,12.4-2,17.9-4c10.2-2.6,20.6-4.9,30.8-7.5
	c15.3-2.9,30.5-6.7,45.6-10.9l23.3-5.7c1.6-0.4,3.1-1.3,4-2.2c5.8-1.6,11.5-3.3,17.1-4.7C641.6,482.1,640.9,477.7,637.8,477.6z"/>
<g>
	<g>
		<path fill="#1062AD" d="M1701.2,168.7c3.5,0,3.5-5.5,0-5.5S1697.8,168.7,1701.2,168.7L1701.2,168.7z"/>
	</g>
</g>
<g>
	<g>
		<path fill="#1D75D6" d="M419.8,505.8c-10.9,2.2-21.3-0.5-29.7-7.8c-0.7,1.6-1.3,3.1-2,4.7c12.6,0.2,24.4,2.9,35.9,8
			c0.2-1.6,0.4-3.3,0.7-4.9c-9.7,1.5-18.6,0.4-27.7-2.7c-0.2,1.8-0.5,3.6-0.7,5.3c5.5-0.2,10.8-0.2,16.2-0.4c3.5,0,3.5-5.3,0-5.5
			c-2.6-1.1-5.3-2.2-7.8-3.3c-0.7,1.6-1.3,3.1-2,4.7c12,0.9,23,4.2,34.1,8.8c7.8,3.3,15.3,6,23.9,5.1c2.4-0.4,4-3.6,1.5-5.1
			c-15-7.7-31.4-9.5-47.8-11.9c-19-2.7-37.9-5.5-56.9-8.2c-3.5-0.5-4.9,4.7-1.5,5.3c17.9,2.6,35.6,5.1,53.4,7.7
			c17,2.4,34.5,3.8,50,11.7c0.5-1.6,0.9-3.5,1.5-5.1c-10.8,1.3-19.7-4-29.4-7.7c-9.3-3.5-18.8-5.3-28.8-6.2c-2.4-0.2-3.6,3.1-2,4.7
			c3.6,3.5,6.7,4.7,11.7,4.9c0-1.8,0-3.6,0-5.5c-5.5,0.2-10.8,0.2-16.2,0.4c-3.1,0-3.6,4.4-0.7,5.3c10.2,3.5,20.1,4.2,30.6,2.7
			c2.2-0.4,2.7-4,0.7-4.9c-12.4-5.5-25.2-8.4-38.9-8.8c-2.2,0-3.8,3.1-2,4.7c10,8.6,22.3,11.9,35,9.3
			C424.7,510.4,423.3,505.1,419.8,505.8L419.8,505.8z"/>
	</g>
</g>
<g>
	<g>
		<path fill="#1D75D6" d="M533.8,511.8c28.5,2,56.2-7.1,78.3-25.2c2.7-2.2-1.1-6-3.8-3.8c-21,17.1-47.2,25.4-74.2,23.5
			C530.3,506.2,530.3,511.7,533.8,511.8L533.8,511.8z"/>
	</g>
</g>
<g>
	<g>
		<path fill="#1D75D6" d="M631,483.6c-46.7-9.1-85.2,27.7-131,28.1c0,1.8,0,3.6,0,5.5c37.4-2.7,73.7-11.7,107.8-26.8
			c-0.9-1.6-1.8-3.1-2.7-4.7c-19,11.1-39.4,19.3-60,27.2c-3.3,1.3-1.8,6.4,1.5,5.3c28.6-10,56.9-21.5,84.5-34.3
			c3.1-1.5,0.7-5.5-2.2-4.9c-19.3,3.3-38.1,9.7-55.3,19.5c-9.1,5.3-17.5,10.9-28.1,13c-10.9,2-22.4,0.9-33.6-0.2
			c-3.5-0.4-3.5,5.1,0,5.5c20.1,1.8,38.3,2,56-8.6c19.5-11.7,39.6-20.2,62.2-23.9c-0.7-1.6-1.5-3.3-2.2-4.9
			c-27.2,12.6-54.9,23.9-83,33.7c0.5,1.8,0.9,3.5,1.5,5.3c21-8.2,42-16.4,61.3-27.9c3.1-1.8,0.4-6.2-2.7-4.7
			c-33.4,14.8-68.8,23.5-105.1,26.1c-3.5,0.2-3.6,5.5,0,5.5c45.1-0.4,83.9-37.2,129.5-28.3C633,489.4,634.5,484.1,631,483.6
			L631,483.6z"/>
	</g>
</g>
</svg>
