<?xml version="1.0" encoding="utf-8"?>
<!-- Generator: Adobe Illustrator 16.0.0, SVG Export Plug-In . SVG Version: 6.00 Build 0)  -->
<!DOCTYPE svg PUBLIC "-//W3C//DTD SVG 1.1//EN" "http://www.w3.org/Graphics/SVG/1.1/DTD/svg11.dtd">
<svg version="1.1" id="Lager_1" xmlns="http://www.w3.org/2000/svg" xmlns:xlink="http://www.w3.org/1999/xlink" x="0px" y="0px"
	 width="984px" height="549px" viewBox="-276.5 -48.5 984 549" enable-background="new -276.5 -48.5 984 549" xml:space="preserve">
<linearGradient id="SVGID_1_" gradientUnits="userSpaceOnUse" x1="-465.7227" y1="35.7637" x2="1129" y2="35.7637" gradientTransform="matrix(0.625 0 0 -0.625 2.6875 379.8125)">
	<stop  offset="0" style="stop-color:#FFFFFF"/>
	<stop  offset="0.0073" style="stop-color:#F9F9F9"/>
	<stop  offset="0.0591" style="stop-color:#D5D5D5"/>
	<stop  offset="0.1173" style="stop-color:#B5B5B5"/>
	<stop  offset="0.1816" style="stop-color:#999999"/>
	<stop  offset="0.2543" style="stop-color:#838383"/>
	<stop  offset="0.3391" style="stop-color:#727272"/>
	<stop  offset="0.4441" style="stop-color:#676767"/>
	<stop  offset="0.5913" style="stop-color:#606060"/>
	<stop  offset="1" style="stop-color:#5E5E5E"/>
</linearGradient>
<path fill="url(#SVGID_1_)" d="M708.312,500.825h-996.702c0,0,0-63.528,0-99.771c0-7.276,0-13.434,0-17.771
	c0.831-4.758,10.174-11.824,0-6.927c10.174-4.897,27.617-10.494,5.814,0c24.398-10.494,46.513-15.042,16.819,0
	c29.693-15.042,28.966-181.07,27.202-160.5c1.765-20.57,6.956,147.067,34.988,160.57c-28.032-13.503-8.929-11.964,11.628,0
	c-20.558-11.964-4.88-9.655,12.251,0c-17.027-9.655-0.312-2.658,22.841-3.148c-15.054-0.63,12.147-1.05,3.322,3.148
	c-2.18-0.84,1.142-10.425,6.749-22.948c2.803-6.228,16.923-18.121,9.655-20.221c12.355-8.046,29.59-20.64,10.486-20.22
	c20.454-2.938,28.655-15.112,8.929-15.812c20.453-0.63,27.513-6.157,4.879-6.997c22.841,0.7,23.672,1.399,1.973,3.848
	c21.699-1.959,12.77,7.556-1.454,13.433c14.224-5.317,9.344,9.865-3.634,18.961c12.771-8.187,6.541,9.306-4.256,20.5
	c9.137-3.079-2.699,12.873-3.634,17.98s-1.454,9.166-1.454,11.475c0.104-6.856,0.935-9.935,2.803-10.704
	c1.869-0.771,4.879,0.699,9.24,2.938c2.181,1.119,21.076-0.07,19.934,2.729c15.574-0.49,14.847,2.868-1.869,5.037
	c10.382-0.77,33.224-14.833,12.147-8.186c22.114-8.116,7.372-26.377,6.125-14.833c1.246-11.964-15.366-23.648,0-16.372
	c-15.47-7.416-22.945-19.03-6.125-12.943c-17.027-6.297-17.858-13.993-12.251-4.478c-5.607-9.586-4.257-1.47,13.912,3.918
	c-17.961-5.248-9.24,7.137,8.721,11.894c-17.857-4.478-2.907,5.737,3.218,15.393c-6.125-9.515,9.24,2.519-2.387,14.553
	c11.524-11.894,16.819,3.148-8.306,9.376c25.852-6.577,22.737-20.011,16.3-7.207c6.437-12.804,11.42-4.338,0.311,8.815
	c11.005-13.083,4.257-23.578,0.624-11.124c3.53-12.523-12.251-23.788,0-17.911c-12.251-6.087-20.454-13.993-0.208-20.29
	c-20.246,4.128-13.601-25.327,0-18.191c-13.393-11.404-10.798-25.537,0.831-11.754c-11.524-14.273-11.005-14.553,2.076-0.839
	c-13.185-13.713-13.705-13.293-1.972,0.979c-11.732-13.783-13.29,1.33-0.104,12.104c-13.186-5.737-17.546,23.368,1.869,18.541
	c-18.999,7.416-10.07,16.162,3.945,20.359c-14.016-3.987-0.208,6.228,6.126,17.422c-6.333-11.194-1.765-2.449,8.409,9.935
	c-10.278-12.384-15.573-21.969-9.655-10.845c-5.918-11.054-15.573-18.4-1.558-14.202c-14.016-4.338-13.705-5.248,4.672-10.425
	c-17.961,4.827-9.863,7.346,9.032,0.35c-18.896,6.927-25.748,5.178-7.683,0.279c-18.376,5.317-16.3,7.837-1.039,11.404
	c-15.158-3.357-6.645,4.688,6.645,13.993c-13.29-9.305-8.41,3.079,15.47,8.116c-23.983-5.037-27.824-15.252-19.623-2.799
	c-8.202-12.384-8.618-13.293-5.191-0.21c-3.427-13.153-0.831-6.297,12.043,5.107c-12.875-11.404-15.054-17.351-7.268-4.897
	c-7.787-12.523-6.229-8.605,11.939,0.07c-18.065-8.676-9.552,0.909,16.612,1.05c-26.372-0.141-35.3-11.055-20.454-0.7
	c-14.847-10.354-12.77-3.358,7.683,4.478c-20.453-7.836-21.803-13.013-2.388-5.037c-19.208-7.906-0.104,0.909,20.349-0.63
	c-19.208,1.47-15.885-3.288-0.415-7.416c-15.782-1.189-6.957-10.075-1.039-17.281c-6.541-4.059-0.83-13.783-1.246-20.221
	c-0.415-6.437-0.83-12.243-1.038-16.161c-0.312-3.988-0.52-6.087-0.52-5.248c0-0.839,0.416,1.26,0.831,5.248
	c0.416,3.987,1.143,9.725,1.973,16.161c0.831,6.438-1.661,14.833,2.492,20.221c-2.907,6.927-5.918,14.133,2.491,17.281
	c-7.683,4.338-7.267,8.326,1.973,7.416c-7.891,1.05,2.18,0.84,5.918,1.68c1.869,0.839,6.229,2.099,10.901,3.428
	c-9.136-2.658-20.246-3.777-15.158-4.548c-7.164,0.561,0.83,1.399,6.125,5.178c-5.295-3.848-5.295-4.758-0.519-5.037
	c4.464-0.28,13.289,0,26.06-1.399c-21.491,0.909,4.36-4.618,10.278-5.457c-4.153,1.119-16.819,5.736-3.842,11.894
	c-12.978-6.227,5.71-13.923,7.995-16.302s6.956,4.617,8.202,1.05c4.879-13.573,12.666-46.667,16.508,15.252
	c-7.787-7.066-7.891-9.445-4.153-9.445s11.212,2.379,18.688,4.758c7.683,2.309,42.983,0.909,18.792,4.758
	c26.267-3.778,33.224-28.267,18.48-19.87c14.847-8.396,13.082,10.145,15.366,19.87c-2.18-9.726-2.076-8.886,9.033-0.35
	c-11.109-8.536-10.486-6.787,7.995,0.35c-18.273-7.207-11.524-54.573,15.47-54.434c-25.437-0.56-21.803,50.936,1.765,54.293
	c-22.633-3.357,12.147-8.955,15.573-9.725c3.323-0.77,4.361,1.679,1.558,9.725c7.787-16.161,15.574-15.532,17.131,0
	c-1.246-15.532,11.524-40.72,22.114-31.554c-10.59-9.166-0.312,25.257,15.677,27.566c-15.989-2.239-17.131-2.589-3.426,4.058
	c-13.705-6.576-0.312-3.988,22.737-6.157c-22.945,2.1-13.913,1.54,12.874-0.069c-25.852,2.028-23.879-33.443,1.973-29.596
	c-25.853-3.778,2.491,30.295,13.289,28.546c3.322-0.77,6.749-1.26,9.863-1.469c3.011-0.21,6.021-0.141,7.683,0.489
	c1.557,0.21,7.891-5.527,3.011-7.836c5.918-5.667,12.979-12.244,0.415-14.833c12.044-3.148,6.334-5.947-3.01-5.457
	c11.212-2.029,30.316-0.42,12.458-2.589c20.868,3.219,29.797,3.639,11.524,9.166c18.792-4.758,17.027,1.469,7.787,14.972
	c9.655-11.894,7.164,5.317,1.246,14.973c6.333-10.564,10.797-24.558,11.005-11.124c1.35-13.923,6.229-10.635,15.055,0.42
	c-7.476-10.425,8.098,0.21,7.06,10.704c1.245-9.095,0.312-12.663,3.427-6.156c-2.492-7.627-3.738-10.635,5.813-8.606
	c-9.032-2.729,0.831-3.288,8.93-9.235c-6.542,4.618,9.031,0.07,9.344-9.725c1.66,7.066-4.05,1.189-2.907-2.239
	c1.35,1.89,12.044-7.976,14.119-11.824c2.077-3.848,1.869-7.137,0.831-8.745c3.219,1.749,4.153-9.306,7.994-12.734
	c-3.219,1.89-3.945,4.269-5.606,2.169c1.35,2.31,3.427-1.539,10.901-3.358c-4.776,2.589-4.257,10.215,7.892,7.347
	c-5.296,2.868-8.411,6.577-7.995,9.445c0.416,2.938,5.71,6.717,12.978,4.968c-6.853,3.148-7.89,7.556-10.486,6.437
	c4.153,6.577,18.17,24.768,12.563,11.335c5.606,13.573,1.765,15.742-5.191,5.177c7.061,10.774,3.529,12.034,4.672,12.314
	c-1.143-0.28-1.661,0.14-1.246,7.486c-0.415-7.347-0.83-6.577-1.972,6.017c1.142-12.733,5.294-14.902,12.251-13.363
	c-6.853-1.539-0.728-3.568,13.081,0.35c-13.704-3.918-7.06-2.379,5.295,13.014c-12.251-15.393-10.07-17.911,11.213-12.523
	c-20.35-5.737-4.465-3.778,15.366,0c-15.989-1.749,1.35,5.107,2.804,12.594c-2.389-4.618,0-6.997,6.125-8.046
	c-2.284-2.938,3.529-4.059,6.333-5.178c3.322-2.449,14.328-1.609,11.005-0.7c8.306,2.659,18.272,7.696,4.673,13.924
	c14.017-5.107,21.075-10.635,6.125-16.512c18.065,0.699,22.842-15.253,11.629-13.714c14.535-4.268,19.726-24.138,12.562-6.366
	c7.683-17.842,8.098-7.276,8.928,5.667c-0.623-13.153-0.623-17.771,1.559-1.89c-1.974-15.182-1.974,16.232,4.463,16.582
	c-6.332,0.35-6.332,9.655,6.542,16.232c-12.667-6.647-10.175-7.066,11.108-6.157c-9.862-0.42-10.901,0.21-7.475,1.329
	c3.426,1.12,23.257-0.699,19.83,4.828c4.776-5.458,7.268-6.997-1.869-3.639c13.912-4.197,28.551-9.585,12.355-0.63
	c17.338-8.815,20.037-9.095,11.006,4.269c9.966-13.153,11.316-19.801,6.229-11.614c5.19-8.466,5.918-20.011,7.164-16.722
	c-1.039-3.709-0.208-11.614,6.853-8.187c-6.749-3.498-6.957,6.087,6.852,7.696c-13.394-0.77-12.874,10.495,6.541,16.092
	c-18.999-4.268-10.798,3.219,3.426,12.734c-12.459-10.075-8.098-10.915,9.553-7.836c-14.95-3.919,0,0.279,5.605,7.836
	c-3.114-7.557-0.726-9.586,5.191-8.746c-2.18,0,4.465,3.918,7.476,8.746c-0.312-4.828,1.038-5.527,3.115-4.688
	c2.075,0.839,4.775,3.288,7.06,4.688c0.83-2.869,5.295-0.141,7.475,0c1.869-0.141,3.53,0,4.568,0s1.558,0,1.558,0V500.825
	L708.312,500.825z"/>
<g>
	<line fill="none" x1="580.921" y1="189.409" x2="563.479" y2="200.534"/>
	<ellipse fill="none" cx="580.921" cy="189.409" rx="20.038" ry="13.573"/>
	<ellipse fill="none" cx="580.921" cy="189.409" rx="24.087" ry="16.232"/>
	<polyline fill="none" points="580.921,189.409 608.02,187.45 580.921,189.409 553.824,191.368 580.921,189.409 583.828,207.67 
		580.921,189.409 578.118,171.079 580.921,189.409 692.324,193.328 580.921,189.409 469.623,185.421 580.921,189.409 
		575.107,264.552 580.921,189.409 586.84,114.197 580.921,189.409 690.559,208.86 580.921,189.409 471.388,169.889 580.921,189.409 
		552.059,263.363 580.921,189.409 609.888,115.386 580.921,189.409 585.905,188.15 580.921,189.409 576.042,190.599 
		580.921,189.409 582.79,192.698 580.921,189.409 579.156,186.051 580.921,189.409 633.975,159.044 580.921,189.409 
		527.868,219.705 580.921,189.409 625.877,225.231 580.921,189.409 536.069,153.587 580.921,189.409 612.068,201.933 
		580.921,189.409 549.878,176.815 580.921,189.409 562.441,210.329 580.921,189.409 599.506,168.42 580.921,189.409 
		604.386,178.495 580.921,189.409 557.457,200.254 580.921,189.409 597.118,205.222 580.921,189.409 564.828,173.527 
		580.921,189.409 632.729,200.744 580.921,189.409 529.218,178.075 580.921,189.409 564.206,224.322 580.921,189.409 
		597.741,154.427 580.921,189.409 627.435,210.329 580.921,189.409 534.513,168.42 580.921,189.409 549.878,220.754 
		580.921,189.409 612.068,158.065 580.921,189.409 652.664,236.216 580.921,189.409 509.283,142.603 580.921,189.409 
		511.672,237.825 580.921,189.409 650.275,140.993 580.921,189.409 604.073,201.094 580.921,189.409 557.873,177.655 
		580.921,189.409 563.688,205.012 580.921,189.409 598.26,173.807 580.921,189.409 596.911,180.314 580.921,189.409 
		565.037,198.505 580.921,189.409 594.419,200.114 580.921,189.409 567.528,178.635 580.921,189.409 627.85,167.79 580.921,189.409 
		533.994,210.959 580.921,189.409 612.899,221.034 580.921,189.409 549.048,157.715 580.921,189.409 675.297,198.575 
		580.921,189.409 486.65,180.174 580.921,189.409 567.32,253.078 580.921,189.409 594.626,125.671 580.921,189.409 595.041,195.706 
		580.921,189.409 566.905,183.042 580.921,189.409 571.577,198.925 580.921,189.409 590.369,179.894 	"/>
	
		<radialGradient id="SVGID_2_" cx="-915.8887" cy="-664.8369" r="126.9639" gradientTransform="matrix(0.3795 0 0 -0.2562 928.476 19.0697)" gradientUnits="userSpaceOnUse">
		<stop  offset="0" style="stop-color:#230000"/>
		<stop  offset="0.73" style="stop-color:#93432A"/>
		<stop  offset="1" style="stop-color:#230000"/>
	</radialGradient>
	<ellipse opacity="0.15" fill="url(#SVGID_2_)" enable-background="new    " cx="580.921" cy="189.409" rx="48.174" ry="32.534"/>
	
		<radialGradient id="SVGID_3_" cx="-915.8887" cy="-664.7065" r="63.4623" gradientTransform="matrix(0.3795 0 0 -0.2562 928.476 19.0697)" gradientUnits="userSpaceOnUse">
		<stop  offset="0.15" style="stop-color:#FFFFFF"/>
		<stop  offset="0.2114" style="stop-color:#E2D1D2"/>
		<stop  offset="0.2918" style="stop-color:#BF9A9C"/>
		<stop  offset="0.3613" style="stop-color:#A67276"/>
		<stop  offset="0.4163" style="stop-color:#975A5E"/>
		<stop  offset="0.45" style="stop-color:#915155"/>
		<stop  offset="0.5553" style="stop-color:#6C3638"/>
		<stop  offset="0.6842" style="stop-color:#44191A"/>
		<stop  offset="0.787" style="stop-color:#2C0707"/>
		<stop  offset="0.85" style="stop-color:#230000"/>
		<stop  offset="0.8572" style="stop-color:#270201"/>
		<stop  offset="0.8647" style="stop-color:#340805"/>
		<stop  offset="0.8723" style="stop-color:#48120B"/>
		<stop  offset="0.88" style="stop-color:#652114"/>
		<stop  offset="0.8878" style="stop-color:#8B331F"/>
		<stop  offset="0.8955" style="stop-color:#B8492D"/>
		<stop  offset="0.9" style="stop-color:#D65836"/>
		<stop  offset="0.903" style="stop-color:#C95232"/>
		<stop  offset="0.9146" style="stop-color:#9D3C25"/>
		<stop  offset="0.9267" style="stop-color:#782A1A"/>
		<stop  offset="0.9392" style="stop-color:#591B10"/>
		<stop  offset="0.9523" style="stop-color:#410F09"/>
		<stop  offset="0.9661" style="stop-color:#300604"/>
		<stop  offset="0.9812" style="stop-color:#260201"/>
		<stop  offset="1" style="stop-color:#230000"/>
	</radialGradient>
	<ellipse opacity="0.5" fill="url(#SVGID_3_)" enable-background="new    " cx="580.921" cy="189.409" rx="24.087" ry="16.232"/>
	
		<radialGradient id="SVGID_4_" cx="-915.8867" cy="-664.7056" r="52.8915" gradientTransform="matrix(0.3795 0 0 -0.2562 928.476 19.0697)" gradientUnits="userSpaceOnUse">
		<stop  offset="0.15" style="stop-color:#FFFFFF"/>
		<stop  offset="0.2824" style="stop-color:#C2C2C2"/>
		<stop  offset="0.4253" style="stop-color:#888888"/>
		<stop  offset="0.5636" style="stop-color:#575757"/>
		<stop  offset="0.6936" style="stop-color:#313131"/>
		<stop  offset="0.8134" style="stop-color:#161616"/>
		<stop  offset="0.9192" style="stop-color:#060606"/>
		<stop  offset="1" style="stop-color:#000000"/>
	</radialGradient>
	<ellipse fill="url(#SVGID_4_)" cx="580.921" cy="189.409" rx="20.038" ry="13.573"/>
	
		<polyline opacity="0.03" fill="none" stroke="#FFFFFF" stroke-width="2" stroke-miterlimit="10" enable-background="new    " points="
		580.921,189.409 608.02,187.45 580.921,189.409 553.824,191.368 580.921,189.409 583.828,207.67 580.921,189.409 578.118,171.079 
		580.921,189.409 692.324,193.328 580.921,189.409 469.623,185.421 580.921,189.409 575.107,264.552 580.921,189.409 
		586.84,114.197 580.921,189.409 690.559,208.86 580.921,189.409 471.388,169.889 580.921,189.409 552.059,263.363 580.921,189.409 
		609.888,115.386 580.921,189.409 585.905,188.15 580.921,189.409 576.042,190.599 580.921,189.409 582.79,192.698 580.921,189.409 
		579.156,186.051 580.921,189.409 633.975,159.044 580.921,189.409 527.868,219.705 580.921,189.409 625.877,225.231 
		580.921,189.409 536.069,153.587 580.921,189.409 612.068,201.933 580.921,189.409 549.878,176.815 580.921,189.409 
		562.441,210.329 580.921,189.409 599.506,168.42 580.921,189.409 604.386,178.495 580.921,189.409 557.457,200.254 
		580.921,189.409 597.118,205.222 580.921,189.409 564.828,173.527 580.921,189.409 632.729,200.744 580.921,189.409 
		529.218,178.075 580.921,189.409 564.206,224.322 580.921,189.409 597.741,154.427 580.921,189.409 627.435,210.329 
		580.921,189.409 534.513,168.42 580.921,189.409 549.878,220.754 580.921,189.409 612.068,158.065 580.921,189.409 
		652.664,236.216 580.921,189.409 509.283,142.603 580.921,189.409 511.672,237.825 580.921,189.409 650.275,140.993 
		580.921,189.409 604.073,201.094 580.921,189.409 557.873,177.655 580.921,189.409 563.688,205.012 580.921,189.409 
		598.26,173.807 580.921,189.409 596.911,180.314 580.921,189.409 565.037,198.505 580.921,189.409 594.419,200.114 
		580.921,189.409 567.528,178.635 580.921,189.409 627.85,167.79 580.921,189.409 533.994,210.959 580.921,189.409 612.899,221.034 
		580.921,189.409 549.048,157.715 580.921,189.409 675.297,198.575 580.921,189.409 486.65,180.174 580.921,189.409 567.32,253.078 
		580.921,189.409 594.626,125.671 580.921,189.409 595.041,195.706 580.921,189.409 566.905,183.042 580.921,189.409 
		571.577,198.925 580.921,189.409 590.369,179.894 	"/>
</g>
<g>
	<line fill="none" x1="465.782" y1="187.031" x2="483.328" y2="213.408"/>
	<ellipse fill="none" cx="465.782" cy="187.031" rx="37.064" ry="23.858"/>
	<ellipse fill="none" cx="465.782" cy="187.031" rx="44.436" ry="28.616"/>
	<path fill="none" d="M465.782,187.031l-6.126,16.582L465.782,187.031l6.125-16.582L465.782,187.031l-25.749-3.918L465.782,187.031
		l25.747,3.918L465.782,187.031l119.812,111.175L465.782,187.031L345.97,75.855L465.782,187.031l-172.554,77.171L465.782,187.031
		l172.657-77.172L465.782,187.031c0,0-3.219,19.94-6.438,39.81c-1.037,6.647-2.18,13.293-3.114,19.17
		c-0.934,5.877-18.376,20.85-2.388,14.763c-16.508,9.655-23.567,12.804-0.935,5.877c-22.633,6.856-15.573,3.708,0.935-5.877
		c-15.988,6.087,1.454-8.885,2.388-14.763c0.935-5.877,2.077-12.523,3.114-19.17C462.563,206.971,465.782,187.031,465.782,187.031
		l12.874-79.691L465.782,187.031l-123.654-8.256L465.782,187.031l123.652,8.326L465.782,187.031c0,0-5.399,15.042-12.46,35.123
		c-2.388,6.717-4.982,13.923-7.579,21.339c-2.595,7.417-22.321,31.554-7.994,22.459c-14.535,9.655-14.846,9.865-7.579,21.339
		c-7.267-11.404-7.475,6.157-6.437,18.051c-2.181-8.536-3.011,13.714-4.465,12.454c0.623,3.358,0.935,9.025-1.66,4.618
		c2.595,4.407,2.283-1.33,1.66-4.618c1.454,1.26,2.181-20.99,4.465-12.454c-1.038-11.824-0.83-29.385,6.437-18.051
		c-7.267-11.475-6.852-11.754,7.579-21.339c-14.327,9.095,5.399-15.042,7.994-22.459c2.597-7.417,5.191-14.693,7.579-21.339
		C460.486,202.073,465.782,187.031,465.782,187.031L514.06,51.647L465.782,187.031l-210.139-31.065L465.782,187.031l210.137,31.064
		L465.782,187.031l8.72,8.885L465.782,187.031l-8.722-8.886L465.782,187.031l-13.81,5.597L465.782,187.031l13.809-5.597
		L465.782,187.031l10.382,17.981L465.782,187.031l-10.383-17.981L465.782,187.031l-27.929,6.716L465.782,187.031l27.928-6.717
		L465.782,187.031L599.401,288.97L465.782,187.031L332.161,85.161L465.782,187.031l-158.123,86.057L465.782,187.031l158.122-86.058
		L465.782,187.031l110.571,37.711L465.782,187.031L355.21,149.319L465.782,187.031c0,0-14.64,17.841-29.278,35.612
		c-4.88,5.947-9.76,11.894-14.12,17.142c-4.36,5.247-2.7,26.517-10.797,13.223c6.125,15.742,8.513,19.73-4.361,5.248
		c12.874,14.483,10.486,10.425,4.361-5.248c8.097,13.363,6.54-7.906,10.797-13.223s9.24-11.195,14.12-17.142
		C451.143,204.872,465.782,187.031,465.782,187.031l58.556-71.225L465.782,187.031l18.896,32.954L465.782,187.031l-18.896-32.954
		L465.782,187.031l-51.081,12.174L465.782,187.031l51.081-12.174L465.782,187.031l91.364,97.881L465.782,187.031l-91.365-97.882
		L465.782,187.031l-151.894,58.911L465.782,187.031l151.893-58.911L465.782,187.031l15.158,74.303L465.782,187.031l-15.055-74.233
		L465.782,187.031l-115.244,9.725L465.782,187.031l115.243-9.726L465.782,187.031l-1.246,3.218L465.782,187.031l1.245-3.219
		L465.782,187.031l-4.984-0.77L465.782,187.031l4.982,0.77L465.782,187.031l102.577,23.648L465.782,187.031l-102.577-23.648
		L465.782,187.031c0,0-13.186,23.788-23.776,42.819c-3.529,6.367-8.617,17.211-9.137,16.372c-3.737,8.676-8.201,22.599-3.841,6.857
		c-4.36,15.742,0.104,1.819,3.841-6.857c0.416,0.84,5.607-10.075,9.137-16.372C452.597,210.819,465.782,187.031,465.782,187.031
		l36.753-66.118L465.782,187.031l104.55,117.471L465.782,187.031L361.231,69.559L465.782,187.031l-182.418,67.376L465.782,187.031
		l182.417-67.377L465.782,187.031l49.522,116.283L465.782,187.031L416.259,70.748L465.782,187.031l-180.549,31.904L465.782,187.031
		l180.548-31.904"/>
	
		<radialGradient id="SVGID_5_" cx="315.4346" cy="434.8164" r="29.7622" gradientTransform="matrix(2.9872 0 0 -1.9246 -476.4838 1023.8832)" gradientUnits="userSpaceOnUse">
		<stop  offset="0" style="stop-color:#CF0000"/>
		<stop  offset="0.73" style="stop-color:#371993"/>
		<stop  offset="1" style="stop-color:#CF0000"/>
	</radialGradient>
	<ellipse opacity="0.15" fill="url(#SVGID_5_)" enable-background="new    " cx="465.782" cy="187.031" rx="88.872" ry="57.302"/>
	
		<radialGradient id="SVGID_6_" cx="315.4336" cy="434.8174" r="14.8721" gradientTransform="matrix(2.9872 0 0 -1.9246 -476.4838 1023.8832)" gradientUnits="userSpaceOnUse">
		<stop  offset="0.15" style="stop-color:#FFFFFF"/>
		<stop  offset="0.1838" style="stop-color:#F5E9E9"/>
		<stop  offset="0.2735" style="stop-color:#DDB2B5"/>
		<stop  offset="0.351" style="stop-color:#CC8A8F"/>
		<stop  offset="0.4124" style="stop-color:#C17278"/>
		<stop  offset="0.45" style="stop-color:#BD696F"/>
		<stop  offset="0.5573" style="stop-color:#C34549"/>
		<stop  offset="0.6853" style="stop-color:#CA1F21"/>
		<stop  offset="0.7874" style="stop-color:#CE0809"/>
		<stop  offset="0.85" style="stop-color:#CF0000"/>
		<stop  offset="0.8566" style="stop-color:#CE0104"/>
		<stop  offset="0.8634" style="stop-color:#CB0411"/>
		<stop  offset="0.8704" style="stop-color:#C50925"/>
		<stop  offset="0.8774" style="stop-color:#BD1142"/>
		<stop  offset="0.8845" style="stop-color:#B31A68"/>
		<stop  offset="0.8916" style="stop-color:#A72696"/>
		<stop  offset="0.8987" style="stop-color:#9933CB"/>
		<stop  offset="0.9" style="stop-color:#9636D6"/>
		<stop  offset="0.9099" style="stop-color:#A32AA6"/>
		<stop  offset="0.9207" style="stop-color:#AE1F7B"/>
		<stop  offset="0.9319" style="stop-color:#B81555"/>
		<stop  offset="0.9435" style="stop-color:#C10E36"/>
		<stop  offset="0.9557" style="stop-color:#C7081E"/>
		<stop  offset="0.9685" style="stop-color:#CB030D"/>
		<stop  offset="0.9825" style="stop-color:#CE0103"/>
		<stop  offset="1" style="stop-color:#CF0000"/>
	</radialGradient>
	<ellipse opacity="0.5" fill="url(#SVGID_6_)" enable-background="new    " cx="465.782" cy="187.031" rx="44.436" ry="28.616"/>
	
		<radialGradient id="SVGID_7_" cx="315.4336" cy="434.8164" r="12.4023" gradientTransform="matrix(2.9872 0 0 -1.9246 -476.4838 1023.8832)" gradientUnits="userSpaceOnUse">
		<stop  offset="0.15" style="stop-color:#FFFFFF"/>
		<stop  offset="0.2824" style="stop-color:#C2C2C2"/>
		<stop  offset="0.4253" style="stop-color:#888888"/>
		<stop  offset="0.5636" style="stop-color:#575757"/>
		<stop  offset="0.6936" style="stop-color:#313131"/>
		<stop  offset="0.8134" style="stop-color:#161616"/>
		<stop  offset="0.9192" style="stop-color:#060606"/>
		<stop  offset="1" style="stop-color:#000000"/>
	</radialGradient>
	<ellipse fill="url(#SVGID_7_)" cx="465.782" cy="187.031" rx="37.064" ry="23.858"/>
	<path opacity="0.03" fill="none" stroke="#FFFFFF" stroke-width="2" stroke-miterlimit="10" enable-background="new    " d="
		M465.782,187.031l-6.126,16.582L465.782,187.031l6.125-16.582L465.782,187.031l-25.749-3.918L465.782,187.031l25.747,3.918
		L465.782,187.031l119.812,111.175L465.782,187.031L345.97,75.855L465.782,187.031l-172.554,77.171L465.782,187.031l172.657-77.172
		L465.782,187.031c0,0-3.219,19.94-6.438,39.81c-1.037,6.647-2.18,13.293-3.114,19.17c-0.934,5.877-18.376,20.85-2.388,14.763
		c-16.508,9.655-23.567,12.804-0.935,5.877c-22.633,6.856-15.573,3.708,0.935-5.877c-15.988,6.087,1.454-8.885,2.388-14.763
		c0.935-5.877,2.077-12.523,3.114-19.17C462.563,206.971,465.782,187.031,465.782,187.031l12.874-79.691L465.782,187.031
		l-123.654-8.256L465.782,187.031l123.652,8.326L465.782,187.031c0,0-5.399,15.042-12.46,35.123
		c-2.388,6.717-4.982,13.923-7.579,21.339c-2.595,7.417-22.321,31.554-7.994,22.459c-14.535,9.655-14.846,9.865-7.579,21.339
		c-7.267-11.404-7.475,6.157-6.437,18.051c-2.181-8.536-3.011,13.714-4.465,12.454c0.623,3.358,0.935,9.025-1.66,4.618
		c2.595,4.407,2.283-1.33,1.66-4.618c1.454,1.26,2.181-20.99,4.465-12.454c-1.038-11.824-0.83-29.385,6.437-18.051
		c-7.267-11.475-6.852-11.754,7.579-21.339c-14.327,9.095,5.399-15.042,7.994-22.459c2.597-7.417,5.191-14.693,7.579-21.339
		C460.486,202.073,465.782,187.031,465.782,187.031L514.06,51.647L465.782,187.031l-210.139-31.065L465.782,187.031l210.137,31.064
		L465.782,187.031l8.72,8.885L465.782,187.031l-8.722-8.886L465.782,187.031l-13.81,5.597L465.782,187.031l13.809-5.597
		L465.782,187.031l10.382,17.981L465.782,187.031l-10.383-17.981L465.782,187.031l-27.929,6.716L465.782,187.031l27.928-6.717
		L465.782,187.031L599.401,288.97L465.782,187.031L332.161,85.161L465.782,187.031l-158.123,86.057L465.782,187.031l158.122-86.058
		L465.782,187.031l110.571,37.711L465.782,187.031L355.21,149.319L465.782,187.031c0,0-14.64,17.841-29.278,35.612
		c-4.88,5.947-9.76,11.894-14.12,17.142c-4.36,5.247-2.7,26.517-10.797,13.223c6.125,15.742,8.513,19.73-4.361,5.248
		c12.874,14.483,10.486,10.425,4.361-5.248c8.097,13.363,6.54-7.906,10.797-13.223s9.24-11.195,14.12-17.142
		C451.143,204.872,465.782,187.031,465.782,187.031l58.556-71.225L465.782,187.031l18.896,32.954L465.782,187.031l-18.896-32.954
		L465.782,187.031l-51.081,12.174L465.782,187.031l51.081-12.174L465.782,187.031l91.364,97.881L465.782,187.031l-91.365-97.882
		L465.782,187.031l-151.894,58.911L465.782,187.031l151.893-58.911L465.782,187.031l15.158,74.303L465.782,187.031l-15.055-74.233
		L465.782,187.031l-115.244,9.725L465.782,187.031l115.243-9.726L465.782,187.031l-1.246,3.218L465.782,187.031l1.245-3.219
		L465.782,187.031l-4.984-0.77L465.782,187.031l4.982,0.77L465.782,187.031l102.577,23.648L465.782,187.031l-102.577-23.648
		L465.782,187.031c0,0-13.186,23.788-23.776,42.819c-3.529,6.367-8.617,17.211-9.137,16.372c-3.737,8.676-8.201,22.599-3.841,6.857
		c-4.36,15.742,0.104,1.819,3.841-6.857c0.416,0.84,5.607-10.075,9.137-16.372C452.597,210.819,465.782,187.031,465.782,187.031
		l36.753-66.118L465.782,187.031l104.55,117.471L465.782,187.031L361.231,69.559L465.782,187.031l-182.418,67.376L465.782,187.031
		l182.417-67.377L465.782,187.031l49.522,116.283L465.782,187.031L416.259,70.748L465.782,187.031l-180.549,31.904L465.782,187.031
		l180.548-31.904"/>
</g>
<g>
	<line fill="none" x1="-188.304" y1="180.104" x2="-172.73" y2="203.402"/>
	<ellipse fill="none" cx="-188.304" cy="180.104" rx="32.808" ry="21.129"/>
	<ellipse fill="none" cx="-188.304" cy="180.104" rx="39.453" ry="25.397"/>
	<polyline fill="none" points="-188.304,180.104 -193.703,194.797 -188.304,180.104 -182.801,165.341 -188.304,180.104 
		-211.145,176.605 -188.304,180.104 -165.359,183.603 -188.304,180.104 -82.093,278.685 -188.304,180.104 -294.411,81.523 
		-188.304,180.104 -341.235,248.53 -188.304,180.104 -35.269,111.678 -188.304,180.104 -199.621,250.699 -188.304,180.104 
		-176.883,109.439 -188.304,180.104 -297.941,172.758 -188.304,180.104 -78.667,187.45 -188.304,180.104 -230.975,300.095 
		-188.304,180.104 -145.529,60.043 -188.304,180.104 -374.562,152.538 -188.304,180.104 -1.941,207.601 -188.304,180.104 
		-180.517,187.94 -188.304,180.104 -195.987,172.198 -188.304,180.104 -200.451,185.071 -188.304,180.104 -176.053,175.137 
		-188.304,180.104 -179.063,196.056 -188.304,180.104 -197.44,164.082 -188.304,180.104 -213.014,185.981 -188.304,180.104 
		-163.49,174.157 -188.304,180.104 -69.842,270.429 -188.304,180.104 -306.662,89.708 -188.304,180.104 -328.465,256.366 
		-188.304,180.104 -48.039,103.772 -188.304,180.104 -90.295,213.547 -188.304,180.104 -286.313,146.661 -188.304,180.104 
		-240.215,243.213 -188.304,180.104 -136.392,116.925 -188.304,180.104 -171.588,209.279 -188.304,180.104 -205.02,150.858 
		-188.304,180.104 -233.571,190.879 -188.304,180.104 -142.934,169.329 -188.304,180.104 -107.218,266.861 -188.304,180.104 
		-269.286,93.277 -188.304,180.104 -322.962,232.298 -188.304,180.104 -53.542,127.91 -188.304,180.104 -174.807,245.941 
		-188.304,180.104 -201.697,114.197 -188.304,180.104 -290.466,188.71 -188.304,180.104 -86.038,171.428 -188.304,180.104 
		-189.342,182.902 -188.304,180.104 -187.162,177.235 -188.304,180.104 -192.664,179.404 -188.304,180.104 -183.84,180.734 
		-188.304,180.104 -97.354,201.023 -188.304,180.104 -279.149,159.114 -188.304,180.104 -220.8,238.665 -188.304,180.104 
		-155.704,121.473 -188.304,180.104 -95.59,284.212 -188.304,180.104 -281.018,75.926 -188.304,180.104 -349.957,239.785 
		-188.304,180.104 -26.547,120.354 -188.304,180.104 -144.387,283.163 -188.304,180.104 -232.221,76.975 -188.304,180.104 
		-348.295,208.37 -188.304,180.104 -28.208,151.768 	"/>
	
		<radialGradient id="SVGID_8_" cx="96.4717" cy="438.416" r="26.3862" gradientTransform="matrix(2.9872 0 0 -1.9246 -476.4838 1023.8832)" gradientUnits="userSpaceOnUse">
		<stop  offset="0" style="stop-color:#60CE00"/>
		<stop  offset="0.73" style="stop-color:#113A04"/>
		<stop  offset="1" style="stop-color:#60CE00"/>
	</radialGradient>
	<ellipse opacity="0.15" fill="url(#SVGID_8_)" enable-background="new    " cx="-188.304" cy="180.104" rx="78.802" ry="50.795"/>
	
		<radialGradient id="SVGID_9_" cx="96.4712" cy="438.416" r="13.2019" gradientTransform="matrix(2.9872 0 0 -1.9246 -476.4838 1023.8832)" gradientUnits="userSpaceOnUse">
		<stop  offset="0.15" style="stop-color:#FFFFFF"/>
		<stop  offset="0.1838" style="stop-color:#ECE9F5"/>
		<stop  offset="0.2735" style="stop-color:#BCB2DD"/>
		<stop  offset="0.351" style="stop-color:#9A8ACB"/>
		<stop  offset="0.4124" style="stop-color:#8572C0"/>
		<stop  offset="0.45" style="stop-color:#7D69BC"/>
		<stop  offset="0.5495" style="stop-color:#748980"/>
		<stop  offset="0.6507" style="stop-color:#6BA749"/>
		<stop  offset="0.7382" style="stop-color:#65BC21"/>
		<stop  offset="0.8075" style="stop-color:#61C909"/>
		<stop  offset="0.85" style="stop-color:#60CE00"/>
		<stop  offset="0.8569" style="stop-color:#5FCA02"/>
		<stop  offset="0.8642" style="stop-color:#5CBD07"/>
		<stop  offset="0.8715" style="stop-color:#58A910"/>
		<stop  offset="0.8789" style="stop-color:#518C1D"/>
		<stop  offset="0.8864" style="stop-color:#49662D"/>
		<stop  offset="0.8938" style="stop-color:#3F3941"/>
		<stop  offset="0.9" style="stop-color:#350D54"/>
		<stop  offset="0.906" style="stop-color:#3B2848"/>
		<stop  offset="0.9172" style="stop-color:#455335"/>
		<stop  offset="0.9289" style="stop-color:#4D7925"/>
		<stop  offset="0.9411" style="stop-color:#549817"/>
		<stop  offset="0.9537" style="stop-color:#59B00D"/>
		<stop  offset="0.9671" style="stop-color:#5DC106"/>
		<stop  offset="0.9818" style="stop-color:#5FCB01"/>
		<stop  offset="1" style="stop-color:#60CE00"/>
	</radialGradient>
	<ellipse opacity="0.5" fill="url(#SVGID_9_)" enable-background="new    " cx="-188.304" cy="180.104" rx="39.453" ry="25.397"/>
	
		<radialGradient id="SVGID_10_" cx="96.4712" cy="438.416" r="11.0106" gradientTransform="matrix(2.9872 0 0 -1.9246 -476.4838 1023.8832)" gradientUnits="userSpaceOnUse">
		<stop  offset="0.15" style="stop-color:#FFFFFF"/>
		<stop  offset="0.2824" style="stop-color:#C2C2C2"/>
		<stop  offset="0.4253" style="stop-color:#888888"/>
		<stop  offset="0.5636" style="stop-color:#575757"/>
		<stop  offset="0.6936" style="stop-color:#313131"/>
		<stop  offset="0.8134" style="stop-color:#161616"/>
		<stop  offset="0.9192" style="stop-color:#060606"/>
		<stop  offset="1" style="stop-color:#000000"/>
	</radialGradient>
	<ellipse fill="url(#SVGID_10_)" cx="-188.304" cy="180.104" rx="32.808" ry="21.129"/>
	
		<polyline opacity="0.03" fill="none" stroke="#FFFFFF" stroke-width="2" stroke-miterlimit="10" enable-background="new    " points="
		-188.304,180.104 -193.703,194.797 -188.304,180.104 -182.801,165.341 -188.304,180.104 -211.145,176.605 -188.304,180.104 
		-165.359,183.603 -188.304,180.104 -82.093,278.685 -188.304,180.104 -294.411,81.523 -188.304,180.104 -341.235,248.53 
		-188.304,180.104 -35.269,111.678 -188.304,180.104 -199.621,250.699 -188.304,180.104 -176.883,109.439 -188.304,180.104 
		-297.941,172.758 -188.304,180.104 -78.667,187.45 -188.304,180.104 -230.975,300.095 -188.304,180.104 -145.529,60.043 
		-188.304,180.104 -374.562,152.538 -188.304,180.104 -1.941,207.601 -188.304,180.104 -180.517,187.94 -188.304,180.104 
		-195.987,172.198 -188.304,180.104 -200.451,185.071 -188.304,180.104 -176.053,175.137 -188.304,180.104 -179.063,196.056 
		-188.304,180.104 -197.44,164.082 -188.304,180.104 -213.014,185.981 -188.304,180.104 -163.49,174.157 -188.304,180.104 
		-69.842,270.429 -188.304,180.104 -306.662,89.708 -188.304,180.104 -328.465,256.366 -188.304,180.104 -48.039,103.772 
		-188.304,180.104 -90.295,213.547 -188.304,180.104 -286.313,146.661 -188.304,180.104 -240.215,243.213 -188.304,180.104 
		-136.392,116.925 -188.304,180.104 -171.588,209.279 -188.304,180.104 -205.02,150.858 -188.304,180.104 -233.571,190.879 
		-188.304,180.104 -142.934,169.329 -188.304,180.104 -107.218,266.861 -188.304,180.104 -269.286,93.277 -188.304,180.104 
		-322.962,232.298 -188.304,180.104 -53.542,127.91 -188.304,180.104 -174.807,245.941 -188.304,180.104 -201.697,114.197 
		-188.304,180.104 -290.466,188.71 -188.304,180.104 -86.038,171.428 -188.304,180.104 -189.342,182.902 -188.304,180.104 
		-187.162,177.235 -188.304,180.104 -192.664,179.404 -188.304,180.104 -183.84,180.734 -188.304,180.104 -97.354,201.023 
		-188.304,180.104 -279.149,159.114 -188.304,180.104 -220.8,238.665 -188.304,180.104 -155.704,121.473 -188.304,180.104 
		-95.59,284.212 -188.304,180.104 -281.018,75.926 -188.304,180.104 -349.957,239.785 -188.304,180.104 -26.547,120.354 
		-188.304,180.104 -144.387,283.163 -188.304,180.104 -232.221,76.975 -188.304,180.104 -348.295,208.37 -188.304,180.104 
		-28.208,151.768 	"/>
</g>
<g>
	<line fill="none" x1="-64.443" y1="175.836" x2="-48.351" y2="199.974"/>
	<ellipse fill="none" cx="-64.443" cy="175.836" rx="33.95" ry="21.899"/>
	<ellipse fill="none" cx="-64.443" cy="175.836" rx="40.803" ry="26.307"/>
	<polyline fill="none" points="-64.443,175.836 -70.049,191.088 -64.443,175.836 -58.836,160.583 -64.443,175.836 -88.115,172.268 
		-64.443,175.836 -40.771,179.474 -64.443,175.836 45.402,277.846 -64.443,175.836 -174.392,73.827 -64.443,175.836 
		-222.773,246.641 -64.443,175.836 93.888,105.031 -64.443,175.836 -76.279,248.95 -64.443,175.836 -52.607,102.792 
		-64.443,175.836 -177.922,168.28 -64.443,175.836 49.036,183.462 -64.443,175.836 -108.672,300.095 -64.443,175.836 
		-20.214,51.647 -64.443,175.836 -257.242,147.36 -64.443,175.836 128.356,204.382 -64.443,175.836 -56.449,184.022 
		-64.443,175.836 -72.438,167.72 -64.443,175.836 -77.109,181.014 -64.443,175.836 -51.88,170.729 -64.443,175.836 -54.891,192.348 
		-64.443,175.836 -73.995,159.324 -64.443,175.836 -90.087,181.993 -64.443,175.836 -38.798,169.749 -64.443,175.836 58.068,269.31 
		-64.443,175.836 -186.955,82.362 -64.443,175.836 -209.588,254.827 -64.443,175.836 80.598,96.915 -64.443,175.836 36.992,210.469 
		-64.443,175.836 -165.878,141.273 -64.443,175.836 -118.223,241.184 -64.443,175.836 -10.767,110.488 -64.443,175.836 
		-47.208,206.061 -64.443,175.836 -81.781,145.681 -64.443,175.836 -111.371,187.031 -64.443,175.836 -17.619,164.711 
		-64.443,175.836 19.342,265.672 -64.443,175.836 -148.332,86.07 -64.443,175.836 -203.773,229.85 -64.443,175.836 74.888,121.823 
		-64.443,175.836 -50.634,243.982 -64.443,175.836 -78.355,107.69 -64.443,175.836 -170.239,184.792 -64.443,175.836 
		41.249,166.951 -64.443,175.836 -65.585,178.774 -64.443,175.836 -63.405,172.897 -64.443,175.836 -69.011,175.137 
		-64.443,175.836 -59.875,176.536 -64.443,175.836 29.621,197.595 -64.443,175.836 -158.507,154.147 -64.443,175.836 
		-98.186,236.496 -64.443,175.836 -30.804,115.246 -64.443,175.836 31.49,283.653 -64.443,175.836 -160.375,68.089 -64.443,175.836 
		-231.806,237.686 -64.443,175.836 102.816,114.057 -64.443,175.836 -18.968,282.533 -64.443,175.836 -109.917,69.209 
		-64.443,175.836 -230.041,205.151 -64.443,175.836 101.155,146.591 	"/>
	
		<radialGradient id="SVGID_11_" cx="137.9355" cy="440.6328" r="27.3098" gradientTransform="matrix(2.9872 0 0 -1.9246 -476.4838 1023.8832)" gradientUnits="userSpaceOnUse">
		<stop  offset="0" style="stop-color:#004FCE"/>
		<stop  offset="0.73" style="stop-color:#1A7891"/>
		<stop  offset="1" style="stop-color:#004FCE"/>
	</radialGradient>
	<ellipse opacity="0.15" fill="url(#SVGID_11_)" enable-background="new    " cx="-64.443" cy="175.836" rx="81.605" ry="52.544"/>
	
		<radialGradient id="SVGID_12_" cx="137.9355" cy="440.6338" r="13.6462" gradientTransform="matrix(2.9872 0 0 -1.9246 -476.4838 1023.8832)" gradientUnits="userSpaceOnUse">
		<stop  offset="0.15" style="stop-color:#FFFFFF"/>
		<stop  offset="0.1838" style="stop-color:#E9F5F4"/>
		<stop  offset="0.2735" style="stop-color:#B2DDDB"/>
		<stop  offset="0.351" style="stop-color:#8ACBC8"/>
		<stop  offset="0.4124" style="stop-color:#72C0BC"/>
		<stop  offset="0.45" style="stop-color:#69BCB8"/>
		<stop  offset="0.5533" style="stop-color:#4698BF"/>
		<stop  offset="0.6831" style="stop-color:#2070C7"/>
		<stop  offset="0.7866" style="stop-color:#0958CC"/>
		<stop  offset="0.85" style="stop-color:#004FCE"/>
		<stop  offset="0.8585" style="stop-color:#0253CE"/>
		<stop  offset="0.8672" style="stop-color:#0760CF"/>
		<stop  offset="0.8761" style="stop-color:#1074CF"/>
		<stop  offset="0.8851" style="stop-color:#1C91D1"/>
		<stop  offset="0.8941" style="stop-color:#2BB6D2"/>
		<stop  offset="0.9" style="stop-color:#37D3D3"/>
		<stop  offset="0.9033" style="stop-color:#33C9D3"/>
		<stop  offset="0.9168" style="stop-color:#23A4D1"/>
		<stop  offset="0.931" style="stop-color:#1685D0"/>
		<stop  offset="0.9458" style="stop-color:#0D6DCF"/>
		<stop  offset="0.9615" style="stop-color:#065CCE"/>
		<stop  offset="0.9787" style="stop-color:#0152CE"/>
		<stop  offset="1" style="stop-color:#004FCE"/>
	</radialGradient>
	<ellipse opacity="0.5" fill="url(#SVGID_12_)" enable-background="new    " cx="-64.443" cy="175.836" rx="40.803" ry="26.307"/>
	
		<radialGradient id="SVGID_13_" cx="137.9355" cy="440.6328" r="11.3721" gradientTransform="matrix(2.9872 0 0 -1.9246 -476.4838 1023.8832)" gradientUnits="userSpaceOnUse">
		<stop  offset="0.15" style="stop-color:#FFFFFF"/>
		<stop  offset="0.2824" style="stop-color:#C2C2C2"/>
		<stop  offset="0.4253" style="stop-color:#888888"/>
		<stop  offset="0.5636" style="stop-color:#575757"/>
		<stop  offset="0.6936" style="stop-color:#313131"/>
		<stop  offset="0.8134" style="stop-color:#161616"/>
		<stop  offset="0.9192" style="stop-color:#060606"/>
		<stop  offset="1" style="stop-color:#000000"/>
	</radialGradient>
	<ellipse fill="url(#SVGID_13_)" cx="-64.443" cy="175.836" rx="33.95" ry="21.899"/>
	
		<polyline opacity="0.03" fill="none" stroke="#FFFFFF" stroke-width="2" stroke-miterlimit="10" enable-background="new    " points="
		-64.443,175.836 -70.049,191.088 -64.443,175.836 -58.836,160.583 -64.443,175.836 -88.115,172.268 -64.443,175.836 
		-40.771,179.474 -64.443,175.836 45.402,277.846 -64.443,175.836 -174.392,73.827 -64.443,175.836 -222.773,246.641 
		-64.443,175.836 93.888,105.031 -64.443,175.836 -76.279,248.95 -64.443,175.836 -52.607,102.792 -64.443,175.836 -177.922,168.28 
		-64.443,175.836 49.036,183.462 -64.443,175.836 -108.672,300.095 -64.443,175.836 -20.214,51.647 -64.443,175.836 
		-257.242,147.36 -64.443,175.836 128.356,204.382 -64.443,175.836 -56.449,184.022 -64.443,175.836 -72.438,167.72 
		-64.443,175.836 -77.109,181.014 -64.443,175.836 -51.88,170.729 -64.443,175.836 -54.891,192.348 -64.443,175.836 
		-73.995,159.324 -64.443,175.836 -90.087,181.993 -64.443,175.836 -38.798,169.749 -64.443,175.836 58.068,269.31 -64.443,175.836 
		-186.955,82.362 -64.443,175.836 -209.588,254.827 -64.443,175.836 80.598,96.915 -64.443,175.836 36.992,210.469 -64.443,175.836 
		-165.878,141.273 -64.443,175.836 -118.223,241.184 -64.443,175.836 -10.767,110.488 -64.443,175.836 -47.208,206.061 
		-64.443,175.836 -81.781,145.681 -64.443,175.836 -111.371,187.031 -64.443,175.836 -17.619,164.711 -64.443,175.836 
		19.342,265.672 -64.443,175.836 -148.332,86.07 -64.443,175.836 -203.773,229.85 -64.443,175.836 74.888,121.823 -64.443,175.836 
		-50.634,243.982 -64.443,175.836 -78.355,107.69 -64.443,175.836 -170.239,184.792 -64.443,175.836 41.249,166.951 
		-64.443,175.836 -65.585,178.774 -64.443,175.836 -63.405,172.897 -64.443,175.836 -69.011,175.137 -64.443,175.836 
		-59.875,176.536 -64.443,175.836 29.621,197.595 -64.443,175.836 -158.507,154.147 -64.443,175.836 -98.186,236.496 
		-64.443,175.836 -30.804,115.246 -64.443,175.836 31.49,283.653 -64.443,175.836 -160.375,68.089 -64.443,175.836 
		-231.806,237.686 -64.443,175.836 102.816,114.057 -64.443,175.836 -18.968,282.533 -64.443,175.836 -109.917,69.209 
		-64.443,175.836 -230.041,205.151 -64.443,175.836 101.155,146.591 	"/>
</g>
<g>
	<line fill="none" x1="203.732" y1="228.66" x2="106.139" y2="201.374"/>
	<ellipse fill="none" cx="203.732" cy="228.66" rx="88.042" ry="59.331"/>
	<ellipse fill="none" cx="203.732" cy="228.66" rx="105.693" ry="71.225"/>
	<path fill="none" d="M203.732,228.66l37.896,10.845L203.732,228.66l-37.896-10.845L203.732,228.66l-16.092,25.537L203.732,228.66
		l16.093-25.538L203.732,228.66l401.069-17.701L203.732,228.66c0,0-100.293,4.408-200.586,8.815
		c-12.562,0.56-25.021,1.12-37.375,1.679c-12.355,0.56-25.125,2.938-36.234,1.609c-11.006,2.309-23.153,1.049-33.847,1.469
		c-10.797,0.49-20.972,0.909-30.316,1.329c-37.584,1.679-62.709,2.799-62.709,2.799s25.022-1.12,62.709-2.799
		c9.448-0.42,19.623-0.839,30.316-1.329c10.797-0.49,22.841,0.839,33.847-1.469c11.109,1.329,23.879-1.05,36.234-1.609
		c12.354-0.56,24.917-1.12,37.375-1.679C103.439,233.068,203.732,228.66,203.732,228.66L230,498.937L203.732,228.66L177.465-41.616
		L203.732,228.66c0,0,69.042,21.689,144.73,45.407c9.447,2.938,31.977,3.638,28.552,8.956c17.026-1.049,31.666-4.338,28.446,8.956
		c8.202-11.754,14.432,6.787,27.617,8.676c-1.453,1.819,17.235,5.598,26.06,8.186c8.41,2.659,16.3,5.107,23.776,7.486
		c8.824,2.799,16.923,5.317,24.19,7.627c7.268,2.238,38.311-1.399,18.792,5.877c23.567-6.018,32.081-9.585,12.147,3.848
		c20.557-13.153,21.283-13.643,4.36,1.33c17.027-15.043,16.196-14.553-4.36-1.33c19.934-13.363,11.42-9.865-12.147-3.848
		c19.519-7.276-11.524-3.639-18.792-5.877c-7.268-2.239-15.366-4.828-24.19-7.627c-7.477-2.379-15.471-4.827-23.776-7.486
		c-8.824-2.588-27.617-6.437-26.06-8.186c-13.186-1.889-19.519-20.43-27.617-8.676c3.115-13.293-11.42-9.935-28.446-8.956
		c3.322-5.317-19.104-6.017-28.552-8.956C272.774,250.349,203.732,228.66,203.732,228.66l-338.878-106.348L203.732,228.66
		L45.921,457.027L203.732,228.66L361.543,0.293L203.732,228.66c0,0,60.529,28.686,119.708,56.812
		c8.514,3.988,16.923,8.046,25.125,11.895c4.672,2.239,10.486,5.667,15.678,6.717c4.672,3.148,7.786,7.136,11.523,6.156
		c3.115,4.269,13.186,5.808,20.143,7.767c4.359,3.078,7.579,4.897,3.841,3.638c4.88,1.819,9.655,3.358,12.252,5.038
		c2.491,1.679,4.152,3.219,6.852,3.988c-2.284-0.63-2.699,0.14-1.142,1.119c2.076,1.399,17.13,14.343,13.808,4.897
		c3.53,9.585-7.06,2.379-9.239-1.679c3.529,4.827,19.415,17.141,13.809,3.848c5.71,13.224-10.176,0.909-13.809-3.848
		c2.076,4.128,12.77,11.264,9.239,1.679c3.322,9.445-11.731-3.429-13.808-4.897c-1.558-0.979-1.143-1.749,1.142-1.119
		c-2.699-0.77-4.257-2.31-6.852-3.988c-2.492-1.68-7.269-3.288-12.252-5.038c3.738,1.26,0.519-0.56-3.841-3.638
		c-6.957-1.959-16.924-3.498-20.143-7.767c-3.737,0.979-6.747-3.008-11.523-6.156c-5.191-1.05-10.901-4.478-15.678-6.717
		c-8.202-3.918-16.716-7.906-25.125-11.895C264.261,257.346,203.732,228.66,203.732,228.66L-28.417,118.464L203.732,228.66
		L40.211,385.103L203.732,228.66L367.253,72.217L203.732,228.66l58.038,18.75L203.732,228.66l-58.037-18.751L203.732,228.66
		l-27.824,39.11L203.732,228.66l27.825-39.111L203.732,228.66l172.139-33.653L203.732,228.66L31.593,262.313L203.732,228.66
		l49.939,116.002L203.732,228.66l-49.939-116.003L203.732,228.66l163.625,2.239L203.732,228.66l-163.625-2.239L203.732,228.66
		l-3.322,110.266L203.732,228.66l3.323-110.266L203.732,228.66L634.909,69.559L203.732,228.66c0,0-107.768,39.74-215.537,79.551
		c-10.798,3.987-21.595,7.976-32.185,11.894c-12.355,5.667-50.146,7.276-31.562,11.685c-19.103-4.128-20.245-2.799-30.316,11.194
		c7.164-12.943-19.312,7.137-28.344,10.495c-9.032,3.358-17.649,6.507-25.748,9.515c-40.387,14.903-67.381,24.838-67.381,24.838
		s26.994-9.935,67.381-24.838c8.099-3.008,16.716-6.156,25.748-9.515c9.033-3.358,35.508-23.438,28.344-10.495
		c10.071-13.993,11.109-15.322,30.316-11.194c-18.584-4.338,19.208-5.947,31.562-11.685c10.694-3.918,21.491-7.906,32.185-11.894
		C95.964,268.4,203.732,228.66,203.732,228.66s28.967,35.612,66.551,81.859c5.398,6.576,10.901,13.434,16.611,20.43
		c5.71,6.997,19,14.203,17.338,21.27c11.732,4.968,16.301,12.664,17.65,21.689c8.825,3.568,11.836,14.553,17.65,21.689
		c5.814,7.206,11.628,14.343,17.338,21.27c45.371,55.762,83.059,102.289,83.059,102.289s-37.792-46.457-83.059-102.289
		c-5.71-6.997-11.421-14.063-17.338-21.27c-5.814-7.207-8.825-18.121-17.65-21.689c-1.35-9.025-5.918-16.792-17.65-21.689
		c1.766-7.066-11.628-14.343-17.338-21.27c-5.71-6.996-11.213-13.783-16.611-20.43C232.699,264.272,203.732,228.66,203.732,228.66
		L-32.361-61.906L203.732,228.66c0,0,65.824,33.513,131.751,67.027c4.673,2.378,9.552,5.177,14.121,7.136
		c4.774,2.868,8.929,9.795,13.911,7.066c2.492,6.507,11.006,9.445,22.219,9.025c0.83,5.248,4.672,6.997,4.672,4.618
		c1.973,3.428,15.054,3.848,18.688,5.947c3.529,2.099,6.645,9.095,5.917,6.576c1.247,2.729,4.776,5.038,4.465,0.42
		c5.606,7.767,23.049,23.089,16.715,10.354c6.542,12.874,7.062,13.014,2.7,0.91c4.568,12.244,5.295,12.034,13.809,7.486
		c-8.514,4.548-6.541,3.988,6.126,3.148c-12.771,0.84-10.694,0.35,4.567,2.309c-15.262-1.959-13.289-2.309,3.842,1.959
		c-17.027-4.268-19.104-3.918-3.842-1.959c-15.262-2.029-17.338-1.469-4.567-2.309c-12.771,0.84-14.64,1.399-6.126-3.148
		c-8.514,4.548-9.137,4.758-13.809-7.486c4.361,12.034,3.737,11.964-2.7-0.91c6.334,12.804-11.108-2.519-16.715-10.354
		c0.312,4.618-3.218,2.309-4.465-0.42c0.832,2.519-2.284-4.478-5.917-6.576c-3.635-2.1-16.716-2.52-18.688-5.947
		c0,2.379-3.842,0.63-4.672-4.618c-11.109,0.42-19.622-2.519-22.219-9.025c-4.982,2.729-9.239-4.198-13.911-7.066
		c-4.465-1.959-9.346-4.758-14.121-7.136C269.556,262.173,203.732,228.66,203.732,228.66L-59.667,94.676L203.732,228.66
		L4.911,406.162L203.732,228.66L402.554,51.158L203.732,228.66l298.596-61.15L203.732,228.66c0,0-113.063,23.158-200.067,40.93
		c-10.902,2.239-21.387,4.338-31.147,6.367c-14.327,1.469-42.671-0.629-27.098,5.527c-16.508-6.017-17.027-5.947-21.388,4.338
		c4.257-10.285,2.18-6.577-14.016,2.869c16.196-9.375,14.328-7.137-4.984,1.049c19.415-8.186,21.18-10.425,4.984-1.049
		c16.196-9.445,18.273-13.154,14.016-2.869c4.361-10.355,4.879-10.355,21.388-4.338c-15.677-6.157,12.771-4.058,27.098-5.527
		c9.76-2.029,20.245-4.128,31.147-6.367C90.668,251.818,203.732,228.66,203.732,228.66l90.742,201.221L203.732,228.66
		L112.991,27.439L203.732,228.66c0,0,59.595,33.653,123.031,69.476c4.567,2.589,9.863,6.297,13.601,7.696
		c4.984,3.568,11.109,14.553,13.601,7.696c3.011,10.075,7.579,14.133,21.077,9.025c-6.646,8.046-4.881,9.445,5.71,6.157
		c-7.892,4.338,16.508,3.218,22.218,5.177c3.011,2.31,9.033,19.24,3.114,9.166c6.437,10.425,16.301,12.453,10.486-0.28
		c8.306,14.763,18.17,19.94,12.459,13.294c5.813,6.716,8.098,6.297,7.371,2.378c0.831,3.849,4.153,2.939,12.147,8.606
		c-7.891-5.598,7.476-2.869,20.765,11.754c-10.59-13.083,0.623-2.729,7.683,4.338c-7.06-7.066-18.272-17.421-7.683-4.338
		c-13.289-14.553-28.655-17.352-20.765-11.754c-7.994-5.667-11.316-4.758-12.147-8.606c0.727,3.849-1.558,4.338-7.371-2.378
		c5.813,6.716-4.153,1.539-12.459-13.294c5.711,12.733-4.05,10.705-10.486,0.28c5.919,10.074-0.104-6.856-3.114-9.166
		c-5.71-1.889-30.109-0.839-22.218-5.177c-10.591,3.288-12.355,1.889-5.71-6.157c-13.498,5.107-18.066,1.05-21.077-9.025
		c-2.595,6.856-8.616-4.128-13.601-7.696c-3.737-1.399-9.137-5.178-13.601-7.696C263.327,262.313,203.732,228.66,203.732,228.66
		L-69.738,74.246L203.732,228.66c0,0-123.238,99.07-188.958,151.965C8.752,385.452,3.25,389.86-1.63,393.778
		c-4.983,3.918-10.59,6.646-12.667,10.215c-4.672,1.889-6.437,4.897-8.202,6.577c-2.076,1.329-2.907,2.379-2.907,2.379
		s0.831-0.979,2.907-2.379c1.765-1.68,3.53-4.688,8.202-6.577c2.076-3.568,7.787-6.297,12.667-10.215
		c4.879-3.918,10.382-8.326,16.404-13.153C80.494,327.73,203.732,228.66,203.732,228.66L432.869,44.371L203.732,228.66
		c0,0,53.262,29.665,115.763,64.508c8.929,4.968,20.349,13.923,27.305,15.183c5.192,5.877,8.93,15.393,14.432,7.557
		c-0.311,10.494,0.727,13.363,13.186,7.836c-8.617,7.486,4.257,5.107,16.093,4.897c-4.152,2.589,7.684,3.219,11.732,4.758
		c0.415,1.818,2.076,9.165-0.52,5.527c4.775,3.358,15.158,9.725,13.186,0.909c6.229,11.964,20.661,22.459,12.979,13.644
		c7.787,8.886,10.382,8.396,8.409,2.519c2.076,5.947,6.021,4.827,15.781,10.984c-9.76-6.087,13.081,4.338,26.371,14.692
		c-3.219-4.688,14.95,8.326,20.66,11.545c11.629,6.437,18.378,10.215,18.378,10.215s-6.749-3.778-18.378-10.215
		c-5.813-3.219-23.879-16.232-20.66-11.545c-13.394-10.354-36.131-20.85-26.371-14.692c-9.863-6.157-13.809-5.037-15.781-10.984
		c1.973,5.877-0.622,6.367-8.409-2.519c7.683,8.815-6.646-1.609-12.979-13.644c1.973,8.815-8.41,2.379-13.186-0.909
		c2.596,3.708,0.935-3.709,0.52-5.527c-4.049-1.539-15.781-2.169-11.732-4.758c-11.836,0.21-24.71,2.589-16.093-4.897
		c-12.562,5.527-13.601,2.658-13.186-7.836c-5.502,7.766-9.239-1.75-14.432-7.557c-6.852-1.329-18.376-10.215-27.305-15.183
		C256.994,258.325,203.732,228.66,203.732,228.66L-110.125,53.816L203.732,228.66c0,0-108.599,88.576-185.324,151.055
		c-6.956,5.668-13.705,11.125-20.038,16.303c-6.333,5.177-12.251,10.005-17.754,14.482s-10.486,8.536-14.95,12.174
		c-13.29,10.845-21.388,17.422-21.388,17.422s8.099-6.577,21.388-17.422c4.464-3.638,9.448-7.696,14.95-12.174
		s11.42-9.375,17.754-14.482c6.333-5.178,13.082-10.635,20.038-16.303C95.133,317.236,203.732,228.66,203.732,228.66L463.186,17.155
		L203.732,228.66c0,0,62.605,19.03,125.21,38.061c10.486,3.148,20.869,6.367,31.044,9.445c10.174,3.079,43.397-2.869,29.278,8.886
		c19.83-10.075,22.322-5.317,25.852,7.836c0.728-11.894,9.24,4.897,20.558,6.227c-3.322,1.119,7.371,3.778,13.601,4.128
		c-0.416,1.399,3.01,1.679,4.879,1.469c-1.869,0.21-5.295-0.069-4.879-1.469c-6.229-0.35-16.923-3.079-13.601-4.128
		c-11.317-1.33-19.83-18.121-20.558-6.227c-3.427-13.153-6.021-17.911-25.852-7.836c14.119-11.754-19.104-5.807-29.278-8.886
		c-10.175-3.079-20.558-6.227-31.044-9.445C266.337,247.69,203.732,228.66,203.732,228.66l-250.525-76.053L203.732,228.66
		L90.876,397.486L203.732,228.66L316.588,59.833L203.732,228.66c0,0,65.098,32.394,122.719,61.149
		c8.202,4.128,16.3,8.116,24.087,11.964c4.464,2.449,9.344,7.767,14.327,6.367c3.115,5.037,4.984,8.955,10.383,5.947
		c0.415,5.877,11.628,5.807,19.312,6.856c2.076,3.078,3.219,4.758,0.727,3.078c4.36,1.959,12.146,2.52,14.119,3.708
		c1.974,1.12,1.35,2.17-0.726,3.009c4.567-1.469,4.775-0.35,4.879,2.449c-0.104-2.799-0.312-3.918-4.879-2.449
		c2.075-0.839,2.699-1.889,0.726-3.009c-1.973-1.119-9.759-1.749-14.119-3.708c2.492,1.68,1.35,0-0.727-3.078
		c-7.684-1.05-18.896-0.979-19.312-6.856c-5.398,3.008-7.268-0.91-10.383-5.947c-4.983,1.399-9.967-3.918-14.327-6.367
		c-7.683-3.848-15.781-7.906-24.087-11.964C268.83,261.054,203.732,228.66,203.732,228.66L-6.198,124.132L203.732,228.66
		L48.621,370.13L203.732,228.66L358.844,87.19L203.732,228.66c0,0,56.272,38.061,105.173,71.155
		c6.956,4.757,18.064,13.083,20.35,13.783c9.136,7.486,22.944,21.27,18.272,12.384c5.814,9.655,7.164,10.006,9.032,6.087
		c-1.558,4.129-1.661,4.758,7.786,5.248c-9.239-0.35-8.409,1.609,9.346,3.638c-17.027-1.818-16.612,0.21,1.868,3.988
		c-18.273-3.568-9.032,0.28,8.409-0.14c-16.923,0.63-22.426,0.21-4.256,2.868c-18.17-2.658-12.667-2.238,4.256-2.868
		c-17.441,0.42-26.578-3.429-8.409,0.14c-18.48-3.778-18.896-5.737-1.868-3.988c-17.65-2.028-18.481-3.987-9.346-3.638
		c-9.447-0.56-9.344-1.119-7.786-5.248c-1.868,3.919-3.218,3.568-9.032-6.087c4.672,8.886-9.137-4.897-18.272-12.384
		c-2.285-0.699-13.29-9.025-20.35-13.783C260.004,266.721,203.732,228.66,203.732,228.66L27.856,109.649L203.732,228.66
		L27.129,347.182L203.732,228.66l176.604-118.521"/>
	
		<radialGradient id="SVGID_14_" cx="11.0498" cy="192.249" r="203.5249" gradientTransform="matrix(1.0382 0 0 -0.6997 192.3114 363.168)" gradientUnits="userSpaceOnUse">
		<stop  offset="0" style="stop-color:#EDDA2F"/>
		<stop  offset="0.73" style="stop-color:#91822A"/>
		<stop  offset="1" style="stop-color:#EDDA2F"/>
	</radialGradient>
	<path opacity="0.15" fill="url(#SVGID_14_)" enable-background="new    " d="M-7.548,228.66
		c0,78.641,94.583,142.379,211.28,142.379c25.021,0,49.005-2.938,71.223-8.325c7.371-1.819,14.638-3.849,21.699-6.157
		c7.267-2.379,37.583-10.005,20.349-7.696c21.596-4.198,33.639-10.425,18.896-9.096c15.157-1.539,17.961-3.638,17.234-10.425
		c1.35,6.367,2.283,4.479,7.994-5.667c-4.568,9.235,0.208,3.219,7.475-5.947c-4.359,6.856,4.88-1.959,9.863-6.437
		c0.312,0.56,4.776-4.198,3.738-6.297c4.568-1.609,9.76-6.437,12.667-10.145c2.907-3.708,3.426-6.367-1.247-3.568
		c12.355-9.725,20.661-26.237,9.137-14.623c11.524-11.824,11.732-12.314,6.749-15.393c4.983,3.079,4.775,1.33,4.152-16.022
		c0.831,15.812,1.454-10.984,1.454-16.582c0-5.598-0.52-11.195-1.454-16.582C401.411,141.203,312.124,86.28,203.732,86.28
		C87.035,86.28-7.548,150.019-7.548,228.66z"/>
	
		<radialGradient id="SVGID_15_" cx="11" cy="192.2485" r="101.8003" gradientTransform="matrix(1.0382 0 0 -0.6997 192.3114 363.168)" gradientUnits="userSpaceOnUse">
		<stop  offset="0.15" style="stop-color:#FFFFFF"/>
		<stop  offset="0.2114" style="stop-color:#E1D1D7"/>
		<stop  offset="0.2918" style="stop-color:#BD9AA8"/>
		<stop  offset="0.3613" style="stop-color:#A47286"/>
		<stop  offset="0.4163" style="stop-color:#945A71"/>
		<stop  offset="0.45" style="stop-color:#8E5169"/>
		<stop  offset="0.4706" style="stop-color:#955B65"/>
		<stop  offset="0.5985" style="stop-color:#BA914E"/>
		<stop  offset="0.7089" style="stop-color:#D6B93D"/>
		<stop  offset="0.7964" style="stop-color:#E7D133"/>
		<stop  offset="0.85" style="stop-color:#EDDA2F"/>
		<stop  offset="0.8672" style="stop-color:#EAD630"/>
		<stop  offset="0.8851" style="stop-color:#E0C933"/>
		<stop  offset="0.9" style="stop-color:#D3B937"/>
		<stop  offset="0.9038" style="stop-color:#D5BC36"/>
		<stop  offset="0.9316" style="stop-color:#E3CD32"/>
		<stop  offset="0.9621" style="stop-color:#EAD730"/>
		<stop  offset="1" style="stop-color:#EDDA2F"/>
	</radialGradient>
	<ellipse opacity="0.5" fill="url(#SVGID_15_)" enable-background="new    " cx="203.732" cy="228.66" rx="105.693" ry="71.225"/>
	
		<radialGradient id="SVGID_16_" cx="10.9995" cy="192.2485" r="84.8003" gradientTransform="matrix(1.0382 0 0 -0.6997 192.3114 363.168)" gradientUnits="userSpaceOnUse">
		<stop  offset="0.15" style="stop-color:#FFFFFF"/>
		<stop  offset="0.2824" style="stop-color:#C2C2C2"/>
		<stop  offset="0.4253" style="stop-color:#888888"/>
		<stop  offset="0.5636" style="stop-color:#575757"/>
		<stop  offset="0.6936" style="stop-color:#313131"/>
		<stop  offset="0.8134" style="stop-color:#161616"/>
		<stop  offset="0.9192" style="stop-color:#060606"/>
		<stop  offset="1" style="stop-color:#000000"/>
	</radialGradient>
	<ellipse fill="url(#SVGID_16_)" cx="203.732" cy="228.66" rx="88.042" ry="59.331"/>
	<path opacity="0.03" fill="none" stroke="#FFFFFF" stroke-width="2" stroke-miterlimit="10" enable-background="new    " d="
		M203.732,228.66l37.896,10.845L203.732,228.66l-37.896-10.845L203.732,228.66l-16.092,25.537L203.732,228.66l16.093-25.538
		L203.732,228.66l401.069-17.701L203.732,228.66c0,0-100.293,4.408-200.586,8.815c-12.562,0.56-25.021,1.12-37.375,1.679
		c-12.355,0.56-25.125,2.938-36.234,1.609c-11.006,2.309-23.153,1.049-33.847,1.469c-10.797,0.49-20.972,0.909-30.316,1.329
		c-37.584,1.679-62.709,2.799-62.709,2.799s25.022-1.12,62.709-2.799c9.448-0.42,19.623-0.839,30.316-1.329
		c10.797-0.49,22.841,0.839,33.847-1.469c11.109,1.329,23.879-1.05,36.234-1.609c12.354-0.56,24.917-1.12,37.375-1.679
		C103.439,233.068,203.732,228.66,203.732,228.66L230,498.937L203.732,228.66L177.465-41.616L203.732,228.66
		c0,0,69.042,21.689,144.73,45.407c9.447,2.938,31.977,3.638,28.552,8.956c17.026-1.049,31.666-4.338,28.446,8.956
		c8.202-11.754,14.432,6.787,27.617,8.676c-1.453,1.819,17.235,5.598,26.06,8.186c8.41,2.659,16.3,5.107,23.776,7.486
		c8.824,2.799,16.923,5.317,24.19,7.627c7.268,2.238,38.311-1.399,18.792,5.877c23.567-6.018,32.081-9.585,12.147,3.848
		c20.557-13.153,21.283-13.643,4.36,1.33c17.027-15.043,16.196-14.553-4.36-1.33c19.934-13.363,11.42-9.865-12.147-3.848
		c19.519-7.276-11.524-3.639-18.792-5.877c-7.268-2.239-15.366-4.828-24.19-7.627c-7.477-2.379-15.471-4.827-23.776-7.486
		c-8.824-2.588-27.617-6.437-26.06-8.186c-13.186-1.889-19.519-20.43-27.617-8.676c3.115-13.293-11.42-9.935-28.446-8.956
		c3.322-5.317-19.104-6.017-28.552-8.956C272.774,250.349,203.732,228.66,203.732,228.66l-338.878-106.348L203.732,228.66
		L45.921,457.027L203.732,228.66L361.543,0.293L203.732,228.66c0,0,60.529,28.686,119.708,56.812
		c8.514,3.988,16.923,8.046,25.125,11.895c4.672,2.239,10.486,5.667,15.678,6.717c4.672,3.148,7.786,7.136,11.523,6.156
		c3.115,4.269,13.186,5.808,20.143,7.767c4.359,3.078,7.579,4.897,3.841,3.638c4.88,1.819,9.655,3.358,12.252,5.038
		c2.491,1.679,4.152,3.219,6.852,3.988c-2.284-0.63-2.699,0.14-1.142,1.119c2.076,1.399,17.13,14.343,13.808,4.897
		c3.53,9.585-7.06,2.379-9.239-1.679c3.529,4.827,19.415,17.141,13.809,3.848c5.71,13.224-10.176,0.909-13.809-3.848
		c2.076,4.128,12.77,11.264,9.239,1.679c3.322,9.445-11.731-3.429-13.808-4.897c-1.558-0.979-1.143-1.749,1.142-1.119
		c-2.699-0.77-4.257-2.31-6.852-3.988c-2.492-1.68-7.269-3.288-12.252-5.038c3.738,1.26,0.519-0.56-3.841-3.638
		c-6.957-1.959-16.924-3.498-20.143-7.767c-3.737,0.979-6.747-3.008-11.523-6.156c-5.191-1.05-10.901-4.478-15.678-6.717
		c-8.202-3.918-16.716-7.906-25.125-11.895C264.261,257.346,203.732,228.66,203.732,228.66L-28.417,118.464L203.732,228.66
		L40.211,385.103L203.732,228.66L367.253,72.217L203.732,228.66l58.038,18.75L203.732,228.66l-58.037-18.751L203.732,228.66
		l-27.824,39.11L203.732,228.66l27.825-39.111L203.732,228.66l172.139-33.653L203.732,228.66L31.593,262.313L203.732,228.66
		l49.939,116.002L203.732,228.66l-49.939-116.003L203.732,228.66l163.625,2.239L203.732,228.66l-163.625-2.239L203.732,228.66
		l-3.322,110.266L203.732,228.66l3.323-110.266L203.732,228.66L634.909,69.559L203.732,228.66c0,0-107.768,39.74-215.537,79.551
		c-10.798,3.987-21.595,7.976-32.185,11.894c-12.355,5.667-50.146,7.276-31.562,11.685c-19.103-4.128-20.245-2.799-30.316,11.194
		c7.164-12.943-19.312,7.137-28.344,10.495c-9.032,3.358-17.649,6.507-25.748,9.515c-40.387,14.903-67.381,24.838-67.381,24.838
		s26.994-9.935,67.381-24.838c8.099-3.008,16.716-6.156,25.748-9.515c9.033-3.358,35.508-23.438,28.344-10.495
		c10.071-13.993,11.109-15.322,30.316-11.194c-18.584-4.338,19.208-5.947,31.562-11.685c10.694-3.918,21.491-7.906,32.185-11.894
		C95.964,268.4,203.732,228.66,203.732,228.66s28.967,35.612,66.551,81.859c5.398,6.576,10.901,13.434,16.611,20.43
		c5.71,6.997,19,14.203,17.338,21.27c11.732,4.968,16.301,12.664,17.65,21.689c8.825,3.568,11.836,14.553,17.65,21.689
		c5.814,7.206,11.628,14.343,17.338,21.27c45.371,55.762,83.059,102.289,83.059,102.289s-37.792-46.457-83.059-102.289
		c-5.71-6.997-11.421-14.063-17.338-21.27c-5.814-7.207-8.825-18.121-17.65-21.689c-1.35-9.025-5.918-16.792-17.65-21.689
		c1.766-7.066-11.628-14.343-17.338-21.27c-5.71-6.996-11.213-13.783-16.611-20.43C232.699,264.272,203.732,228.66,203.732,228.66
		L-32.361-61.906L203.732,228.66c0,0,65.824,33.513,131.751,67.027c4.673,2.378,9.552,5.177,14.121,7.136
		c4.774,2.868,8.929,9.795,13.911,7.066c2.492,6.507,11.006,9.445,22.219,9.025c0.83,5.248,4.672,6.997,4.672,4.618
		c1.973,3.428,15.054,3.848,18.688,5.947c3.529,2.099,6.645,9.095,5.917,6.576c1.247,2.729,4.776,5.038,4.465,0.42
		c5.606,7.767,23.049,23.089,16.715,10.354c6.542,12.874,7.062,13.014,2.7,0.91c4.568,12.244,5.295,12.034,13.809,7.486
		c-8.514,4.548-6.541,3.988,6.126,3.148c-12.771,0.84-10.694,0.35,4.567,2.309c-15.262-1.959-13.289-2.309,3.842,1.959
		c-17.027-4.268-19.104-3.918-3.842-1.959c-15.262-2.029-17.338-1.469-4.567-2.309c-12.771,0.84-14.64,1.399-6.126-3.148
		c-8.514,4.548-9.137,4.758-13.809-7.486c4.361,12.034,3.737,11.964-2.7-0.91c6.334,12.804-11.108-2.519-16.715-10.354
		c0.312,4.618-3.218,2.309-4.465-0.42c0.832,2.519-2.284-4.478-5.917-6.576c-3.635-2.1-16.716-2.52-18.688-5.947
		c0,2.379-3.842,0.63-4.672-4.618c-11.109,0.42-19.622-2.519-22.219-9.025c-4.982,2.729-9.239-4.198-13.911-7.066
		c-4.465-1.959-9.346-4.758-14.121-7.136C269.556,262.173,203.732,228.66,203.732,228.66L-59.667,94.676L203.732,228.66
		L4.911,406.162L203.732,228.66L402.554,51.158L203.732,228.66l298.596-61.15L203.732,228.66c0,0-113.063,23.158-200.067,40.93
		c-10.902,2.239-21.387,4.338-31.147,6.367c-14.327,1.469-42.671-0.629-27.098,5.527c-16.508-6.017-17.027-5.947-21.388,4.338
		c4.257-10.285,2.18-6.577-14.016,2.869c16.196-9.375,14.328-7.137-4.984,1.049c19.415-8.186,21.18-10.425,4.984-1.049
		c16.196-9.445,18.273-13.154,14.016-2.869c4.361-10.355,4.879-10.355,21.388-4.338c-15.677-6.157,12.771-4.058,27.098-5.527
		c9.76-2.029,20.245-4.128,31.147-6.367C90.668,251.818,203.732,228.66,203.732,228.66l90.742,201.221L203.732,228.66
		L112.991,27.439L203.732,228.66c0,0,59.595,33.653,123.031,69.476c4.567,2.589,9.863,6.297,13.601,7.696
		c4.984,3.568,11.109,14.553,13.601,7.696c3.011,10.075,7.579,14.133,21.077,9.025c-6.646,8.046-4.881,9.445,5.71,6.157
		c-7.892,4.338,16.508,3.218,22.218,5.177c3.011,2.31,9.033,19.24,3.114,9.166c6.437,10.425,16.301,12.453,10.486-0.28
		c8.306,14.763,18.17,19.94,12.459,13.294c5.813,6.716,8.098,6.297,7.371,2.378c0.831,3.849,4.153,2.939,12.147,8.606
		c-7.891-5.598,7.476-2.869,20.765,11.754c-10.59-13.083,0.623-2.729,7.683,4.338c-7.06-7.066-18.272-17.421-7.683-4.338
		c-13.289-14.553-28.655-17.352-20.765-11.754c-7.994-5.667-11.316-4.758-12.147-8.606c0.727,3.849-1.558,4.338-7.371-2.378
		c5.813,6.716-4.153,1.539-12.459-13.294c5.711,12.733-4.05,10.705-10.486,0.28c5.919,10.074-0.104-6.856-3.114-9.166
		c-5.71-1.889-30.109-0.839-22.218-5.177c-10.591,3.288-12.355,1.889-5.71-6.157c-13.498,5.107-18.066,1.05-21.077-9.025
		c-2.595,6.856-8.616-4.128-13.601-7.696c-3.737-1.399-9.137-5.178-13.601-7.696C263.327,262.313,203.732,228.66,203.732,228.66
		L-69.738,74.246L203.732,228.66c0,0-123.238,99.07-188.958,151.965C8.752,385.452,3.25,389.86-1.63,393.778
		c-4.983,3.918-10.59,6.646-12.667,10.215c-4.672,1.889-6.437,4.897-8.202,6.577c-2.076,1.329-2.907,2.379-2.907,2.379
		s0.831-0.979,2.907-2.379c1.765-1.68,3.53-4.688,8.202-6.577c2.076-3.568,7.787-6.297,12.667-10.215
		c4.879-3.918,10.382-8.326,16.404-13.153C80.494,327.73,203.732,228.66,203.732,228.66L432.869,44.371L203.732,228.66
		c0,0,53.262,29.665,115.763,64.508c8.929,4.968,20.349,13.923,27.305,15.183c5.192,5.877,8.93,15.393,14.432,7.557
		c-0.311,10.494,0.727,13.363,13.186,7.836c-8.617,7.486,4.257,5.107,16.093,4.897c-4.152,2.589,7.684,3.219,11.732,4.758
		c0.415,1.818,2.076,9.165-0.52,5.527c4.775,3.358,15.158,9.725,13.186,0.909c6.229,11.964,20.661,22.459,12.979,13.644
		c7.787,8.886,10.382,8.396,8.409,2.519c2.076,5.947,6.021,4.827,15.781,10.984c-9.76-6.087,13.081,4.338,26.371,14.692
		c-3.219-4.688,14.95,8.326,20.66,11.545c11.629,6.437,18.378,10.215,18.378,10.215s-6.749-3.778-18.378-10.215
		c-5.813-3.219-23.879-16.232-20.66-11.545c-13.394-10.354-36.131-20.85-26.371-14.692c-9.863-6.157-13.809-5.037-15.781-10.984
		c1.973,5.877-0.622,6.367-8.409-2.519c7.683,8.815-6.646-1.609-12.979-13.644c1.973,8.815-8.41,2.379-13.186-0.909
		c2.596,3.708,0.935-3.709,0.52-5.527c-4.049-1.539-15.781-2.169-11.732-4.758c-11.836,0.21-24.71,2.589-16.093-4.897
		c-12.562,5.527-13.601,2.658-13.186-7.836c-5.502,7.766-9.239-1.75-14.432-7.557c-6.852-1.329-18.376-10.215-27.305-15.183
		C256.994,258.325,203.732,228.66,203.732,228.66L-110.125,53.816L203.732,228.66c0,0-108.599,88.576-185.324,151.055
		c-6.956,5.668-13.705,11.125-20.038,16.303c-6.333,5.177-12.251,10.005-17.754,14.482s-10.486,8.536-14.95,12.174
		c-13.29,10.845-21.388,17.422-21.388,17.422s8.099-6.577,21.388-17.422c4.464-3.638,9.448-7.696,14.95-12.174
		s11.42-9.375,17.754-14.482c6.333-5.178,13.082-10.635,20.038-16.303C95.133,317.236,203.732,228.66,203.732,228.66L463.186,17.155
		L203.732,228.66c0,0,62.605,19.03,125.21,38.061c10.486,3.148,20.869,6.367,31.044,9.445c10.174,3.079,43.397-2.869,29.278,8.886
		c19.83-10.075,22.322-5.317,25.852,7.836c0.728-11.894,9.24,4.897,20.558,6.227c-3.322,1.119,7.371,3.778,13.601,4.128
		c-0.416,1.399,3.01,1.679,4.879,1.469c-1.869,0.21-5.295-0.069-4.879-1.469c-6.229-0.35-16.923-3.079-13.601-4.128
		c-11.317-1.33-19.83-18.121-20.558-6.227c-3.427-13.153-6.021-17.911-25.852-7.836c14.119-11.754-19.104-5.807-29.278-8.886
		c-10.175-3.079-20.558-6.227-31.044-9.445C266.337,247.69,203.732,228.66,203.732,228.66l-250.525-76.053L203.732,228.66
		L90.876,397.486L203.732,228.66L316.588,59.833L203.732,228.66c0,0,65.098,32.394,122.719,61.149
		c8.202,4.128,16.3,8.116,24.087,11.964c4.464,2.449,9.344,7.767,14.327,6.367c3.115,5.037,4.984,8.955,10.383,5.947
		c0.415,5.877,11.628,5.807,19.312,6.856c2.076,3.078,3.219,4.758,0.727,3.078c4.36,1.959,12.146,2.52,14.119,3.708
		c1.974,1.12,1.35,2.17-0.726,3.009c4.567-1.469,4.775-0.35,4.879,2.449c-0.104-2.799-0.312-3.918-4.879-2.449
		c2.075-0.839,2.699-1.889,0.726-3.009c-1.973-1.119-9.759-1.749-14.119-3.708c2.492,1.68,1.35,0-0.727-3.078
		c-7.684-1.05-18.896-0.979-19.312-6.856c-5.398,3.008-7.268-0.91-10.383-5.947c-4.983,1.399-9.967-3.918-14.327-6.367
		c-7.683-3.848-15.781-7.906-24.087-11.964C268.83,261.054,203.732,228.66,203.732,228.66L-6.198,124.132L203.732,228.66
		L48.621,370.13L203.732,228.66L358.844,87.19L203.732,228.66c0,0,56.272,38.061,105.173,71.155
		c6.956,4.757,18.064,13.083,20.35,13.783c9.136,7.486,22.944,21.27,18.272,12.384c5.814,9.655,7.164,10.006,9.032,6.087
		c-1.558,4.129-1.661,4.758,7.786,5.248c-9.239-0.35-8.409,1.609,9.346,3.638c-17.027-1.818-16.612,0.21,1.868,3.988
		c-18.273-3.568-9.032,0.28,8.409-0.14c-16.923,0.63-22.426,0.21-4.256,2.868c-18.17-2.658-12.667-2.238,4.256-2.868
		c-17.441,0.42-26.578-3.429-8.409,0.14c-18.48-3.778-18.896-5.737-1.868-3.988c-17.65-2.028-18.481-3.987-9.346-3.638
		c-9.447-0.56-9.344-1.119-7.786-5.248c-1.868,3.919-3.218,3.568-9.032-6.087c4.672,8.886-9.137-4.897-18.272-12.384
		c-2.285-0.699-13.29-9.025-20.35-13.783C260.004,266.721,203.732,228.66,203.732,228.66L27.856,109.649L203.732,228.66
		L27.129,347.182L203.732,228.66l176.604-118.521"/>
</g>
</svg>
