<?xml version="1.0" encoding="utf-8"?>
<!-- Generator: Adobe Illustrator 18.1.1, SVG Export Plug-In . SVG Version: 6.00 Build 0)  -->
<svg version="1.1" id="Lager_1" xmlns="http://www.w3.org/2000/svg" xmlns:xlink="http://www.w3.org/1999/xlink" x="0px" y="0px"
	 viewBox="0 0 960 560" enable-background="new 0 0 960 560" xml:space="preserve">
<linearGradient id="SVGID_1_" gradientUnits="userSpaceOnUse" x1="9.094947e-13" y1="355.0667" x2="960" y2="355.0667">
	<stop  offset="0" style="stop-color:#FFFFFF"/>
	<stop  offset="7.299721e-03" style="stop-color:#F9F9F9"/>
	<stop  offset="5.907720e-02" style="stop-color:#D5D5D5"/>
	<stop  offset="0.1173" style="stop-color:#B5B5B5"/>
	<stop  offset="0.1816" style="stop-color:#999999"/>
	<stop  offset="0.2543" style="stop-color:#838383"/>
	<stop  offset="0.3391" style="stop-color:#727272"/>
	<stop  offset="0.4441" style="stop-color:#676767"/>
	<stop  offset="0.5913" style="stop-color:#606060"/>
	<stop  offset="1" style="stop-color:#5E5E5E"/>
</linearGradient>
<path fill="url(#SVGID_1_)" d="M960,560H0c0,0,0-90.8,0-142.6C0,407,0,398.2,0,392c0.8-6.8,9.8-16.9,0-9.9c9.8-7,26.6-15,5.6,0
	c23.5-15,44.8-21.5,16.2,0C50.4,360.6,49.7,123.3,48,152.7c1.7-29.4,6.7,210.2,33.7,229.5c-27-19.3-8.6-17.1,11.2,0
	c-19.8-17.1-4.7-13.8,11.8,0c-16.4-13.8-0.3-3.8,22-4.5c-14.5-0.9,11.7-1.5,3.2,4.5c-2.1-1.2,1.1-14.9,6.5-32.8
	c2.7-8.9,16.3-25.9,9.3-28.9c11.9-11.5,28.5-29.5,10.1-28.9c19.7-4.2,27.6-21.6,8.6-22.6c19.7-0.9,26.5-8.8,4.7-10
	c22,1,22.8,2,1.9,5.5c20.9-2.8,12.3,10.8-1.4,19.2c13.7-7.6,9,14.1-3.5,27.1c12.3-11.7,6.3,13.3-4.1,29.3c8.8-4.4-2.6,18.4-3.5,25.7
	c-0.9,7.3-1.4,13.1-1.4,16.4c0.1-9.8,0.9-14.2,2.7-15.3c1.8-1.1,4.7,1,8.9,4.2c2.1,1.6,20.3-0.1,19.2,3.9c15-0.7,14.3,4.1-1.8,7.2
	c10-1.1,32-21.2,11.7-11.7c21.3-11.6,7.1-37.7,5.9-21.2c1.2-17.1-14.8-33.8,0-23.4c-14.9-10.6-22.1-27.2-5.9-18.5
	c-16.4-9-17.2-20-11.8-6.4c-5.4-13.7-4.1-2.1,13.4,5.6c-17.3-7.5-8.9,10.2,8.4,17c-17.2-6.4-2.8,8.2,3.1,22
	c-5.9-13.6,8.9,3.6-2.3,20.8c11.1-17,16.2,4.5-8,13.4c24.9-9.4,21.9-28.6,15.7-10.3c6.2-18.3,11-6.2,0.3,12.6
	c10.6-18.7,4.1-33.7,0.6-15.9c3.4-17.9-11.8-34,0-25.6c-11.8-8.7-19.7-20-0.2-29c-19.5,5.9-13.1-36.2,0-26
	c-12.9-16.3-10.4-36.5,0.8-16.8c-11.1-20.4-10.6-20.8,2-1.2c-12.7-19.6-13.2-19-1.9,1.4c-11.3-19.7-12.8,1.9-0.1,17.3
	c-12.7-8.2-16.9,33.4,1.8,26.5c-18.3,10.6-9.7,23.1,3.8,29.1c-13.5-5.7-0.2,8.9,5.9,24.9c-6.1-16-1.7-3.5,8.1,14.2
	c-9.9-17.7-15-31.4-9.3-15.5c-5.7-15.8-15-26.3-1.5-20.3c-13.5-6.2-13.2-7.5,4.5-14.9c-17.3,6.9-9.5,10.5,8.7,0.5
	c-18.2,9.9-24.8,7.4-7.4,0.4c-17.7,7.6-15.7,11.2-1,16.3c-14.6-4.8-6.4,6.7,6.4,20c-12.8-13.3-8.1,4.4,14.9,11.6
	c-23.1-7.2-26.8-21.8-18.9-4c-7.9-17.7-8.3-19-5-0.3c-3.3-18.8-0.8-9,11.6,7.3c-12.4-16.3-14.5-24.8-7-7c-7.5-17.9-6-12.3,11.5,0.1
	c-17.4-12.4-9.2,1.3,16,1.5c-25.4-0.2-34-15.8-19.7-1c-14.3-14.8-12.3-4.8,7.4,6.4c-19.7-11.2-21-18.6-2.3-7.2
	c-18.5-11.3-0.1,1.3,19.6-0.9c-18.5,2.1-15.3-4.7-0.4-10.6c-15.2-1.7-6.7-14.4-1-24.7c-6.3-5.8-0.8-19.7-1.2-28.9
	c-0.4-9.2-0.8-17.5-1-23.1c-0.3-5.7-0.5-8.7-0.5-7.5c0-1.2,0.4,1.8,0.8,7.5s1.1,13.9,1.9,23.1s-1.6,21.2,2.4,28.9
	c-2.8,9.9-5.7,20.2,2.4,24.7c-7.4,6.2-7,11.9,1.9,10.6c-7.6,1.5,2.1,1.2,5.7,2.4c1.8,1.2,6,3,10.5,4.9c-8.8-3.8-19.5-5.4-14.6-6.5
	c-6.9,0.8,0.8,2,5.9,7.4c-5.1-5.5-5.1-6.8-0.5-7.2c4.3-0.4,12.8,0,25.1-2c-20.7,1.3,4.2-6.6,9.9-7.8c-4,1.6-16.2,8.2-3.7,17
	c-12.5-8.9,5.5-19.9,7.7-23.3c2.2-3.4,6.7,6.6,7.9,1.5c4.7-19.4,12.2-66.7,15.9,21.8c-7.5-10.1-7.6-13.5-4-13.5
	c3.6,0,10.8,3.4,18,6.8c7.4,3.3,41.4,1.3,18.1,6.8c25.3-5.4,32-40.4,17.8-28.4c14.3-12,12.6,14.5,14.8,28.4
	c-2.1-13.9-2-12.7,8.7-0.5c-10.7-12.2-10.1-9.7,7.7,0.5C404.5,372,411,304.3,437,304.5c-24.5-0.8-21,72.8,1.7,77.6
	c-21.8-4.8,11.7-12.8,15-13.9c3.2-1.1,4.2,2.4,1.5,13.9c7.5-23.1,15-22.2,16.5,0c-1.2-22.2,11.1-58.2,21.3-45.1
	c-10.2-13.1-0.3,36.1,15.1,39.4c-15.4-3.2-16.5-3.7-3.3,5.8c-13.2-9.4-0.3-5.7,21.9-8.8c-22.1,3-13.4,2.2,12.4-0.1
	c-24.9,2.9-23-47.8,1.9-42.3c-24.9-5.4,2.4,43.3,12.8,40.8c3.2-1.1,6.5-1.8,9.5-2.1c2.9-0.3,5.8-0.2,7.4,0.7
	c1.5,0.3,7.6-7.9,2.9-11.2c5.7-8.1,12.5-17.5,0.4-21.2c11.6-4.5,6.1-8.5-2.9-7.8c10.8-2.9,29.2-0.6,12-3.7
	c20.1,4.6,28.7,5.2,11.1,13.1c18.1-6.8,16.4,2.1,7.5,21.4c9.3-17,6.9,7.6,1.2,21.4c6.1-15.1,10.4-35.1,10.6-15.9
	c1.3-19.9,6-15.2,14.5,0.6c-7.2-14.9,7.8,0.3,6.8,15.3c1.2-13,0.3-18.1,3.3-8.8c-2.4-10.9-3.6-15.2,5.6-12.3
	c-8.7-3.9,0.8-4.7,8.6-13.2c-6.3,6.6,8.7,0.1,9-13.9c1.6,10.1-3.9,1.7-2.8-3.2c1.3,2.7,11.6-11.4,13.6-16.9c2-5.5,1.8-10.2,0.8-12.5
	c3.1,2.5,4-13.3,7.7-18.2c-3.1,2.7-3.8,6.1-5.4,3.1c1.3,3.3,3.3-2.2,10.5-4.8c-4.6,3.7-4.1,14.6,7.6,10.5c-5.1,4.1-8.1,9.4-7.7,13.5
	c0.4,4.2,5.5,9.6,12.5,7.1c-6.6,4.5-7.6,10.8-10.1,9.2c4,9.4,17.5,35.4,12.1,16.2c5.4,19.4,1.7,22.5-5,7.4
	c6.8,15.4,3.4,17.2,4.5,17.6c-1.1-0.4-1.6,0.2-1.2,10.7c-0.4-10.5-0.8-9.4-1.9,8.6c1.1-18.2,5.1-21.3,11.8-19.1
	c-6.6-2.2-0.7-5.1,12.6,0.5c-13.2-5.6-6.8-3.4,5.1,18.6c-11.8-22-9.7-25.6,10.8-17.9c-19.6-8.2-4.3-5.4,14.8,0
	c-15.4-2.5,1.3,7.3,2.7,18c-2.3-6.6,0-10,5.9-11.5c-2.2-4.2,3.4-5.8,6.1-7.4c3.2-3.5,13.8-2.3,10.6-1c8,3.8,17.6,11,4.5,19.9
	c13.5-7.3,20.3-15.2,5.9-23.6c17.4,1,22-21.8,11.2-19.6c14-6.1,19-34.5,12.1-9.1c7.4-25.5,7.8-10.4,8.6,8.1
	c-0.6-18.8-0.6-25.4,1.5-2.7c-1.9-21.7-1.9,23.2,4.3,23.7c-6.1,0.5-6.1,13.8,6.3,23.2c-12.2-9.5-9.8-10.1,10.7-8.8
	c-9.5-0.6-10.5,0.3-7.2,1.9s22.4-1,19.1,6.9c4.6-7.8,7-10-1.8-5.2c13.4-6,27.5-13.7,11.9-0.9c16.7-12.6,19.3-13,10.6,6.1
	c9.6-18.8,10.9-28.3,6-16.6c5-12.1,5.7-28.6,6.9-23.9c-1-5.3-0.2-16.6,6.6-11.7c-6.5-5-6.7,8.7,6.6,11c-12.9-1.1-12.4,15,6.3,23
	c-18.3-6.1-10.4,4.6,3.3,18.2c-12-14.4-7.8-15.6,9.2-11.2c-14.4-5.6,0,0.4,5.4,11.2c-3-10.8-0.7-13.7,5-12.5
	c-2.1,0,4.3,5.6,7.2,12.5c-0.3-6.9,1-7.9,3-6.7s4.6,4.7,6.8,6.7c0.8-4.1,5.1-0.2,7.2,0c1.8-0.2,3.4,0,4.4,0c1,0,1.5,0,1.5,0V560z"/>
<g>
	<line fill="none" x1="837.3" y1="114.9" x2="820.5" y2="130.8"/>
	<ellipse fill="none" cx="837.3" cy="114.9" rx="19.3" ry="19.4"/>
	<ellipse fill="none" cx="837.3" cy="114.9" rx="23.2" ry="23.2"/>
	<polyline fill="none" points="837.3,114.9 863.4,112.1 837.3,114.9 811.2,117.7 837.3,114.9 840.1,141 837.3,114.9 834.6,88.7 
		837.3,114.9 944.6,120.5 837.3,114.9 730.1,109.2 837.3,114.9 831.7,222.3 837.3,114.9 843,7.4 837.3,114.9 942.9,142.7 
		837.3,114.9 731.8,87 837.3,114.9 809.5,220.6 837.3,114.9 865.2,9.1 837.3,114.9 842.1,113.1 837.3,114.9 832.6,116.6 
		837.3,114.9 839.1,119.6 837.3,114.9 835.6,110.1 837.3,114.9 888.4,71.5 837.3,114.9 786.2,158.2 837.3,114.9 880.6,166.1 
		837.3,114.9 794.1,63.7 837.3,114.9 867.3,132.8 837.3,114.9 807.4,96.9 837.3,114.9 819.5,144.8 837.3,114.9 855.2,84.9 
		837.3,114.9 859.9,99.3 837.3,114.9 814.7,130.4 837.3,114.9 852.9,137.5 837.3,114.9 821.8,92.2 837.3,114.9 887.2,131.1 
		837.3,114.9 787.5,98.7 837.3,114.9 821.2,164.8 837.3,114.9 853.5,64.9 837.3,114.9 882.1,144.8 837.3,114.9 792.6,84.9 
		837.3,114.9 807.4,159.7 837.3,114.9 867.3,70.1 837.3,114.9 906.4,181.8 837.3,114.9 768.3,48 837.3,114.9 770.6,184.1 
		837.3,114.9 904.1,45.7 837.3,114.9 859.6,131.6 837.3,114.9 815.1,98.1 837.3,114.9 820.7,137.2 837.3,114.9 854,92.6 
		837.3,114.9 852.7,101.9 837.3,114.9 822,127.9 837.3,114.9 850.3,130.2 837.3,114.9 824.4,99.5 837.3,114.9 882.5,84 837.3,114.9 
		792.1,145.7 837.3,114.9 868.1,160.1 837.3,114.9 806.6,69.6 837.3,114.9 928.2,128 837.3,114.9 746.5,101.7 837.3,114.9 
		824.2,205.9 837.3,114.9 850.5,23.8 837.3,114.9 850.9,123.9 837.3,114.9 823.8,105.8 837.3,114.9 828.3,128.5 837.3,114.9 
		846.4,101.3 	"/>
	
		<radialGradient id="SVGID_2_" cx="351.819" cy="617.3346" r="126.8433" gradientTransform="matrix(0.3655 0 0 0.3662 708.7394 -111.216)" gradientUnits="userSpaceOnUse">
		<stop  offset="0" style="stop-color:#230000"/>
		<stop  offset="0.73" style="stop-color:#93432A"/>
		<stop  offset="1" style="stop-color:#230000"/>
	</radialGradient>
	<ellipse opacity="0.15" fill="url(#SVGID_2_)" cx="837.3" cy="114.9" rx="46.4" ry="46.5"/>
	
		<radialGradient id="SVGID_3_" cx="351.819" cy="617.3346" r="63.4216" gradientTransform="matrix(0.3655 0 0 0.3662 708.7394 -111.216)" gradientUnits="userSpaceOnUse">
		<stop  offset="0.15" style="stop-color:#FFFFFF"/>
		<stop  offset="0.2114" style="stop-color:#E2D1D2"/>
		<stop  offset="0.2918" style="stop-color:#BF9A9C"/>
		<stop  offset="0.3613" style="stop-color:#A67276"/>
		<stop  offset="0.4163" style="stop-color:#975A5E"/>
		<stop  offset="0.45" style="stop-color:#915155"/>
		<stop  offset="0.5553" style="stop-color:#6C3638"/>
		<stop  offset="0.6842" style="stop-color:#44191A"/>
		<stop  offset="0.787" style="stop-color:#2C0707"/>
		<stop  offset="0.85" style="stop-color:#230000"/>
		<stop  offset="0.8572" style="stop-color:#270201"/>
		<stop  offset="0.8647" style="stop-color:#340805"/>
		<stop  offset="0.8723" style="stop-color:#48120B"/>
		<stop  offset="0.88" style="stop-color:#652114"/>
		<stop  offset="0.8878" style="stop-color:#8B331F"/>
		<stop  offset="0.8955" style="stop-color:#B8492D"/>
		<stop  offset="0.9" style="stop-color:#D65836"/>
		<stop  offset="0.903" style="stop-color:#C95232"/>
		<stop  offset="0.9146" style="stop-color:#9D3C25"/>
		<stop  offset="0.9267" style="stop-color:#782A1A"/>
		<stop  offset="0.9392" style="stop-color:#591B10"/>
		<stop  offset="0.9523" style="stop-color:#410F09"/>
		<stop  offset="0.9661" style="stop-color:#300604"/>
		<stop  offset="0.9812" style="stop-color:#260201"/>
		<stop  offset="1" style="stop-color:#230000"/>
	</radialGradient>
	<ellipse opacity="0.5" fill="url(#SVGID_3_)" cx="837.3" cy="114.9" rx="23.2" ry="23.2"/>
	
		<radialGradient id="SVGID_4_" cx="351.819" cy="617.3346" r="52.8514" gradientTransform="matrix(0.3655 0 0 0.3662 708.7394 -111.216)" gradientUnits="userSpaceOnUse">
		<stop  offset="0.15" style="stop-color:#FFFFFF"/>
		<stop  offset="0.2824" style="stop-color:#C2C2C2"/>
		<stop  offset="0.4253" style="stop-color:#888888"/>
		<stop  offset="0.5636" style="stop-color:#575757"/>
		<stop  offset="0.6936" style="stop-color:#313131"/>
		<stop  offset="0.8134" style="stop-color:#161616"/>
		<stop  offset="0.9192" style="stop-color:#060606"/>
		<stop  offset="1" style="stop-color:#000000"/>
	</radialGradient>
	<ellipse fill="url(#SVGID_4_)" cx="837.3" cy="114.9" rx="19.3" ry="19.4"/>
	<polyline opacity="3.000000e-02" fill="none" stroke="#FFFFFF" stroke-width="2" stroke-miterlimit="10" points="837.3,114.9 
		863.4,112.1 837.3,114.9 811.2,117.7 837.3,114.9 840.1,141 837.3,114.9 834.6,88.7 837.3,114.9 944.6,120.5 837.3,114.9 
		730.1,109.2 837.3,114.9 831.7,222.3 837.3,114.9 843,7.4 837.3,114.9 942.9,142.7 837.3,114.9 731.8,87 837.3,114.9 809.5,220.6 
		837.3,114.9 865.2,9.1 837.3,114.9 842.1,113.1 837.3,114.9 832.6,116.6 837.3,114.9 839.1,119.6 837.3,114.9 835.6,110.1 
		837.3,114.9 888.4,71.5 837.3,114.9 786.2,158.2 837.3,114.9 880.6,166.1 837.3,114.9 794.1,63.7 837.3,114.9 867.3,132.8 
		837.3,114.9 807.4,96.9 837.3,114.9 819.5,144.8 837.3,114.9 855.2,84.9 837.3,114.9 859.9,99.3 837.3,114.9 814.7,130.4 
		837.3,114.9 852.9,137.5 837.3,114.9 821.8,92.2 837.3,114.9 887.2,131.1 837.3,114.9 787.5,98.7 837.3,114.9 821.2,164.8 
		837.3,114.9 853.5,64.9 837.3,114.9 882.1,144.8 837.3,114.9 792.6,84.9 837.3,114.9 807.4,159.7 837.3,114.9 867.3,70.1 
		837.3,114.9 906.4,181.8 837.3,114.9 768.3,48 837.3,114.9 770.6,184.1 837.3,114.9 904.1,45.7 837.3,114.9 859.6,131.6 
		837.3,114.9 815.1,98.1 837.3,114.9 820.7,137.2 837.3,114.9 854,92.6 837.3,114.9 852.7,101.9 837.3,114.9 822,127.9 837.3,114.9 
		850.3,130.2 837.3,114.9 824.4,99.5 837.3,114.9 882.5,84 837.3,114.9 792.1,145.7 837.3,114.9 868.1,160.1 837.3,114.9 
		806.6,69.6 837.3,114.9 928.2,128 837.3,114.9 746.5,101.7 837.3,114.9 824.2,205.9 837.3,114.9 850.5,23.8 837.3,114.9 
		850.9,123.9 837.3,114.9 823.8,105.8 837.3,114.9 828.3,128.5 837.3,114.9 846.4,101.3 	"/>
</g>
<g>
	<line fill="none" x1="726.4" y1="111.5" x2="743.3" y2="149.2"/>
	<ellipse fill="none" cx="726.4" cy="111.5" rx="35.7" ry="34.1"/>
	<ellipse fill="none" cx="726.4" cy="111.5" rx="42.8" ry="40.9"/>
	<path fill="none" d="M726.4,111.5l-5.9,23.7L726.4,111.5l5.9-23.7L726.4,111.5l-24.8-5.6L726.4,111.5l24.8,5.6L726.4,111.5
		l115.4,158.9L726.4,111.5L611-47.4L726.4,111.5L560.2,221.8L726.4,111.5L892.7,1.2L726.4,111.5c0,0-3.1,28.5-6.2,56.9
		c-1,9.5-2.1,19-3,27.4s-17.7,29.8-2.3,21.1c-15.9,13.8-22.7,18.3-0.9,8.4c-21.8,9.8-15,5.3,0.9-8.4c-15.4,8.7,1.4-12.7,2.3-21.1
		s2-17.9,3-27.4C723.3,140,726.4,111.5,726.4,111.5L738.8-2.4L726.4,111.5L607.3,99.7L726.4,111.5l119.1,11.9L726.4,111.5
		c0,0-5.2,21.5-12,50.2c-2.3,9.6-4.8,19.9-7.3,30.5s-21.5,45.1-7.7,32.1c-14,13.8-14.3,14.1-7.3,30.5c-7-16.3-7.2,8.8-6.2,25.8
		c-2.1-12.2-2.9,19.6-4.3,17.8c0.6,4.8,0.9,12.9-1.6,6.6c2.5,6.3,2.2-1.9,1.6-6.6c1.4,1.8,2.1-30,4.3-17.8c-1-16.9-0.8-42,6.2-25.8
		c-7-16.4-6.6-16.8,7.3-30.5c-13.8,13,5.2-21.5,7.7-32.1s5-21,7.3-30.5C721.3,133,726.4,111.5,726.4,111.5L772.9-82L726.4,111.5
		L524,67.1L726.4,111.5l202.4,44.4L726.4,111.5l8.4,12.7L726.4,111.5l-8.4-12.7L726.4,111.5l-13.3,8L726.4,111.5l13.3-8L726.4,111.5
		l10,25.7L726.4,111.5l-10-25.7L726.4,111.5l-26.9,9.6L726.4,111.5l26.9-9.6L726.4,111.5l128.7,145.7L726.4,111.5L597.7-34.1
		L726.4,111.5l-152.3,123L726.4,111.5l152.3-123L726.4,111.5l106.5,53.9L726.4,111.5L619.9,57.6L726.4,111.5
		c0,0-14.1,25.5-28.2,50.9c-4.7,8.5-9.4,17-13.6,24.5c-4.2,7.5-2.6,37.9-10.4,18.9c5.9,22.5,8.2,28.2-4.2,7.5
		c12.4,20.7,10.1,14.9,4.2-7.5c7.8,19.1,6.3-11.3,10.4-18.9s8.9-16,13.6-24.5C712.3,137,726.4,111.5,726.4,111.5L782.8,9.7
		L726.4,111.5l18.2,47.1L726.4,111.5l-18.2-47.1L726.4,111.5l-49.2,17.4L726.4,111.5l49.2-17.4L726.4,111.5l88,139.9L726.4,111.5
		l-88-139.9L726.4,111.5l-146.3,84.2L726.4,111.5l146.3-84.2L726.4,111.5L741,217.7L726.4,111.5L711.9,5.4L726.4,111.5l-111,13.9
		L726.4,111.5l111-13.9L726.4,111.5l-1.2,4.6L726.4,111.5l1.2-4.6L726.4,111.5l-4.8-1.1L726.4,111.5l4.8,1.1L726.4,111.5l98.8,33.8
		L726.4,111.5l-98.8-33.8L726.4,111.5c0,0-12.7,34-22.9,61.2c-3.4,9.1-8.3,24.6-8.8,23.4c-3.6,12.4-7.9,32.3-3.7,9.8
		c-4.2,22.5,0.1,2.6,3.7-9.8c0.4,1.2,5.4-14.4,8.8-23.4C713.7,145.5,726.4,111.5,726.4,111.5l35.4-94.5L726.4,111.5l100.7,167.9
		L726.4,111.5L625.7-56.4L726.4,111.5l-175.7,96.3L726.4,111.5l175.7-96.3L726.4,111.5l47.7,166.2L726.4,111.5L678.7-54.7
		L726.4,111.5l-173.9,45.6L726.4,111.5l173.9-45.6"/>
	
		<radialGradient id="SVGID_5_" cx="476.0386" cy="79.4446" r="29.7665" gradientTransform="matrix(2.8772 0 0 2.7508 -643.2281 -107.0102)" gradientUnits="userSpaceOnUse">
		<stop  offset="0" style="stop-color:#CF0000"/>
		<stop  offset="0.73" style="stop-color:#371993"/>
		<stop  offset="1" style="stop-color:#CF0000"/>
	</radialGradient>
	<ellipse opacity="0.15" fill="url(#SVGID_5_)" cx="726.4" cy="111.5" rx="85.6" ry="81.9"/>
	
		<radialGradient id="SVGID_6_" cx="476.0386" cy="79.4446" r="14.8833" gradientTransform="matrix(2.8772 0 0 2.7508 -643.2281 -107.0102)" gradientUnits="userSpaceOnUse">
		<stop  offset="0.15" style="stop-color:#FFFFFF"/>
		<stop  offset="0.1838" style="stop-color:#F5E9E9"/>
		<stop  offset="0.2735" style="stop-color:#DDB2B5"/>
		<stop  offset="0.351" style="stop-color:#CC8A8F"/>
		<stop  offset="0.4124" style="stop-color:#C17278"/>
		<stop  offset="0.45" style="stop-color:#BD696F"/>
		<stop  offset="0.5573" style="stop-color:#C34549"/>
		<stop  offset="0.6853" style="stop-color:#CA1F21"/>
		<stop  offset="0.7874" style="stop-color:#CE0809"/>
		<stop  offset="0.85" style="stop-color:#CF0000"/>
		<stop  offset="0.8566" style="stop-color:#CE0104"/>
		<stop  offset="0.8634" style="stop-color:#CB0411"/>
		<stop  offset="0.8704" style="stop-color:#C50925"/>
		<stop  offset="0.8774" style="stop-color:#BD1142"/>
		<stop  offset="0.8845" style="stop-color:#B31A68"/>
		<stop  offset="0.8916" style="stop-color:#A72696"/>
		<stop  offset="0.8987" style="stop-color:#9933CB"/>
		<stop  offset="0.9" style="stop-color:#9636D6"/>
		<stop  offset="0.9099" style="stop-color:#A32AA6"/>
		<stop  offset="0.9207" style="stop-color:#AE1F7B"/>
		<stop  offset="0.9319" style="stop-color:#B81555"/>
		<stop  offset="0.9435" style="stop-color:#C10E36"/>
		<stop  offset="0.9557" style="stop-color:#C7081E"/>
		<stop  offset="0.9685" style="stop-color:#CB030D"/>
		<stop  offset="0.9825" style="stop-color:#CE0103"/>
		<stop  offset="1" style="stop-color:#CF0000"/>
	</radialGradient>
	<ellipse opacity="0.5" fill="url(#SVGID_6_)" cx="726.4" cy="111.5" rx="42.8" ry="40.9"/>
	
		<radialGradient id="SVGID_7_" cx="476.0386" cy="79.4446" r="12.4027" gradientTransform="matrix(2.8772 0 0 2.7508 -643.2281 -107.0102)" gradientUnits="userSpaceOnUse">
		<stop  offset="0.15" style="stop-color:#FFFFFF"/>
		<stop  offset="0.2824" style="stop-color:#C2C2C2"/>
		<stop  offset="0.4253" style="stop-color:#888888"/>
		<stop  offset="0.5636" style="stop-color:#575757"/>
		<stop  offset="0.6936" style="stop-color:#313131"/>
		<stop  offset="0.8134" style="stop-color:#161616"/>
		<stop  offset="0.9192" style="stop-color:#060606"/>
		<stop  offset="1" style="stop-color:#000000"/>
	</radialGradient>
	<ellipse fill="url(#SVGID_7_)" cx="726.4" cy="111.5" rx="35.7" ry="34.1"/>
	<path opacity="3.000000e-02" fill="none" stroke="#FFFFFF" stroke-width="2" stroke-miterlimit="10" d="M726.4,111.5l-5.9,23.7
		L726.4,111.5l5.9-23.7L726.4,111.5l-24.8-5.6L726.4,111.5l24.8,5.6L726.4,111.5l115.4,158.9L726.4,111.5L611-47.4L726.4,111.5
		L560.2,221.8L726.4,111.5L892.7,1.2L726.4,111.5c0,0-3.1,28.5-6.2,56.9c-1,9.5-2.1,19-3,27.4s-17.7,29.8-2.3,21.1
		c-15.9,13.8-22.7,18.3-0.9,8.4c-21.8,9.8-15,5.3,0.9-8.4c-15.4,8.7,1.4-12.7,2.3-21.1s2-17.9,3-27.4
		C723.3,140,726.4,111.5,726.4,111.5L738.8-2.4L726.4,111.5L607.3,99.7L726.4,111.5l119.1,11.9L726.4,111.5c0,0-5.2,21.5-12,50.2
		c-2.3,9.6-4.8,19.9-7.3,30.5s-21.5,45.1-7.7,32.1c-14,13.8-14.3,14.1-7.3,30.5c-7-16.3-7.2,8.8-6.2,25.8
		c-2.1-12.2-2.9,19.6-4.3,17.8c0.6,4.8,0.9,12.9-1.6,6.6c2.5,6.3,2.2-1.9,1.6-6.6c1.4,1.8,2.1-30,4.3-17.8c-1-16.9-0.8-42,6.2-25.8
		c-7-16.4-6.6-16.8,7.3-30.5c-13.8,13,5.2-21.5,7.7-32.1s5-21,7.3-30.5C721.3,133,726.4,111.5,726.4,111.5L772.9-82L726.4,111.5
		L524,67.1L726.4,111.5l202.4,44.4L726.4,111.5l8.4,12.7L726.4,111.5l-8.4-12.7L726.4,111.5l-13.3,8L726.4,111.5l13.3-8L726.4,111.5
		l10,25.7L726.4,111.5l-10-25.7L726.4,111.5l-26.9,9.6L726.4,111.5l26.9-9.6L726.4,111.5l128.7,145.7L726.4,111.5L597.7-34.1
		L726.4,111.5l-152.3,123L726.4,111.5l152.3-123L726.4,111.5l106.5,53.9L726.4,111.5L619.9,57.6L726.4,111.5
		c0,0-14.1,25.5-28.2,50.9c-4.7,8.5-9.4,17-13.6,24.5c-4.2,7.5-2.6,37.9-10.4,18.9c5.9,22.5,8.2,28.2-4.2,7.5
		c12.4,20.7,10.1,14.9,4.2-7.5c7.8,19.1,6.3-11.3,10.4-18.9s8.9-16,13.6-24.5C712.3,137,726.4,111.5,726.4,111.5L782.8,9.7
		L726.4,111.5l18.2,47.1L726.4,111.5l-18.2-47.1L726.4,111.5l-49.2,17.4L726.4,111.5l49.2-17.4L726.4,111.5l88,139.9L726.4,111.5
		l-88-139.9L726.4,111.5l-146.3,84.2L726.4,111.5l146.3-84.2L726.4,111.5L741,217.7L726.4,111.5L711.9,5.4L726.4,111.5l-111,13.9
		L726.4,111.5l111-13.9L726.4,111.5l-1.2,4.6L726.4,111.5l1.2-4.6L726.4,111.5l-4.8-1.1L726.4,111.5l4.8,1.1L726.4,111.5l98.8,33.8
		L726.4,111.5l-98.8-33.8L726.4,111.5c0,0-12.7,34-22.9,61.2c-3.4,9.1-8.3,24.6-8.8,23.4c-3.6,12.4-7.9,32.3-3.7,9.8
		c-4.2,22.5,0.1,2.6,3.7-9.8c0.4,1.2,5.4-14.4,8.8-23.4C713.7,145.5,726.4,111.5,726.4,111.5l35.4-94.5L726.4,111.5l100.7,167.9
		L726.4,111.5L625.7-56.4L726.4,111.5l-175.7,96.3L726.4,111.5l175.7-96.3L726.4,111.5l47.7,166.2L726.4,111.5L678.7-54.7
		L726.4,111.5l-173.9,45.6L726.4,111.5l173.9-45.6"/>
</g>
<g>
	<line fill="none" x1="96.4" y1="101.6" x2="111.4" y2="134.9"/>
	<ellipse fill="none" cx="96.4" cy="101.6" rx="31.6" ry="30.2"/>
	<ellipse fill="none" cx="96.4" cy="101.6" rx="38" ry="36.3"/>
	<polyline fill="none" points="96.4,101.6 91.2,122.6 96.4,101.6 101.7,80.5 96.4,101.6 74.4,96.6 96.4,101.6 118.5,106.6 
		96.4,101.6 198.7,242.5 96.4,101.6 -5.8,-39.3 96.4,101.6 -50.9,199.4 96.4,101.6 243.8,3.8 96.4,101.6 85.5,202.5 96.4,101.6 
		107.4,0.6 96.4,101.6 -9.2,91.1 96.4,101.6 202,112.1 96.4,101.6 55.3,273.1 96.4,101.6 137.6,-70 96.4,101.6 -83,62.2 96.4,101.6 
		275.9,140.9 96.4,101.6 103.9,112.8 96.4,101.6 89,90.3 96.4,101.6 84.7,108.7 96.4,101.6 108.2,94.5 96.4,101.6 105.3,124.4 
		96.4,101.6 87.6,78.7 96.4,101.6 72.6,110 96.4,101.6 120.3,93.1 96.4,101.6 210.5,230.7 96.4,101.6 -17.6,-27.6 96.4,101.6 
		-38.6,210.6 96.4,101.6 231.5,-7.5 96.4,101.6 190.8,149.4 96.4,101.6 2,53.8 96.4,101.6 46.4,191.8 96.4,101.6 146.4,11.3 
		96.4,101.6 112.5,143.3 96.4,101.6 80.3,59.8 96.4,101.6 52.8,117 96.4,101.6 140.1,86.2 96.4,101.6 174.5,225.6 96.4,101.6 
		18.4,-22.5 96.4,101.6 -33.3,176.2 96.4,101.6 226.2,27 96.4,101.6 109.4,195.7 96.4,101.6 83.5,7.4 96.4,101.6 -2,113.9 
		96.4,101.6 194.9,89.2 96.4,101.6 95.4,105.6 96.4,101.6 97.5,97.5 96.4,101.6 92.2,100.6 96.4,101.6 100.7,102.5 96.4,101.6 
		184,131.5 96.4,101.6 8.9,71.6 96.4,101.6 65.1,185.3 96.4,101.6 127.8,17.8 96.4,101.6 185.7,250.4 96.4,101.6 7.1,-47.3 
		96.4,101.6 -59.3,186.9 96.4,101.6 252.2,16.2 96.4,101.6 138.7,248.9 96.4,101.6 54.1,-45.8 96.4,101.6 -57.7,142 96.4,101.6 
		250.6,61.1 	"/>
	
		<radialGradient id="SVGID_8_" cx="257.0822" cy="75.8215" r="26.3879" gradientTransform="matrix(2.8772 0 0 2.7508 -643.2281 -107.0102)" gradientUnits="userSpaceOnUse">
		<stop  offset="0" style="stop-color:#60CE00"/>
		<stop  offset="0.73" style="stop-color:#113A04"/>
		<stop  offset="1" style="stop-color:#60CE00"/>
	</radialGradient>
	<ellipse opacity="0.15" fill="url(#SVGID_8_)" cx="96.4" cy="101.6" rx="75.9" ry="72.6"/>
	
		<radialGradient id="SVGID_9_" cx="257.0822" cy="75.8215" r="13.194" gradientTransform="matrix(2.8772 0 0 2.7508 -643.2281 -107.0102)" gradientUnits="userSpaceOnUse">
		<stop  offset="0.15" style="stop-color:#FFFFFF"/>
		<stop  offset="0.1838" style="stop-color:#ECE9F5"/>
		<stop  offset="0.2735" style="stop-color:#BCB2DD"/>
		<stop  offset="0.351" style="stop-color:#9A8ACB"/>
		<stop  offset="0.4124" style="stop-color:#8572C0"/>
		<stop  offset="0.45" style="stop-color:#7D69BC"/>
		<stop  offset="0.5495" style="stop-color:#748980"/>
		<stop  offset="0.6507" style="stop-color:#6BA749"/>
		<stop  offset="0.7382" style="stop-color:#65BC21"/>
		<stop  offset="0.8075" style="stop-color:#61C909"/>
		<stop  offset="0.85" style="stop-color:#60CE00"/>
		<stop  offset="0.8569" style="stop-color:#5FCA02"/>
		<stop  offset="0.8642" style="stop-color:#5CBD07"/>
		<stop  offset="0.8715" style="stop-color:#58A910"/>
		<stop  offset="0.8789" style="stop-color:#518C1D"/>
		<stop  offset="0.8864" style="stop-color:#49662D"/>
		<stop  offset="0.8938" style="stop-color:#3F3941"/>
		<stop  offset="0.9" style="stop-color:#350D54"/>
		<stop  offset="0.906" style="stop-color:#3B2848"/>
		<stop  offset="0.9172" style="stop-color:#455335"/>
		<stop  offset="0.9289" style="stop-color:#4D7925"/>
		<stop  offset="0.9411" style="stop-color:#549817"/>
		<stop  offset="0.9537" style="stop-color:#59B00D"/>
		<stop  offset="0.9671" style="stop-color:#5DC106"/>
		<stop  offset="0.9818" style="stop-color:#5FCB01"/>
		<stop  offset="1" style="stop-color:#60CE00"/>
	</radialGradient>
	<ellipse opacity="0.5" fill="url(#SVGID_9_)" cx="96.4" cy="101.6" rx="38" ry="36.3"/>
	
		<radialGradient id="SVGID_10_" cx="257.0822" cy="75.8215" r="10.9949" gradientTransform="matrix(2.8772 0 0 2.7508 -643.2281 -107.0102)" gradientUnits="userSpaceOnUse">
		<stop  offset="0.15" style="stop-color:#FFFFFF"/>
		<stop  offset="0.2824" style="stop-color:#C2C2C2"/>
		<stop  offset="0.4253" style="stop-color:#888888"/>
		<stop  offset="0.5636" style="stop-color:#575757"/>
		<stop  offset="0.6936" style="stop-color:#313131"/>
		<stop  offset="0.8134" style="stop-color:#161616"/>
		<stop  offset="0.9192" style="stop-color:#060606"/>
		<stop  offset="1" style="stop-color:#000000"/>
	</radialGradient>
	<ellipse fill="url(#SVGID_10_)" cx="96.4" cy="101.6" rx="31.6" ry="30.2"/>
	<polyline opacity="3.000000e-02" fill="none" stroke="#FFFFFF" stroke-width="2" stroke-miterlimit="10" points="96.4,101.6 
		91.2,122.6 96.4,101.6 101.7,80.5 96.4,101.6 74.4,96.6 96.4,101.6 118.5,106.6 96.4,101.6 198.7,242.5 96.4,101.6 -5.8,-39.3 
		96.4,101.6 -50.9,199.4 96.4,101.6 243.8,3.8 96.4,101.6 85.5,202.5 96.4,101.6 107.4,0.6 96.4,101.6 -9.2,91.1 96.4,101.6 
		202,112.1 96.4,101.6 55.3,273.1 96.4,101.6 137.6,-70 96.4,101.6 -83,62.2 96.4,101.6 275.9,140.9 96.4,101.6 103.9,112.8 
		96.4,101.6 89,90.3 96.4,101.6 84.7,108.7 96.4,101.6 108.2,94.5 96.4,101.6 105.3,124.4 96.4,101.6 87.6,78.7 96.4,101.6 
		72.6,110 96.4,101.6 120.3,93.1 96.4,101.6 210.5,230.7 96.4,101.6 -17.6,-27.6 96.4,101.6 -38.6,210.6 96.4,101.6 231.5,-7.5 
		96.4,101.6 190.8,149.4 96.4,101.6 2,53.8 96.4,101.6 46.4,191.8 96.4,101.6 146.4,11.3 96.4,101.6 112.5,143.3 96.4,101.6 
		80.3,59.8 96.4,101.6 52.8,117 96.4,101.6 140.1,86.2 96.4,101.6 174.5,225.6 96.4,101.6 18.4,-22.5 96.4,101.6 -33.3,176.2 
		96.4,101.6 226.2,27 96.4,101.6 109.4,195.7 96.4,101.6 83.5,7.4 96.4,101.6 -2,113.9 96.4,101.6 194.9,89.2 96.4,101.6 
		95.4,105.6 96.4,101.6 97.5,97.5 96.4,101.6 92.2,100.6 96.4,101.6 100.7,102.5 96.4,101.6 184,131.5 96.4,101.6 8.9,71.6 
		96.4,101.6 65.1,185.3 96.4,101.6 127.8,17.8 96.4,101.6 185.7,250.4 96.4,101.6 7.1,-47.3 96.4,101.6 -59.3,186.9 96.4,101.6 
		252.2,16.2 96.4,101.6 138.7,248.9 96.4,101.6 54.1,-45.8 96.4,101.6 -57.7,142 96.4,101.6 250.6,61.1 	"/>
</g>
<g>
	<line fill="none" x1="215.7" y1="95.5" x2="231.2" y2="130"/>
	<ellipse fill="none" cx="215.7" cy="95.5" rx="32.7" ry="31.3"/>
	<ellipse fill="none" cx="215.7" cy="95.5" rx="39.3" ry="37.6"/>
	<polyline fill="none" points="215.7,95.5 210.3,117.3 215.7,95.5 221.1,73.7 215.7,95.5 192.9,90.4 215.7,95.5 238.5,100.7 
		215.7,95.5 321.5,241.3 215.7,95.5 109.8,-50.3 215.7,95.5 63.2,196.7 215.7,95.5 368.2,-5.7 215.7,95.5 204.3,200 215.7,95.5 
		227.1,-8.9 215.7,95.5 106.4,84.7 215.7,95.5 325,106.4 215.7,95.5 173.1,273.1 215.7,95.5 258.3,-82 215.7,95.5 30,54.8 
		215.7,95.5 401.4,136.3 215.7,95.5 223.4,107.2 215.7,95.5 208,83.9 215.7,95.5 203.5,102.9 215.7,95.5 227.8,88.2 215.7,95.5 
		224.9,119.1 215.7,95.5 206.5,71.9 215.7,95.5 191,104.3 215.7,95.5 240.4,86.8 215.7,95.5 333.7,229.1 215.7,95.5 97.7,-38.1 
		215.7,95.5 75.9,208.4 215.7,95.5 355.4,-17.3 215.7,95.5 313.4,145 215.7,95.5 118,46.1 215.7,95.5 163.9,188.9 215.7,95.5 
		267.4,2.1 215.7,95.5 232.3,138.7 215.7,95.5 199,52.4 215.7,95.5 170.5,111.5 215.7,95.5 260.8,79.6 215.7,95.5 296.4,223.9 
		215.7,95.5 134.9,-32.8 215.7,95.5 81.5,172.7 215.7,95.5 349.9,18.3 215.7,95.5 229,192.9 215.7,95.5 202.3,-1.9 215.7,95.5 
		113.8,108.3 215.7,95.5 317.5,82.8 215.7,95.5 214.6,99.7 215.7,95.5 216.7,91.3 215.7,95.5 211.3,94.5 215.7,95.5 220.1,96.5 
		215.7,95.5 306.3,126.6 215.7,95.5 125.1,64.5 215.7,95.5 183.2,182.2 215.7,95.5 248.1,8.9 215.7,95.5 308.1,249.6 215.7,95.5 
		123.3,-58.5 215.7,95.5 54.5,183.9 215.7,95.5 376.8,7.2 215.7,95.5 259.5,248 215.7,95.5 171.9,-56.9 215.7,95.5 56.2,137.4 
		215.7,95.5 375.2,53.7 	"/>
	
		<radialGradient id="SVGID_11_" cx="298.5258" cy="73.6282" r="27.3056" gradientTransform="matrix(2.8772 0 0 2.7508 -643.2281 -107.0102)" gradientUnits="userSpaceOnUse">
		<stop  offset="0" style="stop-color:#004FCE"/>
		<stop  offset="0.73" style="stop-color:#1A7891"/>
		<stop  offset="1" style="stop-color:#004FCE"/>
	</radialGradient>
	<ellipse opacity="0.15" fill="url(#SVGID_11_)" cx="215.7" cy="95.5" rx="78.6" ry="75.1"/>
	
		<radialGradient id="SVGID_12_" cx="298.5258" cy="73.6282" r="13.6528" gradientTransform="matrix(2.8772 0 0 2.7508 -643.2281 -107.0102)" gradientUnits="userSpaceOnUse">
		<stop  offset="0.15" style="stop-color:#FFFFFF"/>
		<stop  offset="0.1838" style="stop-color:#E9F5F4"/>
		<stop  offset="0.2735" style="stop-color:#B2DDDB"/>
		<stop  offset="0.351" style="stop-color:#8ACBC8"/>
		<stop  offset="0.4124" style="stop-color:#72C0BC"/>
		<stop  offset="0.45" style="stop-color:#69BCB8"/>
		<stop  offset="0.5533" style="stop-color:#4698BF"/>
		<stop  offset="0.6831" style="stop-color:#2070C7"/>
		<stop  offset="0.7866" style="stop-color:#0958CC"/>
		<stop  offset="0.85" style="stop-color:#004FCE"/>
		<stop  offset="0.8585" style="stop-color:#0253CE"/>
		<stop  offset="0.8672" style="stop-color:#0760CF"/>
		<stop  offset="0.8761" style="stop-color:#1074CF"/>
		<stop  offset="0.8851" style="stop-color:#1C91D1"/>
		<stop  offset="0.8941" style="stop-color:#2BB6D2"/>
		<stop  offset="0.9" style="stop-color:#37D3D3"/>
		<stop  offset="0.9033" style="stop-color:#33C9D3"/>
		<stop  offset="0.9168" style="stop-color:#23A4D1"/>
		<stop  offset="0.931" style="stop-color:#1685D0"/>
		<stop  offset="0.9458" style="stop-color:#0D6DCF"/>
		<stop  offset="0.9615" style="stop-color:#065CCE"/>
		<stop  offset="0.9787" style="stop-color:#0152CE"/>
		<stop  offset="1" style="stop-color:#004FCE"/>
	</radialGradient>
	<ellipse opacity="0.5" fill="url(#SVGID_12_)" cx="215.7" cy="95.5" rx="39.3" ry="37.6"/>
	
		<radialGradient id="SVGID_13_" cx="298.5258" cy="73.6282" r="11.3773" gradientTransform="matrix(2.8772 0 0 2.7508 -643.2281 -107.0102)" gradientUnits="userSpaceOnUse">
		<stop  offset="0.15" style="stop-color:#FFFFFF"/>
		<stop  offset="0.2824" style="stop-color:#C2C2C2"/>
		<stop  offset="0.4253" style="stop-color:#888888"/>
		<stop  offset="0.5636" style="stop-color:#575757"/>
		<stop  offset="0.6936" style="stop-color:#313131"/>
		<stop  offset="0.8134" style="stop-color:#161616"/>
		<stop  offset="0.9192" style="stop-color:#060606"/>
		<stop  offset="1" style="stop-color:#000000"/>
	</radialGradient>
	<ellipse fill="url(#SVGID_13_)" cx="215.7" cy="95.5" rx="32.7" ry="31.3"/>
	<polyline opacity="3.000000e-02" fill="none" stroke="#FFFFFF" stroke-width="2" stroke-miterlimit="10" points="215.7,95.5 
		210.3,117.3 215.7,95.5 221.1,73.7 215.7,95.5 192.9,90.4 215.7,95.5 238.5,100.7 215.7,95.5 321.5,241.3 215.7,95.5 109.8,-50.3 
		215.7,95.5 63.2,196.7 215.7,95.5 368.2,-5.7 215.7,95.5 204.3,200 215.7,95.5 227.1,-8.9 215.7,95.5 106.4,84.7 215.7,95.5 
		325,106.4 215.7,95.5 173.1,273.1 215.7,95.5 258.3,-82 215.7,95.5 30,54.8 215.7,95.5 401.4,136.3 215.7,95.5 223.4,107.2 
		215.7,95.5 208,83.9 215.7,95.5 203.5,102.9 215.7,95.5 227.8,88.2 215.7,95.5 224.9,119.1 215.7,95.5 206.5,71.9 215.7,95.5 
		191,104.3 215.7,95.5 240.4,86.8 215.7,95.5 333.7,229.1 215.7,95.5 97.7,-38.1 215.7,95.5 75.9,208.4 215.7,95.5 355.4,-17.3 
		215.7,95.5 313.4,145 215.7,95.5 118,46.1 215.7,95.5 163.9,188.9 215.7,95.5 267.4,2.1 215.7,95.5 232.3,138.7 215.7,95.5 
		199,52.4 215.7,95.5 170.5,111.5 215.7,95.5 260.8,79.6 215.7,95.5 296.4,223.9 215.7,95.5 134.9,-32.8 215.7,95.5 81.5,172.7 
		215.7,95.5 349.9,18.3 215.7,95.5 229,192.9 215.7,95.5 202.3,-1.9 215.7,95.5 113.8,108.3 215.7,95.5 317.5,82.8 215.7,95.5 
		214.6,99.7 215.7,95.5 216.7,91.3 215.7,95.5 211.3,94.5 215.7,95.5 220.1,96.5 215.7,95.5 306.3,126.6 215.7,95.5 125.1,64.5 
		215.7,95.5 183.2,182.2 215.7,95.5 248.1,8.9 215.7,95.5 308.1,249.6 215.7,95.5 123.3,-58.5 215.7,95.5 54.5,183.9 215.7,95.5 
		376.8,7.2 215.7,95.5 259.5,248 215.7,95.5 171.9,-56.9 215.7,95.5 56.2,137.4 215.7,95.5 375.2,53.7 	"/>
</g>
<g>
	<line fill="none" x1="474" y1="171" x2="380" y2="132"/>
	<circle fill="none" cx="474" cy="171" r="84.8"/>
	<circle fill="none" cx="474" cy="171" r="101.8"/>
	<path fill="none" d="M474,171l36.5,15.5L474,171l-36.5-15.5L474,171l-15.5,36.5L474,171l15.5-36.5L474,171l386.3-25.3L474,171
		c0,0-96.6,6.3-193.2,12.6c-12.1,0.8-24.1,1.6-36,2.4c-11.9,0.8-24.2,4.2-34.9,2.3c-10.6,3.3-22.3,1.5-32.6,2.1
		c-10.4,0.7-20.2,1.3-29.2,1.9c-36.2,2.4-60.4,4-60.4,4s24.1-1.6,60.4-4c9.1-0.6,18.9-1.2,29.2-1.9c10.4-0.7,22,1.2,32.6-2.1
		c10.7,1.9,23-1.5,34.9-2.3c11.9-0.8,24-1.6,36-2.4C377.4,177.3,474,171,474,171l25.3,386.3L474,171l-25.3-386.3L474,171
		c0,0,66.5,31,139.4,64.9c9.1,4.2,30.8,5.2,27.5,12.8c16.4-1.5,30.5-6.2,27.4,12.8c7.9-16.8,13.9,9.7,26.6,12.4
		c-1.4,2.6,16.6,8,25.1,11.7c8.1,3.8,15.7,7.3,22.9,10.7c8.5,4,16.3,7.6,23.3,10.9c7,3.2,36.9-2,18.1,8.4
		c22.7-8.6,30.9-13.7,11.7,5.5c19.8-18.8,20.5-19.5,4.2,1.9c16.4-21.5,15.6-20.8-4.2-1.9c19.2-19.1,11-14.1-11.7-5.5
		c18.8-10.4-11.1-5.2-18.1-8.4s-14.8-6.9-23.3-10.9c-7.2-3.4-14.9-6.9-22.9-10.7c-8.5-3.7-26.6-9.2-25.1-11.7
		c-12.7-2.7-18.8-29.2-26.6-12.4c3-19-11-14.2-27.4-12.8c3.2-7.6-18.4-8.6-27.5-12.8C540.5,202,474,171,474,171L147.6,19L474,171
		L322,497.4L474,171l152-326.4L474,171c0,0,58.3,41,115.3,81.2c8.2,5.7,16.3,11.5,24.2,17c4.5,3.2,10.1,8.1,15.1,9.6
		c4.5,4.5,7.5,10.2,11.1,8.8c3,6.1,12.7,8.3,19.4,11.1c4.2,4.4,7.3,7,3.7,5.2c4.7,2.6,9.3,4.8,11.8,7.2c2.4,2.4,4,4.6,6.6,5.7
		c-2.2-0.9-2.6,0.2-1.1,1.6c2,2,16.5,20.5,13.3,7c3.4,13.7-6.8,3.4-8.9-2.4c3.4,6.9,18.7,24.5,13.3,5.5c5.5,18.9-9.8,1.3-13.3-5.5
		c2,5.9,12.3,16.1,8.9,2.4c3.2,13.5-11.3-4.9-13.3-7c-1.5-1.4-1.1-2.5,1.1-1.6c-2.6-1.1-4.1-3.3-6.6-5.7c-2.4-2.4-7-4.7-11.8-7.2
		c3.6,1.8,0.5-0.8-3.7-5.2c-6.7-2.8-16.3-5-19.4-11.1c-3.6,1.4-6.5-4.3-11.1-8.8c-5-1.5-10.5-6.4-15.1-9.6
		c-7.9-5.6-16.1-11.3-24.2-17C532.3,212,474,171,474,171L250.4,13.5L474,171L316.5,394.6L474,171L631.5-52.6L474,171l55.9,26.8
		L474,171l-55.9-26.8L474,171l-26.8,55.9L474,171l26.8-55.9L474,171l165.8-48.1L474,171l-165.8,48.1L474,171l48.1,165.8L474,171
		L425.9,5.2L474,171l157.6,3.2L474,171l-157.6-3.2L474,171l-3.2,157.6L474,171l3.2-157.6L474,171L889.3-56.4L474,171
		c0,0-103.8,56.8-207.6,113.7c-10.4,5.7-20.8,11.4-31,17c-11.9,8.1-48.3,10.4-30.4,16.7c-18.4-5.9-19.5-4-29.2,16
		c6.9-18.5-18.6,10.2-27.3,15c-8.7,4.8-17,9.3-24.8,13.6c-38.9,21.3-64.9,35.5-64.9,35.5s26-14.2,64.9-35.5
		c7.8-4.3,16.1-8.8,24.8-13.6c8.7-4.8,34.2-33.5,27.3-15c9.7-20,10.7-21.9,29.2-16c-17.9-6.2,18.5-8.5,30.4-16.7
		c10.3-5.6,20.7-11.3,31-17C370.2,227.8,474,171,474,171s27.9,50.9,64.1,117c5.2,9.4,10.5,19.2,16,29.2c5.5,10,18.3,20.3,16.7,30.4
		c11.3,7.1,15.7,18.1,17,31c8.5,5.1,11.4,20.8,17,31c5.6,10.3,11.2,20.5,16.7,30.4c43.7,79.7,80,146.2,80,146.2s-36.4-66.4-80-146.2
		c-5.5-10-11-20.1-16.7-30.4c-5.6-10.3-8.5-25.9-17-31c-1.3-12.9-5.7-24-17-31c1.7-10.1-11.2-20.5-16.7-30.4
		c-5.5-10-10.8-19.7-16-29.2C501.9,221.9,474,171,474,171L246.6-244.3L474,171c0,0,63.4,47.9,126.9,95.8c4.5,3.4,9.2,7.4,13.6,10.2
		c4.6,4.1,8.6,14,13.4,10.1c2.4,9.3,10.6,13.5,21.4,12.9c0.8,7.5,4.5,10,4.5,6.6c1.9,4.9,14.5,5.5,18,8.5c3.4,3,6.4,13,5.7,9.4
		c1.2,3.9,4.6,7.2,4.3,0.6c5.4,11.1,22.2,33,16.1,14.8c6.3,18.4,6.8,18.6,2.6,1.3c4.4,17.5,5.1,17.2,13.3,10.7
		c-8.2,6.5-6.3,5.7,5.9,4.5c-12.3,1.2-10.3,0.5,4.4,3.3c-14.7-2.8-12.8-3.3,3.7,2.8c-16.4-6.1-18.4-5.6-3.7-2.8
		c-14.7-2.9-16.7-2.1-4.4-3.3c-12.3,1.2-14.1,2-5.9-4.5c-8.2,6.5-8.8,6.8-13.3-10.7c4.2,17.2,3.6,17.1-2.6-1.3
		c6.1,18.3-10.7-3.6-16.1-14.8c0.3,6.6-3.1,3.3-4.3-0.6c0.8,3.6-2.2-6.4-5.7-9.4c-3.5-3-16.1-3.6-18-8.5c0,3.4-3.7,0.9-4.5-6.6
		c-10.7,0.6-18.9-3.6-21.4-12.9c-4.8,3.9-8.9-6-13.4-10.1c-4.3-2.8-9-6.8-13.6-10.2C537.4,218.9,474,171,474,171L220.3-20.5L474,171
		L282.5,424.7L474,171L665.5-82.7L474,171l287.6-87.4L474,171c0,0-108.9,33.1-192.7,58.5c-10.5,3.2-20.6,6.2-30,9.1
		c-13.8,2.1-41.1-0.9-26.1,7.9c-15.9-8.6-16.4-8.5-20.6,6.2c4.1-14.7,2.1-9.4-13.5,4.1c15.6-13.4,13.8-10.2-4.8,1.5
		c18.7-11.7,20.4-14.9,4.8-1.5c15.6-13.5,17.6-18.8,13.5-4.1c4.2-14.8,4.7-14.8,20.6-6.2c-15.1-8.8,12.3-5.8,26.1-7.9
		c9.4-2.9,19.5-5.9,30-9.1C365.1,204.1,474,171,474,171l87.4,287.6L474,171l-87.4-287.6L474,171c0,0,57.4,48.1,118.5,99.3
		c4.4,3.7,9.5,9,13.1,11c4.8,5.1,10.7,20.8,13.1,11c2.9,14.4,7.3,20.2,20.3,12.9c-6.4,11.5-4.7,13.5,5.5,8.8
		c-7.6,6.2,15.9,4.6,21.4,7.4c2.9,3.3,8.7,27.5,3,13.1c6.2,14.9,15.7,17.8,10.1-0.4c8,21.1,17.5,28.5,12,19c5.6,9.6,7.8,9,7.1,3.4
		c0.8,5.5,4,4.2,11.7,12.3c-7.6-8,7.2-4.1,20,16.8c-10.2-18.7,0.6-3.9,7.4,6.2c-6.8-10.1-17.6-24.9-7.4-6.2
		c-12.8-20.8-27.6-24.8-20-16.8c-7.7-8.1-10.9-6.8-11.7-12.3c0.7,5.5-1.5,6.2-7.1-3.4c5.6,9.6-4,2.2-12-19
		c5.5,18.2-3.9,15.3-10.1,0.4c5.7,14.4-0.1-9.8-3-13.1c-5.5-2.7-29-1.2-21.4-7.4c-10.2,4.7-11.9,2.7-5.5-8.8
		c-13,7.3-17.4,1.5-20.3-12.9c-2.5,9.8-8.3-5.9-13.1-11c-3.6-2-8.8-7.4-13.1-11C531.4,219.1,474,171,474,171L210.6-49.7L474,171
		c0,0-118.7,141.6-182,217.2c-5.8,6.9-11.1,13.2-15.8,18.8c-4.8,5.6-10.2,9.5-12.2,14.6c-4.5,2.7-6.2,7-7.9,9.4
		c-2,1.9-2.8,3.4-2.8,3.4c0,0,0.8-1.4,2.8-3.4c1.7-2.4,3.4-6.7,7.9-9.4c2-5.1,7.5-9,12.2-14.6c4.7-5.6,10-11.9,15.8-18.8
		C355.3,312.6,474,171,474,171L694.7-92.4L474,171c0,0,51.3,42.4,111.5,92.2c8.6,7.1,19.6,19.9,26.3,21.7c5,8.4,8.6,22,13.9,10.8
		c-0.3,15,0.7,19.1,12.7,11.2c-8.3,10.7,4.1,7.3,15.5,7c-4,3.7,7.4,4.6,11.3,6.8c0.4,2.6,2,13.1-0.5,7.9c4.6,4.8,14.6,13.9,12.7,1.3
		c6,17.1,19.9,32.1,12.5,19.5c7.5,12.7,10,12,8.1,3.6c2,8.5,5.8,6.9,15.2,15.7c-9.4-8.7,12.6,6.2,25.4,21
		c-3.1-6.7,14.4,11.9,19.9,16.5c11.2,9.2,17.7,14.6,17.7,14.6s-6.5-5.4-17.7-14.6c-5.6-4.6-23-23.2-19.9-16.5
		c-12.9-14.8-34.8-29.8-25.4-21c-9.5-8.8-13.3-7.2-15.2-15.7c1.9,8.4-0.6,9.1-8.1-3.6c7.4,12.6-6.4-2.3-12.5-19.5
		c1.9,12.6-8.1,3.4-12.7-1.3c2.5,5.3,0.9-5.3,0.5-7.9c-3.9-2.2-15.2-3.1-11.3-6.8c-11.4,0.3-23.8,3.7-15.5-7
		c-12.1,7.9-13.1,3.8-12.7-11.2c-5.3,11.1-8.9-2.5-13.9-10.8c-6.6-1.9-17.7-14.6-26.3-21.7C525.3,213.4,474,171,474,171L171.7-78.9
		L474,171c0,0-104.6,126.6-178.5,215.9c-6.7,8.1-13.2,15.9-19.3,23.3c-6.1,7.4-11.8,14.3-17.1,20.7c-5.3,6.4-10.1,12.2-14.4,17.4
		c-12.8,15.5-20.6,24.9-20.6,24.9s7.8-9.4,20.6-24.9c4.3-5.2,9.1-11,14.4-17.4c5.3-6.4,11-13.4,17.1-20.7
		c6.1-7.4,12.6-15.2,19.3-23.3C369.4,297.6,474,171,474,171l249.9-302.3L474,171c0,0,60.3,27.2,120.6,54.4
		c10.1,4.5,20.1,9.1,29.9,13.5c9.8,4.4,41.8-4.1,28.2,12.7c19.1-14.4,21.5-7.6,24.9,11.2c0.7-17,8.9,7,19.8,8.9
		c-3.2,1.6,7.1,5.4,13.1,5.9c-0.4,2,2.9,2.4,4.7,2.1c-1.8,0.3-5.1-0.1-4.7-2.1c-6-0.5-16.3-4.4-13.1-5.9
		c-10.9-1.9-19.1-25.9-19.8-8.9c-3.3-18.8-5.8-25.6-24.9-11.2c13.6-16.8-18.4-8.3-28.2-12.7c-9.8-4.4-19.8-8.9-29.9-13.5
		C534.3,198.2,474,171,474,171L232.7,62.3L474,171L365.3,412.3L474,171L582.7-70.3L474,171c0,0,62.7,46.3,118.2,87.4
		c7.9,5.9,15.7,11.6,23.2,17.1c4.3,3.5,9,11.1,13.8,9.1c3,7.2,4.8,12.8,10,8.5c0.4,8.4,11.2,8.3,18.6,9.8c2,4.4,3.1,6.8,0.7,4.4
		c4.2,2.8,11.7,3.6,13.6,5.3c1.9,1.6,1.3,3.1-0.7,4.3c4.4-2.1,4.6-0.5,4.7,3.5c-0.1-4-0.3-5.6-4.7-3.5c2-1.2,2.6-2.7,0.7-4.3
		c-1.9-1.6-9.4-2.5-13.6-5.3c2.4,2.4,1.3,0-0.7-4.4c-7.4-1.5-18.2-1.4-18.6-9.8c-5.2,4.3-7-1.3-10-8.5c-4.8,2-9.6-5.6-13.8-9.1
		c-7.4-5.5-15.2-11.3-23.2-17.1C536.7,217.3,474,171,474,171L271.8,21.6L474,171L324.6,373.2L474,171L623.4-31.2L474,171
		c0,0,54.2,54.4,101.3,101.7c6.7,6.8,17.4,18.7,19.6,19.7c8.8,10.7,22.1,30.4,17.6,17.7c5.6,13.8,6.9,14.3,8.7,8.7
		c-1.5,5.9-1.6,6.8,7.5,7.5c-8.9-0.5-8.1,2.3,9,5.2c-16.4-2.6-16,0.3,1.8,5.7c-17.6-5.1-8.7,0.4,8.1-0.2c-16.3,0.9-21.6,0.3-4.1,4.1
		c-17.5-3.8-12.2-3.2,4.1-4.1c-16.8,0.6-25.6-4.9-8.1,0.2c-17.8-5.4-18.2-8.2-1.8-5.7c-17-2.9-17.8-5.7-9-5.2
		c-9.1-0.8-9-1.6-7.5-7.5c-1.8,5.6-3.1,5.1-8.7-8.7c4.5,12.7-8.8-7-17.6-17.7c-2.2-1-12.8-12.9-19.6-19.7
		C528.2,225.4,474,171,474,171L304.6,0.9L474,171L303.9,340.4L474,171L644.1,1.6"/>
	<radialGradient id="SVGID_14_" cx="474" cy="171" r="203.5387" gradientUnits="userSpaceOnUse">
		<stop  offset="0" style="stop-color:#EDDA2F"/>
		<stop  offset="0.73" style="stop-color:#91822A"/>
		<stop  offset="1" style="stop-color:#EDDA2F"/>
	</radialGradient>
	<path opacity="0.15" fill="url(#SVGID_14_)" d="M270.5,171c0,112.4,91.1,203.5,203.5,203.5c24.1,0,47.2-4.2,68.6-11.9
		c7.1-2.6,14.1-5.5,20.9-8.8c7-3.4,36.2-14.3,19.6-11c20.8-6,32.4-14.9,18.2-13c14.6-2.2,17.3-5.2,16.6-14.9
		c1.3,9.1,2.2,6.4,7.7-8.1c-4.4,13.2,0.2,4.6,7.2-8.5c-4.2,9.8,4.7-2.8,9.5-9.2c0.3,0.8,4.6-6,3.6-9c4.4-2.3,9.4-9.2,12.2-14.5
		c2.8-5.3,3.3-9.1-1.2-5.1c11.9-13.9,19.9-37.5,8.8-20.9c11.1-16.9,11.3-17.6,6.5-22c4.8,4.4,4.6,1.9,4-22.9
		c0.8,22.6,1.4-15.7,1.4-23.7s-0.5-16-1.4-23.7C664.4,46,578.4-32.5,474-32.5C361.6-32.5,270.5,58.6,270.5,171z"/>
	<radialGradient id="SVGID_15_" cx="474" cy="171" r="101.7693" gradientUnits="userSpaceOnUse">
		<stop  offset="0.15" style="stop-color:#FFFFFF"/>
		<stop  offset="0.2114" style="stop-color:#E1D1D7"/>
		<stop  offset="0.2918" style="stop-color:#BD9AA8"/>
		<stop  offset="0.3613" style="stop-color:#A47286"/>
		<stop  offset="0.4163" style="stop-color:#945A71"/>
		<stop  offset="0.45" style="stop-color:#8E5169"/>
		<stop  offset="0.4706" style="stop-color:#955B65"/>
		<stop  offset="0.5985" style="stop-color:#BA914E"/>
		<stop  offset="0.7089" style="stop-color:#D6B93D"/>
		<stop  offset="0.7964" style="stop-color:#E7D133"/>
		<stop  offset="0.85" style="stop-color:#EDDA2F"/>
		<stop  offset="0.8672" style="stop-color:#EAD630"/>
		<stop  offset="0.8851" style="stop-color:#E0C933"/>
		<stop  offset="0.9" style="stop-color:#D3B937"/>
		<stop  offset="0.9038" style="stop-color:#D5BC36"/>
		<stop  offset="0.9316" style="stop-color:#E3CD32"/>
		<stop  offset="0.9621" style="stop-color:#EAD730"/>
		<stop  offset="1" style="stop-color:#EDDA2F"/>
	</radialGradient>
	<circle opacity="0.5" fill="url(#SVGID_15_)" cx="474" cy="171" r="101.8"/>
	<radialGradient id="SVGID_16_" cx="474" cy="171" r="84.8078" gradientUnits="userSpaceOnUse">
		<stop  offset="0.15" style="stop-color:#FFFFFF"/>
		<stop  offset="0.2824" style="stop-color:#C2C2C2"/>
		<stop  offset="0.4253" style="stop-color:#888888"/>
		<stop  offset="0.5636" style="stop-color:#575757"/>
		<stop  offset="0.6936" style="stop-color:#313131"/>
		<stop  offset="0.8134" style="stop-color:#161616"/>
		<stop  offset="0.9192" style="stop-color:#060606"/>
		<stop  offset="1" style="stop-color:#000000"/>
	</radialGradient>
	<circle fill="url(#SVGID_16_)" cx="474" cy="171" r="84.8"/>
	<path opacity="3.000000e-02" fill="none" stroke="#FFFFFF" stroke-width="2" stroke-miterlimit="10" d="M474,171l36.5,15.5L474,171
		l-36.5-15.5L474,171l-15.5,36.5L474,171l15.5-36.5L474,171l386.3-25.3L474,171c0,0-96.6,6.3-193.2,12.6c-12.1,0.8-24.1,1.6-36,2.4
		c-11.9,0.8-24.2,4.2-34.9,2.3c-10.6,3.3-22.3,1.5-32.6,2.1c-10.4,0.7-20.2,1.3-29.2,1.9c-36.2,2.4-60.4,4-60.4,4s24.1-1.6,60.4-4
		c9.1-0.6,18.9-1.2,29.2-1.9c10.4-0.7,22,1.2,32.6-2.1c10.7,1.9,23-1.5,34.9-2.3c11.9-0.8,24-1.6,36-2.4
		C377.4,177.3,474,171,474,171l25.3,386.3L474,171l-25.3-386.3L474,171c0,0,66.5,31,139.4,64.9c9.1,4.2,30.8,5.2,27.5,12.8
		c16.4-1.5,30.5-6.2,27.4,12.8c7.9-16.8,13.9,9.7,26.6,12.4c-1.4,2.6,16.6,8,25.1,11.7c8.1,3.8,15.7,7.3,22.9,10.7
		c8.5,4,16.3,7.6,23.3,10.9c7,3.2,36.9-2,18.1,8.4c22.7-8.6,30.9-13.7,11.7,5.5c19.8-18.8,20.5-19.5,4.2,1.9
		c16.4-21.5,15.6-20.8-4.2-1.9c19.2-19.1,11-14.1-11.7-5.5c18.8-10.4-11.1-5.2-18.1-8.4s-14.8-6.9-23.3-10.9
		c-7.2-3.4-14.9-6.9-22.9-10.7c-8.5-3.7-26.6-9.2-25.1-11.7c-12.7-2.7-18.8-29.2-26.6-12.4c3-19-11-14.2-27.4-12.8
		c3.2-7.6-18.4-8.6-27.5-12.8C540.5,202,474,171,474,171L147.6,19L474,171L322,497.4L474,171l152-326.4L474,171
		c0,0,58.3,41,115.3,81.2c8.2,5.7,16.3,11.5,24.2,17c4.5,3.2,10.1,8.1,15.1,9.6c4.5,4.5,7.5,10.2,11.1,8.8c3,6.1,12.7,8.3,19.4,11.1
		c4.2,4.4,7.3,7,3.7,5.2c4.7,2.6,9.3,4.8,11.8,7.2c2.4,2.4,4,4.6,6.6,5.7c-2.2-0.9-2.6,0.2-1.1,1.6c2,2,16.5,20.5,13.3,7
		c3.4,13.7-6.8,3.4-8.9-2.4c3.4,6.9,18.7,24.5,13.3,5.5c5.5,18.9-9.8,1.3-13.3-5.5c2,5.9,12.3,16.1,8.9,2.4
		c3.2,13.5-11.3-4.9-13.3-7c-1.5-1.4-1.1-2.5,1.1-1.6c-2.6-1.1-4.1-3.3-6.6-5.7c-2.4-2.4-7-4.7-11.8-7.2c3.6,1.8,0.5-0.8-3.7-5.2
		c-6.7-2.8-16.3-5-19.4-11.1c-3.6,1.4-6.5-4.3-11.1-8.8c-5-1.5-10.5-6.4-15.1-9.6c-7.9-5.6-16.1-11.3-24.2-17
		C532.3,212,474,171,474,171L250.4,13.5L474,171L316.5,394.6L474,171L631.5-52.6L474,171l55.9,26.8L474,171l-55.9-26.8L474,171
		l-26.8,55.9L474,171l26.8-55.9L474,171l165.8-48.1L474,171l-165.8,48.1L474,171l48.1,165.8L474,171L425.9,5.2L474,171l157.6,3.2
		L474,171l-157.6-3.2L474,171l-3.2,157.6L474,171l3.2-157.6L474,171L889.3-56.4L474,171c0,0-103.8,56.8-207.6,113.7
		c-10.4,5.7-20.8,11.4-31,17c-11.9,8.1-48.3,10.4-30.4,16.7c-18.4-5.9-19.5-4-29.2,16c6.9-18.5-18.6,10.2-27.3,15
		c-8.7,4.8-17,9.3-24.8,13.6c-38.9,21.3-64.9,35.5-64.9,35.5s26-14.2,64.9-35.5c7.8-4.3,16.1-8.8,24.8-13.6
		c8.7-4.8,34.2-33.5,27.3-15c9.7-20,10.7-21.9,29.2-16c-17.9-6.2,18.5-8.5,30.4-16.7c10.3-5.6,20.7-11.3,31-17
		C370.2,227.8,474,171,474,171s27.9,50.9,64.1,117c5.2,9.4,10.5,19.2,16,29.2c5.5,10,18.3,20.3,16.7,30.4c11.3,7.1,15.7,18.1,17,31
		c8.5,5.1,11.4,20.8,17,31c5.6,10.3,11.2,20.5,16.7,30.4c43.7,79.7,80,146.2,80,146.2s-36.4-66.4-80-146.2
		c-5.5-10-11-20.1-16.7-30.4c-5.6-10.3-8.5-25.9-17-31c-1.3-12.9-5.7-24-17-31c1.7-10.1-11.2-20.5-16.7-30.4
		c-5.5-10-10.8-19.7-16-29.2C501.9,221.9,474,171,474,171L246.6-244.3L474,171c0,0,63.4,47.9,126.9,95.8c4.5,3.4,9.2,7.4,13.6,10.2
		c4.6,4.1,8.6,14,13.4,10.1c2.4,9.3,10.6,13.5,21.4,12.9c0.8,7.5,4.5,10,4.5,6.6c1.9,4.9,14.5,5.5,18,8.5c3.4,3,6.4,13,5.7,9.4
		c1.2,3.9,4.6,7.2,4.3,0.6c5.4,11.1,22.2,33,16.1,14.8c6.3,18.4,6.8,18.6,2.6,1.3c4.4,17.5,5.1,17.2,13.3,10.7
		c-8.2,6.5-6.3,5.7,5.9,4.5c-12.3,1.2-10.3,0.5,4.4,3.3c-14.7-2.8-12.8-3.3,3.7,2.8c-16.4-6.1-18.4-5.6-3.7-2.8
		c-14.7-2.9-16.7-2.1-4.4-3.3c-12.3,1.2-14.1,2-5.9-4.5c-8.2,6.5-8.8,6.8-13.3-10.7c4.2,17.2,3.6,17.1-2.6-1.3
		c6.1,18.3-10.7-3.6-16.1-14.8c0.3,6.6-3.1,3.3-4.3-0.6c0.8,3.6-2.2-6.4-5.7-9.4c-3.5-3-16.1-3.6-18-8.5c0,3.4-3.7,0.9-4.5-6.6
		c-10.7,0.6-18.9-3.6-21.4-12.9c-4.8,3.9-8.9-6-13.4-10.1c-4.3-2.8-9-6.8-13.6-10.2C537.4,218.9,474,171,474,171L220.3-20.5L474,171
		L282.5,424.7L474,171L665.5-82.7L474,171l287.6-87.4L474,171c0,0-108.9,33.1-192.7,58.5c-10.5,3.2-20.6,6.2-30,9.1
		c-13.8,2.1-41.1-0.9-26.1,7.9c-15.9-8.6-16.4-8.5-20.6,6.2c4.1-14.7,2.1-9.4-13.5,4.1c15.6-13.4,13.8-10.2-4.8,1.5
		c18.7-11.7,20.4-14.9,4.8-1.5c15.6-13.5,17.6-18.8,13.5-4.1c4.2-14.8,4.7-14.8,20.6-6.2c-15.1-8.8,12.3-5.8,26.1-7.9
		c9.4-2.9,19.5-5.9,30-9.1C365.1,204.1,474,171,474,171l87.4,287.6L474,171l-87.4-287.6L474,171c0,0,57.4,48.1,118.5,99.3
		c4.4,3.7,9.5,9,13.1,11c4.8,5.1,10.7,20.8,13.1,11c2.9,14.4,7.3,20.2,20.3,12.9c-6.4,11.5-4.7,13.5,5.5,8.8
		c-7.6,6.2,15.9,4.6,21.4,7.4c2.9,3.3,8.7,27.5,3,13.1c6.2,14.9,15.7,17.8,10.1-0.4c8,21.1,17.5,28.5,12,19c5.6,9.6,7.8,9,7.1,3.4
		c0.8,5.5,4,4.2,11.7,12.3c-7.6-8,7.2-4.1,20,16.8c-10.2-18.7,0.6-3.9,7.4,6.2c-6.8-10.1-17.6-24.9-7.4-6.2
		c-12.8-20.8-27.6-24.8-20-16.8c-7.7-8.1-10.9-6.8-11.7-12.3c0.7,5.5-1.5,6.2-7.1-3.4c5.6,9.6-4,2.2-12-19
		c5.5,18.2-3.9,15.3-10.1,0.4c5.7,14.4-0.1-9.8-3-13.1c-5.5-2.7-29-1.2-21.4-7.4c-10.2,4.7-11.9,2.7-5.5-8.8
		c-13,7.3-17.4,1.5-20.3-12.9c-2.5,9.8-8.3-5.9-13.1-11c-3.6-2-8.8-7.4-13.1-11C531.4,219.1,474,171,474,171L210.6-49.7L474,171
		c0,0-118.7,141.6-182,217.2c-5.8,6.9-11.1,13.2-15.8,18.8c-4.8,5.6-10.2,9.5-12.2,14.6c-4.5,2.7-6.2,7-7.9,9.4
		c-2,1.9-2.8,3.4-2.8,3.4c0,0,0.8-1.4,2.8-3.4c1.7-2.4,3.4-6.7,7.9-9.4c2-5.1,7.5-9,12.2-14.6c4.7-5.6,10-11.9,15.8-18.8
		C355.3,312.6,474,171,474,171L694.7-92.4L474,171c0,0,51.3,42.4,111.5,92.2c8.6,7.1,19.6,19.9,26.3,21.7c5,8.4,8.6,22,13.9,10.8
		c-0.3,15,0.7,19.1,12.7,11.2c-8.3,10.7,4.1,7.3,15.5,7c-4,3.7,7.4,4.6,11.3,6.8c0.4,2.6,2,13.1-0.5,7.9c4.6,4.8,14.6,13.9,12.7,1.3
		c6,17.1,19.9,32.1,12.5,19.5c7.5,12.7,10,12,8.1,3.6c2,8.5,5.8,6.9,15.2,15.7c-9.4-8.7,12.6,6.2,25.4,21
		c-3.1-6.7,14.4,11.9,19.9,16.5c11.2,9.2,17.7,14.6,17.7,14.6s-6.5-5.4-17.7-14.6c-5.6-4.6-23-23.2-19.9-16.5
		c-12.9-14.8-34.8-29.8-25.4-21c-9.5-8.8-13.3-7.2-15.2-15.7c1.9,8.4-0.6,9.1-8.1-3.6c7.4,12.6-6.4-2.3-12.5-19.5
		c1.9,12.6-8.1,3.4-12.7-1.3c2.5,5.3,0.9-5.3,0.5-7.9c-3.9-2.2-15.2-3.1-11.3-6.8c-11.4,0.3-23.8,3.7-15.5-7
		c-12.1,7.9-13.1,3.8-12.7-11.2c-5.3,11.1-8.9-2.5-13.9-10.8c-6.6-1.9-17.7-14.6-26.3-21.7C525.3,213.4,474,171,474,171L171.7-78.9
		L474,171c0,0-104.6,126.6-178.5,215.9c-6.7,8.1-13.2,15.9-19.3,23.3c-6.1,7.4-11.8,14.3-17.1,20.7c-5.3,6.4-10.1,12.2-14.4,17.4
		c-12.8,15.5-20.6,24.9-20.6,24.9s7.8-9.4,20.6-24.9c4.3-5.2,9.1-11,14.4-17.4c5.3-6.4,11-13.4,17.1-20.7
		c6.1-7.4,12.6-15.2,19.3-23.3C369.4,297.6,474,171,474,171l249.9-302.3L474,171c0,0,60.3,27.2,120.6,54.4
		c10.1,4.5,20.1,9.1,29.9,13.5c9.8,4.4,41.8-4.1,28.2,12.7c19.1-14.4,21.5-7.6,24.9,11.2c0.7-17,8.9,7,19.8,8.9
		c-3.2,1.6,7.1,5.4,13.1,5.9c-0.4,2,2.9,2.4,4.7,2.1c-1.8,0.3-5.1-0.1-4.7-2.1c-6-0.5-16.3-4.4-13.1-5.9
		c-10.9-1.9-19.1-25.9-19.8-8.9c-3.3-18.8-5.8-25.6-24.9-11.2c13.6-16.8-18.4-8.3-28.2-12.7c-9.8-4.4-19.8-8.9-29.9-13.5
		C534.3,198.2,474,171,474,171L232.7,62.3L474,171L365.3,412.3L474,171L582.7-70.3L474,171c0,0,62.7,46.3,118.2,87.4
		c7.9,5.9,15.7,11.6,23.2,17.1c4.3,3.5,9,11.1,13.8,9.1c3,7.2,4.8,12.8,10,8.5c0.4,8.4,11.2,8.3,18.6,9.8c2,4.4,3.1,6.8,0.7,4.4
		c4.2,2.8,11.7,3.6,13.6,5.3c1.9,1.6,1.3,3.1-0.7,4.3c4.4-2.1,4.6-0.5,4.7,3.5c-0.1-4-0.3-5.6-4.7-3.5c2-1.2,2.6-2.7,0.7-4.3
		c-1.9-1.6-9.4-2.5-13.6-5.3c2.4,2.4,1.3,0-0.7-4.4c-7.4-1.5-18.2-1.4-18.6-9.8c-5.2,4.3-7-1.3-10-8.5c-4.8,2-9.6-5.6-13.8-9.1
		c-7.4-5.5-15.2-11.3-23.2-17.1C536.7,217.3,474,171,474,171L271.8,21.6L474,171L324.6,373.2L474,171L623.4-31.2L474,171
		c0,0,54.2,54.4,101.3,101.7c6.7,6.8,17.4,18.7,19.6,19.7c8.8,10.7,22.1,30.4,17.6,17.7c5.6,13.8,6.9,14.3,8.7,8.7
		c-1.5,5.9-1.6,6.8,7.5,7.5c-8.9-0.5-8.1,2.3,9,5.2c-16.4-2.6-16,0.3,1.8,5.7c-17.6-5.1-8.7,0.4,8.1-0.2c-16.3,0.9-21.6,0.3-4.1,4.1
		c-17.5-3.8-12.2-3.2,4.1-4.1c-16.8,0.6-25.6-4.9-8.1,0.2c-17.8-5.4-18.2-8.2-1.8-5.7c-17-2.9-17.8-5.7-9-5.2
		c-9.1-0.8-9-1.6-7.5-7.5c-1.8,5.6-3.1,5.1-8.7-8.7c4.5,12.7-8.8-7-17.6-17.7c-2.2-1-12.8-12.9-19.6-19.7
		C528.2,225.4,474,171,474,171L304.6,0.9L474,171L303.9,340.4L474,171L644.1,1.6"/>
</g>
</svg>
