<?xml version="1.0" encoding="utf-8"?>
<!-- Generator: Adobe Illustrator 16.0.0, SVG Export Plug-In . SVG Version: 6.00 Build 0)  -->
<!DOCTYPE svg PUBLIC "-//W3C//DTD SVG 1.1//EN" "http://www.w3.org/Graphics/SVG/1.1/DTD/svg11.dtd">
<svg version="1.1" id="Layer_1" xmlns="http://www.w3.org/2000/svg" xmlns:xlink="http://www.w3.org/1999/xlink" x="0px" y="0px"
	 width="500px" height="300px" viewBox="0 0 500 300" enable-background="new 0 0 500 300" xml:space="preserve">
<path fill-rule="evenodd" clip-rule="evenodd" fill="#DDC3AA" d="M176.957,228.936c-1.156,5.248-4.042,9.933-4.174,15.588
	c-0.168,7.247,0.977,14.024,4.329,20.433c-4.932-1.034-9.849-2.213-14.742-3.341c-3.836-0.885-3.822-4.779-0.635-8.498
	c4.148-4.84,3.852-7.404-1.802-9.85c-3.787-1.639-3.254-4.69-3.354-7.533c-0.099-2.83,0.983-5.497,4.013-6.197
	c3.593-0.831,5.224-1.809,1.584-4.806c-1.806-1.487-1.816-3.152-0.161-4.672c2.231-2.05,2.613-4.244,1.763-7.181
	c-0.644-2.221,1.089-4.464,1.16-6.81c1.042-3.336,0.882-6.861,1.637-10.269c0.692-3.121-1.585-5.135-4.342-5.607
	c-3.217-0.552-4.197,1.869-4.38,4.669c-0.114,1.737,0.497,3.761-1.693,4.78c-0.755,0.201-1.483,0.137-2.193-0.188
	c-2.157-1.617-1.205-3.685-0.838-5.671c0.818-2.098,0.275-4.452,1.204-6.53c2.836-4.043,7.311-6.616,9.544-11.342
	c1.16-2.452,5.143-1.672,6.9,1.274c1.11,1.861,2.197,3.359,4.08,1.549c1.731-1.664,2.441-4.294,0.992-6.379
	c-1.242-1.787-3.514-2.189-4.97,0.049c-2.131,3.276-3.695,1.136-3.66-0.77c0.116-6.179,0.319-12.418,0.743-18.507
	c0.231-3.32,1.02-8.592,5.231-11.174c0.91-0.557,0.81-1.764,0.111-2.676c-1.624-2.118-2.954-4.403-4.14-6.795
	c-1.13-2.278,0.125-4.916-0.99-7.321c-3.929,3.515-13.294,3.755-17.51,0.546c-1.715-1.306-3.338-2.666-5.307-3.655
	c-3.763-1.892-3.868-2.998-1.157-6.868c0.377-0.329,0.838-0.843,1.245-0.772c7.147,1.237,13.353-2.445,20.006-3.757
	c0.965-0.19,2.175-0.007,2.597-1.078c0.485-1.23-0.705-1.788-1.504-2.227c-1.433-0.786-1.694-2.855-3.755-2.994
	c-4.554-0.307-4.022-2.924-2.473-5.895c1.972-2.405,3.005-5.064,2.834-8.271c-0.143-2.681,0.901-5.028,3.672-5.88
	c2.738-0.842,4.917,0.494,6.485,2.648c2.732,3.751,5.051,7.668,3.269,12.251c5.18-2.096,4.038-6.231,2.402-10.471
	c-0.812-2.104-0.789-3.902,1.515-5.068c1.778-0.9,3.699-2.32,5.541-0.789c1.933,1.607,2.916,4.034,3.01,6.573
	c0.041,1.09-1.403,1.242-2.219,1.761c-0.652,0.414-0.938,0.952-0.427,1.635c0.415,0.553,1.02,0.869,1.716,0.872
	c0.838,0.003,1.159-0.576,1.092-1.298c-0.166-1.783,0.984-3.545-0.065-5.371c-0.504-0.877-0.574-1.979,0.696-2.482
	c1.038-0.411,1.915-0.004,2.758,0.641c2.738,2.093,3.624,5.974,1.97,9.438c-0.664,1.392-2.104,2.47,0.68,3.387
	c1.671,0.55,1.71,2.484,0.509,3.771c-1.968,2.108-3.302,4.396-4.183,7.209c-0.966,3.087-5.705,4.887-9.97,4.125
	c3.25,2.023,5.525,4.608,6.879,7.447c3.552,7.448,9.489,12.544,15.659,17.536c1.178,0.953,2.51,2.073,2.582,3.564
	c0.285,5.898,4.009,10.512,5.629,15.88c0.976,3.23,2.195,6.843-2.538,8.514c-1.017-1.098-1.675-3.325-3.719-1.165
	c-2.039,2.154-4.592,2.633-7.331,1.961c-3.449-0.846-3.593,1.149-3.338,3.606c0.208,2.01,1.148,3.809,1.678,5.727
	c0.713,2.585,1.709,5.401,0.239,7.771c-3.748,6.04-5.221,13.288-10.055,18.722c-0.562,6.807-4.369,11.279-9.877,14.999
	c-4.167,2.813-3.972,4.278-0.737,8.612C177.267,227.106,177.87,227.957,176.957,228.936z"/>
<path fill-rule="evenodd" clip-rule="evenodd" fill="#DEC6B0" d="M305.009,287.973c-1.411-0.509-2.747-1.03-3.356-2.645
	c-3.191-8.451-6.432-16.883-9.656-25.322c-0.827-3.646-2.318-7.229-1.033-11.072c-0.007-0.613-0.014-1.227-0.021-1.84
	c-0.599-1.02-0.561-2.121,0.66-2.338c2.439-0.435,2.015,2.115,3.19,3.479c2.522-3.646,4.685-7.048,1.222-11.339
	c-1.496-1.852-0.84-4.159-0.307-6.223c1.538-5.959-0.826-11.015-3.478-16.036c-0.868-1.645-2.343-2.229-4.075-2.385
	c-1.697-0.152-3.287-0.501-4.111-2.248c0.108-2.848-2.256-5.085-1.963-7.978c2.754-2.055,2.352-4.744,1.518-7.525
	c-2.414-8.054,1.492-12.465,10.005-11.453c2.553,0.304,4.821-0.833,6.932-2.196c0.616-0.562,1.229-1.125,1.644-1.858
	c0.572-1.018,1.389-2.229,0.6-3.227c-0.882-1.116-2.135-0.1-3.209,0.178c-5.988,1.549-8.293-0.284-9.949-6.194
	c-1.723-6.147-0.951-12.138-0.043-18.117c1.049-6.899,1.356-13.854,1.251-20.743c-0.071-4.615-1.7-9.293-3.55-13.691
	c-1.483-3.031-3.949-5.621-4.159-9.227c-0.199-0.755-0.317-1.521-0.374-2.3c-0.059-0.825-0.04-1.648,0.001-2.472
	c0.106-2.123,0.814-3.862,2.974-4.677c2.366-0.893,4.136,0.157,5.75,1.753c1.283,1.268,2.125,2.957,3.753,3.887
	c1.412,1.206,2.547,2.587,2.772,4.52c-0.074,6.417,3.697,12.047,3.818,18.441c0.016,0.823,0.684,1.571,1.654,1.549
	c0.971-0.021,1.598-0.851,1.68-1.613c0.421-3.908,3.282-4.863,6.424-5.562c6.289,3.266,10.449,8.396,12.729,15.004
	c0.811,2.352-0.577,3.067-2.721,2.273c-4.053-1.501-7.076-0.253-9.508,3.191c-1.463,2.072-3.43,3.581-5.97,4.287
	c-2.563,0.712-2.688,2.487-1.126,4.125c3.191,3.348,4.351,7.254,4.537,11.783c0.133,3.256,2.571,5.682,4.168,8.398
	c2.464,4.19,5.01,8.447,2.111,13.511c-2.107,2.854-4.692,5.185-8.033,6.438c-2.848,1.068-2.808,2.529-0.828,4.298
	c2.135,1.905,3.199,4.138,2.941,7.022c-0.09,1.011,0.322,2.008,0.982,2.76c4.638,5.287,3.492,11.344,2.391,17.405
	c-3.446,0.392-3.654-2.225-3.891-4.479c-0.207-1.973-0.007-4.001-0.26-5.983c-0.302-2.358-1.62-3.131-4.383-1.985
	c3.262,2,6.17,4.158,0.2,5.903c-0.551,0.161-0.416-0.158-0.308,0.293c1.809,7.511-7.447,14.833-0.304,22.488
	c1.589,1.702,2.484,4.356,1.561,6.573c-1.976,4.739-1.554,9.771-2.222,14.636c-0.569,4.149-0.676,8.664,3,11.979
	c0.23,0.207,0.295,0.38,0.304,0.395C308.355,274.083,306.945,285.861,305.009,287.973z"/>
<path fill-rule="evenodd" clip-rule="evenodd" fill="#D3B89E" d="M210.002,165.989c4.654-4.938,0.5-9.268-1.208-13.556
	c-1.157-2.907-3.169-5.452-2.812-8.836c0.15-1.421-0.272-2.916-1.488-3.499c-4.939-2.365-7.283-7.677-12.064-10.308
	c-1.584-0.871-2.499-3.293-3.303-5.183c-1.906-4.486-4.449-8.357-8.903-10.653c-0.906-0.467-2.07-0.808-1.331-2.051
	c0.556-0.935,1.566-0.837,2.642-0.407c4.387,1.751,7.853-0.28,9.083-4.857c0.406-1.509,1.587-2.881,2.641-4.122
	c0.875-1.032,3.099-1.244,2.14-3.294c-1.102-2.355-2.838,0.552-4.232-0.212c3.89-10.277,3.837-10.882-1.497-13.683
	c2.848,2.688-0.946,6.278,1.538,9.14c0.207,0.237-1.396,1.201-2.45,0.867c-1.771-0.561-4.305,0.002-4.65-2.806
	c-0.163-1.318-0.185-2.823,1.767-2.896c0.778-0.029,1.582,0.592,2.331-0.095c0.339-1.635-1.631-2.203-1.702-3.332
	c-0.161-2.572-0.884-4.165-3.504-2.465c-1.485,0.964-4.977,0.91-2.897,4.708c2.839,5.186,2.989,10.023-4.065,12.271
	c0.34-4.504-0.275-8.949-3.433-12.81c-1.615-1.975-3.357-3.612-5.843-2.545c-2.096,0.899-2.799,2.935-2.417,5.42
	c0.506,3.289-0.557,6.154-3.347,8.206c-1.246-1.012-1.531-2.358-1.352-3.867c3.792-4.117-0.413-3.938-2.608-4.838
	c-0.891-2.437,1.158-3.724,2.118-5.44c0.966-1.319,2.44-1.948,3.78-2.761c0.685-0.033,1.369-0.065,2.054-0.099
	c4.559,0.992,8.983,1.051,12.976-1.873c2.702,0.002,5.403,0.005,8.105,0.008c5.463-0.013,10.906-0.021,16.383,0.354
	c5.084,0.35,7.538,3.707,10.453,6.802c0.846,0.898,1.108,2.129,0.475,3.248c-0.8,1.414-2.163,1.315-3.524,0.964
	c-2.603-0.672-5.008-1.62-6.914-3.7c-1.101-1.201-2.561-2.436-4.373-1.385c-1.945,1.128-1.167,2.91-0.6,4.445
	c1.442,3.896,2.509,7.794,2.476,12.048c-0.017,2.042,0.273,4.392,1.726,6.147c1.671,2.02,1.19,3.713,0.005,5.859
	c-1.858,3.362-1.721,6.861,0.006,10.488c2.984,6.268,7.263,11.996,8.276,19.117c0.184,1.29,0.693,1.701,1.965,1.022
	c1.083-0.579,2.245-0.511,3.318,0.177c0.144-0.825,1.691,4.064,1.159-0.321c-0.319-2.628,1.907-2.217,3.525-1.686
	c2.028,0.665,4.012,2.037,5.816-0.364c0.326-0.346,0.727-0.555,1.186-0.658c0.324,0.024,0.789,0.02,0.907,0.241
	c1.995,3.722,5.619,6.122,7.826,9.671c0.274,0.955,0.527,1.947,1.192,2.696c4.728,5.323,8.384,11.385,11.55,17.684
	c2.012,4.005,6.546,2.707,9.107,5.236c0.323,0.384,0.557,0.812,0.715,1.287c0.195,1.025,0.096,1.979-0.672,2.766
	c-9.258,1.027-17.312-1.939-24.682-7.339c-2.37-1.735-4.955-4.079-7.198,0.278c-0.222,0.431-0.907,0.94-1.182,0.787
	c-3.88-2.163-8.571-0.39-12.236-2.212C210.194,172.502,207.652,169.729,210.002,165.989z"/>
<path fill-rule="evenodd" clip-rule="evenodd" fill="#D7C1B3" d="M210.002,165.989c0.483,6.383,2.793,8.234,8.517,6.75
	c0.791-0.205,1.713-0.89,2.295-0.172c3.145,3.875,4.878,2.865,6.298-1.417c0.561-1.691,1.929-0.512,2.789,0.188
	c4.54,3.693,10.587,4.908,14.86,9.099c0.654,0.642,2.33,0.817,3.276,0.482c3.558-1.261,6.736-0.103,9.963,1.076
	c3.783,1.576,5.535,5.195,6.408,8.499c0.74,2.806,2.051,3.387,4.194,3.767c3.566,0.633,7.229,0.764,10.675,2.065
	c1.774,1.1,4.066,1.914,2.68,4.779c-1.734-1.342-3.776-0.941-5.75-1.081c-25.918-1.823-52.024-1.44-77.664-6.461
	c-2.441-0.479-3.395,0.574-4.363,2.167c-1.452,2.387-2.801,4.836-4.194,7.259c-1.607,0.771-2.859,0.134-3.985-1.004
	c2.784-3.428,4.02-8.025,6.409-11.236c5.155-6.925,3.893-13.061,1.792-20.27c-1.465-5.027-0.248-5.591,4.962-4.623
	c2.341,0.435,4.651,0.379,6.274-1.905c0.793-1.115,1.158-3.225,3.161-2.391C210.526,162.363,209.879,164.39,210.002,165.989z"/>
<path fill-rule="evenodd" clip-rule="evenodd" fill="#CEAE8E" d="M235.003,153.003c-0.019-0.163,0.026-0.405-0.065-0.477
	c-3.312-2.622-5.086-6.524-7.941-9.524c2.621-5.906-1.173-8.713-5.312-11.694c-3.693-2.659-1.181-4.159,1.794-5.051
	c-1.291-1.62-2.586-2.258-3.984-0.961c-1.394,1.291-1.142,2.984-0.558,4.631c1.08,3.046,3.598,5.802,1.468,9.837
	c3.093-0.194,6.498-1.253,6.596,3.235c-1.83,8.358-5.813,0.589-8.756,1.19c-0.154,0.163-0.455,0.345-0.549,0.602
	c-0.652,1.772,2.718,3.45,0.872,4.579c-2.111,1.291-2.282-1.525-3.352-2.735c-1.595-1.804-3.142,0.268-4.858,2.661
	c-1.685-9.961-6.237-17.688-10.553-25.56c-0.637-1.163-1.107-3.521-0.099-5.215c3.237-5.436-0.229-10.488-0.521-15.73
	c-0.28-5.031-1.586-9.436-3.582-13.832c-0.883-1.944,0.752-2.667,1.689-3.699c1.365-1.504,2.74-1.323,4.386-0.177
	c2.555,1.779,4.389,4.629,7.903,5.078c1.066,0.137,2.177,1.327,3.021,0.008c0.761-1.19-0.416-1.966-1.094-2.935
	c-4.171-5.96-10.49-5.843-16.707-6.261c-2.913-0.196-5.977,0.96-8.733-0.853c0.896-0.37,1.795-1.072,2.687-1.062
	c14.18,0.156,28.308-1.9,42.499-0.978c0.93,0.061,1.833,0.554,2.748,0.845c-0.151,0.181-0.302,0.361-0.451,0.545
	c-0.874,0.564-1.875,0.769-2.867,0.7c-4.095-0.282-6.828,0.138-4.862,5.568c0.98,2.708-3.525,7.387-6.446,6.663
	c-3.694-0.914-6.129,1.788-9.314,2.229c-1.958,0.271-3.289,3.692-1.986,4.822c3.464,3.005,2.129,6.154,1.518,9.473
	c-0.085,0.461,0.042,0.981,0.581,2.168c4.062-5.324,9.974-1.984,14.997-3.599c2.272-0.73,2.686,1.012,0.901,5.228
	c4.377,0.648,6.059,3.354,4.935,7.438c-1.179,4.285,1.737,5.732,4.507,7.436c0.817,3.211,3.514,6.108,1.324,9.823
	c-0.739,1.254,0.384,2.099,1.621,2.501c3.295,1.072,3.904,3.206,2.481,6.191c-0.524,1.102-0.633,2.389,0.078,3.343
	c3.598,4.822,5.571,10.814,10.916,14.415c2.318,1.562,4.322,2.158,6.809,0.897c0.48,0.212,0.825,0.556,1.047,1.031
	c0.287,3.26,1.251,6.334,2.25,9.436c0.533,1.656,0.443,3.702-1.297,4.896c-1.271,0.872-2.092-0.11-2.749-1.131l0.001,0.001
	c-0.389-0.531-0.957-1.049-1.107-1.618c-1.494-5.646-4.197-9.896-10.802-10.109c-0.798-0.025-1.571-0.944-1.616-1.711
	c-0.288-4.91-3.712-7.426-7.26-9.916C236.271,154.984,235.672,153.943,235.003,153.003z"/>
<path fill-rule="evenodd" clip-rule="evenodd" fill="#3B332F" d="M372.059,72.856c3.348,4.858-1.291,8.188-2.471,12.13
	c-0.578,1.932-2.269,3.53-3.455,5.279c-2.035-0.839-3.049-2.8-4.604-4.171c-0.691-2.477-2.951-3.284-4.763-4.64
	c-2.22-1.66-4.265-3.578-5.523-6.152c-0.117-1.624-0.601-3.455,1.976-3.602c-1.333-0.522-2.984,0.146-4.123-1.113
	c-2.414-2.67-4.779-4.928-9.006-3.25c-1.625,0.644-2.822-1.475-3.414-3.038c-0.833-2.202,0.836-2.732,2.812-2.982
	c-4.783-3.839-2.893,3.089-5.4,2.886c-0.24-0.02-0.014,0.263,2.252,1.767c2.211,1.468,6.356,0.755,6.377,5.015
	c-1.352,2.228-0.576,4.764-1.017,7.128c-0.319,0.673-0.796,1.118-1.592,1.105c-1.805-0.114-0.81-5.351-4.304-2.341
	c-3.439,5.183-6.51,10.428-3.392,16.917c-0.102,3.891-3.063,7.96,0.735,11.611c-1.121,2.799-3.409,2.556-5.75,2.223
	c-3.075-0.439-5.982-1.638-9.08-1.975c-1.695-0.644-2.846-1.958-4.016-3.25c-1.504-3.036-3.586-5.818-4.15-9.281
	c0.09-1.241,0.51-2.408,0.822-3.6c0.48-1.408,0.477-2.825,0.432-4.316c-0.113-3.686,1.244-6.355,5.467-6.497
	c0.895,0.569,1.065,1.641,1.65,2.414c2.068,2.737,4.561,2.489,6.078-0.587c0.512-1.04,0.745-2.187,0.977-3.323
	c0.196-0.969,0.186-1.981,0.619-2.898c-0.325-0.062-0.504,0.166-0.777,0.42c-0.999,0.93-1.894,3.03-3.409,1.857
	c-1.64-1.269-0.485-3.171,0.7-4.307c2.641-2.53,0.256-5.613,1.156-8.37c0.65-1.992,0.257-4.363,2.85-5.25
	c4.113-0.646,7.717-2.748,11.595-4.081c5.864,0.955,10.568,4.319,15.576,7.635c-0.433-0.568-0.842-0.694-1.186-0.918
	c-1.185-0.768-3.257-1.144-2.596-3.023c0.552-1.566,2.315-0.671,3.575-0.619c0.664,0.027,1.326,0.109,1.986,0.187
	c2.042,0.154,3.727,1.56,5.796,1.64c1.685,0.53,2.809,1.606,3.259,3.34c0.648,0.937-1.437,2.204,0.176,2.87
	C368.318,67.108,369.564,70.585,372.059,72.856z"/>
<path fill-rule="evenodd" clip-rule="evenodd" fill="#C7A688" d="M147.089,279.877c-0.686-0.402-1.715-0.637-2.006-1.232
	c-5.796-11.855-15.646-21.772-17.219-35.621c-0.217-1.904-2.216-3.017-1.725-5.04c4.887-9.121,9.224-18.577,16.136-26.462
	c0.748-0.853,1.382-1.919,2.793-1.67c0.335,0.351,0.556,0.768,0.678,1.237c0.028,2.959-1.772,5.272-2.864,7.819
	c-2.541,5.932-4.265,11.979-3.697,18.739c1.825-1.614,1.242-3.942,2.398-5.544c1.63-1.365,3.539-1.817,5.533-1.228
	c3.68,1.09,4.704-1.265,5.354-4.011c0.607-2.565,0.03-5.264,0.69-7.845c0.695-3.761,1.221-7.535,1.18-11.372
	c0.126-0.486,0.338-0.93,0.633-1.335c1.93-1.518,1.975-4.107,3.39-5.946c1.317-1.711,3.062-2.124,4.828-1.516
	c2.457,0.847,1.153,2.849,0.564,4.13c-3.22,7.01-3.7,14.571-4.707,22.03c-3.549,6.239-3.658,12.654-1.761,19.518
	c1.228,4.444,1.245,9.199,0.677,13.865c-0.229,1.881,0.654,4.298-1.924,5.105c-2.184,0.684-3.76-0.787-5.181-2.25
	c-0.346-0.356-0.563-0.82-1.259-1.551c-0.383,4.729-6.153,8.836-0.312,13.525c-0.942,2.371,0.575,1.529,1.671,1.249
	c2.666,0.036,5.273,0.461,7.623,1.667c1.207,0.619,3.58,0.959,1.987,3.389C156.108,280.925,151.567,279.152,147.089,279.877z"/>
<path fill-rule="evenodd" clip-rule="evenodd" fill="#D8B89C" d="M148.994,274.009c-0.499-1.399-1.857-1.815-2.912-2.596
	c-0.932-0.689-2.375-1.767-1.852-2.716c2.038-3.696,4.423-7.108,4.275-11.702c-0.034-1.054,1.668-0.289,2.102,0.619
	c0.618,1.293,0.398,2.963,2.046,3.776c1.146,0.565,2.072,2.045,3.518,1.194c1.195-0.703,0.534-2.053,0.588-3.184
	c0.375-7.789-0.059-15.407-2.588-22.927c-1.492-4.436,2.863-7.534,3.859-11.485c1.064-4.923,3.405-9.452,4.323-14.453
	c0.333-1.811,0.89-4.279,3.644-4.532c0.137,3.461-0.298,7.069-0.565,10.34c-0.305,3.734-4.979,6.902,0.378,10.894
	c1.091,0.812-0.27,4.198-3.092,3.443c-3.699-0.988-4.894,1.426-4.791,3.861c0.108,2.58-2.075,6.666,2.946,7.464
	c4.265,0.677,3.956,5.401,6.645,7.506c0.47,0.367-0.17,1.091-0.855,1.436c-1.018,0.514-2.116,1.041-2.882,1.846
	c-1.644,1.727-4.456,3.347-3.029,6.15c1.321,2.594,3.928,3.013,6.91,2.201c2.425-0.659,4.947-0.39,6.445,2.351
	c0.574,1.05,1.734,1.521,3.005,1.462c2.257,3.07,4.514,6.141,6.771,9.212c0.6,1.501-1.284,2.105-1.252,3.404
	c1.885,1.032,4.626,0.472,5.606,3.093c-1.597,1.198-1.155,2.883-1.059,4.487c-0.593,0.769-1.396,1.201-2.308,1.469
	c-5.309-1.288-6.294,2.177-6.791,6.181c-2.802-0.007-5.109-1.866-7.992-1.954c-1.793-0.054-2.677-1.967-3.156-3.904
	c-0.678-2.74-2.192-5.035-5.026-6.122c-0.593-0.547-0.977-1.18-0.837-2.028c-3.194-2.738-7.504-2.201-11.094-3.777
	C149.089,275.225,148.743,274.907,148.994,274.009z"/>
<path fill-rule="evenodd" clip-rule="evenodd" fill="#DEC0A6" d="M305.009,287.973c1.05-2.557,2.364-5.072,0.562-7.862
	c-0.683-1.059-0.564-2.221,0.058-3.324c2.559-4.537,0.249-5.831-4.852-5.586c2.74-2.656,3.774-4.997,0.913-7.391
	c-0.219-0.183-0.081-0.979,0.089-1.412c2.038-5.173-0.162-11.006,2.56-16.086c1.438-2.685,0.778-5.507-1.074-7.459
	c-2.33-2.455-1.946-5.882-3.866-8.416c-0.956-1.263,0.191-2.478,1.139-3.471c2.844-2.98,3.402-6.165,2.071-10.248
	c-1.507-4.622,3.552-2.036,5.298-3.8c-0.717-0.516-1.164-0.978-1.71-1.204c-1.313-0.545-3.831,0.946-3.77-1.807
	c0.048-2.185,2.472-1.843,3.882-2.487c1.992-0.911,3.424,0.244,3.791,2.015c0.482,2.331,0.803,4.841,0.449,7.161
	c-0.393,2.583,0.494,4.12,2.45,5.405c0.41,0.311,0.71,0.705,0.908,1.179c0.838,2.818,1.065,5.784,2.059,8.564
	c4.621,4.815,6.244,10.166,3.42,16.601c-0.612,1.396-0.167,3.271-0.024,4.923c0.13,1.485,0.737,2.294,2.425,2.522
	c7.589,1.027,7.996,1.566,8.425,9.5c0.036,0.659,0.334,1.271,0.945,1.653c0.67,0.989,1.34,1.979,2.01,2.967
	c-4.379,0.991-6.297-1.349-7.086-5.227c-0.229-1.123-0.303-2.595-2.006-2.076c-1.372,0.417-1.42,1.744-1.1,2.921
	c0.577,2.121,2.226,3.675,3.144,5.609c0.695,1.465,2.421,3.19-0.365,4.441c-1.556,0.047-3.007-0.402-4.013-1.553
	c-3.088-3.53-6.732-2.028-10.02-0.86c-3.137,1.113-2.246,4.338-2.454,6.88c-0.224,2.729,0.662,5.615-1.124,8.133
	c-0.469,0.229-0.898,0.186-1.287-0.172C306.24,287.995,305.625,287.984,305.009,287.973z"/>
<path fill-rule="evenodd" clip-rule="evenodd" fill="#D7C1AD" d="M281.957,201.105c0.323-2.311-1.957-2.745-2.956-4.104
	c-1.421-2.02,0.854-2.351,1.819-3.271c-5.121-2.489-10.987-2.7-14.799-7.341c-1.746-2.126-2.936-4.231-3.402-7.006
	c-0.819-4.876-1.757-9.762-3.595-14.4l-0.013,0.006c-0.611-0.645-0.746-1.425-0.659-2.271c0.972-5.932,0.099-11.897,0.333-17.841
	c0.127-3.213-0.708-7.525,3.434-8.34c4.322-0.849,5.48,3.318,6.755,6.572c0.181,0.46,0.444,0.889,0.673,1.328
	c0.314,0.706,0.502,1.449,0.611,2.209c0.396,6.395,2.425,12.354,4.898,18.194c0.398,5.93,1.297,11.838,0.855,17.812
	c-0.123,1.672,0.391,2.96,2.31,3.204c0.681,0.476,1.025,1.296,1.772,1.699c2.68-3.298,1.277-4.963-2.306-5.757
	c-0.372-2.496-0.071-4.956,0.607-7.345c0.993-3.496,0.709-6.89-0.726-10.153c-1.234-2.806-1.496-5.685-1.233-8.668
	c0.204-0.44,0.538-0.749,0.99-0.926c2.449,1.061,4.905,2.642,7.36-0.021c0.475,0.201,0.833,0.521,1.074,0.979
	c0.838,1.989,0.438,4.123,0.766,6.17c1.075,4.784,0.955,9.742,3.16,14.404c1.426,3.017,3.008,4.434,6.227,4.396
	c1.775-0.021,3.681-0.165,5.082,1.364c-3.155,1.505-5.991,3.611-9.959,1.356c-1.869-1.062-3.953,1.013-5.428,2.649
	c-2.088,2.317-2.796,5.226-1.027,7.651c2.266,3.106,0.418,5.667-0.206,8.383c-0.55,2.392-1.517,0.317-2.297-0.016
	C281.98,201.728,281.939,201.42,281.957,201.105z"/>
<path fill-rule="evenodd" clip-rule="evenodd" fill="#E4D0C4" d="M340.086,177.035c-3.766,12.954-3.74,26.532-6.539,39.637
	c-1.021,4.777-0.193,9.551-0.639,14.306c-3.428-1.184-1.677-3.604-1.365-5.683c-0.457,1.367-1.367,2.407-2.806,2.48
	c-2.694,0.138-4.489,1.489-6.321,3.378c-2.559,2.636-4.637,1.916-5.701-1.658c-0.328-1.102-0.763-2.26-0.711-3.392
	c0.391-8.485-3.911-16.279-3.573-24.769c0.087-2.188-1.054-4.166-2.386-5.901c-1.933-2.517-1.451-4.635,1.051-6.31
	c1.729-1.156,2.699-2.88,3.869-4.478c5.1-2.736,3.766,1.699,4.411,3.939c0.069,1.633-0.004,3.262-0.237,4.881
	c-0.219,1.26-0.705,2.438-1.152,3.625c-1.399,3.719-0.408,7.544-0.299,11.563c1.06-8.902,8.278-13.264,13.394-19.148
	c2.126-2.444,2.3-5.88,4.078-8.506C336.381,179.197,336.925,176.461,340.086,177.035z"/>
<path fill-rule="evenodd" clip-rule="evenodd" fill="#E5D2C3" d="M129.11,107.084c0.677-1.368,0.041-2.686-0.156-4.021
	c-1.572-2.785-0.78-5.862-1.054-8.806c-0.06-0.641,0.097-1.63,0.597-1.841c7.251-3.055,4.206-9.918,5.224-15.036
	c0.825-4.152,2.574-6.729,6.152-8.234c2.112-0.888,3.151-1.743,2.753-4.382c-0.745-4.942,0.864-6.427,6.42-6.81
	c3.047,1.898,7.236,2.528,7.882,7.094c-1.145,1.434-2.402,1.325-3.955,0.56c-2.921-1.441-2.979,0.561-2.876,2.608
	c-0.477,4.168-3.089,7.237-5.496,10.356c-2.707,3.509-4.143,15.815-2.225,19.687c0.87,1.755,2.393,1.951,3.995,2.475
	c2.601,0.85,3.792,2.616,2.063,5.312c-1.619,2.524-2.389,5.419-3.577,8.133c-0.373,0.633-0.768,1.248-1.362,1.704
	c-4.443,3.934-6.901,9.089-9.015,14.479c-0.678,1.729-1.11,4.164-3.984,2.416c-0.891-1.41-0.802-3.001-0.859-4.564
	C128.593,121.192,128.203,114.153,129.11,107.084z"/>
<path fill-rule="evenodd" clip-rule="evenodd" fill="#E2C8B5" d="M315.005,185.001c-0.107,0.813,0.06,2.137-0.362,2.363
	c-6.045,3.246-3.977,7.166-1.316,11.461c1.445,2.334,0.711,5.208,0.619,7.818c-0.139,3.898,0.07,7.598,2.885,10.644
	c1.158,1.252,1.166,2.564,0.563,4.119c-0.674,1.737-0.813,3.724,0.095,5.317c0.932,1.636-0.686,4.568,2.071,4.984
	c2.278,0.344,2.421-2.322,3.506-3.662c0.981-1.211,2.22-2.261,3.813-1.521c2.188,1.016,3.344-0.436,4.658-1.714
	c1.16,2.021-0.47,4.476,1.371,6.166c1.174,8.042-1.902,15.723-2.012,23.648c-0.056,4.104,0.162,8.212,0.259,12.317
	c-3.812-1.073-0.442-4.753-2.665-7.088c-2.066-2.17-3.309-3.937-6.314-2.745c-3.296,1.308-4.316-0.216-4.152-3.17
	c0.244-4.364-1.133-8.981,2.239-12.88c1.228-1.42-0.084-2.379-1.308-3.077c-2.328-1.328-3.565-3.374-3.958-5.981
	c-0.728-2.986-0.708-6.14-1.996-9.001c-0.001-0.334-0.002-0.667-0.002-1c-0.151-2.42-0.692-4.753-0.13-7.286
	c0.52-2.336,0.332-4.798-1.381-7.05c-1.767-2.323-4.333-4.416-2.775-8.265c0.657-1.624-1.73-2.979-3.15-4.071
	c-1.239-0.952-2.375-1.839-1.839-3.634c0.498-1.666,1.624-1.79,3.273-2.118c3.286-0.655,5.28-3.756,8.001-5.58
	c0.307,0.221,0.41,0.443,0.311,0.667C315.208,184.889,315.107,185.001,315.005,185.001z"/>
<path fill-rule="evenodd" clip-rule="evenodd" fill="#D5C1B5" d="M340.086,177.035c-2.954,1.222-4.182,4.08-4.769,6.636
	c-1.208,5.259-4.841,8.496-8.399,11.881c-3.363,3.2-6.509,6.421-6.839,11.445c-0.126,1.909-1.497,3.226-3.976,5.555
	c0.09-5.933-0.893-10.738,0.783-15.601c2.841,0.227,3.699-2.813,7.146-3.914c-2.801,0.646-4.172,2.466-6.01,0.999
	c-0.008-1.678-0.015-3.356-0.021-5.035c1.533-5.482,1.618-11.564,6.467-15.685c2.498-2.729,5.567-4.588,8.955-6.013
	c2.885-1.215,4.545-3.044,5.083-6.547c0.64-4.162,2.598-8.106,5.746-11.221c1.489-0.336,2.534,0.298,3.317,1.508
	c1.111,2.64,0.338,5.372-0.367,7.775c-1.591,5.421-2.659,11.039-5.221,16.153C341.35,175.66,340.719,176.348,340.086,177.035z"/>
<path fill-rule="evenodd" clip-rule="evenodd" fill="#C7AB9C" d="M144.999,210.005c-4.831,6.795-10.76,12.818-13.363,21.141
	c-0.812,2.599-3.609,4.576-5.498,6.838c-0.083-0.614-0.165-1.229-0.248-1.843c-1.349-4.373,1.324-7.792,3.302-10.976
	c2.258-3.631,4.46-7.42,7.248-10.678c2.935-3.43,3.281-7.255,2.458-11.213c-1.865-8.968-0.304-18.126-1.804-27.091
	c3.043-4.649,0.342-7.984-2.541-11.327c-1.365-1.584-3.655-4.229-1.642-5.296c2.021-1.072,1.926-3.479,3.938-3.993
	c4.596,3.362,8.379,7.255,8.726,13.39c-0.35,0.912-1.474,2.011-0.96,2.698c3.376,4.522,1.506,10.244,3.648,15.021
	c3.535,7.88,2.246,15.368-2.029,22.56C145.985,209.654,145.479,209.855,144.999,210.005z"/>
<path fill-rule="evenodd" clip-rule="evenodd" fill="#C8B4A7" d="M364.961,91.943c-0.01,0.677-0.02,1.354-0.029,2.029
	c-1.79,3.674-3.264,7.49-5.019,11.186c-1.882,1.37-2.257,3.728-3.563,5.478c-2.917,2.466-5.562,4.968-5.418,9.35
	c0.053,1.615-0.785,3.191-3.256,1.715c-1.61-0.964-3.487,0.325-5.145,0.947c-1.725,0.647-3.206,1.035-3.842-1.31
	c0.733-4.228,4.251-6.708,6.876-10.066c-1.416-0.052-2.079,0.488-2.81,0.871c-4.855,3.282-10.175,3.926-15.714,2.485
	c-12.931-3.364-25.067-7.978-31.315-21.235c-0.329-2.029,0.582-3.612,2.322-4.304c1.479-0.589,2.127,1.022,2.906,1.995
	c5.645,5.228,10.105,11.821,17.438,15.102c11.989,4.027,22.945,0.973,33.483-4.885c2.192-4.454,6.916-5.925,10.405-8.858
	C363.119,91.979,363.954,91.488,364.961,91.943z"/>
<path fill-rule="evenodd" clip-rule="evenodd" fill="#EADCCF" d="M149.047,57.955c-3.833,1.784-8.074,3.155-4.378,8.917
	c1.06,1.651-0.795,2.864-2.74,3.121c-4.188,0.555-6.339,2.878-6.578,7.229c-0.195,3.556-1.896,6.982-0.468,10.692
	c0.531,1.378,0.018,3.794-1.553,3.659c-5.849-0.5-4.118,3.575-4.315,6.501c-0.111,1.656-0.046,3.325-0.061,4.989
	c-2.966-5.105-5.044-10.836-4.745-16.488c0.543-10.242,3.015-20.158,11.22-27.508C139.234,55.66,145.388,55.117,149.047,57.955z"/>
<path fill-rule="evenodd" clip-rule="evenodd" fill="#E2D4CB" d="M359.037,104.066c2.74-2.912,3.024-7.258,5.895-10.094
	c-4.266,12.714-2.51,26.587-7.15,39.119c-2.906,7.847-2.332,16.406-5.832,23.949c-2.877,6.201-4.256,13.29-9.967,17.932
	c0.303-8.277,5.144-15.604,5.017-23.972c-0.489-0.683-1.097-1.478-1.005-2.236c0.684-5.674,0.364-11.786,3.366-16.722
	c3.72-6.115,5.265-12.842,7.161-19.489C357.331,109.717,358.278,106.918,359.037,104.066z"/>
<path fill-rule="evenodd" clip-rule="evenodd" fill="#604C40" d="M381.002,31.009c-0.437,4.89-4.097,9.145-2.068,14.655
	c1.13,3.069-1.72,3.483-3.98,2.444c-1.258-0.578-2.137-1.983-3.186-3.017c-0.882-0.532-1.271-1.328-1.266-2.341
	c0.334-6.977-3.162-11.903-8.424-15.95c-2.469-1.899-5.086-3.81-4.432-7.58c2.043-1.308,2.98,0.569,4.164,1.527
	c1.278,1.034,2.199,2.543,4.002,2.842c3.388,1.354,4.408,4.618,6.143,7.287c-3.678-6.24-6.73-13.101-15.059-14.657
	c-2.121-2.64-1.275-4.275,1.848-4.631c1.736-0.198,3.612-0.499,5.334,0.366c6.543,0.187,11.291,4.068,16.101,7.821
	C379.608,23.582,379.896,27.326,381.002,31.009z"/>
<path fill-rule="evenodd" clip-rule="evenodd" fill="#E2CDBB" d="M284.043,210.004c0.151,0.067,0.325,0.107,0.451,0.207
	c2.492,1.966,6.623-0.924,8.487,2.834c2.925,5.895,6.07,11.801,3.855,18.699c-0.733,2.283-0.762,3.99,1.071,5.822
	c1.395,1.395,2.717,4.316,1.707,5.318c-2.401,2.38-1.961,6.41-4.479,7.941c-2.299,1.397-1.879-1.507-2.145-2.903
	c-0.179-0.943,0.488-2.551-1.504-2.131c-0.262,0.056-0.367,0.849-0.547,1.301c-2.343-4.832-3.228-9.987-3.062-15.293
	c0.163-5.258-2.566-9.845-3.181-14.939C284.423,214.576,283.988,212.319,284.043,210.004z"/>
<path fill-rule="evenodd" clip-rule="evenodd" fill="#50423A" d="M261.979,71.01c0.066-2.316-2.934-4.71,0.178-6.948
	c1.922-0.809,3.09-3.666,6.023-1.836c1.051,0.655,1.471-0.985,1.721-1.87c1.26-4.463,3.051-8.171,8.799-7.081
	c0.603,0.114-0.157,0.126,0.48-0.067c6.011-1.819,6.043-1.82,6.086,4.562c0.032,4.706,1.004,9.313,1.374,13.983
	c2.391,0.979,0.308,4.154,2.59,5.199c0.338,0.368,0.579,0.772,0.753,1.233c0.434,2.629,0.797,5.243-0.574,7.724
	c-1.176,0.699-2.613,0.822-2.547,3.006c0.059,1.894-1.129,3.398-2.777,0.662c0.092-6.614-1.73-12.981-2.592-19.475
	c-0.166-1.247-0.195-2.909-1.818-3.128c-1.35-0.182-1.817,1.264-2.317,2.252c-1.192,2.355-2.911,4.4-3.958,6.838
	c-0.883,1.729-1.408,4.026-4.234,2.717c-0.383-0.305-0.682-0.685-0.912-1.115c-0.602-2.224-2.285-3.964-3.018-6.034
	C264.288,68.952,263.006,71.336,261.979,71.01z"/>
<path fill-rule="evenodd" clip-rule="evenodd" fill="#D1B59C" d="M275.051,45.005c2.369-4.955,6.14-8.693,11.014-10.927
	c3.053-1.398,4.961-3.574,6.98-5.991c5.164-6.18,11.371-11.053,18.881-14.143c1.715-0.92,2.732-0.09,3.496,1.385
	c0.488,3.213,3.422,5.493,3.423,8.9c-2.259,4.916-3.16,4.807-8.019-1.286c-2.424,3.308-5.729,5.775-7.117,9.796
	c-0.484,1.401-1.389,2.642-2.543,3.626c-0.496,0.424-1.074,0.871-1.787,0.642c-0.941-0.303-1.138-1.153-1.101-1.983
	c0.118-2.634,1.361-4.896,2.539-7.149c-2.359,1.661-4.026,3.751-4.969,6.573c-0.703,2.105-1.61,4.669-4.89,3.35
	c-4.26-0.401-5.018,3.626-7.266,5.759C281.336,47.152,277.799,43.709,275.051,45.005z"/>
<path fill-rule="evenodd" clip-rule="evenodd" fill="#302825" d="M364.961,91.943c-0.637,0.418-1.273,0.835-1.911,1.253
	c-1.298-3.324-3.478-2.371-4.661-0.373c-3.049,5.142-8.496,5.992-13.235,8.132c-2.313,1.045-4.185,0.749-3.505-2.385
	c0.491-2.266-0.476-4.241-0.564-6.364c0.129-2.297,0.605-4.587-0.146-6.883c-0.432-1.32-0.479-2.681,0.973-3.475
	c1.564-0.854,2.438,0.228,3.256,1.327c0.197,0.266,0.404,0.524,0.594,0.795c0.783,1.121,1.783,1.962,3.146,2.217
	c0.128,0.024-0.248-0.383-0.345-0.403c-2.514-0.536,1.994-4.153-2.188-4.528c-2.175-0.195-4.941,1.725-6.774-1.001
	c-0.017-0.492,0.167-0.899,0.523-1.233c0.309-0.393,0.616-0.785,0.925-1.177c8.577-1.453,14.957,2.755,20.893,8.107
	c2.759,0.115,3.179,2.503,4.193,4.313C365.742,90.825,365.352,91.385,364.961,91.943z"/>
<path fill-rule="evenodd" clip-rule="evenodd" fill="#D4C0B5" d="M137.005,156.001c-1.499,0.74-0.336,3.446-3.192,3.649
	c-1.573,0.111-0.328,2.115,0.479,3.118c1.449,1.798,2.98,3.531,4.381,5.364c2.13,2.79,1.985,5.453-0.664,7.873
	c-2.863,0.062-1.518-3-2.963-3.989c-2.806-5.989-8.072-10.518-10.085-16.978c-0.918-2.805-0.33-3.732,2.332-2.338
	c-1.878-7.199-1.8-14.796-0.013-22.404c2.279,0.901,1.585-2.926,3.68-2.322c0.022,1.672,0.044,3.344,0.066,5.016
	c2.316,3.4,0.861,7.112,0.719,10.659c-0.102,2.527-0.114,4.966,0.599,7.387c0.441,1.496,0.138,3.57,3.082,2.068
	C136.656,152.478,138.085,154.093,137.005,156.001z"/>
<path fill-rule="evenodd" clip-rule="evenodd" fill="#6F5D51" d="M286.168,71.916c-2.123-3.737-1.514-7.979-2.112-11.986
	c-0.382-2.56-0.071-5.223-0.071-8.396c-2.844,1.745-4.624,4.271-8.424,3.319c-3.688-0.924-3.323,3.568-4.307,5.633
	c-1.611,3.38-1.183,3.59-4.679,2.174c-1.868-0.756-2.218,3.234-4.419,1.402c1.867-3.941,3.263-8.163,6.634-11.216
	c3.431-1.553,5.524-6.208,10.564-4.267c0.875,0.338,1.836-2.073,3.2-2.718c1.811-0.442,2.263-4.752,5.252-1.849
	c0.266,8.253-0.591,16.48-0.494,24.729C287.326,69.904,287.078,71.049,286.168,71.916z"/>
<path fill-rule="evenodd" clip-rule="evenodd" fill="#D6B79C" d="M325.994,275.011c0.62-3.425-2.441-5.04-3.766-7.494
	c-1.252-2.321-1.59-4.381,0.528-6.224c1.733-1.509,5.276-0.184,4.79,1.855c-1.232,5.158,2.486,5.58,5.617,6.763
	c6.15,0.389,10.907,3.958,15.914,6.959c-0.172,2.617-0.897,4.66-3.788,2.229c-2.303-1.938-4.454,0.178-6.644-0.241
	c-4.047-1.839-8.783-0.095-12.733-2.444C325.635,275.928,325.663,275.46,325.994,275.011z"/>
<path fill-rule="evenodd" clip-rule="evenodd" fill="#B9926D" d="M234.005,78.926c5.346,0.444,10.825-1.177,16.057,1.035
	c-0.631,0.861-1.58,1.067-2.541,1.249c-1.209,0.112-2.281,0.437-2.707,1.762c-0.797,2.48-2.569,4.277-4.492,5.828
	c-3.101,2.501-3.692,5.614-3.117,9.329c0.364,2.35,1.573,4.83-0.313,7.119c-5.98-1.871-8.519-5.428-7.33-11.39
	c0.744-3.73,2.002-7.323,1.874-11.222c-0.053-1.603,1.372-2.565,2.58-3.475L234.005,78.926z"/>
<path fill-rule="evenodd" clip-rule="evenodd" fill="#D9C2B2" d="M135.047,172.017c2.053,0.538,1.512,3.003,2.963,3.989
	c0.646,7.234,1.294,14.402,0.665,21.755c-0.265,3.085,2.144,6.492,2.034,10.251c-0.064,2.191-0.478,3.88-1.72,5.419
	c-4.749,5.883-8.702,12.29-12.432,18.833c-0.61,1.07-0.463,2.572-0.666,3.876c-2.093-4.146-0.664-8.277,1.849-11.1
	c11.158-12.538,10.308-27.211,8.453-42.21C135.748,179.233,135.426,175.621,135.047,172.017z"/>
<path fill-rule="evenodd" clip-rule="evenodd" fill="#E2D5CD" d="M128.052,129.968c-0.5,7.075-1.471,14.161,0.168,21.209
	c0.391,1.682,1.372,3.281,0.319,4.954c-2.375,0.199-0.536-3.896-3.327-2.968c-0.262,0.087-0.175,1.226-0.25,1.876
	c-3.087-6.898-4.888-14.006-2.604-21.497c1.657-5.437,2.859-10.936,3.499-16.57C128.926,119.216,129.909,125.037,128.052,129.968z"
	/>
<path fill-rule="evenodd" clip-rule="evenodd" fill="#9F7955" d="M247.004,80.005c1.019-0.015,2.039-0.029,3.058-0.044
	c3.639,0.057,7.278,0.113,10.918,0.17c-0.217,3.005-3.844,1.86-4.824,3.925c1.298,2.604,6.872,1.453,5.494,6.342
	c-10.227-1.084-10.255-1.088-11.761,9.45c-0.325,2.279-1.097,4.486-0.798,6.882c0.424,3.403-1.57,3.109-3.673,2.047
	c-1.811-0.914-2.917-2.724-2.308-4.542c2.415-7.196,1.245-14.79,2.747-22.064C246.03,81.332,246.429,80.624,247.004,80.005z"/>
<path fill-rule="evenodd" clip-rule="evenodd" fill="#B79777" d="M162.937,82.086c-0.621,1.331-1.635,2.267-2.935,2.914
	c-1.216,0.775-2.665,1.11-3.607,2.407c-1.617,2.226-3.822,4.218-6.62,2.866c-2.378-1.148-0.601-3.854-0.918-5.841
	c0.044-5.025-1.056-10.157,1.403-14.947c4.273-1.986,6.887-0.434,7.791,3.744c0.637,2.944,1.369,6.042,3.108,8.68
	C161.751,81.968,162.344,82.027,162.937,82.086z"/>
<path fill-rule="evenodd" clip-rule="evenodd" fill="#DFC5AF" d="M314.932,16.164c-0.4-1.555-1.516-2.141-3.006-2.22
	c6.317-3.778,13.331-4.65,20.492-4.892c2.157-0.072,4.316-0.103,6.475-0.151c0.764,1.184-2.004,2.012-0.326,3.288
	c-1.014,3.29-3.086,4.851-6.639,4.217c-3.455-0.615-7.508,2.872-10.398-1.672c-0.297-0.455-0.608,0.328-0.269,0.398
	c0.811,0.166,1.353,1.048,1.122,1.896c-0.695,2.555-2.582,2.578-4.681,2.005C316.55,18.3,314.964,17.978,314.932,16.164z"/>
<path fill-rule="evenodd" clip-rule="evenodd" fill="#E3D0C2" d="M186.001,201.985c1.445-0.13,2.744,0.323,3.985,1.004
	c-2.281,6.234-5.051,12.235-9.098,17.531c-1.952,2.555-2.192,5.816-3.931,8.415c-0.072-0.866-0.472-1.467-1.174-2.042
	c-4.252-3.481-4.178-6.41,0.186-9.863c0.516-0.408,1.038-0.832,1.619-1.13C183.27,212.994,185.517,208.025,186.001,201.985z"/>
<path fill-rule="evenodd" clip-rule="evenodd" fill="#8F7663" d="M337.977,12.028c-1.08-1.448,0.369-2.155,0.916-3.127
	c4.489-0.952,8.708-1.898,13.244,0.917c3.396,2.108,8.097,0.444,11.941,2.137c-1.771,0.057-3.624-0.197-5.293,0.245
	c-2.266,0.6-3.681,1.876-0.809,3.806c3.227,1.895,6.457,3.787,7.14,7.963c-3.824,0.541-3.964-4.499-7.243-4.782
	c-1.724,0.272-2.795-0.888-3.777-1.932c-3.712-3.947-8.062-4.758-13.035-2.908C339.369,14.458,338.576,13.372,337.977,12.028z"/>
<path fill-rule="evenodd" clip-rule="evenodd" fill="#C1AE9D" d="M265.906,81.183c1.564-0.667,2.125-1.72,1.273-3.315
	c0.647-0.432,1.234-0.461,1.709,0.258l-0.016-0.036c1.262,1.878,3.97,2.041,5,4.202c1.263,8.288,4.174,16.316,3.937,24.843
	c-0.211,0.478-0.554,0.837-1.017,1.078c-3.238-2.465-2.83-6.439-3.807-9.764c-1.092-3.715-2.806-6.649-6.23-8.5
	c-0.621-0.429-1.082-0.981-1.306-1.712C265.54,85.884,265.428,83.514,265.906,81.183z"/>
<path fill-rule="evenodd" clip-rule="evenodd" fill="#CFB69E" d="M161.159,81.909c-2.721-2.47-3.393-6.141-3.977-9.674
	c-0.313-1.897-3.414-3.395-6.167-3.229c-1.16,0.641-1.446-0.461-2.01-1.009c0.374-1.279-1.94-2.821,0.168-3.818
	c1.492-0.706,3.331-1.825,4.668,0.474c0.844,1.45,2.074,0.133,3.087,0.396C161.349,69.914,160.922,75.994,161.159,81.909z"/>
<path fill-rule="evenodd" clip-rule="evenodd" fill="#8B6848" d="M265.906,81.183c1.804,2.274,1.379,4.533-0.044,6.786
	c-0.663,1.858-0.269,5.73-3.854,2.025c-0.93-2.223-2.997-2.76-4.981-3.562c-1.28-0.518-3.354-0.808-3.372-2.366
	c-0.02-1.657,2.02-1.704,3.349-2.199c1.354-0.505,2.653-1.151,3.978-1.735C262.622,80.481,264.264,80.832,265.906,81.183z"/>
<path fill-rule="evenodd" clip-rule="evenodd" fill="#D4C0B0" d="M371.07,47.949c3.527,6.794,1.76,14.048,1.842,21.142
	c-2.43,0.37-3.55-0.933-3.992-3.111c0.12-2.796-0.324-5.394-1.452-8.066C365.509,53.272,366.969,49.843,371.07,47.949z"/>
<path fill-rule="evenodd" clip-rule="evenodd" fill="#C0A9A1" d="M128.052,129.968c-0.695-4.338-0.29-8.861-2.193-12.996
	c2.06-2.975-0.416-7.441,3.25-9.889c1.837,0.116,2.425,1.712,1.855,2.766c-3.301,6.103,0.361,12.101-0.002,18.127
	C129.73,128.259,130.504,131.468,128.052,129.968z"/>
<path fill-rule="evenodd" clip-rule="evenodd" fill="#9D816B" d="M371.07,47.949c-3.848,3.145-4.137,7.051-1.726,10.978
	c1.503,2.447,0.981,4.686,0.645,7.093c-1.6,0.349-2.203-0.966-3.081-1.831c-1.778-2.05-1.596-4.491-1.469-6.966
	c0.249-4.879,0.663-9.767-0.256-14.624c-0.4-1.192-0.853-2.373-0.893-3.654c0.256-1.756,0.441-3.557,2.423-4.353
	c0.815-0.019,1.379,0.349,1.68,1.11c0.073,3.95,2.151,7.447,2.585,11.319C370.986,47.333,371.018,47.643,371.07,47.949z"/>
<path fill-rule="evenodd" clip-rule="evenodd" fill="#A18B79" d="M282.949,46.966c-4.262,3.063-9.638,3.442-14.159,5.88
	c0.958-3.515,4.212-5.196,6.261-7.841c1.871-0.357,3.242-5.229,5.784-0.541c0.392,0.721,1.231-1.22,2.18-1.448
	C284.211,44.353,283.863,45.664,282.949,46.966z"/>
<path fill-rule="evenodd" clip-rule="evenodd" fill="#5E4E44" d="M368.03,63.973c0.653,0.682,1.306,1.364,1.959,2.046
	c0.04,1.913,1.818,2.173,2.923,3.072c-0.72,1.157-1.127,2.385-0.854,3.766c-1.817,1.229-2.09-0.672-2.83-1.462
	c-1.342-1.434-2.371-3.956-3.891-4.268c-3.703-0.759-1.779-2.506-1.307-4.135C365.627,62.25,366.765,63.37,368.03,63.973z"/>
<path fill-rule="evenodd" clip-rule="evenodd" fill="#695A50" d="M268.889,78.125c-0.569-0.086-1.14-0.172-1.709-0.258
	c-1.973-2.104-4.766-3.588-5.201-6.857c1.754-0.941,0.277-3.142,2.148-4.69C264.678,70.887,269.682,73.162,268.889,78.125z"/>
<path fill-rule="evenodd" clip-rule="evenodd" fill="#CDAA89" d="M177.967,80.114c-3.744,4.651-8.331,3.463-12.976,1.873
	C169.415,82.044,173.747,81.47,177.967,80.114z"/>
<path fill-rule="evenodd" clip-rule="evenodd" fill="#E4DEDB" d="M370.979,47.021c-1.132-3.62-4.723-6.521-3.201-10.919
	c2.482,1.621,3.311,4.042,3.319,6.859c0.224,0.71,0.447,1.42,0.671,2.13C371.504,45.735,371.241,46.379,370.979,47.021z"/>
<path fill-rule="evenodd" clip-rule="evenodd" fill="#E2CDBB" d="M290.963,248.934c0.346,3.69,0.689,7.382,1.034,11.072
	C289.779,256.49,289.082,252.832,290.963,248.934z"/>
<path fill-rule="evenodd" clip-rule="evenodd" fill="#E2CCB7" d="M137.005,156.001c-1.612-2.892-1.612-2.892-3.913,0.475
	c-3.202-5.264-2.94-10.898-2.46-16.582c0.194-2.296,0.267-4.602,0.396-6.903c3.087-2.007,3.005-5.753,4.606-8.584
	c2.01-3.555,3.907-7.057,7.386-9.398c0.536,0.578,1.562,0.185,1.979,0.998c-2.341,2.212-3.082,4.079,1.016,5.009
	c0.785,0.179,1.907,0.347,2.224,0.895c3.421,5.929,9.613,3.662,14.561,4.988c1.243,0.334,2.741,0.253,3.117-1.576
	c0.264-1.282,0.511-3.304,2.037-2.705c1.166,0.458,2.645,2.866,2.33,3.904c-1.995,6.565,2.623,9.946,6.493,14.368
	c-1.404,1.254-2.745,2.719-4.345,3.799c-1.425,0.962-2.448,1.613-1.046,3.412c0.965,1.238-0.103,2.208-0.967,2.949
	c-3.165,2.711-3.063,5.506-0.63,8.682c0.97,1.266,2.004,3.118,0.248,4.459c-3.515,2.683-1.578,5.869-1.251,9.311
	c-0.458-5.837,3.939-3.812,6.062-3.721c3.219,0.138,3.729,2.968,2.814,5.63c-0.769,2.236,0.258,5.595-4.308,5.672
	c-2.548,0.044-3.405-0.224-3.334-2.539c0.074-2.454-1.711-2.345-3.3-2.776c-2.234-0.607-2.384,0.937-2.903,2.379
	c-1.55,4.305-5.329,6.452-8.815,8.864c-2.948-1.285-2.352-4.965-4.572-6.742c-2.092-3.615-6.339-6.193-5.438-11.252
	C144.044,163.623,139.593,160.384,137.005,156.001z"/>
<path fill-rule="evenodd" clip-rule="evenodd" fill="#D6B89B" d="M144.999,116.006c-0.812-0.03-1.562-0.186-1.979-0.998
	c0.336-0.332,0.672-0.665,1.008-0.997c2.968-4.944,5.471-10.192,9.555-14.406c0.773-0.798,1.788-1.797,0.88-3.046
	c-0.698-0.961-1.772-0.581-2.746-0.297c-1.416,0.413-2.893,1.117-4.002-0.599c1.329-3.825,3.856-5.834,8.048-5.334
	c1.561,1.421,4.055,2.002,4.238,4.676c0.682,1.241,1.154,2.536,0.999,3.987c-0.57,1.335-1.613,2.677-0.213,4.077
	c1.336,1.337,1.97,0.107,2.665-0.816c0.097-0.128,0.349-0.317,0.359-0.308c2.291,2.297,5.606,4.262,6.53,7.026
	c0.818,2.445-2.613,3.279-5.024,2.964c-2.068-0.271-3.379,0.402-5.181,1.507c-3.039,1.862-6.645,3.313-10.566,1.927
	C148.035,114.827,146.333,114.472,144.999,116.006z"/>
<path fill-rule="evenodd" clip-rule="evenodd" fill="#D1B59D" d="M165.997,206.004c-3.786,5.854-3.792,13.295-7.967,18.986
	c0.358-8.707,1.552-17.229,5.906-25.085c-3.472-0.196-5.705,0.783-5.972,4.357c-0.133,1.785-1.229,2.634-2.966,2.734
	c-0.828-2.811-0.721-5.505,1-7.996c2.244-1.564-0.389-3.611,0.588-5.501c0.925-1.789,0.705-3.711,3.468-4.688
	c3.738-1.32,5.075,1.239,6.959,2.966c1.48,1.355,2.317,2.997,0.751,5.196C165.882,199.619,167.972,203.244,165.997,206.004z"/>
<path fill-rule="evenodd" clip-rule="evenodd" fill="#BD9887" d="M144.989,169.015c0.97,4.229,4.605,6.999,6.02,10.985
	c2.549,4.335,4.307,8.842,3.047,14.005c0.257,1.666-1.208,3.336,0.012,4.999c1.917,4.977-0.819,8.905-2.915,12.978
	c-2.201,0.755-4.118-0.372-6.122-0.941c-0.011-0.345-0.022-0.69-0.033-1.035c1.709-4.562,4.044-8.899,3.927-14.035
	c-0.06-2.655,0.073-5.184-1.226-7.665c-1.471-2.809-3.625-5.447-1.513-9.134c0.938-1.636-1.412-3.067-2.155-4.647
	C143.06,172.454,141.612,170.32,144.989,169.015z"/>
<path fill-rule="evenodd" clip-rule="evenodd" fill="#DEC4AF" d="M149.983,211.983c2.318-4.025,3.708-8.343,4.084-12.979
	c0.644-0.001,1.288-0.002,1.931-0.003c-0.126,2.691,0.533,5.48-1,7.996l-0.001,0.001c-0.429,3.99-0.49,8.011-1.008,11.993
	c-0.438,3.834,0.877,7.76-1.508,11.537c-1.333,2.111-2.57,3.354-4.473,1.809c-2.13-1.729-4.095,1.013-5.956-0.382
	c-1.307-1.099-1.548-2.688-1.106-4.063C142.844,221.979,144.707,215.996,149.983,211.983z"/>
<path fill-rule="evenodd" clip-rule="evenodd" fill="#D1B59D" d="M154.056,194.005c0.456-4.988-2.103-9.321-3.047-14.005
	c3.421,1.146,2.288,4.884,3.99,7.009C154.628,189.333,155.875,191.876,154.056,194.005z"/>
<path fill-rule="evenodd" clip-rule="evenodd" fill="#DBCABE" d="M325.002,174.004c-4.079,4.185-3.985,10.316-7,14.997
	c-0.822-1.466,2.062-5.708-2.997-4c-0.003-0.335-0.005-0.669-0.007-1.004c2.164-4.88,0.111-9.01-2.482-12.927
	c-2.465-3.724-5.168-7.214-4.572-12.148c0.4-3.316-2.008-5.39-4.065-7.598c-3.101-3.326-2.479-5.494,1.935-6.263
	c2.633-0.458,4.021-2.255,5.446-3.986c4.265-5.185,5.949-5.653,12.663-2.582c-2.564-7.267-7.008-12.437-12.916-16.491
	c-6.617-2.266-11.067-6.857-14.01-13.065c0.132-1.719-1.449-2.567-2.002-3.939c-0.568-0.607-1.201-1.167-1.647-1.871
	c-0.623-0.981-1.39-2.051-0.321-3.142c1.123-1.148,2.453-0.814,3.663-0.106c1.762,1.031,3.067,2.533,4.093,4.28
	c1.342,3.438,4.705,4.741,7.495,6.217c5.7,3.016,10.484,6.877,14.532,11.855c3.684,4.529,7.604,5.374,12.799,3.013
	c1.752-0.796,3.405-1.605,5.037-0.027c1.664,1.607,0.81,3.375,0.053,5.061c-0.545,1.212-1.105,2.423-1.965,3.461
	c-0.342,0.349-0.754,0.574-1.234,0.668c-8.624-2.286-8.626-2.286-8.389,7.134c0.07,2.799-1.386,3.097-3.502,2.064
	c-2.975-1.451-6.498-3.971-8.949-0.478c-2.773,3.949-7.107,7.786-4.96,13.736c0.845,2.339,1.122,4.851,1.849,7.229
	c0.455,1.486,1.318,2.738,3.043,2.911c1.447,0.145,2.603-0.526,3.352-1.733c0.937-1.511-0.252-2.446-1.086-3.454
	c-1.109-1.339-2.113-2.784-0.63-4.396c1.686-1.831,3.267-0.594,4.859,0.371c3.288,1.989,4.568,4.586,3.039,8.372
	C325.119,168.65,324.981,171.333,325.002,174.004z"/>
<path fill-rule="evenodd" clip-rule="evenodd" fill="#D1B79F" d="M300.996,182.002c-2.154-0.001-4.309-0.006-6.462-0.004
	c-3.069,0.004-4.46-1.031-5.903-4.354c-2.238-5.153-2.271-10.501-3.605-15.674c4.174-5.902,0.809-12.274,0.801-18.354
	c-0.006-5.317,1.059-10.926-1.306-16.136c-0.28-0.617-0.124-1.455,0.319-1.899c2.393-2.397,2.348-5.656,3.181-8.604
	c0.573,0.574,1.606,1.115,1.65,1.728c0.474,6.642,3.216,12.667,2.221,19.973c-1.079,7.916-2.221,16.089-2.296,24.196
	c-0.031,3.302,0.773,6.824,2.084,9.864c1.252,2.905,4.08,3.323,7.236,2.251c1.811-0.615,4.125-3.511,5.615-0.915
	c1.312,2.286-0.39,5.083-2.291,7.112C301.91,181.537,301.415,181.734,300.996,182.002z"/>
<path fill-rule="evenodd" clip-rule="evenodd" fill="#CAAD90" d="M288.021,116.977c1.234,3.196,1.357,6.122-1.813,8.404
	c-0.463,0.333-0.994,1.282-0.832,1.669c3.379,8.065,0.316,16.762,2.264,24.715c1.143,4.669,0.873,7.445-2.613,10.205
	c-0.013-2.32-0.025-4.64-0.037-6.959c-2.424-2.488-0.961-5.765-1.75-8.577c-0.582-2.074-0.275-4.352-1.477-6.276
	c-2.192-9.426-5.677-18.59-5.751-28.447c-0.01-1.343-0.1-2.65,0.937-3.703l0.1-0.042c2.703-0.155,3.286,1.617,3.371,3.772
	c0.09,2.299,0.041,4.623,2.344,6.496c1.967-3.37-1.713-7.345,1.32-10.304C284.464,111.351,287.729,113.517,288.021,116.977z"/>
<path fill-rule="evenodd" clip-rule="evenodd" fill="#BB9775" d="M284.081,107.93c-0.541,3.02,0.646,5.868,0.851,8.81
	c0.104,1.491-0.238,3.251-1.836,3.7c-1.689,0.475-1.961-1.395-2.586-2.464c-1.013-1.731-2.021-3.616-1.392-5.628
	c0.716-2.286-0.362-3.406-2.071-4.382c-1.352-8.643-2.703-17.284-4.055-25.927c1.09-0.542,1.865,0.061,2.629,0.719
	c0.691,0.761,1.066,1.661,1.183,2.677c-0.109,4.916,1.569,9.526,2.474,14.268c0.103,0.973,0.259,1.944,0.313,2.942
	c0.327-3.071-0.228-6.401,2.036-8.954c1.451-1.636,3.2-3.626,4.722,0.059c-2.257,3.809-4.194,7.68-2.392,12.279
	C283.999,106.662,284.04,107.296,284.081,107.93z"/>
<path fill-rule="evenodd" clip-rule="evenodd" fill="#CAB098" d="M296.996,108.937c4.377,4.669,8.718,9.378,14.01,13.065
	c0.434,2.222,0.258,2.481-0.402,2.034c-2.654-1.799-3.404-0.787-3.689,1.982c-0.224,2.17-1.299,4.764-3.592,4.647
	c-2.736-0.138-3.109-2.935-3.239-5.355c-0.2-3.76-0.872-7.562-2.613-10.792C296.346,112.433,296.654,110.832,296.996,108.937z"/>
<path fill-rule="evenodd" clip-rule="evenodd" fill="#CAB098" d="M283.957,106.028c-1.801-4.361-3.3-8.676,1.871-11.945
	c2.893-0.236,3.79,1.932,4.807,3.87c-0.168-1.399-1.949-2.472-1.165-4.228c3.382-1.619,5.009,1.702,6.749,3.066
	c5.276,4.137,9.959,9.028,15.666,12.672c0.381,0.243,0.396,0.874,0.362,1.377c-2.011,1.875-3.634,0.283-5.153-0.736
	c-2.418-1.621-4.646-3.522-7.074-5.14c-0.487-0.638-0.876-1.396-1.48-1.888c-1.414-1.149-2.59-3.937-4.569-2.627
	c-1.899,1.256,1.562,2.759,1.024,4.547c-1.273-0.019-2.123-0.658-2.859-1.681c-1.486-2.066-2.572-5.053-6.038-3.779
	C282.82,100.739,284.375,103.759,283.957,106.028z"/>
<path fill-rule="evenodd" clip-rule="evenodd" fill="#C9AF99" d="M259.024,164.984c2.778,1.021,2.341,3.656,2.968,5.796
	c1.653,5.646,1.248,11.902,6.471,16.426c3.277,2.84,7.525,2.28,10.799,4.593c1.146,0.81,3.697-0.367,3.631,2.273
	c-0.062,2.589-2.715,0.053-3.42,1.542c-0.209,0.438-0.317,0.924-0.472,1.388c-3.255-0.374-6.767-0.125-9.68-1.327
	c-2.183-0.901-8.417,1.455-5.962-5.601c0.329-0.947-3.307-5.418-5.359-8.079c0-0.998-0.001-1.997-0.001-2.995
	c5.671,0.896,3.128-4.311,2.595-4.927C258.09,171.186,259.236,168.032,259.024,164.984z"/>
<path fill-rule="evenodd" clip-rule="evenodd" fill="#C9AF99" d="M235.003,153.003c1.888,0.988,3.185,2.791,5.422,3.424
	c1.287,0.364,2.937,1.72,3.229,2.919c1.099,4.514,2.861,7.301,8.156,8.244c5.748,1.023,4.624,7.276,6.189,11.411
	c-9.332-0.928-11.952-8.295-15.48-15.305C240.616,159.913,236.233,157.508,235.003,153.003z"/>
<path fill-rule="evenodd" clip-rule="evenodd" fill="#CDAA89" d="M155.984,90.988c-3.895-0.292-5.906,2.409-7.975,5.02
	c-0.673,2.179-1.77,1.541-2.535,0.203c-1.385-2.422,1.561-9.676,4.438-11.273c0.657,1.517-1.217,3.905,0.66,4.575
	c2.181,0.776,4.141-0.97,5.036-2.957c1.042-2.312,2.587-2.025,4.395-1.556c-1.004,1.664-2.008,3.327-3.012,4.99
	C156.879,90.549,156.551,90.889,155.984,90.988z"/>
<path fill-rule="evenodd" clip-rule="evenodd" fill="#DDC3AA" d="M155.984,90.988c0.335-0.333,0.67-0.665,1.006-0.997
	c0.659-0.005,1.317-0.018,1.976-0.011c1.455,0.014,3.454-1.381,3.907,1.341c0.361,2.173-0.591,3.488-2.873,3.684
	C158.45,93.878,156.511,93.139,155.984,90.988z"/>
<path fill-rule="evenodd" clip-rule="evenodd" fill="#C3A07E" d="M234.016,79.162c-1.729,7.038-3.671,14.146-2.423,21.389
	c0.301,1.744,3.523,2.983,5.402,4.455c1.319,4.375,0.236,9.734,5.43,12.521c1.616,0.867,1.159,2.988,1.696,4.519
	c0.588,1.677,0.748,3.561,2.437,4.983c4.253-4.04,5.933-8.792,5.363-14.633c-0.497-5.099-0.647-10.27,0.669-15.32
	c0.758-2.912,2.13-5.419,5.588-5.401c3.598,0.018,4.653,2.885,5.271,5.678c0.642,2.899,1.371,5.869,1.404,8.814
	c0.086,7.511,3.44,14.094,5.48,21.054c1.695,6.575,2.297,13.366,4.033,19.939c0.404,1.526,0.052,3.322-0.989,4.766
	c-1.742,1.14-2.61,0.282-3.11-1.376c-0.362-1.206-0.403-2.523-1.259-3.555c-0.007-0.663-0.013-1.327-0.021-1.99
	c-2.017-7.78-1.742-16.273-6.656-23.146c-2.674-3.736-0.832-8.115-2.287-12.375c-2.194,1.436-2.326,3.427-2.407,5.287
	c-0.177,4.049-0.472,8.098-0.411,12.154c0.021,1.372-0.074,2.655-1.127,3.673c-1.971,1.662-1.562,3.577-0.586,5.556
	c0.073,0.482,0.06,0.962-0.01,1.444c-0.226,1.475-0.716,2.883-0.994,4.349c-0.512,2.69-2.167,4.521-4.908,4.914
	c-2.904,0.417-5.144-1.354-5.71-3.802c-1.397-6.043-5.211-10.471-8.887-15.063c-6.083-0.087-5.929-4.224-5.276-8.418
	c0.527-3.385,0.875-6.232-4.074-4.979c-0.725,0.184-1.263-0.163-1.641-0.792c-0.95-1.578,0.577-1.938,1.31-2.694
	c0.674-0.696,1.862-1.535,1.103-2.439c-1.094-1.302-1.99-0.188-2.705,0.826c-0.602,0.854-1.59,1.789-2.448,0.936
	c-3.807-3.788-6.615-0.869-9.673,1.133c-0.789,0.516-1.869,0.588-3.571,1.084c1.768-2.843-2.121-6.044,1.77-8.289
	c0.101-0.058-0.569-2.378-1.116-2.49c-4.698-0.961-1.703-3.883-1.649-6.006c0.07-2.753,2.625-3.533,4.219-3.293
	c3.539,0.533,5.178-1.043,5.812-3.747c2.986-0.399,0.806,4.443,2.805,2.694c1.802-1.576,6.282-1.699,5.082-6.091
	c-0.525-1.919-3.398-3.745-1.201-5.761c1.756-1.611,4.484-0.486,6.774-0.646C231.68,78.943,232.852,79.107,234.016,79.162z"/>
<path fill-rule="evenodd" clip-rule="evenodd" fill="#C6A788" d="M235.005,127.996c3.728,2.995,8.483,5.101,8.606,11.04
	c0.032,1.548,1.006,3.155,1.809,4.588c0.956,1.706,2.536,2.904,4.549,2.161c1.662-0.613,3.416-1.646,3.395-3.805
	c-0.02-1.9,0.375-3.557,1.642-4.98c2.101-0.393,2.449,1.107,2.747,2.594c1.554,7.742,1.322,15.583,1.26,23.414
	c0,0.661,0,1.321,0,1.982c-1.309,0.537-0.795,3.729-3.457,2.324c-3.739-1.974-7.705-3.69-9.72-7.757
	c-0.945-1.909-2.13-3.593-3.321-5.331c-1.907-2.783-5.727-5.59-2.025-10.022c1.362-1.632-0.52-3.118-2.432-3.128
	c-4.175-0.021-3.914-1.962-2.243-4.674c1.155-1.874,1.509-3.577-0.536-5.209C234.256,130.379,234.396,129.126,235.005,127.996z"/>
<path fill-rule="evenodd" clip-rule="evenodd" fill="#D3B89E" d="M227.002,142.999c-1.983-4.874-5.451-0.852-8.22-1.069
	c0.95-4.852,0.98-4.861-1.414-12.26c-0.886-2.736-0.226-4.977,2.093-6.519c2.179-1.448,3.495,0.991,5.133,1.694
	c0.617,0.266,1.239,1.975,0.591,3.138c-0.507,0.91-1.288,0.857-2.057,0.187c-0.972-0.848-1.97-0.606-2.337,0.461
	c-0.143,0.414,0.78,1.298,1.35,1.823c0.472,0.435,1.15,0.637,1.718,0.974c6.464,3.845,6.973,5.726,3.138,11.574L227.002,142.999z"/>
<path fill-rule="evenodd" clip-rule="evenodd" fill="#211A15" d="M327.018,59.023c-2.42,3.672-2.502,5.145-0.531,9.633
	c0.547,1.245-0.545,1.741-1.129,2.456c-1.038,1.266-2.125,2.491-3.138,3.776c-0.155,0.195-0.021,0.618-0.021,1.375
	c1.943-1.85,3.692-3.514,5.441-5.178c-0.836,3.114-0.698,6.115-1.442,8.956c-0.822,3.134-2.42,5.031-5.68,4.498
	c-2.925-0.478-3.705-2.833-3.551-5.546c-1.207-1.407-0.278-2.943-0.283-4.428c1.096-5.981,4.021-11.2,6.861-16.461
	c4.307-8.059,11.308-7.148,18.513-5.572c3.904,0.035,7.541,1.119,10.906,3.022c1.329,0.752,3.269,1.18,2.923,3.437
	c-1.723-0.147-3.445-0.296-5.365-0.46c1.736,2.608,5.271,2.328,7.539,5.948c-7.834-2.443-13.34-7.371-20.104-9.386
	C334.104,55.826,330.657,57.693,327.018,59.023z"/>
<path fill-rule="evenodd" clip-rule="evenodd" fill="#6C5A50" d="M368.03,63.973c-1.468,0.222-2.761-0.27-3.999-0.98
	c-0.77-1.203-1.584-2.36-2.989-2.913c-0.728,0.279-1.644-0.056-1.581-0.602c0.471-4.184-2.943-4.338-5.441-5.565
	c-1.729-0.85-4.306-1.532-2.19-4.405c2.516-0.416,5.828,1.495,7.149-2.424c0.689-2.049,1.463-4.227-0.403-5.99
	c-1.784-1.687-3.916-1.385-5.979-0.36c-1.047,0.521-1.932,1.243-2.614,2.202c-0.485,0.678-0.966,1.365-1.57,1.932
	c-0.688,0.644-1.351,1.644-2.483,0.874c-0.747-0.507-0.998-1.477-0.774-2.235c0.86-2.932,1.226-6.139,3.983-8.155
	c2.648-0.918,5.268-1.427,8.066-0.358c3.014,1.15,5.005,0.013,5.758-3.173c2.289-0.217,3.963,0.406,4.154,3.045
	c-1.682,0.873-1.021,2.938-2.094,4.119c-1.997,1.811-0.119,2.264,1.041,2.968c1.943,5.124,0.705,10.388,0.664,15.596
	C366.709,59.798,366.145,62.122,368.03,63.973z"/>
<path fill-rule="evenodd" clip-rule="evenodd" fill="#594B43" d="M352.036,49.973c-1.066,1.231,0.177,2.087,0.818,2.211
	c4.493,0.875,7.774,2.854,8.188,7.896c-2.196,1.905-3.214-1.77-5.153-1.087c-4.049-3.235-8.686-4.885-13.838-5.152
	c-1.35-1.271-2.049-2.751-1.51-4.634c1.328-1.187,2.799-1.74,1.568-4.472c-1.652-3.674,3.014-10.761,7.268-12.353
	c2.955,0.788,1.937,2.162,0.527,3.594c-2.311,2.479-3.152,5.588-4.131,8.944c2.057-0.188,2.268-1.835,3.156-2.751
	C352.684,43.688,351.398,47.214,352.036,49.973z"/>
<path fill-rule="evenodd" clip-rule="evenodd" fill="#AE957E" d="M300.004,91.994c-2.772-5.375-2.635,0.82-4.009,1.008
	c-3.144,0.065-3.983-2.346-4.593-4.635c-0.5-1.871,0.58-3.046,2.58-3.157c1.674,0.354,1.827-0.143,1.267-1.729
	c-0.708-2.001-2.321-4.615,1.72-5.163c0.712,0.139,1.279,0.513,1.746,1.057c1.066,1.549,1.234,4.456,4.371,2.86
	c0.975,0.091,1.873,0.433,2.774,0.779c3.372,1.186,6.812,2.321,6.101,7.041c-0.375,0.959-0.752,1.918-1.128,2.877
	c-0.339,0.342-0.749,0.462-1.219,0.399c-0.471-0.091-0.942-0.195-1.396-0.351C305.549,92.07,302.933,90.736,300.004,91.994z"/>
<path fill-rule="evenodd" clip-rule="evenodd" fill="#4A423E" d="M342.037,71.041c-1.099-3.02-3.094-3.503-6.25-3.232
	c-2.615,0.224-3.055-3.035-4.276-4.89c1.306-1.598,1.97,0.928,3.056,0.23c0.402-1.587-1.084-3.657,1.039-4.817
	c1.168-0.638,2.23,0.144,3.269,0.648c1.278,0.622,2.342,1.474,1.95,3.05c-0.463,1.862-1.405,0.842-2.537,0.496
	c-1.188-0.362-1.108,0.812-0.696,1.579c0.646,1.199,1.391,3.616,2.938,2.107c3.99-3.89,6.746,0.371,7.945,1.986
	c1.798,2.42,3.405,2.604,5.67,2.222c1.428-0.241,2.5,0.13,2.479,1.529c-0.025,1.725-1.062,1.585-2.39,0.889
	c-2.646-1.386-2.032,0.888-2.256,2.174C348.004,75.344,345.428,72.173,342.037,71.041z"/>
<path fill-rule="evenodd" clip-rule="evenodd" fill="#5B4E4A" d="M342.037,71.041c4.365-1.307,6.645,2.605,9.941,3.972
	c2.688,2.589,4.623,6.032,8.605,7.129c1.998,0.55,1.266,2.403,1.356,3.811c-6.712-3.354-13.028-7.726-20.894-8.106
	C341.318,75.568,338.643,72.863,342.037,71.041z"/>
<path fill-rule="evenodd" clip-rule="evenodd" fill="#B59987" d="M352.908,101.78c-2.129,4.131-6.944,2.924-10.1,5.079
	c-2.975,2.033-6.729,1.491-10.07,2.357c-4.844,1.256-10.047-0.008-14.766-2.194c-0.574-0.687-0.512-1.364,0.029-2.034
	c3.367-1.652,6.137,1.106,9.281,1.373c2.254,0.191,4.107,0.271,5.863-1.181c0.139-0.191,0.279-0.383,0.418-0.576
	c5.154-0.427,10.203-1.106,14.74-3.994C349.917,99.584,351.785,99.77,352.908,101.78z"/>
<path fill-rule="evenodd" clip-rule="evenodd" fill="#493C35" d="M311.961,90.056c-0.614-3.961-3.902-4.931-6.93-6.192
	c-1.147-1.536-0.181-2.676,1.01-3.227c6.162-2.852,6.086-7.97,5.111-13.461c-0.503-1.019-1.459-1.834-1.422-3.1
	c0.49-1.099,1.289-1.908,2.338-2.482c2.85-0.547,2.793,2.441,4.301,3.535c0.125,3.352-1.875,7.045,1.592,9.858
	c-0.331,1.336-0.662,2.671-0.994,4.007c-3.211,1.437-5.635,3.252-4.091,7.39C313.358,87.678,312.533,88.893,311.961,90.056z"/>
<path fill-rule="evenodd" clip-rule="evenodd" fill="#BEA795" d="M318.002,104.988c-0.01,0.678-0.02,1.355-0.029,2.034
	c-7.445-3.27-12.221-9.731-17.969-15.028c1.506-0.03,1.292-0.865,1.148-1.99c-0.197-1.557,0.959-2.553,1.949-1.16
	c1.758,2.475,4.705,2.409,6.809,3.981c1.139,3.366,2.045,6.864,5.136,9.134C316.297,102.709,317.515,103.493,318.002,104.988z"/>
<path fill-rule="evenodd" clip-rule="evenodd" fill="#625652" d="M331.979,93.953c-2.748-2.674-3.352-5.739-1.422-9.089
	c1.664-2.887,1.17-6.863,4.511-8.888c2.242,0.168,1.835,1.894,1.851,3.277c0.014,1.241-1.043,2.546,0.289,3.692
	c0.381,1.153-0.064,2.187-0.431,3.235c-1.041,2.265-1.338,4.852-2.96,6.867C333.313,93.573,332.721,93.917,331.979,93.953z"/>
<path fill-rule="evenodd" clip-rule="evenodd" fill="#282220" d="M331.979,93.953c0.346-0.314,0.691-0.629,1.037-0.943
	c1.807-1.947,3.193-2.988,4.531,0.633c1.387,3.756,3.09,7.116-2.518,8.753c-1.137,0.332-1.256,1.841-1.899,2.771
	c0,0,0.016,0.014,0.016,0.015c-3.513-0.875-4.031-3.262-3.072-6.281C330.607,97.219,331.338,95.6,331.979,93.953z"/>
<path fill-rule="evenodd" clip-rule="evenodd" fill="#81726E" d="M337.018,83.06c-0.698-0.513-4.159,1.878-1.864-1.79
	c1.101-1.759,1.368-3.553-0.087-5.293c0.657-1.043,0.891-3.187,2.44-2.512c2.135,0.928,2.456,3.35,2.614,5.557
	c-0.077,0.31-0.14,0.623-0.187,0.939C339.386,81.393,338.713,82.707,337.018,83.06z"/>
<path fill-rule="evenodd" clip-rule="evenodd" fill="#544740" d="M327.018,59.023c2.952-3.244,6.569-4.638,10.94-3.93
	c0.06,0.15,0.173,0.433,0.171,0.433c-3.629,1.492-7.266,2.966-10.902,4.439C327.156,59.651,327.088,59.338,327.018,59.023z"/>
<path fill-rule="evenodd" clip-rule="evenodd" fill="#927A69" d="M315.046,101.959c-4.395-1.87-6.78-6.113-5.136-9.133
	c0.305,0.061,0.613,0.097,0.924,0.106C312.237,95.941,313.642,98.95,315.046,101.959z"/>
<path fill-rule="evenodd" clip-rule="evenodd" fill="#AC856F" d="M149.983,211.983c-2.997,6.518-8.589,12.004-7.931,19.973
	c-0.061,1.329,0.142,2.742-0.247,3.969c-0.582,1.836-1.283,4.701-3.43,4.238c-2.588-0.559-0.4-3.033-0.526-4.661
	c-0.701-9.081,3.955-16.557,7.182-24.462C146.997,209.702,148.588,210.329,149.983,211.983z"/>
<path fill-rule="evenodd" clip-rule="evenodd" fill="#D1B59D" d="M153.989,218.991c-0.677-4.083-0.48-8.092,1.008-11.993
	C156.262,211.131,155.399,215.084,153.989,218.991z"/>
<path fill-rule="evenodd" clip-rule="evenodd" fill="#D2B396" d="M311.998,284.996c0.303,3.334-1.828,3.145-4.063,2.804
	c0.021-2.988,0.042-5.975,0.062-8.961c0.038-5.788,7.644-11.018,12.53-8.182c1.875,1.089,2.91,3.757,5.467,4.354
	c0.006,0.332,0.008,0.663,0.009,0.995c0.243,1.861,0.577,3.13,3.167,3.169c3.26,0.05,6.537,0.692,9.832,0.825
	c0.717,0.304,1.871,0.439,2.066,0.945c0.488,1.264-0.801,0.884-1.436,1.106c-0.909,0.318-1.807,0.673-2.709,1.013
	c-0.804,0.878-1.266,1.986-1.966,2.934c-0.492,0.399-0.984,0.798-1.477,1.196c-2.301-4.807-8.543-3.431-11.444-7.297
	c-2.781-2.007-4.869-6.485-9.08-4.136c-3.298,1.841,0.312,5.529-0.832,8.25C311.999,284.311,312.016,284.663,311.998,284.996z"/>
<path fill-rule="evenodd" clip-rule="evenodd" fill="#DEC6B0" d="M313.001,223.001c2.206,2.658,2.039,5.844,1.996,9.001
	C313.757,229.129,312.973,226.155,313.001,223.001z"/>
<path fill-rule="evenodd" clip-rule="evenodd" fill="#CEB195" d="M259.012,163.008c-0.073-5.848-2.287-11.44-1.512-17.494
	c0.338-2.646,0.073-6.195-2.495-8.514c0-0.333,0.001-0.666,0.003-0.999c-1.105-1.999-1.083-3.998,0-5.996
	c0.459-0.439,1.393-1.109,1.308-1.283c-2.356-4.83,0.853-9.636,0.036-14.56c-0.377-2.271,0.449-5.767,4.189-6.371
	c1.17,2.058,1.986,4.37,1.374,6.617c-1.051,3.854,0.923,7.014,2.827,9.442c4.562,5.819,1.961,13.512,5.795,19.372
	c0.117,0.18-1.004,1.17-1.549,1.782c-2.205-0.804-1.573-3.097-2.447-4.578c-0.912-1.544-2.096-3.475-4.109-3.161
	c-2.174,0.339-2.394,2.541-2.398,4.388c-0.014,5.798-0.057,11.602,0.201,17.391C260.307,160.673,260.367,161.969,259.012,163.008z"
	/>
<path fill-rule="evenodd" clip-rule="evenodd" fill="#DEC6B0" d="M276.947,108.007c0.104,11.028,3.506,21.431,6.064,31.993
	c-0.086,5.026,1.732,9.928,0.989,14.998c-0.192,1.433-0.461,3.361-1.905,3.472c-2.059,0.157-3.043-1.907-4.098-3.467
	c0.08-0.22,0.161-0.439,0.236-0.662c4.004-5.416,2.049-11.447,0.664-16.773c-2.42-9.313-4.66-18.637-5.607-28.175
	c-0.441-4.431-2.273-8.298-3.242-12.479c-0.797-3.433-2.775-0.555-4.182-0.77c-2.762-2.877-1.26-5.071,1.138-7.12
	c4.19,1.134,5.81,4.512,6.95,8.185C275.062,100.774,275.959,104.405,276.947,108.007z"/>
<path fill-rule="evenodd" clip-rule="evenodd" fill="#C9AF99" d="M277.974,185.961c-1.495,1.768-2.777,1.847-3.002-0.73
	c-0.347-3.976-1.125-8.129-0.335-11.917c0.6-2.869-2.999-5.673,0.258-8.202c-0.031-0.261-0.062-0.521-0.098-0.781
	c0.031-3.386-0.791-6.841,0.817-10.1c0.946-0.635,1.401-0.346,1.417,0.759c0.717,3.464,1.073,6.919,2.396,10.351
	c2.131,5.53-0.05,11.169-1.333,16.679C279.041,183.363,279.189,184.683,277.974,185.961z"/>
<path fill-rule="evenodd" clip-rule="evenodd" fill="#C9AF99" d="M269.009,146.995c2.8,0.48,0.793,4.868,4.048,4.979
	c2.963,0.547,1.704,3.079,2.082,4.726c0.612,2.674,0.637,5.439-0.043,8.154c0,0-0.199,0.255-0.2,0.257
	c-1.181-0.249-2.598-0.693-2.591-1.949C272.334,157.521,268.319,152.736,269.009,146.995z"/>
<path fill-rule="evenodd" clip-rule="evenodd" fill="#DEC6B0" d="M277.974,185.961c0.04-1.314,0.079-2.628,0.12-3.942
	c1.695-0.587,3.391-1.175,5.442-1.886c0.165,2.798-2.041,4.79-1.582,7.333c0.202,1.121,0.066,2.643-1.343,2.82
	c-1.416,0.179-1.618-1.438-2.129-2.418C278.187,187.298,278.135,186.601,277.974,185.961z"/>
<path fill-rule="evenodd" clip-rule="evenodd" fill="#D1B79F" d="M284.001,154.998c-0.272-5.003-2.604-9.87-0.989-14.998
	c2.143,4.809,1.695,9.957,1.977,15.011C284.659,155.005,284.33,155.001,284.001,154.998z"/>
<path fill-rule="evenodd" clip-rule="evenodd" fill="#DEC6B0" d="M277.031,154.989c-0.281-0.349-0.562-0.698-0.844-1.048
	c-1.943-2.359-2.699-4.933-1.416-7.873c4.202,1.846,4.236,5.199,3.23,8.93l-0.004,0.005
	C277.676,155.001,277.354,154.996,277.031,154.989z"/>
<path fill-rule="evenodd" clip-rule="evenodd" fill="#C0A192" d="M318.023,194.036c2.861-0.259,4.723-2.588,8.082-4.686
	c-1.817,5.464-5.939,6.956-8.55,9.802c-0.223-0.733-0.444-1.467-0.668-2.2C317.266,195.979,317.645,195.008,318.023,194.036z"/>
<path fill-rule="evenodd" clip-rule="evenodd" fill="#DDC3AA" d="M149.912,84.938c-2.979,2.866-2.21,7.091-3.72,10.517
	c-0.447,1.016,0.797,1.556,1.817,0.554c1.811,0.266,3.093-0.844,4.542-1.635c1.43-0.782,2.521,0.165,3.442,1.186
	c0.839,0.93,1.327,1.979,0.339,3.085c-3.785,4.24-8.228,7.982-9.853,13.812c-0.193,0.691-1.606,1.044-2.453,1.554
	c0.318-3.137,1.565-6.062,3.336-8.475c1.516-2.066,0.562-3.865-0.735-3.73c-6.987,0.725-5.973-4.623-6.425-8.369
	c-0.298-2.474,0.376-4.923-0.394-7.621c-0.759-2.658,1.169-5.281,3.23-7.395c2.867-2.94,5.148-6.278,5.967-10.422
	c0.67,0.336,1.339,0.673,2.01,1.009C149.481,74.236,150.167,79.62,149.912,84.938z"/>
<path fill-rule="evenodd" clip-rule="evenodd" fill="#E4D5CB" d="M325.002,174.004c-2.813-2.45-1.154-5.378-0.109-7.551
	c2.107-4.381-0.242-6.354-3.316-8.377c-0.877-0.576-1.663-1.195-2.627-0.296c-1.203,1.122-0.477,2.041,0.344,2.976
	c1.252,1.428,4.45,2.046,2.431,4.915c-1.254,1.78-3.186,3.487-5.383,3.068c-2.825-0.538-4.354-2.744-4.415-5.815
	c-0.02-0.96-0.318-2.005-0.779-2.853c-3.672-6.739,0.48-11.92,3.615-17.103c2.398-3.967,6.18-3.924,11.199-0.479
	c0.654,0.448,1.15,1.212,2.446,0.529c-0.217-1.956-1.575-3.691-1.491-5.883c0.221-5.709,2.446-7.307,7.515-4.922
	c1.202,0.565,2.372,1.197,3.558,1.798c3.598,3.715,3.614,4.048,0.178,8.259c2.904,1.823,7.488,2.589,5.83,7.726
	c-0.967,4.933-5.113,8.709-4.772,14.239c0.164,2.664-3.212,3.547-5.013,4.169C330.627,169.642,327.969,171.987,325.002,174.004z"/>
<path fill-rule="evenodd" clip-rule="evenodd" fill="#DBCABE" d="M343.996,149.996c-0.969-2.913-1.322-6.421-5.974-5.369
	c-1.067,0.241-1.688-0.862-1.88-1.911c-0.152-0.831-0.177-2.049,0.621-2.205c6.023-1.178,1.17-4.285,1.225-6.499l0.016-0.015
	c3.217-0.898,4.158,1.887,5.422,3.206c6.141-8.068,6.988-18.687,12.57-27.207c0.442-2.27,1.287-4.333,3.041-5.931
	c-0.64,9.621-3.146,18.732-7.832,27.154c-1.385,2.487-2.799,4.577-2.339,7.768c0.587,4.066-3.01,7.705-1.867,12.014
	C345.998,150.666,344.997,150.331,343.996,149.996z"/>
<path fill-rule="evenodd" clip-rule="evenodd" fill="#D5C1B5" d="M355.996,109.996c0.211,2.243-0.409,4.227-1.66,6.104
	c-2.096,3.146-4.102,6.181-3.58,10.453c0.242,1.98-0.69,4.485-3.182,5.765c-1.784,0.916-3.365,2.376-1.865,4.814
	c0.546,0.888,1.902,1.981-0.088,2.676c-1.395,0.487-2.945-0.023-3.268-1.464c-0.562-2.506-2.351-3.455-4.35-4.347
	c0.742-1.835,1.453-3.683,2.238-5.5c0.414-0.961,0.771-1.863-0.161-2.709c-1.024-0.93-2.021-0.716-3.177-0.105
	c-6.969,3.679-11.371,2.711-15.853-3.629c-4.575-6.474-11.765-9.391-18.062-13.519c-1.406-0.922-3.026-1.502-2.972-3.57
	c2.022-1.195,2.872,0.574,4.023,1.588c2.297,2.021,4.433,4.319,7.786,4.523c1.785-0.345,3.309,0.221,4.682,1.325
	c3.195,3.754,7.732,5.517,11.825,7.932c2.007,1.184,4.021,1.185,6.106-0.01c1.606-0.921,3.377-1.778,4.555,0.682
	c0.438,0.466,1.07,1.41,1.282,1.323c2.794-1.137,5.288-3.677,8.661-0.967c0.672,0.539,1.158-1.005,1.013-1.729
	C348.919,114.474,352.18,112.073,355.996,109.996z"/>
<path fill-rule="evenodd" clip-rule="evenodd" fill="#A48671" d="M315.903,113.16c-1.357-0.695-2.716-1.39-4.073-2.084
	c-5.859-4.877-11.466-10.097-17.953-14.134c-1.428-0.889-1.916-2.945-3.926-2.93c-3.896-2.249-2.437-5.137-0.959-8.026
	c-0.025-2.979-0.051-5.957-0.078-8.936c-0.352-0.586-0.53-1.19,0.025-1.741c0.66-0.652,1.123-0.088,1.602,0.311
	c1.207,2.505,1.865,5.29,4.056,7.294c0.845,0.773,1.386,1.913,0.403,3.085c-2.6-0.015-3.875,0.856-2.039,3.401
	c0.912,1.266,1.34,2.983,3.034,3.602c2.671,1.004,2.782,3.952,4.391,5.786c8.325,9.497,19.356,13.372,31.364,15.215
	c4.158,0.639,7.686-1.333,11.236-3.073c1.486,1.961,1.457,1.938,0.191,3.472c-4.6,5.577-8.004,6.032-16.044,3.934
	C323.167,117.301,319.331,115.57,315.903,113.16z"/>
<path fill-rule="evenodd" clip-rule="evenodd" fill="#3B332F" d="M333.13,105.166c-0.901-2.39-0.618-4.039,2.374-4.486
	c2.785-0.417,3.615-2.028,1.651-4.24c-1.171-1.318,0.205-5.945-4.14-3.43c1.381-2.156,1.138-5.007,2.979-6.967
	c1.435,2.533,4.632,3.286,5.975,5.913c0.896,2.737,2.229,5.446,0.4,8.554c5.253-2.738,11.899-2.352,15.128-8.586
	c0.689-1.334,2.393-3.514,4.829-2.608c2.161,0.803,0.415,2.588,0.723,3.881c-2.771,3.582-7.988,4.273-10.142,8.584
	c-1.359-0.519-2.792-1.652-4.173-0.43C344.177,105.389,338.936,106.366,333.13,105.166z"/>
<path fill-rule="evenodd" clip-rule="evenodd" fill="#BBA091" d="M315.903,113.16c3.827,0.843,7.471,2.189,11.039,3.81
	c5.897,2.68,12.614,1.133,16.09-3.523c0.685-0.918,1.029-1.693-0.046-2.517c1.209-1.058,2.551-2.597,4.104-0.985
	c1.62,1.68-0.671,3.058-1.42,3.422c-3.39,1.646-3.849,5.656-6.674,7.639c-0.904-0.297-1.92-1.29-2.749-0.459
	c-3.95,3.958-7.691,1.728-11.093-0.565C321.991,117.848,317.888,116.903,315.903,113.16z"/>
<path fill-rule="evenodd" clip-rule="evenodd" fill="#36241C" d="M367.115,34.863c-1.342-0.979-2.684-1.958-4.025-2.937
	c-2.129-0.253-2.815-2.046-3.699-3.563c-1.316-2.257-3.443-3.4-5.701-4.406c-1.637-0.81-3.11-1.851-4.404-3.142
	c-2.065-2.411-5.072-3.417-7.637-5.087c-0.544-0.449-0.99-0.938-0.66-1.721c4.252-2.908,8.312-2.938,12.156,0.769
	c1.551,1.496,3.151,2.94,4.729,4.409c1.283,3.432,2.812,6.631,6.938,7.398c0.157,0.029,0.311,0.107,0.455,0.186
	c3.021,1.629,6.945,12.529,5.831,16.192c-1.106-2.286-2.212-4.572-3.319-6.859C367.557,35.689,367.336,35.276,367.115,34.863z"/>
<path fill-rule="evenodd" clip-rule="evenodd" fill="#44362C" d="M365.116,23.969c-2.38-2.654-4.759-5.309-7.14-7.963
	c1.608-1.121,3.117-0.702,4.56,0.328c3.872,2.77,9.398,11.04,11.497,17.769C369.681,31.074,369.051,25.952,365.116,23.969z"/>
<path fill-rule="evenodd" clip-rule="evenodd" fill="#3C2F27" d="M272,75.998c1.846-3.299,3.637-6.629,5.569-9.876
	c0.569-0.955,1.403-2.046,2.78-1.708c1.33,0.326,1.656,1.588,1.805,2.738c0.94,7.333,3.77,14.425,2.822,21.997
	c-1.004,0.377-1.746-0.167-2.496-0.697c-0.873-0.731-1.629-1.57-2.294-2.493c-2.414-2.7-2.585-7.254-6.935-8.354
	C272.639,77.222,272.467,76.496,272,75.998z"/>
<path fill-rule="evenodd" clip-rule="evenodd" fill="#2D2019" d="M286.168,71.916c-0.059-9.646-0.396-19.3,0.854-28.906
	c0.358-1.909,1.156-3.746,3.393-3.237c1.895,0.431,1.785,2.482,1.856,4.112c0.043,0.979-0.047,1.956-0.228,2.92
	c-0.947,3.504-0.318,7.242-1.543,10.708c-1.498,3.672-0.537,7.514-0.785,11.271c-0.184,2.799-0.483,5.587-1.67,8.187
	C285.572,75.972,288.137,73.103,286.168,71.916z"/>
<path fill-rule="evenodd" clip-rule="evenodd" fill="#755D48" d="M288.045,76.971c0.285-6.663-0.271-13.368,0.98-19.983
	c2.645,0.122,2.187,2.511,2.705,3.992c0.902,2.576,1.988,4.857,4.604,6.066c1.292,2.062-1.725,3.942-0.242,6.018
	c0.041,0.984-0.104,1.922-0.662,2.76c-1.768,0.997-3.551,1.35-5.365,0.107c-1.555-0.829-0.752,0.761-1.148,1.119
	C288.625,77.016,288.336,76.989,288.045,76.971z"/>
<path fill-rule="evenodd" clip-rule="evenodd" fill="#8B6F55" d="M283.039,87.942c0.646,0.401,1.292,0.803,1.938,1.206
	c0.026,0.16-0.002,0.371,0.09,0.465c0.18,0.185,0.609,0.444,0.618,0.432c1.058-1.39-1.228-5.47,3.309-4.059
	c0.474,2.657-1.03,5.55,0.958,8.026c0.574,1.649,1.148,3.299,2.195,6.303c-2.663-2.73-3.92-5.152-6.317-6.233
	c-2.187-3.616-3.085-0.254-3.807,0.928c-2.083,3.407-0.417,7.396-1.38,11.438c-2.254-1.805-2.506-4.107-2.6-6.479
	c1.658-2.724,0.389-5.932,1.43-8.738C280.083,89.584,279.841,86.845,283.039,87.942z"/>
<path fill-rule="evenodd" clip-rule="evenodd" fill="#695A50" d="M272,75.998c0.342,0.325,0.684,0.651,1.024,0.977
	c2.171,1.569,3.901,3.274,1.906,6.137c-0.646-0.357-1.292-0.715-1.938-1.072c-1.581-1.1-3.818-1.515-4.117-3.951
	C270.916,78.888,271.932,78.152,272,75.998z"/>
<path fill-rule="evenodd" clip-rule="evenodd" fill="#C09F81" d="M295.883,66.894c-1.911,1.714-2.888,0.616-3.586-1.213
	c-1.104-2.894-2.183-5.796-3.271-8.693c1.465-3.215,0.131-6.92,1.77-10.104c2.098-3.248-0.35-6.57,0.158-9.845
	c2.721,1.32,3.57-1.068,3.619-2.548c0.145-4.44,4.7-5.764,6.003-9.291c0.258-0.696,1.036-0.777,1.636-0.241
	c0.757,0.678,0.533,1.478,0.144,2.257c-1.389,2.783-2.75,5.576-2.429,9.234c1.051-1.795,2.627-3.477,3.044-5.408
	c0.853-3.953,5.456-5.142,6.193-9.535c0.257-1.533,3.906,0.495,4.736,2.931c0.362,1.062,0.169,2.507,1.866,2.362
	c1.64-0.14,2.087-1.403,2.252-2.812c2.586,2.513,2.188,4.762-1.151,5.646c-1.894,0.502-3.952,0.384-5.663,1.562
	c5.662,0.938,5.666,0.942,9.407-2.881c1.409-1.44,2.898-2.717,5.069-2.757c1.486,0.325,2.65,1.137,3.549,2.347
	c-1.303,4.799-3.623,9.212-3.104,14.63c0.363,3.768-6.279,6.735-10.558,5.376c-1.256-0.398-2.288-1.328-3.604-1.603
	c-1.646-0.417-3.26-1.224-5.012-0.406c-1.083,0.303-2.161,0.818-3.268,0.087c-2.713-3.47-0.844-6.332,1.18-9.219
	c-3.121,4.863-5.883,9.812-5.273,15.882c-0.057,1.998,2.29,2.41,2.719,4.091c-0.166,1.192-0.975,1.988-1.715,2.827
	c-2.081,1.59-2.314,4.071-3.037,6.319C297.166,66.503,296.634,66.882,295.883,66.894z"/>
<path fill-rule="evenodd" clip-rule="evenodd" fill="#A27F61" d="M326,25.999c-1.496,1.006-3.228,1.786-4.447,3.058
	c-4.203,4.381-6.906,5.078-14.383,2.983c2.813-1.803,5.176-3.874,8.441-3.604c4.484,0.37,3.71-1.832,2.406-4.449
	c-0.275-2.905-3.771-4.541-3.086-7.824c0.953,0.649,1.908,1.297,2.861,1.945c1.714,2.371,3.232,4.234,6.994,3.63
	C327.287,21.336,328.867,23.585,326,25.999z"/>
<path fill-rule="evenodd" clip-rule="evenodd" fill="#88715C" d="M290.953,37.038c0.662,3.294,2.518,6.605-0.158,9.845
	c-0.014-2.066,0.591-4.178-0.337-6.248c-1.956-0.207-2.049,2.02-3.437,2.375c-1.51,1.161-2.008,3.363-4.071,3.956
	c0.021-1.317,0.043-2.634,0.064-3.95c0.96-3.085,3.732-4.745,5.663-7.054C289.969,34.418,290.873,35.216,290.953,37.038z"/>
<path fill-rule="evenodd" clip-rule="evenodd" fill="#514845" d="M341.97,91.956c-2.237-1.723-6.63-1.269-5.975-5.913
	c0.341-0.995,0.682-1.99,1.022-2.984c0.596-1.387,1.691-2.304,2.917-3.098c3.612,1.15,7.919-1.347,11.187,2.7
	c-0.088,1.244-2.045,0.396-2.748,1.37c0.691,1.751,2.73,1.514,3.774,2.979c-3.28,0.707-6.271,0.565-8.05-3.129
	c-0.346-0.718-0.402-1.791-1.555-1.42c-1.377,0.444-1.07,1.543-0.547,2.421C343.42,87.272,342.766,89.604,341.97,91.956z"/>
<path fill-rule="evenodd" clip-rule="evenodd" fill="#AB8662" d="M267.005,89.024c-1.317,2.175-2.405,4.375-0.751,6.875
	c1.716,8.944,4.264,17.746,4.645,26.927c-0.5,1.451-0.576,3.098-1.897,4.175c-3.491-8.627-5.734-17.538-6.179-26.867
	c-0.038-0.804-0.182-1.637-0.46-2.387c-0.825-2.226-0.893-5.245-4.362-5.103c-3.218,0.132-4.091,2.759-4.354,5.197
	c-0.621,5.773-0.885,11.518-0.119,17.402c0.396,3.05-1.311,6.673-2.941,9.54c-0.639,1.124-1.949,1.656-2.324,3.569
	c-0.499,2.546-2.589,0.611-3.265-0.215c-0.974-1.19-1.482-2.865-1.864-4.413c-0.662-2.678-1.28-4.672-3.896-6.824
	c-2.936-2.417-3.876-7.45-2.242-11.896c-0.353-2.393-0.764-4.778-1.043-7.179c-0.42-3.613-0.405-6.879,3.048-9.554
	c2.102-1.628,5.048-3.13,4.729-6.932c-0.125-1.479,1.983-1.28,3.276-1.337c-0.966,7.557,0.123,15.356-2.446,22.707
	c-1.28,3.662,0.301,5.136,3.659,6.131c-1.892-6.13,0.584-11.617,1.802-16.974c1.106-4.867,4.359-4.991,11.989-1.875
	c2.885,2.369,2.233-1.993,3.855-2.025C266.243,88.32,266.624,88.673,267.005,89.024z"/>
<path fill-rule="evenodd" clip-rule="evenodd" fill="#D1B59C" d="M326,25.999c0.816-1.76,1.027-4.726-1.361-3.456
	c-5.914,3.144-5.803-1.12-6.844-4.437c1.314,0.402,2.781,0.733,3.57-0.665c0.828-1.469-0.694-1.914-1.594-2.555
	c-0.799-0.569-1.939-1.232-1.111-2.294c0.814-1.042,1.653-0.281,2.396,0.547c2.344,2.609,4.397,3.58,8.422,1.856
	c2.549-1.092,6.665,1.43,8.499-2.969c1.003,0.66,2.007,1.32,3.011,1.98c0.327,0.348,0.654,0.696,0.982,1.045
	c2.403,2.085,5.381,3.243,8.01,4.965c1.342,0.993,2.683,1.986,4.023,2.979c2.222,1.759,4.402,3.573,5.859,6.053
	c0.696,1.187,2.455,2.219,1.158,3.897c-1.062,1.374-2.689,1.036-4.178,0.849c-3.777-0.476-7.416-1.64-11.16-2.315
	c-1.496-0.27-2.929-0.405-4.414-0.334c-0.76,0.014-1.5-0.1-2.207-0.372c-0.705-2.22-0.705-2.22,2.484-2.989
	c-0.899,0.271-2.061,0.197-3.222,0.15c-1.466-0.193-2.501-1.114-3.517-2.054c-1.399-1.079-2.246-0.052-3.184,0.798
	c-0.747,0.677-1.26,1.917-2.654,1.289C327.526,27.997,326.566,27.296,326,25.999z"/>
<path fill-rule="evenodd" clip-rule="evenodd" fill="#463933" d="M366.062,41.95c-0.281,0.443,0.163,2.104-1.135,0.879
	c-1.268-1.198-2.247-2.702-3.373-4.097c1.35-1.433,2.361-0.042,3.467,0.25C365.368,39.972,365.715,40.961,366.062,41.95z"/>
<path fill-rule="evenodd" clip-rule="evenodd" fill="#745538" d="M283.039,87.942c-3.224,1.001-2.024,3.923-2.625,6.06
	c-0.582,2.073,0.317,4.732-2.372,5.968c-0.525-5.017-3.746-9.693-1.884-15.009c2.035-1.618,3.553-0.824,4.841,1.039
	C281.679,86.647,282.359,87.295,283.039,87.942z"/>
<path fill-rule="evenodd" clip-rule="evenodd" fill="#50423A" d="M280.999,86c-1.497-0.895-3.136-1.128-4.843-1.039
	c-0.407-0.617-0.816-1.234-1.225-1.851c0.422-2.373-1.111-4.14-1.907-6.135C279.568,76.55,278.539,82.815,280.999,86z"/>
<path fill-rule="evenodd" clip-rule="evenodd" fill="#93704E" d="M269.001,127.001c0.207-1.353-0.497-2.92,0.94-3.981
	c0.424,0.254,0.996,0.481,1.104,0.939c1.71,7.272,4.152,14.417,3.914,22.035c0.409,2.649,0.818,5.299,1.228,7.947
	c-0.589,3.616,0.782,7.428-1.091,10.914c-0.041-4.396-0.229-8.768-2.039-12.882C272.868,143.46,270.416,135.314,269.001,127.001z"/>
<path fill-rule="evenodd" clip-rule="evenodd" fill="#C6A788" d="M255.008,130.005c0,1.998,0,3.997,0,5.996
	C251.686,134.002,253.221,132.003,255.008,130.005z"/>
<path fill-rule="evenodd" clip-rule="evenodd" fill="#4F3E34" d="M341,48.999c0.35,1.614,0.699,3.229,1.051,4.842
	c-7.074-1.974-13.527-1.788-18.025,5.188c-1.788-0.686-2.059-2.155-1.98-3.807c0.383-2.811,2.357-4.361,4.74-5.167
	c4.471-1.513,6.307-4.359,5.408-8.999c-0.126-0.652,0.172-1.288,0.543-1.849c0.365-0.318,0.789-0.47,1.275-0.432
	c1.521,1.549,3.418,2.027,5.52,1.923c1.516,1.09,1.006,2.199-0.045,3.213c-1.018,0.979-2.368,1.653-2.871,3.113
	C337.894,48.343,339.98,47.48,341,48.999z"/>
<path fill-rule="evenodd" clip-rule="evenodd" fill="#5F5047" d="M322.989,54.99c-0.136,1.469,0.303,2.791,1.036,4.038
	c-1.645,5.463-5.425,10.114-6.064,15.959c-2.231,0.301-4.492-4.191-3.321-6.896c0.449-1.038,1.39-1.862,1.308-3.132
	c-0.977-1.259-0.291-2.289,0.443-3.314c3.744-1.725,2.332-6.077,4.398-8.662C322.701,52.36,322.416,54.144,322.989,54.99z"/>
<path fill-rule="evenodd" clip-rule="evenodd" fill="#28201F" d="M352.036,49.973c-2.771-1.911-1.024-5.62-3.106-7.805
	c0.254-1.592,1.635-1.987,2.798-2.559c3.132-1.541,6.667-1.634,8.613,1.143c1.879,2.681,0.705,6.206-1.196,8.854
	C357.109,52.442,354.479,51.052,352.036,49.973z"/>
<path fill-rule="evenodd" clip-rule="evenodd" fill="#A58971" d="M340.898,30.112c5.529-1.34,10.314,2.429,15.699,2.315
	c1.229-0.026,2.911,1.184,3.688,0.032c1.131-1.679-1.048-2.427-1.846-3.537c-1.439-2.004-2.953-3.953-4.436-5.926
	c4.93,1.044,6.615,5.386,9.086,8.93c1.117,3.945-0.041,5.471-4.318,4.545c-2.877-0.623-5.846-1.604-8.866-0.496
	c-0.193-1.01,1.968-2.799-0.962-2.901c-2.732,0.133-5.332-0.359-7.766-1.643c-0.266-0.249-0.395-0.528-0.389-0.837
	C340.795,30.273,340.832,30.112,340.898,30.112z"/>
<path fill-rule="evenodd" clip-rule="evenodd" fill="#372B25" d="M341.02,30.96c2.812,0.062,5.46,0.745,7.924,2.113
	c-5.141,3.316-6.931,10.756-3.7,15.384c-1.413,0.186-2.829,0.363-4.243,0.542c-2.019-0.298-5.244,0.998-5.776-0.928
	c-0.542-1.963,0.919-4.695,4.081-5.15c0.715-0.103,0.56-1.353-0.24-1.943c-0.971-0.455-1.465-1.294-1.821-2.246
	c-0.346-1.21-0.345-2.4,0.217-3.556C339.396,34.408,338.747,31.448,341.02,30.96z"/>
<path fill-rule="evenodd" clip-rule="evenodd" fill="#564A44" d="M294.943,76.049c0.049-1.041,0.098-2.082,0.146-3.123
	c0.5-0.984,1.605,1.811,1.748-0.201c0.139-1.964-0.109-3.951,0.822-5.799c0.557-0.512,1.221-0.687,1.959-0.637
	c1.562,0.312,1.738,1.367,1.449,2.679c-0.344,2.354,0.686,4.139,2.475,5.815c-0.579-0.788-1.281-1.238-1.533-2.033
	c-0.84-2.162-0.084-3.449,2.16-3.831c1.596-0.271,3.149-0.672,4.674-1.204c2.744,0.411,1.984,2.397,1.883,4.029
	c0.9-1.764-0.753-4.288,1.492-5.79c1.904,4.668,0.354,9.011-1.188,13.385c-0.486,1.383-1.443,1.652-2.67,1.672
	c-1.897,0.031-3.189,0.773-3.33,2.854c-0.671-0.294-1.342-0.587-2.013-0.88c-1.708-0.93-3.422-1.85-4.983-3.021
	c-0.35-0.315-0.699-0.631-1.049-0.946C296.148,78.136,294.348,77.917,294.943,76.049z"/>
<path fill-rule="evenodd" clip-rule="evenodd" fill="#92765D" d="M294.943,76.049c0.681,0.989,1.361,1.979,2.043,2.969
	c-3.562,2.001-0.277,3.836,0.207,5.684c0.269,1.023,1.457,2.112-0.076,2.813c-1.045,0.478-1.619-0.693-2.117-1.516
	c-1.566-3.395-5.613-5.572-4.936-10.068C291.693,75.849,293.352,74.592,294.943,76.049z"/>
<path fill-rule="evenodd" clip-rule="evenodd" fill="#826954" d="M298.035,79.964c2.38-0.18,3.901,1.058,4.982,3.021
	C298.021,87.483,299.51,81.277,298.035,79.964z"/>
<path fill-rule="evenodd" clip-rule="evenodd" fill="#2D241F" d="M317.062,62.021c-0.371,0.98-0.742,1.96-1.114,2.939
	c-0.951,0.364-1.921,0.752-1.939-0.891c-0.016-1.424-0.729-2.056-2.134-1.938c-4.097-0.605-8.543,0.113-11.933-3.161
	c0.646-0.711,1.291-1.422,1.937-2.133c1.242-7.118,3.696-8.248,10.154-4.688c1.529,2.191,2.861,4.324,5.163,0.441
	c0.893-1.504,2.214-0.609,2.687,0.975C320.236,56.818,318.948,59.519,317.062,62.021z"/>
<path fill-rule="evenodd" clip-rule="evenodd" fill="#6C5C51" d="M299.942,58.97c4.044,0.805,8.305,0.79,11.934,3.16
	c0.038,1.581-1.028,1.818-2.257,1.859c-0.689,0.193-1.349,0.046-2.004-0.167c-3.553-1.272-5.336,1.799-7.806,3.175
	c-0.586-0.009-1.172-0.017-1.758-0.025c-0.684-0.12-1.103-0.504-1.202-1.206C296.834,63.023,296.99,60.36,299.942,58.97z"/>
<path fill-rule="evenodd" clip-rule="evenodd" fill="#928584" d="M308.234,63.091c0.463,0.3,0.928,0.6,1.389,0.899
	c0.862,0.654,1.729,1.31,2.596,1.964c-0.461,3.062,0.51,6.625-3.436,9.053c0.57-2.651,1.977-4.896,0.275-7.07
	C307.588,66.525,305.025,65.299,308.234,63.091z"/>
<path fill-rule="evenodd" clip-rule="evenodd" fill="#DCCBBC" d="M274.959,145.994c-2.471-7.483-3.176-15.354-5.017-22.975
	c0.112-7.024-3.085-13.466-3.587-20.379c-0.162-2.241-1.473-4.472-0.104-6.74c1.387-0.754-0.07-3.531,2.051-3.39
	c1.795,0.119,2.314,1.995,2.9,3.612c2.001,5.529,2.994,11.231,3.895,17.034c1.26,8.127,2.401,16.285,5.295,24.146
	c1.425,3.872,1.388,8.422,1.3,12.65c-0.04,1.93-0.392,4.903-3.69,5.044C276.931,152.017,277.145,148.6,274.959,145.994z"/>
<path fill-rule="evenodd" clip-rule="evenodd" fill="#8F7663" d="M349.98,20.018c-3.169-0.85-6.121-2.05-8.01-4.965
	C344.892,16.303,347.963,17.312,349.98,20.018z"/>
<path fill-rule="evenodd" clip-rule="evenodd" fill="#322A25" d="M296.85,65.766c0.4,0.401,0.801,0.804,1.202,1.206
	c0,3.183,0,6.365,0,9.596c-2.399-0.241-1.628-2.759-2.962-3.641c-1.626-2.26,1.791-3.856,0.793-6.033
	C296.205,66.518,296.527,66.142,296.85,65.766z"/>
<path fill-rule="evenodd" clip-rule="evenodd" fill="#705743" d="M318.996,53.006c-1.002-0.871-1.43-0.024-1.79,0.669
	c-0.7,1.347-0.49,3.94-2.409,3.6c-1.389-0.246-2.615-2.264-2.895-4.159c1.002-0.532,2.02-0.575,1.094-2.476
	c-1.368-2.807-5.275-2.507-6.053-5.654c1.693-2.048,3.342,0.04,5.012,0.055c4.459,3.854,9.042,5.269,13.951,0.739
	c0.36-0.333,0.856-0.782,1.266-0.738c4.576,0.488,3.338-2.81,3.44-5.236c-0.032-1.632-0.175-3.289,0.287-4.848
	c0.486-1.641,0.856-3.688,3.477-2.748c1.285,2.368,1.476,4.665-0.43,6.828c-0.978,0.696-0.788,1.605-0.663,2.644
	c0.492,4.035,0.717,7.714-4.811,8.878c-2.07,0.436-4.762,1.603-5.483,4.432c-0.673-0.654-1.347-1.31-2.02-1.964
	C320.305,53.597,319.647,53.589,318.996,53.006z"/>
<path fill-rule="evenodd" clip-rule="evenodd" fill="#A98566" d="M331.959,40.988c0.033,2.571,0.204,5.141-3.769,4.598
	c-0.659-0.09-1.485,1.699-2.271,1.73c-2.517,0.101-2.906,4.122-4.857,3.313c-3.239-1.344-7.102-2.089-9.107-5.59
	c3.768,1.881,7.413,2.785,11.372,0.113c1.688-1.139,2.456-2.687,1.975-4.044c-1.904-5.367,1.218-9.115,3.669-13.14
	c1.462-1.247,2.225-3.187,4.116-4.025c1.194-0.529,1.821-0.336,1.858,1.049c-1.043,3.16-4.032,5.154-4.975,8.393
	C329.107,36.354,328.318,39.23,331.959,40.988z"/>
<path fill-rule="evenodd" clip-rule="evenodd" fill="#9F856F" d="M306.943,44.985c3.102,1.089,5.957,2.41,7.439,5.71
	c1.514,3.37-0.744,2.553-2.48,2.419c-5.892-3.062-5.892-3.062-10.023,3.724c-0.847-1.418-5.197-0.204-2.957-3.939
	c0.295-3.328,1.97-5.639,5.081-6.89C304.982,45.668,305.963,45.326,306.943,44.985z"/>
<path fill-rule="evenodd" clip-rule="evenodd" fill="#CCB19A" d="M304.003,46.009c-1.693,2.297-3.387,4.595-5.081,6.891
	c-1.398-4.155,2.072-15.33,5.485-17.792c0.841-0.606,1.632-1.219,2.601-0.363c1.198,1.056,0.791,2.323-0.272,2.887
	C303.023,39.595,303.219,42.669,304.003,46.009z"/>
<path fill-rule="evenodd" clip-rule="evenodd" fill="#C3A489" d="M331.959,40.988c-2.49,1.436-3.758,0.523-3.947-2.153
	c-0.423-5.967,2.182-10.45,6.934-13.842c1.037,0.694,2.074,1.389,3.111,2.083c-0.309,2.462-2.411,3.386-4.043,4.714
	C330.744,34.278,332.414,37.87,331.959,40.988z"/>
<path fill-rule="evenodd" clip-rule="evenodd" fill="#A58971" d="M334.014,31.79c0.1-2.643,2.6-3.225,4.043-4.715
	c1.679,0.001,3.357,0.001,5.305,0.001c-1.162,2.01-2.94,1.654-4.355,2.136c-0.102,0.034-0.195,0.266-0.189,0.4
	c0.007,0.144,0.137,0.281,0.213,0.422c0.562,1.842,0.479,3.58-0.816,5.125c-0.05,1.267-0.1,2.533-0.149,3.801
	c-1.403,2.383-1.613,2.385-4.063,0.05l-0.053,0.027C333.969,36.621,333.991,34.205,334.014,31.79z"/>
<path fill-rule="evenodd" clip-rule="evenodd" fill="#6C584E" d="M338.213,35.159c0.271-1.708,0.543-3.417,0.815-5.125
	c0.624,0.025,1.248,0.052,1.871,0.077c0.04,0.283,0.081,0.566,0.12,0.849C340.481,32.625,341.744,35.495,338.213,35.159z"/>
<path fill-rule="evenodd" clip-rule="evenodd" fill="#786355" d="M334,39.01c1.361,0.591,2.73,1.775,4.063-0.05
	c0.333,0.673,0.667,1.346,1.001,2.018C336.367,42.919,334.745,42.092,334,39.01z"/>
<path fill-rule="evenodd" clip-rule="evenodd" fill="#4F3E34" d="M318.996,53.006c0.658,0.007,1.316,0.014,1.974,0.021
	c-0.584,3.311,0.782,7.468-3.907,8.994C317.564,58.985,319.82,56.325,318.996,53.006z"/>
<path fill-rule="evenodd" clip-rule="evenodd" fill="#4B4646" d="M357.852,49.362c-2.678,1.16-3.59-0.89-5.545-2.057
	C354.972,46.849,356.594,47.276,357.852,49.362z"/>
<path fill-rule="evenodd" clip-rule="evenodd" fill="#241E1E" d="M308.234,63.091c-1.879,1.982,1.406,3.085,0.824,4.846
	c-0.35,2.779-2.518,2.189-4.161,2.021c-2.983-0.305-2.108,1.515-1.909,3.042c-3.137,0.271-2.086-2.576-2.965-3.984
	c0.062-0.687,1.169-1.481-0.212-2.019C301.568,63.433,303.651,60.566,308.234,63.091z"/>
<path fill-rule="evenodd" clip-rule="evenodd" fill="#211816" d="M300.023,69.016c1.407,1.016,0.895,3.462,2.965,3.984
	c0.672,1.4,3.065,0.557,3.365,2.894C302.391,75.096,299.314,73.874,300.023,69.016z"/>
</svg>
