<?xml version="1.0" encoding="utf-8"?>
<!-- Generator: Adobe Illustrator 16.0.0, SVG Export Plug-In . SVG Version: 6.00 Build 0)  -->
<!DOCTYPE svg PUBLIC "-//W3C//DTD SVG 1.1//EN" "http://www.w3.org/Graphics/SVG/1.1/DTD/svg11.dtd">
<svg version="1.1" id="Layer_1" xmlns="http://www.w3.org/2000/svg" xmlns:xlink="http://www.w3.org/1999/xlink" x="0px" y="0px"
	 width="500px" height="300px" viewBox="0 0 500 300" enable-background="new 0 0 500 300" xml:space="preserve">
<g>
	<g>
		<path fill-rule="evenodd" clip-rule="evenodd" fill="#FF0000" d="M495.211,184.138C383.465,1.785,118.535,1.785,6.79,184.138
			c-1.736-2.961-3.472-5.922-5.208-8.883c114.129-186.242,384.709-186.242,498.838,0
			C498.683,178.216,496.946,181.177,495.211,184.138z"/>
		<path fill-rule="evenodd" clip-rule="evenodd" fill="#FF7F00" d="M489.695,193.543c-109.222-178.235-368.168-178.235-477.391,0
			c-1.838-3.136-3.677-6.271-5.515-9.405c111.746-182.353,376.675-182.353,488.421,0
			C493.372,187.272,491.534,190.407,489.695,193.543z"/>
		<path fill-rule="evenodd" clip-rule="evenodd" fill="#FFFF00" d="M484.487,202.425c-106.839-174.345-360.135-174.345-466.974,0
			c-1.736-2.961-3.473-5.921-5.208-8.882c109.222-178.235,368.169-178.235,477.391,0
			C487.959,196.504,486.223,199.464,484.487,202.425z"/>
		<path fill-rule="evenodd" clip-rule="evenodd" fill="#00FF00" d="M478.972,211.83c-104.315-170.228-351.628-170.228-455.944,0
			c-1.838-3.135-3.676-6.27-5.515-9.405c106.839-174.345,360.135-174.345,466.974,0C482.648,205.561,480.811,208.695,478.972,211.83
			z"/>
		<path fill-rule="evenodd" clip-rule="evenodd" fill="#0000FF" d="M473.764,220.713c-101.933-166.338-343.595-166.338-445.527,0
			c-1.736-2.961-3.472-5.922-5.208-8.883c104.315-170.228,351.628-170.228,455.944,0C477.236,214.791,475.5,217.752,473.764,220.713
			z"/>
		<path fill-rule="evenodd" clip-rule="evenodd" fill="#4B0082" d="M468.555,229.595c-99.549-162.449-335.561-162.449-435.11,0
			c-1.736-2.961-3.472-5.921-5.208-8.882c101.932-166.338,343.595-166.338,445.527,0
			C472.027,223.674,470.291,226.634,468.555,229.595z"/>
		<path fill-rule="evenodd" clip-rule="evenodd" fill="#8B00FF" d="M463.04,239C366.015,80.669,135.985,80.669,38.96,239
			c-1.838-3.135-3.677-6.27-5.515-9.405c99.549-162.449,335.561-162.449,435.11,0C466.717,232.73,464.878,235.865,463.04,239z"/>
	</g>
</g>
</svg>
