<?xml version="1.0" encoding="utf-8"?>
<!-- Generator: Adobe Illustrator 18.1.1, SVG Export Plug-In . SVG Version: 6.00 Build 0)  -->
<svg version="1.1" id="Lager_1" xmlns="http://www.w3.org/2000/svg" xmlns:xlink="http://www.w3.org/1999/xlink" x="0px" y="0px"
	 viewBox="0 0 960 560" enable-background="new 0 0 960 560" xml:space="preserve">
<path fill="#159B3A" d="M598.8,243.1c1.4-12.1,2.7-24.2,3.6-36.4c1.4-9.1,3.3-18.2,5.7-27.1c5.8-21.9,14.5-42.8,24.2-63.2
	c11.1-23.2,23.3-45.9,35.2-68.7c2.6-5-3.7-10.1-7.9-6.1l-47.7,46.6c-10.5,10.2-21.1,20.3-31.3,30.8c9.6-31.8,19.1-63.6,28.7-95.5
	c0.7-2.3-0.1-4-1.5-5.1c-1.7-2.3-5.5-3.5-7.9-1.7c-6.7,5.2-10.2,12.1-14.1,19.5c-0.6,1-1.1,2-1.7,3c-1.4,0.9-2.3,2.4-2.5,4.4
	c-3.3,5.6-6.8,11.1-10.4,16.5c-2.8,4-5.8,8-8.7,12.1c-9.7-20.1-24-37.7-41.9-51.5c-4.5-3.4-8.6,2.9-6.8,6.8
	c8,18.2,14.9,36.9,20.8,55.8c-9.8-11-22-20-35.8-25.8c0,0,0,0,0,0c0,0,0,0,0,0c-0.4-0.2-0.8-0.3-1.2-0.5c-5.5-2.2-8.3,6.2-3.9,9.1
	c28.5,18.8,38.7,54.1,39.8,86.6c0.7,20.1-1.5,40.1-3.3,60l-3,32c0-3-0.1-5.9-0.2-8.9c-1-34.4-6.3-68.4-17.3-101.1
	c-6.3-18.6-14.3-36.5-22.3-54.4c-2.7-5.9-11.2-0.8-8.6,5c12.1,26.2,14.8,54.5,12.1,82.6c-2.4,7.9-4.5,15.9-6.1,24
	c-1.7,8.1-2.6,16.3-3.4,24.6c-1.5,5.2-3.1,10.3-4.7,15.3c-3.9,11.7-8.2,23.3-13,34.7c-4.1,10-8.9,20.1-15.6,28.6
	c-2.6,3.3-7.1,9.4-11.2,10.9c-0.6,0.2-0.9,0.9-1.6,0.8c-0.9-0.1-2.8-2.5-3.4-3.2c-2-1.9-3.9-3.8-5.7-5.9c-8.5-9.9-8.5-21.6-3.2-33.1
	c5.7-12.2,14.6-23,23.4-33.1c9-10.4,18.7-20.1,29.1-29.1c3.6-3.2,0.3-8.1-3.5-8.5c-28.9-3.5-53.9,19.1-73.7,37.1
	c-11,10-21.6,20.5-31.2,31.9c-3.1,3.7-6,7.5-8.7,11.4c2.1-31.9,7.5-63.4,16.4-94.2c5.3-18.2,11.3-36.6,23.6-51.4
	c11.2-13.6,25.5-24,39.6-34.4c5.3-4,15.8-9.4,13.9-17.5c-1.8-7.7-13-7.3-19.1-7.2c-16.2,0.4-31.7,6.8-44.3,16.7
	c-28,21.8-38.4,58.1-40.9,92.2c-1.7,22.8-0.1,45.7-0.1,68.6c0,13.9-0.9,28.2-5.4,41.3c-2.9-32.1-4.3-64.2-4.5-96.4
	c-0.3-33.8,1.6-68.6-7.4-101.5c0-0.6,0-1.2,0-1.8c0-0.3,0.6-0.9,0.4-1.6c-0.2-1.1-0.5-2.1-0.7-3.2c0-1.7,0-3.4,0-5.2
	c0.1-6.8,1.7-10.8,6.2-15.9c7.5-8.3,14.9-16.6,22.4-24.9c1.3-1.4-0.8-3.6-2.1-2.1c-7.9,8.7-15.9,17.4-23.6,26.3
	c-1,1.2-2,2.4-2.8,3.6c0.3-1.8,0.8-3.5,1.3-5.3c2.4-7.8,7.8-14.4,9.1-22.5c0.3-1.9-2.6-2.7-2.9-0.8c-1.4,9.1-7.8,16.7-10,25.8
	c-0.4,1.5-0.6,3.1-0.9,4.7c0-0.9,0-1.9,0-2.8c0-7.5-0.7-15.5,2.5-22.5c0.8-1.7-1.8-3.3-2.6-1.5c-2.7,5.7-3,11.7-3,18
	c0,3.1,0,6.1,0,9.2c-2.7-14-10.6-26.6-24.3-32.1c-5.1-2.1-7.6,5-4.9,8.4c8.8,10.7,15.5,22.3,20.4,34.6c0.3,4,0.4,8,0.3,11.6
	c-0.1,19.7-0.4,39.5-0.6,59.2c-0.3,26.4-0.6,52.8-0.9,79.3c-0.1-0.7-0.2-1.5-0.3-2.2c-4.2-33.1-2.6-66.9-10.8-99.5
	c-2.2-8.7-5.1-17.2-8.9-25.3c-1.9-10-4.3-19.8-7.5-29.5c-1.5-4.7-8.1-4.8-9.6,0c-3.6,11.7,2.4,23,7.7,33.9
	c3.8,20.6,5.6,41.5,7.6,62.3c1.5,15.8,3.5,31.6,5.9,47.3c2.3,15.5,4.4,31.3,3,47c-0.9,10.1-3.5,20.2-8.1,29.1
	c2.2-36.2,3.4-72.6-2.2-108.6c-3.2-20.6-8.9-40.5-17.3-59.6c-8.5-19.1-19-37.4-30-55.2c-5.3-8.7-12.1-14.9-22.2-17.3
	c-11.5-2.7-23.6-2.2-35,0.2c-5.9,1.2-4,9.4,1.3,9.8c16.9,1.5,30.4,13.8,38.6,28c9.9,17,12.2,37.3,14,56.5
	c1.9,20.7,4.6,40.9,8.9,61.2c4.4,21,9.6,41.9,12.3,63.2c1.4,11.1,2.3,22.5,1.8,33.7c-0.1,1.6-0.2,3.2-0.3,4.8
	c-0.1-8.9-0.8-17.8-2.4-26.6c-3.2-17.6-11.6-33.2-19.8-48.9c-16.5-31.7-27.9-65.8-33.7-101.2c-0.9-5.6-9.9-4.2-9.8,1.3
	c0.4,39.7,3.6,79,5.9,118.6c1.3,22.9,0.4,48.1-9.4,68.8c-0.2,0.2-0.4,0.4-0.6,0.6c-1.5,1.9-2.5,3.6-3.3,5.9
	c-0.1,0.3-0.1,0.6-0.2,0.9c-4.1,6.6-9.2,12.6-15.7,17.7c-0.8,0.7-1.3,1.4-1.6,2.2c-0.8,0.1-1.7,0.1-2.5,0.2
	c-4.9,0.2-9.8,0.4-14.7,0.6c-1.7,0.1-3,0.8-3.8,1.8c-0.5,0.1-1,0.2-1.5,0.3c-4.9,0.9-4.7,8.6,0,9.6c1.9,0.4,3.9,0.8,5.8,1.2
	c-17.3,0.9-34.5,3.4-51.4,7.3c-7.6,1.8-4.3,12.9,3.2,11.6c8.3-1.5,16.6,1.4,24.8,3.5c0.6,0.7,1.4,1.3,2.4,1.6
	c24,6.4,48.4,5.9,72.7,2.6c0.3,0,0.7,0.1,1,0.1c4.3,4.3,8.6,8.8,14.8,10c6.9,1.3,14.8-0.3,21.7-1.4c8.2-1.3,16.3-3.2,24.3-5.6
	c8.3-2.5,16.4-5.5,24.4-8.7c3.4-0.7,6.7-1.5,10-2.2c13.8-1.3,27.6-3.3,41.2-6c2.2-0.4,3.5-1.6,4-3.1c0.5,0.1,1.1,0.2,1.8,0.2
	c19.6-0.4,39.2-0.6,58.8-0.8c-6.7,4.7-11.3,11.8-6.9,20.3c1.8,3.5,6.8,3.8,9.4,1.2c8.8-8.7,21.1-11.8,33-13.1
	c14.1-1.5,28.4-1.5,42.1-5.6c1.7-0.5,3.1-1.8,3.8-3.3c28.3,9.1,55.2,22.5,84.4,28.4c3.7,0.8,7.7-1.7,7.6-5.8c0-0.5-0.1-1.1-0.1-1.6
	c12,3.7,25.2,3.6,37.1-0.7c1.4-0.5,2.5-1.4,3.3-2.5c3.4-0.3,6.7-0.7,10.1-1.2c5-0.7,9.2-8.5,3-11.2c-7.2-3.1-14.5-5.7-21.9-7.8
	c-3.3-8.8-6.5-17.6-9.8-26.5c-3.9-31.9-6.6-64-5.4-96.2C598.8,244.9,598.8,244,598.8,243.1z M606.4,113.7c-0.3,0.5-0.6,1.1-0.9,1.6
	c-0.2-0.1-0.4-0.2-0.6-0.2C605.4,114.6,605.9,114.1,606.4,113.7z M416.1,98.6c-0.4,0.3-0.8,0.6-1.2,0.9c-0.1-0.1-0.2-0.2-0.2-0.3
	C415.1,99,415.6,98.8,416.1,98.6z M366.4,172.3c0.1,0,0.2,0,0.4,0c-0.2,0.6-0.4,1.2-0.5,1.8c0,0.1-0.1,0.2-0.1,0.3
	C366.2,173.6,366.3,173,366.4,172.3z M204.4,329.4c-0.1,0.2-0.1,0.3-0.2,0.5c-0.1,0.1-0.3,0.3-0.7,0.4c0.2-0.5,0.5-1.1,0.7-1.6
	c0.1-0.2,0.2-0.4,0.2-0.6C204.5,328.6,204.5,329,204.4,329.4z M285.7,337.3c0.1-0.1,0.2-0.3,0.3-0.4c0.5,0.1,1,0.2,1.5,0.2
	C286.9,337.2,286.3,337.2,285.7,337.3z M316.6,303.6c0-0.2,0.1-0.3,0.1-0.5c0.3,0.2,0.6,0.4,1,0.6c0,0,0,0,0,0.1
	C317.3,303.7,316.9,303.6,316.6,303.6z M413.9,298.9c-0.2-0.6-0.4-1.2-0.6-1.8c0.7,1.3,1.6,2.6,2.4,3.8
	C415.1,300.3,414.5,299.6,413.9,298.9z M484.8,264.9c-0.1,0-0.3,0-0.4,0c0.2-0.6,0.4-1.3,0.5-1.9
	C484.9,263.6,484.9,264.3,484.8,264.9z M580,175.3c-0.1,0-0.1,0.1-0.2,0.1c0-0.4,0-0.9,0-1.3c0.1,0.1,0.2,0.3,0.4,0.4
	C580.1,174.8,580,175.1,580,175.3z"/>
<path fill="#6DC680" d="M264.8,300c-0.2-4.1-1.5-7.8-3-11.5c0-2.1-0.1-4.1-0.4-6.2c-0.8-5.6-3.4-10.1-6.4-14.5
	c-0.2-1.3-0.5-2.6-0.8-3.9c-1-4.3-2.9-8-5.4-11.4c-2.4-5.7-5.3-11.1-8.6-16.4c-0.2-0.3-0.4-0.6-0.6-0.9c-1.4-3-3.6-6.1-5.5-9.3
	c-1.2-3.8-2.2-7.6-3.1-11.4c-0.1-0.4-0.3-0.6-0.5-0.8c0-0.1,0-0.3,0.1-0.4c0.2-1-0.5-1.7-1.3-1.8c0-0.5-0.1-1-0.1-1.5
	c-0.1-1.9-3.1-1.9-3,0c0.3,6.3,2.4,11.9,5.3,17.3c0.4,1.2,0.8,2.4,1.2,3.6c-0.6,6,2.3,10.6,6,14.9c1,2.1,2,4.2,3.1,6.2
	c0.3,1.2,0.6,2.5,1,3.7c2.2,8.1,6,14.5,9.8,21.9c0.3,0.6,0.6,1.2,0.9,1.8c0.2,1.7,0.3,3.4,0.5,5.1c0.9,7.3,2.4,14.5,4.6,21.4
	c0,0.4,0,0.8,0.1,1.1c0.2,1.6,2.4,1.9,2.9,0.7c0.6,0.8,2.3,0.9,2.7-0.4c0.7-2.1,0.7-4.2,0.2-6.2C264.6,300.8,264.8,300.5,264.8,300z
	 M261.3,305c-0.1-1.2-0.3-2.4-0.3-3.6c0,0,0-0.1,0-0.1C262,302.5,261.5,303.8,261.3,305z M257.6,279c-0.6-1.4-1.2-2.7-1.8-4.1
	c0-0.1,0-0.2,0-0.3C256.5,276.1,257.2,277.5,257.6,279z"/>
<path fill="#6DC680" d="M353.8,40.9c-5.9,6.7-11.9,13.4-17.8,20.1c-3.8,4.3-8.3,8.8-7.6,15.1c0.2,1.9,3.2,1.9,3,0
	c-0.7-6.9,6.6-12.7,10.7-17.4c4.6-5.2,9.2-10.4,13.8-15.7C357.2,41.6,355.1,39.4,353.8,40.9z"/>
</svg>
