<?xml version="1.0" encoding="utf-8"?>
<!-- Generator: Adobe Illustrator 18.1.1, SVG Export Plug-In . SVG Version: 6.00 Build 0)  -->
<svg version="1.1" id="Lager_1" xmlns="http://www.w3.org/2000/svg" xmlns:xlink="http://www.w3.org/1999/xlink" x="0px" y="0px"
	 viewBox="0 0 960 560" enable-background="new 0 0 960 560" xml:space="preserve">
<path fill="#444343" d="M575.5,163.7c-6.5,0.2-12.3,6.1-17.7,9.1c-6.8,3.9-13.9,7.2-21.3,9.8c-13.9,5-28.3,7.6-43,8
	c5.1-14.2,10.4-28.4,15.9-42.4c6.3-16.1,13.7-31.9,19.8-48.1c2-5.3,1.6-11.8-4.3-14.4c-3-1.3-6.6-1-9.8-0.9c-4.6,0-9.3,0-13.9,0
	c-17.6,0.1-35.2,0.1-52.8,0.2c-20.3,0.1-40.5,0.1-60.8,0.2c-4.5,0-6.3,5.4-3.5,8.5c19.8,22.4,32.6,50.2,37.2,79.5
	c-0.5,1.8-0.2,3.4,0.6,4.6c0.9,6.7,1.3,13.5,1.3,20.3c-0.3-0.1-0.7-0.2-1-0.2c-29.5-3.3-58.2-12-84.5-25.6c-3.4-1.7-7.4,0.4-7.5,4.3
	c-0.7,27.6-0.3,55.1,1.2,82.7c0.1,2.4,2.2,5.4,5,5c29.3-3.7,58.2-9.8,86.3-18.6c0.3,64.9-0.7,132.7-31,191.7c-0.5,1-0.7,2.6-0.6,2.6
	H391c-6.4,0-6.4,10.2,0,10.2c46.3,0.3,92.7,0.7,139,1l0,0c4.2,1.5,10-3.4,7.5-8.9C523,410.5,518.2,375.4,514,341
	c-2.1-17.2-4.1-34.4-7.1-51.5c-1.5-8.7-3.3-17.3-5.4-25.8c-0.2-0.7-0.4-1.5-0.6-2.2c-0.8-7.1-1.7-14.3-2.5-21.4
	c24.2,11.3,49.7,19.2,76.1,23.4c3.3,0.5,6.2-1.3,6.3-4.8c0.7-17.9,1.4-35.8,2.1-53.8c0.4-9.3,0.7-18.6,1.1-27.9
	C584.3,170.9,583.7,163.4,575.5,163.7z M448.7,286.4h-0.1c0.1-0.6,0.1-1.2,0.2-1.8c0-0.1,0-0.3,0-0.4c0,0.1,0.1,0.2,0.1,0.3
	C448.9,285.2,448.8,285.8,448.7,286.4z"/>
<path fill="#4D4D4D" d="M484.8,206.2c-9.8-1.8-19.8-2.2-29.7-1.1c-3.5,0.4-6.9,1.4-10.1-0.4c-0.5-0.4-0.8-1-0.9-1.7
	c-0.2,0.9-0.6,1.6-1.2,2.2c-1.4,1.4-3,1.5-4.8,1.1c0.3,0.1-0.4,4.9,0,5c1.8,0.4,3.4,0.2,4.8-1.1c0.6-0.6,1.1-1.3,1.2-2.2
	c0.1,0.7,0.4,1.2,0.9,1.7c3.2,1.8,6.6,0.8,10.1,0.4c9.9-1.2,19.9-0.7,29.7,1.1C484.5,211.2,485.1,206.3,484.8,206.2z"/>
<path fill="#4D4D4D" d="M484.7,223.5c-0.7-2.2-1.7-5.3-4-6.5c-2.8-1.4-5.7,1-8.1,2.2c-3.3,1.7-6.6,3.4-9.9,5.2
	c-0.5,0.2-4.4,2.9-5,2.6c-0.6-0.3-1.1-4.7-1.3-5.5c-0.5-2.3-0.4-2.5-2.9-2.5c-1.5,0-3,0.3-4.5,0.7c-3.1,0.9-5.8,2.6-8.3,4.5
	c-1.3,1-2.6,2-3.8,3.1c-2.1,1.8-1.7,1.8-2.1-0.9c-0.5-3.7-1.3-7.3-2.2-10.8v0.1c-0.3,4-0.5,8.1-0.8,12.1c-0.1,1.5,0.1,3.6,0,4.8
	c0.1-1.6-0.1-10.2,1.2-10.4c1.1-0.1,1.4,11.5,2.1,11.7c0.5,0.2,8.1-6.4,9-6.9c2.9-1.7,6.1-2.9,9.5-2.9c2.8,0,2.5,0.8,3,3.3
	c0.1,0.5,0.7,4.5,1.1,4.8c0.8,0.5,10.2-5.3,11.6-6c2.6-1.4,7.2-5,10.3-4.3c3,0.6,4.3,4.4,5.1,6.9C484.2,227,485.2,225,484.7,223.5z"
	/>
<path fill="#4D4D4D" d="M472.8,235.4c-3.5,4.8-10,4.1-15.3,4.1c-7.5,0-14.5,0-22.5,0v5c8,0,15,0,22.5,0c5.3,0,11.8,0.7,15.3-4.1
	C473.6,239.3,472.1,236.5,472.8,235.4z"/>
<path fill="#4D4D4D" d="M524,107.1c0.7-3.4,1.3-6.8,2-10.1c-15.3,27.9-30.7,55.8-46,83.7c-1.9,7,2,12.8,6,13.3c2.8,0.4,6-1.7,8-5
	C504,161.7,514,134.4,524,107.1z"/>
<path fill="#4D4D4D" d="M524.9,420.7c2.7,6.9,5.6,14.1,5.6,14.1c1.1,2.7,2.3,5.5,3.4,8.2c-14.3-81.9-21.6-117.8-25.4-132.7
	c-1.5-5.7-3.4-12-5.1-22.3c-4.2-25.1-6.1-26.4-5.1-32.4c0.3-2,1-4.7,0.5-8.6c-0.5-4-1.9-7.1-3-9c-3.3,2-6.7,4-10,6
	C504.9,341.9,521.7,412.5,524.9,420.7z"/>
<path fill="#6D6D6D" d="M481,210h-42v5h42V210z"/>
<path fill="#6D6D6D" d="M482.8,219c-6.2-1.6-11,2-16.2,4.8c-4.1,2.2-10.1,3.9-13.8-0.1c-1-1.1-1.3-3.9-2.7-4.5
	c-1.8-0.7-4.8,2.7-6.1,3.7c-2.8,2.2-8.5,6-11.1,2.8c0.2-1.3-0.9-3.5-0.2-4.4c-0.4,0.5-0.6,1.2-0.7,2l0.1-0.1v0.2
	c0,1.6-0.3,3.5-0.1,4.8c1.8,9.8,12-1.1,15.6-3.1c4-2.1,3,1.3,5.2,3.7c2.1,2.2,5.6,2.7,8.5,2.2c7.8-1.5,13.1-9.2,21.6-6.9
	C482.5,223.9,483.3,219.1,482.8,219z"/>
<path fill="#6D6D6D" d="M472.1,236.6c-10.4,6.1-22.2,7.9-34,5.3c0.3,0.1-0.4,4.9,0,5c11.7,2.6,23.6,0.7,34-5.3
	C472.8,241.2,471.4,237.1,472.1,236.6z"/>
</svg>
