<?xml version="1.0" encoding="utf-8"?>
<!-- Generator: Adobe Illustrator 18.1.1, SVG Export Plug-In . SVG Version: 6.00 Build 0)  -->
<svg version="1.1" id="Lager_1" xmlns="http://www.w3.org/2000/svg" xmlns:xlink="http://www.w3.org/1999/xlink" x="0px" y="0px"
	 viewBox="0 0 960 560" enable-background="new 0 0 960 560" xml:space="preserve">
<rect x="1.8" y="320.9" fill="#C1E6E8" width="959.8" height="128.9"/>
<rect x="-0.1" y="206.1" fill="#94D6DD" width="959.8" height="114.8"/>
<rect x="-0.1" y="99" fill="#6FCDDD" width="959.8" height="114.8"/>
<rect y="0" fill="#36ABC6" width="959.8" height="114.8"/>
<g>
	<path fill="#24AF08" d="M468.3,424.7c-0.3,0-0.9,0.4-1.8,1.3c0,0,0,0.1,0,0.1C467.3,425.4,467.9,424.9,468.3,424.7z"/>
	<path fill="#24AF08" d="M487.2,426.9c-1-0.2-2-0.4-2.8-0.5C485.3,426.5,486.2,426.7,487.2,426.9
		C487.2,426.9,487.2,426.9,487.2,426.9z"/>
	<path fill="#24AF08" d="M732.6,380.1c0.6-0.1,1.2-0.2,1.9-0.2C733.9,379.9,733.3,379.9,732.6,380.1z"/>
	<path fill="#24AF08" d="M692.6,384c0.7,0.1,1.3,0.2,2,0.5C693.8,384.1,693.1,383.9,692.6,384z"/>
	<path fill="#24AF08" d="M122.2,429.9c-0.3,0-0.6,0-0.9,0c0,0,0,0,0,0C121.6,429.9,121.9,429.9,122.2,429.9z"/>
	<path fill="#24AF08" d="M417,420.2c0,0.2,0.8,2.6,2,5.3C418.2,422.3,417.2,419.6,417,420.2z"/>
	<path fill="#24AF08" d="M959.8,559.2v-116c0,0.1,0-1.8,0-4.2v-5.5c-0.1-0.6-0.8-5.1-1.9,0c-1.3,6.4-3.1-8.4-5.5,0
		c-2.3,3.7-5.1-4.4-8.3-0.8c-0.3,0.4-0.9,0.5-1.4,0.5c-3.7,0.1-9.4,17.4-11.3,0.3c-5.6-50.8-10.2-19.9-15.1,0
		c-4.4,17.6-11.5,8.9-17.9,0c-7.4,1-30-279.1-20.6-3.2c0.1,1.1-1.7,1.6-2.7,0.8c-5.6-4.5-11.5-7.4-17.5-1c-0.9,0.9-2.8,0.5-2.9-0.6
		c-7.9-116.9-16.2-60.5-24.8,3.1c-0.1,0.5-0.6,0.9-1.2,1c-4.6,0.8-12.1,6.1-12.3,2.9c-4.2-85.1-25.4-37.1-14.6-4.9
		c0.3,0.9-0.9,1.7-2.1,1.3c-14.7-4.4-26.4-24.1-18.1-21.5c-5-1.9-7.9-0.8-9.5,1.9c-5.6-80.4-5.1-18.4-12.1,13.1
		c-0.1,0.3,0,0.5,0.2,0.8c-2.1,0.8-5.5,2.1-10,3.8c-1.3,0.6-2.8-0.5-2.1-1.5c10.3-13.8,1.6-49.7-13.6-49.6
		c11.2,0.7,3.9,37.3-3.8,48.5c-0.8,1.1-3.2,0.7-3-0.6c1.8-14.6-7.2-28.6-11.4-0.4c-11.3,0.4-31.3-42.6-23.7-43.4
		c-12.4-1.4-17.2,30.1-16.3,44.2c0.1,1-1.5,1.6-2.6,0.9c-1.9-1.3-4-0.4-8.1,2.3c-1.1,0.7-2.9,0-2.6-1.1c4.5-14.3-3.2-49.9-18.3-46.6
		c12.1-2.9,0.1,44.7-9.4,49.6c-0.2-0.3-7.4,0.2-10,0.1c-3.6-0.3-5.3-35.9-10.6-36.7c-4.6-0.7-11.9,24.7-9.2,33.9
		c0.3,0.9-1.1,1.7-2.3,1.2c-6.9-2.8-11.3-4.8-12.5-5.1c18.7-104,2.2-50.3-8.1-4.6c-0.2,0.9-1.8,1.4-2.6,0.7c-1-0.8-3.2,3.1-8.4,10.7
		c8.2-12.7,8.1-14.4-6.1-4.6c13.9-10,11.8-7.7-6.1,1.4c16.2-8.7,15-9.4-2.5-5.6c-1.3,0.3-2.5-0.7-1.9-1.6
		c20.7-31.1-17.8-35.8-38.2-33.5c-1.4,0.1-1.8,1.5-0.5,2.1c14.4,6.2,33.1,37.2,24.9,38.7c5.7-0.7-1.7,1.1-5.2,2.7
		c-0.4,0.2-1,0.2-1.5,0c-1.4-0.5-1.9-12.1-3.6-11.1c-2,1.1-5.8,14.8-7.8,12.6c-0.1-0.1-0.3-0.2-0.4-0.3c-1.3-0.8-3.2-1.3-4.5-1.4
		c-0.7-0.1-1.3-0.6-1.3-1.2c0.4-14.5-8.3-10.3-6.5,3.5c0.1,0.8-0.8,1.4-1.9,1.2c-9-1.6-18-15.8-3.6-13.8c-17.7-2.4-25.2-18.2-5-15.2
		c-19.3-3.2-27.5,1.9-12.7,19.5c0.6,0.1,1.2,0.3,1.9,0.4c-0.6-0.1-1.3-0.3-1.9-0.4c0.6,0.8,1.3,1.6,2.1,2.4c0.8,1-0.6,2.2-2,1.7
		c-12.8-4.1-13.7-6.5-2.9-4.6c-5.6-1.1-8.5-1.3-8.8-0.8c-2.1-5.2-1.6-11,0.3-12.4c-3.2,2-4.3,13.2-2.3,19.5c-2.9-8.5-3-7.9-6.2,0.9
		c2.1-6.2,2.8-9.6,0.9-8.9c0.8,0-1.3,3.5-7.1,8.8c2.4-2.1,4.2-4.8,5.3-7.4c-0.6,0.6-1.4,1.4-2.2,2.3c0.9-1,1.6-1.8,2.3-2.4
		c3.2-7.4,1-14.7-8.9-10.6c10-4.2,11.5,4.8,4.2,12.2c-1.7-0.1-4.5,0-8.3,0.4c5.3-0.4,7.7-0.2,7.4,0.5c-0.2,0.2-0.4,0.3-0.5,0.5
		c-0.9,0.5-2.7,1.1-5.5,1.9c-1.2,0.3-1.4,1.4-0.5,1.9c-0.8,0.4-1.6,0.7-2.5,1.1c1-0.3,1.8-0.7,2.7-1c0.1,0,0.1,0.1,0.2,0.1
		c2.1,0.6-0.6,2.4-6.3,4.8c-1-0.5-4.6-0.9-10.3-1.5c-1.3-0.1-1.8-1.3-0.9-1.9c8.9-6.1,1.3-30-8.4-35.3c1.3,3.1-8.2,12.1-12.7,16.4
		c-1-6-1.9-10.5-2.5-8.8c-2.5,3.2-3.9,18.9-5.9,25.6c-0.4,1.2-2.7,1.2-3.1,0.1c-3.1-7.9-9.7-28.1-10.1-29.2c-2.1-6.6-19-1.2-16,25.5
		c-8.1-8.6-10.8-25.2,2-22.6c-14.7-3.1-21.4-5.7-16.3-3.7c1.3,0.5,1,1.9-0.5,2.1c-9.8,1.2-14.4,6.9-7.6,14.6c-7.2-7.9-5.5,0-4.7,8.9
		c-0.4-2.6-1.6-1.5-5,2.5c0.2-0.9,0.2-1.9-0.1-2.7c3-10.6-1.1-23.9-13.7-18.1c9.6-4.3,12.5,5.7,9.1,15.2c-2.5,0.2-5.4-3.7-7.7-4.9
		c-2-1-4.1-1.5-6.3-1.8c-0.3-0.8-0.7-1.6-1.4-2.5c-2.4-2.9-6.6-3.4-9.9-2c-1.8,0.8-9.8,9.2-10.7,5c-0.7-3.4-6.1-5.2-8.4-2.2
		c-2.7,3.5-8.2,2.9-12.2,4.1c-2.1,0.7-4.1,1.6-5.8,3.1c-0.5,0.4-1.1,1.2-1.7,2.1c-3-0.3-6.3-0.6-9.3-0.1c-0.1,0-0.1,0-0.2,0
		c-1.8-0.3-3.5-0.3-5.3,0.1c-1.6-22.5,10.1-59,27-52.3c-12.7-4.9-19.9-15.1-21-21.3c-15.1,13.7-28,66.4-16,75.5
		c-7.4-5.6-11.1-7.5-11.7-6.4c14.5-249.6,0.2-52.6-7.4,2c-1.4,1.2-3.5,3.2-6.6,6.2c-0.8,0.8-2.4,0.5-2.7-0.3c3.4-2,3.1-2.2-0.1-1.4
		c0-3.7,0-7.2,0-10.5c-1,4.5-2.2,8.5-3.7,11.4c-4.2,1.1-10.4,2.8-17.7,4.4c18.6-4.8,21.3-50.4,1.8-48.1c9.5-0.9,2.5,15.4-5.3,28.9
		c-13.7-230.5-13.1-145.3-14.8-75.3c-0.1,2-5.8,87.3,1.2,90.9c-2-1-3.6-1.8-5.1-2.4c-10.6-21.7-18.9-87.4-25.1-95.9
		c5.9,8.2,12.9,69.9,14.8,94.5c-1-2.8-3.8-3.8-10.7-2.8c-1.2,0-2.6,0-4.2,0c7.8-10-11.1-40.3-31.9-40.9
		c19.6,0.8,22.9,32.6,13.9,45.8c-0.5,0-1.1-0.1-1.6-0.1c0.6,0.1,1.1,0.1,1.6,0.2c-0.4,0.6-0.8,1.1-1.3,1.6c-4.4,0.2-10,0.2-14.4,0.4
		c8.5-0.1,18.3,0.5,7.9,0.2c3.1,0.2,4.7,0.4,5.3,0.6c-0.2,0.1-0.3,0.3-0.5,0.4c-2.2,0.4-8.2,0.6-11.4,1c-0.7,0.1-1.5-0.7-2.2-2.2
		c-1.7,0.1-3.2,0.1-4.3,0.2c1.3-0.1,2.7-0.2,4.2-0.2c-3.1-5.9-6.5-22.1-10.6-30.2c-1.7,4.1-7.7,10.4-13.2,16.5
		c21.6-99.7-17.7-31.5-18.9,3.3c-19.8-82.6-24.8-9.1-7.5,16.3c-7.8-6.5-12.3-11.7-14.2-13.9c-3.4-9.5-3-7.5-5,9.1
		c2.7-21.5-2.7-19.5-8.6,2.3c5.9-21.7,1.4-20.9-7.9-0.2c9.3-20.7,3.1-18.6-7.2,0.2c10.3-18.8,1.4-9.7-20.8,0c-1.2,1-2.9,2.2-4.9,3.6
		c-0.8,0.6-0.5,1.5,0.5,1.8c3.8,1.3-3,9.4-3,14.4v105.8c0,0.6,0.7,1.1,1.6,1.1h956.8C959.3,560,960,559.5,959.8,559.2z M155.9,423
		c1,0,2,0.1,2.8,0.1c0.3-0.1,0.7-0.1,1-0.2c-0.3,0.1-0.7,0.1-1,0.2c5.9,0.5,7.6,2.6,5.1,5.2c-0.5-1.6-5.5-2.5-15.2-2.2
		C152,426,154.4,424.8,155.9,423z M141.4,427.3c17.8,0.8,20,1.4,11.5,1.2C151.6,428.1,148,427.6,141.4,427.3z M166.7,427
		c2-2.4,0-3.8-6.5-4.1C167.8,421.8,169.8,423.7,166.7,427z M200.8,431.2c0-0.6-0.1-1.2-0.1-1.8c4.2-0.2,6.5,0.1,0.9,1.7
		C201.3,431.2,200.8,431.4,200.8,431.2z M241.3,423.9c0-0.6,0.1-1.3,0.1-1.9c0.3,1.8,3,5.7,7.6,11.4
		C245.2,428.8,242.8,425.6,241.3,423.9z M387.8,433.6c-3.3-0.2-6.5-2.1-9-4.9c0.9,0.5,17.8,5.4,17.4,5.4
		C393.8,433.9,390.3,433.7,387.8,433.6z M423.3,435.2c-0.4-0.2-2.6-5.4-4.3-9.7c0.9,3.5,1.5,7.7,0.9,9.3c-0.5,3.2-2-9.2-3.5-18.6
		c1.2,3.3,8.5,17.7,8.8,18C427.6,436.8,425.6,436.3,423.3,435.2z M476.2,427c-0.2-0.3-0.3-0.6-0.4-0.9c0.9,0.9,4.3,2.5,10.2,4.9
		C481.4,429.2,478.2,427.8,476.2,427z M590.6,427.4c0-0.1,0-0.2,0.1-0.3c0.8,0.7,3.4,2.6,8,5.9C595.4,430.7,592.7,428.8,590.6,427.4
		z M716.3,427.4c-0.2,1.7-0.5,3.4-0.7,5.4C715.3,435.6,714.6,427.1,716.3,427.4z"/>
	<path fill="#24AF08" d="M158.7,423.1C158.7,423.1,158.7,423.1,158.7,423.1c-0.8,0.1-1.5,0.3-2.4,0.5
		C157.1,423.4,157.9,423.3,158.7,423.1z"/>
	<path fill="#24AF08" d="M479.8,415c-1.6-2.2-2.9-2.6-3.9-1.8C477,412.5,478.3,412.9,479.8,415z"/>
	<path fill="#24AF08" d="M781.6,411.4c1.2,0.5,2.4,1.1,3.9,1.9C783.9,412.3,782.6,411.7,781.6,411.4z"/>
	<path fill="#24AF08" d="M1.9,432.7c8.7-3,9-2.2,5.5,0.6C26.8,424,16.3,427.6,1.9,432.7z"/>
	<path fill="#24AF08" d="M106,394.9c1.7,0,3.2,1.9,4.7,4.8C111.8,396.8,110.8,394.9,106,394.9z"/>
	<path fill="#24AF08" d="M453.6,428c-1.7,0.1-3.8,0.3-6.2,0.6C449.7,428.4,451.7,428.2,453.6,428z"/>
	<path fill="#24AF08" d="M154,330.7c0.7-0.7,1.3-0.5,2.1,0.5C155.3,330.2,154.7,330,154,330.7z"/>
	<path fill="#24AF08" d="M7.3,433.3C7.3,433.3,7.3,433.3,7.3,433.3C7.4,433.3,7.4,433.3,7.3,433.3C7.4,433.3,7.3,433.3,7.3,433.3z"
		/>
	<path fill="#24AF08" d="M1.9,432.7c-0.6,0.2-1.2,0.4-1.9,0.6C0.6,433.1,1.2,432.9,1.9,432.7z"/>
	<path fill="#24AF08" d="M425.7,398c1.1,0.1,2.2,0.5,3.3,1C428.6,398.3,427.6,397.9,425.7,398z"/>
	<path fill="#24AF08" d="M205,384.9c-0.8,0.1-1.8,0.3-2.9,0.7C203.1,385.3,204.1,385,205,384.9z"/>
	<path fill="#24AF08" d="M280.1,350.2c-8.3-5.7-11.8-3.3-11,1.9C272.8,348.9,276.5,347.8,280.1,350.2z"/>
	<path fill="#24AF08" d="M224.7,417.1C232.5,381,224.8,307.8,224.7,417.1L224.7,417.1z"/>
</g>
<path fill="#82491E" d="M745.4,235c-3.1,2.2-6.2,4.4-9.2,6.6c2.8-4.2,4.7-8.9,3.2-13.6c-1.3-4.2-6.8-4.9-9.1-1.2
	c-4.7,7.4-9.5,15.2-16.6,20.6c-7.6,5.8-17.6,8.8-26.2,13.1c-0.2,0.1-0.5,0.2-0.7,0.4c-0.1,0-0.2,0-0.3,0.1c-3,0.8-5.7,2.1-8.3,3.5
	c-12.4,2.3-25,5.2-34.5,12c-0.6,0-1.2,0.1-1.7,0.1c1.4-3.1,2.8-6.1,3.6-9c2-7.7,2.4-15.7,1.4-23.5c-1.3-10.2-4.8-19.8-9.5-28.7
	c-4.3-17-14.5-40.9,2.6-54c1.9-1.5,2.1-3.4,1.3-5.1c2.3-2.5,4-5.5,4.7-8.9c1.6-1.5,3.4-2.9,5.3-4.1c5.9-3.9,12.2-6.7,16.5-12.6
	c7.5-10.5,6-24.5,4.3-36.6c-0.9-6.3-10.5-3.6-9.6,2.7c1.5,10.8,3,24.9-6.9,32.2c-3.6,2.7-7.5,4.7-11.2,7.2c-2.5-1.8-6.7-0.4-8,2.7
	c-0.9,2.4-1.9,4.9-3,7.3c-2.1,2.5-3.9,5.2-5.6,8c-0.1,0.1-0.1,0.2-0.2,0.3c-1.1-0.3-2.4-0.2-3.8,0.7c-0.9,0.6-1.8,1.3-2.7,1.9
	c0.5-11.6,0.2-23.4-0.1-35.1c0-7.4,0-14.8,0-22.1c3.8-11.3,6.3-22.9,4.9-35c-0.5-4.2-5.1-6.7-8.5-3.5
	c-11.2,10.3-14.1,25.4-16.9,39.7c-1.3,6.9-2.6,13.7-3.9,20.6c-0.9,3-1.7,6-2.4,8.9c-1.8,6.9-3.3,13.9-4.6,21
	c-2-3.6-4.1-7.1-6.3-10.5c-4.6-13.9-10.5-27.2-18.5-39.6c-2.6-4.1-9.3-2.6-9.3,2.5c0.1,15.2,2.5,30.5,7.7,44.9
	c2.5,7,6,13.7,9.1,20.4c-1.1-0.1-2.2-0.1-3.3-0.1c-6-1.4-12.1-2.4-17.9-4.5c-8.6-3.1-16.6-7.4-24.4-12c-6.2-3.6-13.1-7.6-20.4-5.4
	c-5-0.1-7.1,6.9-3.1,9.2c0.9,1,2.2,1.5,3.7,1.1c13.4,3.9,21.8,17.2,34.2,23.3c8.3,4,17.6,5.2,25.9,9.1c4.3,2,8.4,4.2,12.5,6.5
	c0.3,0.2,0.6,0.3,1,0.5c0,0.6,0,1.2,0.2,1.9c3.3,10.6,2.1,21.2-0.1,31.8c-5,8.8-8.4,17.9-6.1,27.7c-1.6,9.8-2.3,19.6-1.6,29.8
	c1.9,29.9,11.7,60.3,5.1,90.2c-1.8,8-4.8,15.4-9.2,22.4c-4,6.4-8,12.7-7.7,20.6c0,0.9,0.2,1.6,0.6,2.2c-0.7,1.6-1.4,3.2-2.1,4.8
	c-0.7,0-1.4-0.1-2.1-0.4c-5.7-2.1-8.1,6.1-3.9,9.1c4.1,3,9,3.6,13.8,3c0.8,0.3,1.8,0.4,2.8,0.2c19.2-3.4,38.6-5.5,58.1-6.2l32.9,0.1
	c1.5,0,2.6-0.5,3.4-1.3c1.2,0,2.4,0,3.7,0c0.5,0,1-0.1,1.4-0.2c3.5,3.7,10.3-1,7.8-6.3c-6.3-13.1-12.6-26.2-18.9-39.4
	c-1.3-7.6-0.8-15.5-4.6-22.6c-0.8-1.4-1.9-2.2-3.1-2.4c-1.9-9.7-4-19.2-7.4-28.6c0.2-5.5-0.4-10.9-0.5-16.4
	c5.3-6.1,11.1-11.7,17.6-16.7c6.3-4.8,13.1-9,20.2-12.5c5.8-2.9,11.6-5.5,16.9-9c1.6-0.3,3.1-0.9,4.3-1.7c1.1,0.2,2.2,0.1,3.4-0.8
	c15.1-10.9,30.2-21.7,45.3-32.6C755.6,239.9,750.7,231.2,745.4,235z"/>
<path fill="#663412" d="M642,221.5c2.4-0.7,4.2-2.8,3.1-5.8c-3.4-9.4-12.2-15.2-13.5-25.5c-0.6-4.5-0.5-9.1-0.5-13.7
	c0-0.2,0-0.4,0-0.5c0-0.3,0-0.7,0-1c0-0.3,0-0.6,0-0.9c-0.1-3.1-0.1-6.1-0.2-9.2c0-1.4-0.7-5.6,0.6-6.6c5-3.9,0.1-12.5-5-8.6
	c-4.5,3.4-5.6,7.9-5.6,13.4c0,4.8,0,9.7,0.2,14.5c-0.5,11.3-0.1,22.6,2.2,33.6c1.2,5.6,2.9,11.1,5.1,16.4c1.8,4.6,7.3,12,5.7,16.9
	c-1.2,3.7,1.8,6.1,4.8,6.1c0.7,6,0.3,12-2.5,17.5c-2.9,5.7,5.7,10.8,8.6,5C653.8,255.7,645.5,238.9,642,221.5z"/>
<path fill="#663412" d="M673,115.1c0.9-1.2,1.2-2.7,1-4.4c-0.4-2.3-0.7-4.7-1.1-7c-0.1-0.5-0.3-1-0.6-1.5c-0.2-3-0.3-6.1-0.5-9.1
	c-0.4-6.4-10.4-6.4-10,0c0.4,7.7,0.9,15.3,1.3,23c0.4,6.4,10.4,6.4,10,0C673.1,115.7,673,115.4,673,115.1z"/>
<path fill="#663412" d="M627,85.5c0-4,0-7.9,0-11.9c0-3.7,0.1-8.3-4.1-10c-8.2-3.1-14.9,9.7-11.8,16.2c1.4,3,4.3,4.9,5.9,7.7
	c0,0.8,0,1.6,0,2.5c0,1.3,0.4,2.4,1.1,3.2c-0.1,3.2-1.3,6.5-2.5,9.4c-3.9,9-9.6,17.1-8.6,27.4c0.6,6.3,10.6,6.4,10,0
	c-1.1-11.5,8.2-20.6,10.4-31.5C628.3,94.2,628.4,89.7,627,85.5z"/>
<path fill="#663412" d="M571.3,181.4c-21.7-6.4-42-16.9-59.6-31.1c-5-4-12.1,3-7.1,7.1c19,15.4,40.5,26.8,64,33.7
	C574.8,192.8,577.4,183.2,571.3,181.4z"/>
<path fill="#663412" d="M661,387c-4.7-12.2-9.4-24.4-14.1-36.6c-2.3-5.9-12-3.4-9.6,2.7c4.2,11,8.4,21.9,12.6,32.9
	c2,5.3,4,10.5,6.1,15.8c2.1,5.6,5.1,11.7,4,17.8c-1.2,6.3,8.5,9,9.6,2.7C672,410.1,665.3,398.1,661,387z"/>
<path fill="#663412" d="M616.5,358.4c0.2-4.1,0.3-8.1,0.2-12.2c0.5-13.8,1.7-27.6,0.1-41.3c-1.2-10.5-4.1-20.2-8.7-29.8
	c-2-4.2-4.2-8.4-6.1-12.7c0.8-0.8,1.3-1.9,1.2-3.4c-0.2-9.3-0.4-18.7-0.6-28c0-1.7-0.1-3.4-0.1-5.1c1.4-3.5,2.4-7.2,2.4-11.1
	c0-4.2-1.3-8.2-3-12.1c0.5-0.9,0.6-2.1,0.3-3.4c-2.1-7.8-5.4-15.1-9.6-21.8c0-0.1-0.1-0.3-0.1-0.4c-1-5.2-1.4-10.4-0.3-15.6
	c0.9-4.3-3.3-6.9-6.5-6.1c-2.8-4-5.7-8-8.7-11.8c0.1-7.3,0.2-14.6,0-21.9c-0.3-8.8-4.2-13.8-10.7-19.3
	c-11.1-9.4-17.4-24.1-32.1-28.7c-6.2-1.9-8.8,7.8-2.7,9.6c7.7,2.4,12.9,8.9,17.9,15.3c-0.3,0.8-0.4,1.7-0.3,2.7
	c0.8,6,2.7,11.7,5.9,16.9c0.3,0.5,1,1.5,1.8,2.5c0,0.7,0,1.4,0,2.1c-1.5-0.9-3-1.6-4.7-2.2c-4.6-1.7-7.7-1.8-10.3-6.4
	c-1.7-3-3.6-5.8-6-8.4c-4.4-4.9-10-8.7-15.6-12.2c-0.6-0.7-1.4-1.2-2.3-1.4c-0.6-0.3-1.1-0.7-1.7-1c-5.1-3.1-9.8,4.2-6,7.9
	c0.1,3.3,2.9,6.5,6.1,9.3c3,5.6,6.7,10.8,10.7,15.7c-0.1,1.6,0.5,3.3,2.2,4.5c1.8,1.2,3.6,2.5,5.3,3.7c2.1,2.1,4.3,4.1,6.5,6.1
	c4.5,4,9.1,7.7,13.7,11.5c2.5,2.7,4.8,5.6,7,8.8c4,5.8,8,11.4,12.8,16.6c1.1,1.2,2.1,2.3,3.2,3.5c-2.1,1.3-3.4,4-2.1,6.8
	c6.4,14.1,8.5,29.8,6,45.1c-0.6,3.4,1.9,5.7,4.5,6.2c0,0.1-0.1,0.1-0.1,0.2c-3,7.1-3.5,14.3-2.4,22c1.2,8.1,3.8,15.9,5.8,23.8
	c2,8,3.7,16,5.1,24.1c3,16.7,4.6,33.6,5.2,50.6c0,0.7,0.2,1.3,0.4,1.8c0.2,9.5-2.6,18.4-6.4,26.9c-1.5,1.8-3,3.6-4.6,5.3
	c-1.5,1.8-1.6,3.8-0.9,5.4c-0.9,1.7-1.9,3.4-2.9,5.1c-3.8,6.7-7.5,13.5-11.4,20.1c-3.5,5.8-8.9,12.7-16.5,10.2
	c-6.1-2-8.7,7.6-2.7,9.6c19.2,6.4,29.2-17.2,36.5-30.2c3.3-5.9,6.7-11.8,9.8-18c3.8-3.9,7.3-8,9.9-12.5c1.3-1.5,2.5-3,3.8-4.5
	c0.3-0.3,0.5-0.7,0.7-1c1.1-0.8,1.8-2.1,1.6-3.9C616.7,367.5,616.5,362.9,616.5,358.4z"/>
<path opacity="0.56" fill="#5C6612" d="M674.9,115.5c-0.1-7.5-0.1-15.1-0.2-22.6c0-4.7-6.8-6.6-9.1-3.2c-0.3-1.7-0.6-3.4-0.9-5.1
	c-1-5.8-9.6-4.1-9.8,1.3c0,0.9,0,1.7,0,2.6c-1.5,0.8-2.5,2.2-2.3,4.2c0.5,6.2,1.1,12.6,0.9,19c-1.3,0.6-2.4,1.6-2.8,3.1
	c-2.5,8.7-6.4,16.9-11.8,24.2c-2.3,3-4.9,5.9-7.6,8.5c-0.1-1.5-0.3-3-0.5-4.5c-0.5-3.6-5.1-4.4-7.7-2.7c-0.1-2.9-0.2-5.8-0.3-8.6
	c-0.1-5.1-0.2-10.3-0.1-15.4c1.9-5.1,3.8-10.2,5.4-15.4c0,0,0,0,0,0c3.3-2.5,6.4-5.6,7.4-9.6c1.1-4.1-0.6-7.8-3.9-10
	c2-2.6,1.7-7-2.4-7.9c-0.2,0-0.3-0.1-0.5-0.1c0.1-2.4,0.1-4.8-1.8-7.2c-3-3.8-8.8-4-13.3-4c-10.2,0-20.4,3.5-28.5,9.8
	c-3.4,2.6-6.5,5.8-8.7,9.5c0.1-8-0.4-16.1-1.8-24.2c-0.6-3.6-6.1-5-8.4-2.2c-2.7,3.3-5.4,6.5-8.1,9.8c-1.4,0.5-2.6,1.5-3,3.3
	c-0.1,0.2-0.1,0.5-0.2,0.7c-3.5,4.3-6.9,8.6-10.3,13c-0.2-0.4-0.4-0.8-0.6-1.2c-2.9-5.7-8.8-8.9-15.2-7.4c-1.8,0.4-3.3,1.2-4.6,2.2
	c-1.8-0.5-4,0-5.4,1.6c-2.6-2.3-7.2-2.3-8,2.1c-0.5,2.8-1.1,5.6-1.8,8.4c-7.2,9.1-10.7,21.3-10.5,32.7c0.1,2.9,3,5.1,5.7,5
	c-0.2,4.3-0.1,8.7,0.3,13c0,0,0,0,0,0c-1,1.9-1.9,3.8-2.7,5.8c-2.5,0.1-4.5,2.3-4.8,5c-0.6,4.4-0.1,8.7,1.1,13
	c1.4,4.7,7.1,4.4,9.1,1c0.3,0.5,0.7,0.9,1.1,1.3c-1.2,7.8-1.8,15.7-1.9,23.7c0,4.7,7.2,7.2,9.3,2.5c1.7-3.6,3.3-7.2,5-10.7
	c1.9,0.5,4,0.5,6.1,0.3c0.6,0.2,1.1,0.3,1.7,0.5c0.2,1.1,0.5,2.1,0.8,3.2c0.2,0.7,0.5,1.3,0.8,1.8c-0.3,3.6-0.5,7.2-0.8,10.7
	c-0.4,5.6,8.6,6.8,9.8,1.3c1-4.5,2-9,3-13.6c4.2,1,8.4,1.8,12.6,2.6c3.8,9.9,17.4,17,25.9,8.1c2.7-2.8,2.8-5.3,7.4-4.8
	c1.4,0.2,2.9,0.4,4.3,0.7c0.4,0.6,1,1.1,1.6,1.5c1.9,3,5.1,5.3,8.9,6.5c5.1,1.6,10.6,2.5,16.1,3c1.3,0.8,2.6,1.7,3.9,2.5
	c1.9,1.3,4.2,0.7,5.8-0.7c8.4,2.7,16.7,5.4,25.1,8c6.2,2,8.6-7.5,2.7-9.6c-8.6-3.1-15.1-10.7-17.5-19.5c-2.8-10.3,1.2-19.3,6.8-27.8
	c4.5-6.7,9.4-13.1,12.8-20.4c0.8,0.9,1.6,1.8,2.5,2.6c3.1,2.9,8.6,0.9,8.5-3.5c-0.1-4.3-0.3-8.6-0.6-12.8
	C671.9,120.7,674.9,118.8,674.9,115.5z M521.3,114.1C521.3,114.1,521.3,114.1,521.3,114.1c0.4-1.6,0.7-3.3,0.8-4.8
	c0.5-0.2,1.1-0.5,1.5-0.9C522.8,110.3,522,112.2,521.3,114.1z M548.9,96.1c-0.2,0.2-0.4,0.4-0.6,0.6c-0.3-0.8-0.5-1.7-0.7-2.6
	c0.7-1,1.5-1.9,2.2-2.8C549.5,92.9,549.2,94.5,548.9,96.1z M587.9,143c-0.2,0-0.3,0-0.5,0c0.2-0.6,0.4-1.3,0.5-1.9
	C588,141.7,587.9,142.4,587.9,143z M589.4,115.1c0-0.5,0.1-0.9,0.1-1.4c0.5,0.7,1,1.3,1.5,1.9C590.5,115.4,590,115.2,589.4,115.1z
	 M600.6,134.6c-0.7-3.5-1.2-7-1.6-10.5c0-0.3-0.1-0.5-0.1-0.7c0.4-0.4,0.7-0.9,1.1-1.4c0.4,0.2,0.8,0.3,1.3,0.4
	C601,126.5,600.8,130.5,600.6,134.6z M607.4,184.7c0.4,0,0.8,0,1.3,0c0,0.2,0.1,0.4,0.2,0.6C608.3,185,607.8,184.9,607.4,184.7z
	 M630.8,161.3c-0.2,0.4-0.3,0.9-0.5,1.4c0.2-0.8,0.3-1.6,0.4-2.4c0.2-0.1,0.5-0.2,0.7-0.4C631.2,160.4,631,160.8,630.8,161.3z"/>
<path opacity="0.81" fill="#5C6612" d="M669.2,113.7c6.5-11.3,10.6-23.6,1.8-35c-2.9-3.8-9.1-2.8-9.3,2.5c-0.3,7.1-0.6,14.3-1,21.4
	c-0.1,2.4-0.1,4.9-0.6,7.2c-1.5,2.4-3,4.7-4.5,7.1c-1.1,1-2.2,2-3.2,3c-5.1,5-10.3,10.1-15.4,15.1c-2.3,2.3-4.7,4.6-7,6.9
	c-0.6,0.6-2,2.4-3.5,4c0.2-2.1,0.5-4.3,0.6-4.9c0.2-3.6,0.4-7.2,0.6-10.9l1.2-20.8c0.8-14.2,1.7-28.3,2.5-42.5c0.2-2.7-2.4-5-5-5
	c-14.4-0.2-21.4,14.3-25.2,26.1c-5.3,16.6-10.4,33.3-15.5,50c-9.8-11.7-12.7-27.8-19.1-41.5c-6.9-14.9-20.7-29.1-38.5-27.3
	c-1.8,0.2-3.1,1.2-3.9,2.4c-2.1,1.3-3.3,3.8-1.5,6.4c4.5,6.6,9,13.1,13.5,19.7c2.2,3.1,4.3,6.3,6.5,9.4c0,0,0,0,0,0
	c-1-0.4-2-0.8-3-1.3c-4.3-1.8-9.3-3.3-13.1-6.2c-6-4.5-5.4-13.4-12.7-17.1c-4.1-2.1-8,1.3-7.3,5.6c3.4,21.2,12.7,41,26.4,57.2
	c-1.1-0.1-2.2-0.2-3.3-0.2c-8.1-0.4-17,0-25,1.5c-6.4,1.2-10.1,6.6-7.9,13c2.1,6.1,8.1,11.5,12.8,15.7c5.1,4.6,10.8,8.6,16.9,11.8
	c12.5,6.6,26.3,10.1,40.4,10.1c6.4,0,6.4-10,0-10c-21-0.1-41.5-8.9-55.7-24.4c-1-1.1-5.5-5.2-5-6.6c0,0,5.9-0.4,6.7-0.5
	c5.9-0.5,11.9-0.9,17.8-0.6c5.3,0.3,10.5,1.3,15.3,3.3c4.5,3.9,9.3,7.5,14.4,10.7c5.2,3.3,9.3-3.7,6.1-7.9
	c-4.1-5.2-9.3-8.9-15.1-11.5c-12.5-11.3-22.3-25.3-28.5-41c0,0,0.1,0.1,0.1,0.1c8.8,5.4,19.6,8.6,29.1,12.6c3.1,1.3,6.3-1.9,6.3-4.8
	c0.2-7.8-7.1-15.1-11.3-21.2c-3.7-5.4-7.4-10.8-11.1-16.2c13.2,3.1,20.8,17.8,25.3,30c5.5,14.8,10.3,30.9,23.2,41.1
	c2.9,2.3,7.2,1.7,8.4-2.2c5-16.2,10.1-32.4,15.1-48.6c2.2-7.2,5.1-22.1,13.1-26.7c-0.9,15.7-1.8,31.3-2.7,47
	c-0.5,8.6-1,17.1-1.5,25.7c-0.3,5.5,0.1,14.1,8.1,12.8c3.3-0.5,5.7-3.4,8-5.7c1.9-1.8,3.7-3.6,5.6-5.5c-6,14-10.2,28.8-12.4,43.9
	c-0.9,6.3,8.7,9,9.6,2.7c3.2-21.8,10.4-42.7,21.5-61.7c1.8-3,3.9-6.2,6.1-9.6C666,120.2,668,117.3,669.2,113.7z"/>
<path opacity="0.95" fill="#5C6612" d="M674.2,68c-7.9-11.6-24.7-12.6-31.7,0.4c-4.3,8-6.8,17.4-9.9,25.9c0.3-7.2,0.5-14.4,0.7-21.6
	c0.2-6.4-1.6-11.9-8.2-14.1c-6.4-2.1-14.2-1.1-20.5,0.8c-3.2,1-6.4,2.5-9.3,4.2c-0.2,0.1-1,0.8-1.5,1c-0.1-0.1-0.2-0.2-0.3-0.3
	c-1-0.8-1.4-3.1-1.9-4.2c-2.6-5.3-7.5-10.1-13.8-9.9c-5.1,0.2-8.8,3.8-10.9,8.1c-1.7,3.5-2.9,11.7-8,11.7c-7,0-11.2-8.9-14.4-13.8
	c-3.8-6-8.3-11.2-15.3-13.3c-2.9-0.9-6.6,1.6-6.3,4.8c0.9,10.8,1.9,21.6,2.8,32.4c-6.6-3.3-13.2-6.7-20-9.6
	c-6.5-2.9-14-2.1-16.9,5.2c-2.8,6.9,0,14.4,2.4,21c3.3,8.9,7.5,17.6,12.4,25.8c2.5,4.1,13.5,18.5,4.6,22.1c-3,1.2-6.9-0.6-10.3,0.6
	c-3.4,1.2-6,4-7.6,7.1c-7.9,15.6,10.8,29.7,21.9,37.2c16.2,11,35.7,16.8,55.1,12.8c6.3-1.3,3.6-10.9-2.7-9.6
	c-14.5,3-29.2-1-41.8-8.3c-5.4-3.1-32.8-20.6-22.6-29.1c2.3-1.9,6-0.2,8.8-0.6c2.7-0.4,5.2-1.6,7.2-3.6c4.4-4.3,5.9-10.8,4.6-16.6
	c-1.5-7.1-6.4-13-10-19.2c-3.9-6.7-7.3-13.8-10.1-21.1c-1.3-3.4-2.9-7-3.1-10.7c-0.3-4,0.4-5.2,4.3-3.5c9.1,3.9,17.9,8.8,26.9,13.1
	c3.1,1.5,7.9-0.2,7.5-4.3c-0.9-10.2-1.8-20.5-2.6-30.7c2.7,3.4,4.7,7.7,7.1,11c3.9,5.4,10,10.2,16.8,10.9c7,0.7,12.3-3.6,15.1-9.7
	c1.9-4,4.1-14.8,9.2-6.9c3.5,5.4,5.6,13.8,14.1,11.2c4-1.2,7.2-4.2,11.3-5.5c3.9-1.3,8.2-1.8,12.3-1.4c2.4,0.3,3.1,0.3,3.8,2.6
	c0.6,2-0.2,5.3-0.2,7.4c-0.2,5.3-0.4,10.7-0.6,16c-0.4,10.7-0.8,21.3-1.1,32c-0.2,5.9,8,6.4,9.8,1.3c3.6-9.7,7.1-19.4,10.7-29.1
	c1.8-4.9,3.6-9.7,5.3-14.6c1.3-3.7,2.4-7.9,4.6-11.1c2.5-3.7,6.3-4.3,10.2-2.2c3.9,2.2,5.8,6.5,6.8,10.7c1.9,8.1,1.4,17.2,0.1,25.3
	c-2.9,18.3-11.7,33-23.5,46.9c-11,13-21.7,28.2-17.4,46.1c1.5,6.3,11.2,3.6,9.6-2.7c-4.2-17.3,10.8-31.1,20.5-43.2
	c9.7-12.1,16.7-26,19.8-41.2C680.7,98.4,682.4,80,674.2,68z"/>
<path fill="#5C6612" d="M710.5,167.6c0.4-1.6,0.7-3.3,0.9-5.1c2.9-8.5,3.9-17.7,4-26.5c0-8.2-0.4-16.6-1.5-24.7
	c-0.5-3.9-1.5-7.4-3.7-10.7c-2.1-3.1-4.8-5.7-6.7-8.8c-7.9-13-2.5-30.7-4.6-45c-1-6.8-3.1-14.6-10.8-16c-0.6-0.1-1.3-0.2-2-0.3
	c-1-0.7-2-1.3-3.1-1.8c-2.1-0.9-4.5,0.4-5.6,2.3c-5,0.9-9.9,2.6-14.6,3.9c-7,1.9-16.2,3.7-22.5-1.2c-6.1-4.9-7.3-14.2-10.8-20.7
	c-3.3-6.1-8.7-11.1-15.8-11.8c-6.3-0.6-12.4,2.4-14.8,8.5c-1.2,2.9-0.8,6.3-1.9,9.2c-1.4,3.6-5.4,2.3-8.7,2.2
	c-7.5-0.2-15.2,1.2-22.3,3.5c-3.6,1.2-7,2.6-10.4,4.1c-0.7-0.4-1.5-0.7-2.4-0.8c-11.9-0.9-22.9,4.2-32.4,11
	c-5.4,3.8-12.8,8.5-17.2,14.5c-9.5,3.4-19,7.7-22,16.5c-3.3-0.6-6.8,0-9.8,1.6c-6.5,3.5-9.5,10.7-12.7,17
	c-4.1,8.3-8.1,16.5-12.2,24.8c-3.8,7.7-8.7,15.6-10.5,24.1c-2.9,13.5,4.9,22.4,15.2,28.5c0.8,2.5,4,4.1,6.5,3.4
	c0.3,0.2,0.7,0.3,1,0.4c8.1,3.6,16.5,6.3,25,8.1c-12.7,3.8-9.8,21.1-9.5,31.1c0.2,6.4-0.9,14.8,2.4,20.6c3.1,5.5,9.1,6.9,14.8,7.4
	c1.3,0.1,2.5,0.2,3.8,0.3c6.9,9.2,17.2,14,29.3,14.9c14.1,1,28.9-2.4,40.1-11.3c11.9-9.5,18.1-25.7,13.8-40.6
	c-0.1-0.4-0.3-0.7-0.4-1.1c0.4-0.5,0.9-1.1,1.2-1.8c2.1-4.1-2.5-9.9-6.8-6.8c-0.1,0-0.1,0.1-0.2,0.1c-0.9-2.2-3.5-4-6-3.1
	c-1.7,0.6-3.3,1-4.9,1.1c-1.6-1.3-2.9-2.5-3.6-3c-4.9-3.6-10.1-6.6-15.6-9.1c-3.2-2.1-6.5-4.2-9.7-6.3c-1.9-1.7-3.8-3.3-5.8-4.9
	c-3.4-2.7-7.2-5.1-11.1-7c3.3-3.2,13.6,2,16.2,3.2c6.7,3.1,13.3,6.3,20,9.4c1.8,0.9,3.9,0.4,5.4-0.6c2.2,1.4,4.4,2.8,6.7,4.1
	c4.9,3,10-3.8,6.1-7.9c-3.8-3.9-7.9-7.4-12.2-10.6c0.4-2.7-0.9-5.4-3.4-7c-0.2-0.1-0.3-0.2-0.5-0.3c-4.9-6.1-11.7-10.3-18.6-14.1
	c-0.5-1.2-0.9-2.5-1.2-3.8c-1.9-7.2-1.8-14.8,0.3-21.8c0.3,0.2,0.5,0.4,0.8,0.6c3.6,3.1,5.1,7,7.7,10.9c4.3,6.4,13.1,10.2,19.3,3.8
	c0,0,0.1-0.1,0.1-0.1c2.2,1.9,6.3,1.6,7.9-1.3c1.7,0.3,3.6-0.3,4.9-2.4c0.2-0.4,0.5-0.8,0.7-1.1c0.1,0,0.2,0,0.3,0.1l3.8,37
	c0.5,5.1,9,7.4,9.8,1.3c0.1-0.4,0.1-0.9,0.2-1.3c0,0,0,0,0,0c0,0,0,0,0,0c0.7-5.1,1.1-10.2,1.3-15.3c1.3-0.5,2.3-1.5,2.7-3.2
	c3.6-14.9,7.3-29.8,10.9-44.6c1.8-7.3,3.6-14.6,5.3-21.8c0.6-2.4,1.2-4.9,1.6-7.2c2-0.3,4-0.5,6.1-0.7c2.5,4.4,3.1,9.9,3.7,14.9
	c1,8.5,1.8,17,2.5,25.5c-1.8,7.8-4.1,15.6-5.5,23.5c-4.4,0-5.7,5.5-3.2,8.5c0.7,0.8,1.4,1.6,2,2.4c0,1.4-0.1,2.8,0,4.2
	c0,0.5,0.2,1.1,0.4,1.6c-1.4,1.8-2.9,3.6-4.4,5.3c-2.5,2.9-1.5,7.1,2.2,8.4c3.6,1.2,7.3,1.4,10.8,0.6c1.2,4.3,2.6,8.6,4.3,12.7
	c-0.2,0.7-0.4,1.5-0.7,2.2c-1.2,3.6-2.4,7.2-3.6,10.8c-1,3.1,1,5.3,3.4,5.9c-0.3,0.5-0.5,1-0.8,1.5c-1.3,2.9,0.3,7.2,3.4,7.6
	c-4,0.9-6.1,7.3-1.6,9.2c11.9,5.1,25.1,5.4,37.1,0c4.2-1.9,7.8-5,11.8-7.5c8.3,0.7,17.3,0.1,23.2-6.5c2.3-2.6,3.6-5.8,4.5-9.1
	c0,0,0.1-0.1,0.1-0.1c4.6-3.6,8-8.5,6.2-14.5C713,169.1,711.8,168.1,710.5,167.6z M675.3,107.5c1.8-5.1,3.4-10.4,4.8-15.6
	C679.5,97.2,677.7,102.5,675.3,107.5z M533.9,69.2c-0.4,0-0.8,0-1.2,0.1c0.2-0.2,0.4-0.4,0.5-0.5C533.4,68.9,533.7,69.1,533.9,69.2z
	 M520.6,102.5c-1.7,2.3-3.3,4.7-4.8,7.2c-0.1-0.4-0.3-0.8-0.4-1.3c-0.5-1.6-1.8-2.7-3.2-3.2c0-0.9,0-1.8,0-2.7
	c0.2-2,0.6-5.4,2.8-6.3c2.3-1,4.8,1.1,4.8,3.5C519.7,100.6,520,101.6,520.6,102.5z M514.8,148.1c-3.8,1-7.1,3.2-9,6.9
	c-1.5-0.3-3-0.5-4.6-0.6c1-1,1.9-2.1,2.5-3.4c2.3,1.3,5.4,0.8,6.8-1.7c0.9-1.6,1.6-3.3,2.1-5C512.6,145.7,513.2,147.1,514.8,148.1z
	 M502.3,99c-0.1,0.5-0.2,1-0.2,1.4c-0.1-0.3-0.3-0.7-0.4-1C501.9,99.3,502.1,99.2,502.3,99z M510.1,186.6l-1.1-0.3l0-2.7
	C509.5,184.5,509.8,185.5,510.1,186.6z M509.9,168.1c-0.2-0.3-0.4-0.6-0.5-1c0.5,0.4,1.1,0.7,1.6,1.1
	C510.6,168.2,510.3,168.1,509.9,168.1z M505.6,127.3c0.7-1.3,1.1-2.6,1.4-3.9c0.7,1.5,1.4,2.9,2.2,4.2c0,0,0,0,0,0
	C508.1,127.1,506.8,126.9,505.6,127.3z M506.8,89.9c0-0.3,0-0.5,0-0.8c1.2-0.9,2.3-1.9,3.2-3c0.3,0.3,0.6,0.6,0.9,0.9
	C509.5,87.7,508.1,88.6,506.8,89.9z M522.6,190.4c0.2,0.1,0.4,0.2,0.5,0.4c-0.8-0.3-1.6-0.5-2.4-0.8c0-0.3-0.1-0.5-0.1-0.7
	C521.3,189.7,522,190,522.6,190.4z M519.1,139.2c-2.7-0.5-5.1,1.3-6,3.4c0.8-4,0.5-8.1-1.1-12c-0.1-0.3-0.3-0.7-0.5-1
	c0.2,0.1,0.4,0.1,0.5,0.2c1.2,1.5,2.6,2.8,4,4.1c1.2,1.8,2.4,3.6,3.7,5.3C519.6,139.3,519.4,139.3,519.1,139.2z M520.5,121.5
	c0.7-1.4,1.4-2.7,2.1-4.1c-0.2,2.8-0.1,5.6,0.2,8.4C522,124.4,521.3,123,520.5,121.5z M528.2,93.6c-0.5-1-1.2-2-1.9-2.8
	c1,0.4,2,0.8,2.9,1.3c0.1,0.1,0.2,0.1,0.3,0.2C529.1,92.7,528.6,93.2,528.2,93.6z M548.7,111c-1.6-2.7-3.4-5.2-5.6-7.4
	c-1.5-1.4-3.1-2.7-4.8-3.8c0.2-0.3,0.4-0.6,0.6-0.8c0.3,0.3,0.6,0.5,0.9,0.8c4.5,4.2,8.1,9.1,10.7,14.5
	C549.6,112.9,549,111.5,548.7,111z M560.9,113.2c-3.7-8.7-9.3-16.3-16.3-22.4c0.4-3.4-3.3-6.3-6.9-5.1c-3.4-2.2-7.1-4.1-10.9-5.5
	c0.1,0,0.2-0.1,0.3-0.1c2.7-0.7,5.7-0.6,8.5-0.8c4.5-0.3,9-0.6,13.5-0.9c0.3,3,0.9,6,2,8.9c1.4,3.7,5.4,4.8,8.4,2.2
	c0.2-0.2,0.4-0.3,0.7-0.5c0.2,3.1,0.1,6.2-0.1,9.3c-0.2,1.8,0.5,3.1,1.6,3.9C561.3,105.7,561.1,109.4,560.9,113.2z M563.2,75.9
	c-0.2,0-0.3,0.1-0.5,0.1c-1.3,0.5-2.5,1-3.7,1.6c-0.1-0.9-0.1-1.8-0.1-2.7c0.9,0.1,1.7,0.1,2.6,0.1c0.7,0,1.5,0,2.2-0.1
	C563.5,75.3,563.3,75.6,563.2,75.9z"/>
<path opacity="0.63" fill="#5C6612" d="M542.9,208.6c-17.5,7.4-37.3,6.3-53.7-3.5c-5.5-3.3-10.6,5.4-5,8.6
	c18.5,10.9,41.5,12.8,61.4,4.5C551.4,215.8,548.8,206.2,542.9,208.6z"/>
<path opacity="0.63" fill="#828925" d="M546.1,229.9c0.8-1.3,0.9-3-0.3-4.6c-0.1-0.1-0.1-0.2-0.2-0.3c-0.3-1.1-1.1-2.1-2.2-2.7
	c-5.1-5.5-12.1-8.6-18.7-12.1c-9.7-5.1-19.5-10.3-29.2-15.4c-4.2-2.2-7.8,1.5-7.3,5.1c-1,0.3-1.9,1-2.6,2.1
	c-0.2,0.4-0.4,0.8-0.5,1.2c-0.4,1-0.6,2.3-0.3,3.9c1.1,6.5,10,12.8,14.9,16.5c12.6,9.7,27.6,15.2,43.3,16.4c2,0.2,4.5-1.7,4.8-3.7
	C548.2,233.4,547.5,231.5,546.1,229.9z"/>
<path opacity="0.63" fill="#828925" d="M548.3,134c-4.6-2.8-8.1-7.7-8.8-13.1c-0.3-2.7-2-5-5-5c-2.4,0-5.3,2.3-5,5
	c1.2,9.1,5.8,16.9,13.7,21.7C548.8,146.1,553.8,137.4,548.3,134z"/>
<path opacity="0.63" fill="#828925" d="M568.6,102.7c-2.9-12.7-11.3-23.5-23-29.2c-5.8-2.8-10.8,5.8-5,8.6
	c9.5,4.7,16.1,12.8,18.4,23.2C560.4,111.6,570,109,568.6,102.7z"/>
<path fill="#82491E" d="M693.4,433.7c-7-4.4-14.8-4.9-22.7-4.4c-4.2-0.3-8.5-0.4-12.7-0.3c-1.6,0.1-2.8,0.7-3.6,1.6
	c-2.3,0.2-4.6,0.3-6.9,0.5l-11.3,0c-1.6-0.5-3.3-0.4-4.9,0c-10.3,0-20.6,0-31-0.1c-9.8,0-19.6,0-29.5,0c-3.6,0-7.5-0.3-11.3-0.2
	c1.6-1.2,3.2-2.3,4.9-3.4c5.3-3.5,0.3-12.2-5-8.6c-8.1,5.4-15.7,11.5-22.7,18.4c-3.4,3.4,0,10,4.9,8.4c1.5-0.5,3-1,4.6-1.4
	c0.3,2.3,1.9,4.4,4.8,4.5c11.8,0.4,23.7,0.9,35.5,1.1c11.2,0.2,23.9,0.9,34.8-2.2c2.2-0.6,4.4-1.5,6.3-2.7c0.8-0.5,2.1-1.8,3.3-2.7
	c1.3,0,2.5-0.1,3.8-0.1c0.9,0.8,2,2,2.6,2.4c1.5,1,3.3,1.8,5,2.2c7.7,2.1,15.6-0.7,20.4-6.7c1.8-0.2,3.5-0.4,5.3-0.6
	c7.3,0.5,14.4,1.7,21.5,3.7C695.1,444.4,698.1,436.7,693.4,433.7z"/>
</svg>
