<?xml version="1.0" encoding="utf-8"?>
<!-- Generator: Adobe Illustrator 18.1.1, SVG Export Plug-In . SVG Version: 6.00 Build 0)  -->
<svg version="1.1" id="Lager_1" xmlns="http://www.w3.org/2000/svg" xmlns:xlink="http://www.w3.org/1999/xlink" x="0px" y="0px"
	 viewBox="0 0 960 560" enable-background="new 0 0 960 560" xml:space="preserve">
<path fill="#24AF08" d="M958.4,560H1.6c-0.9,0-1.6-0.5-1.6-1.1v-85.5c0-7.4,0-14.4,0-20.3c0-5,6.8-13.1,3-14.4
	c-1-0.3-1.3-1.2-0.5-1.8c7.8-5.6,11.5-8.6-2.5-3.6c15.4-5.4,27.7-9.7,7.3,0c22.3-9.7,31.2-18.8,20.9,0c10.3-18.8,16.5-20.9,7.2-0.2
	c9.3-20.7,13.8-21.5,7.9,0.2c5.9-21.8,11.3-23.8,8.6-2.3c2.7-21.5,1.1-18.6,9.3,2.3c-8.2-21-8.4-12.6,9.9,2.5
	c-18.2-26.7-11.8-106.4,10.6-2.5c-17.8-22,47.1-145.3,11.2,2.6c-24.7-1.5,35.6-40.8,13.1-41c7.5,0.1,12.8,37.9,17.5,37.2
	c5.6-0.6,20.2-1,6.6-2c12.7,0.4-4.6-0.7-13.1,0c8.5-0.6,40.6-0.3,19.3-2.4c24.2,1.6,30.5,0.7,5.1-0.4c25.1,1.3,6.1,3.6-11.6,6.1
	c17.7-2.5,18.3-50.4-5.8-51.4c24.7,0.8,46.7,43.3,24.6,44.1c22.1-0.7,19.9,5.1-5.4,10c25.5-5.2,28.5-14.1,9.1-13
	c19.5-1.2,19.1,2.8,4.7,10.4c14.4-7.5,15.4-13.3-0.7-9.9c16.1-3.3,15.3,1.1,15,11.4c0.3-10.4-10.1-112-17.3-104.3
	c7.2-7.7,17.7,94.7,32,102.8c-14.4-8.2-13.8-11.2,0.2-4c-7-3.6-1.3-88.9-1.2-90.9c1.7-71.7,1.1-159.4,15.8,92.6c0,0.2,0.5,0,0.8-0.1
	c12.9-3.7-16.4-0.5-14,0c2.4,0.5,36.9-53,14.5-45.5c22.6-7.5,20.6,42.4,1.1,47.4c22.3-4.9,33.7-10.3,13.6,0.4
	c20.1-10.6,7.4-157.9,7.9-4.7c0,1.1,1.9,1.6,2.8,0.7c10.4-9.9,10.1-10.2,5.2,2.5c7-36.4,24.7-282.9,8.1,0.3
	c-2.7-14-2.7-12.1,8.2,1.2c-10.8-13.3-10.8-17.1,4.1-5.8c-14.9-11.2,8.6-89.7,27-77.4c-18.2-12.5-13.4,14.1,10,23.2
	c-22.7-8.9-36,59.9-20.4,68.2c-14.2-6.8-13.5-7.2,4.2-5.6c-16.2-4.6-3.5,0.6,4.2,3c-5-1.7-1.6-1.8,3.3-4.9c0.5-0.3,0.7-0.8,0.4-1.3
	c-1.7-3,3.4,0.1,4.7,2.1c1.4,2.1,2.7,3.5,4.1-2.7c0.1-0.4,0.5-0.8,1.1-0.9c2.1-0.5,4.2-1.4,6.3,0.4c0.6,0.5,1.7,0.5,2.3,0
	c1.2-0.9,2.4,1.5,3.4,3.3c1.6,2.2,5.8,3.2,4.5-2.7c-0.1-0.4,0.1-0.8,0.4-1c2.9-2,6.5-3.8,6.8-5c0.2-0.6,1-1,1.8-0.9
	c5.7,0.8,8.5,3.2,2.2,6.8c-1.1,0.6-2.6,0-2.6-1c2.5-36.7,11.3-3.6,5.8,9.7c-0.4,1,1,1.8,2.3,1.3c7-2.8,12-6.4,9.2-7.9
	c-1.1-0.6-0.6-1.8,0.7-2c8.9-1.2,7.5,0.4-5,5.7c16.6-6.5,18.1-35.1,3-28.3c15.7-7.2,18.3,15.2,10.2,25.1c8.4-9.8,8.7-11.6,8.9-1.2
	c0-10.6-4.3-24,4.4-14.5c-6.8-7.7-2.2-13.4,7.6-14.6c1.5-0.2,1.8-1.6,0.5-2.1c-5.1-2,1.6,0.6,16.3,3.7c-16.9-3.5-6.7,26.8,7.2,27.5
	c-9.3-0.5,2.7,0.1,8.2,0.5c0.5,0-17.3-5.1-17.4-5.4c-3-26.7,13.9-32.1,16-25.5c0.4,1.1,7,21.3,10.1,29.2c0.4,1.1,2.7,1.1,3.1-0.1
	c2-6.7,3.4-22.4,5.9-25.6c1.5-4.6,5.3,33.5,6.1,28.1c1.2-3.1-2.5-15.9-2.9-14.6c-0.1,0.5,5.7,14.7,6.3,15c2.3,1.1,4.3,1.6,1.9-1
	c-0.4-0.4-9.4-18.3-9-18.7c5.6-5.4,19.2-18.2,9.5-17.5c11.2,0.9,21.6,29.5,11.7,36.3c-0.9,0.6-0.4,1.8,0.9,1.9
	c13.3,1.5,15,1.4-0.1,5.4c12.3-4.2,19.9-7.8,16.7-8.7c-1.3-0.4-1.2-1.8,0.1-2.1c9.8-2.6,7.9-4-7.6-2.2c20.5-2.2,21.6-1,4.6,5.2
	c17.2-6.3,19-24,5.7-18.4c13.4-5.6,12.6,9.9,3.5,18.1c9.1-8.2,9.2-12.2,3.1-5.1c6.2-7,6.2-3.7,3.1,5.2c3.2-8.8,3.3-9.4,6.2-0.9
	c-2.8-8.5,0.3-25.9,6.2-17.7c-5.9-8.3-8.9,9,0,16.6c-8.8-7.5-8.6-6.5,6.2-0.6c-14.6-5.9-14.2-7.3,3.1-3.7
	c-15.5-3.4-16.2-0.9-1.8,3.7c1.4,0.5,2.8-0.7,2-1.7c-17.6-19.6-9.6-25.2,10.6-21.9c-20.2-3-12.7,12.8,5,15.2
	c-14.4-2-5.4,12.2,3.6,13.8c1.1,0.2,2-0.4,1.9-1.2c-1.8-13.8,6.9-18,6.5-3.5c0,0.6,0.6,1.1,1.3,1.2c1.3,0.1,3.2,0.6,4.5,1.4
	c0.1,0.1,0.3,0.2,0.4,0.3c2,2.2,5.8-11.5,7.8-12.6c1.7-1,2.2,10.6,3.6,11.1c0.5,0.2,1.1,0.2,1.5,0c3.5-1.6,10.9-3.4,5.2-2.7
	c8.2-1.5-10.5-32.5-24.9-38.7c-1.3-0.6-0.9-2,0.5-2.1c20.4-2.3,58.9,2.4,38.2,33.5c-0.6,0.9,0.6,1.9,1.9,1.6
	c17.5-3.8,18.7-3.1,2.5,5.6c17.9-9.1,20-11.4,6.1-1.4c14.2-9.8,14.3-8.1,6.1,4.6c5.2-7.6,7.4-11.5,8.4-10.7c0.8,0.7,2.4,0.2,2.6-0.7
	c10.4-46,27-100.1,7.8,6.5c-0.2,1.1-2.3,1.4-3,0.3c-5.3-8.2-2.5-5.3,11.3,4c-13.3-9.4-9.7-6.9,4.5-1.1c1.2,0.5,2.6-0.3,2.3-1.2
	c-2.7-9.2,4.6-34.6,9.2-33.9c5.3,0.8,7,36.4,10.6,36.7c3.3,0.1,13.6-0.7,8.8,0.3c9.6-1,23.2-53,10.6-50
	c15.1-3.3,22.8,32.3,18.3,46.6c-0.3,1.1,1.5,1.8,2.6,1.1c4.1-2.7,6.2-3.6,8.1-2.3c1.1,0.7,2.7,0.1,2.6-0.9c-1-14.9,4.4-49,18.3-43.7
	c-12.5-6.1,9.6,43.4,21.7,42.9c-1.7-0.3-1,8.2-0.7,5.4c3.8-35.2,14-20.5,12.1-5c-0.2,1.3,2.2,1.7,3,0.6c8-11.8,15.7-51.6,1.9-48.3
	c16.4-3.2,26.2,35,15.5,49.4c-0.7,1,0.8,2.1,2.1,1.5c9.3-3.5,13.5-5.6,12.9-4c-0.5,1.4-3.4,0.8-3.1-0.6c7.6-33.8,6.4-102.9,13.5,7.2
	c-4.6-11.4-5.3-30.5,12-20.3c-15-9.4-2.2,14.7,14.2,19.6c1.2,0.4,2.4-0.4,2.1-1.3c-10.8-32.2,10.4-80.2,14.6,4.9
	c0.2,3.2,7.7-2.1,12.3-2.9c0.6-0.1,1.1-0.5,1.2-1c8.6-63.6,16.9-120,24.8-3.1c0.1,1.1,2,1.5,2.9,0.6c6-6.4,11.9-3.5,17.5,1
	c1,0.8,2.8,0.3,2.7-0.8c-9.4-275.9,13.2,4.2,20.6,3.2c6.4,8.9,13.5,17.6,17.9,0c4.9-19.9,9.5-50.8,15.1,0c1.9,17.1,7.6-0.2,11.3-0.3
	c0.5,0,1.1-0.1,1.4-0.5c3.2-3.6,6,4.5,8.3,0.8c2.4-8.4,4.2,6.4,5.5,0c1.1-5.1,1.8-0.6,1.9,0l0,0.1c0,4.3,0,15.7,0,5.4
	c0,1.6,0,10.4,0,14.4c0,5.9,0,12.9,0,20.3v85.5C960,559.5,959.3,560,958.4,560z"/>
</svg>
