<?xml version="1.0" encoding="utf-8"?>
<!-- Generator: Adobe Illustrator 18.1.1, SVG Export Plug-In . SVG Version: 6.00 Build 0)  -->
<svg version="1.1" id="Lager_1" xmlns="http://www.w3.org/2000/svg" xmlns:xlink="http://www.w3.org/1999/xlink" x="0px" y="0px"
	 viewBox="0 0 960 560" enable-background="new 0 0 960 560" xml:space="preserve">
<g>
	<g>
		<path opacity="0.49" fill="#FFFFFF" d="M439.3,356.6c1.4,1.9,13.6,18.3,13.2,18.6c-14.3-19.6-28.5-39.3-42.2-59.3
			c-2-2.9-3.9-5.7-5.8-8.6C382,271,355,235,346.5,192.9c-0.6-3.3-1.1-6.6-1.5-9.9c0.3,3.2,0.7,6.4,1.2,9.6
			C354,234,381,268,401.5,303.6c1.8,2.7,3.6,5.5,5.5,8.2c14.7,21.7,30.1,43,45.5,64.2c-0.1-0.1,0-0.2,0-0.3c0,0.2,0.1,0.3,0,0.3
			c0.2-0.1,0.4-0.3,0.6-0.4c0,0,0-0.7,0-0.7c-14.8-20.4-29.6-40.8-43.8-61.6c-1.8-2.6-3.5-5.2-5.3-7.8C382,270,356,236,348,195
			c6,40,34,73,53.7,107.7c1.7,2.6,3.5,5.2,5.2,7.8C417.4,326.1,428.3,341.4,439.3,356.6z"/>
	</g>
	<g>
		<path opacity="0.49" fill="#FFFFFF" d="M347.6,195.4c-0.4-2.4-0.8-4.7-1.2-7c-0.4-2.3-0.6-4.6-0.9-6.9c-0.8-8.1-0.6-16.7,1.9-24.5
			c0.2-0.7,0.5-1.4,0.8-2.1c-3.3,7.9-3.9,17.1-3,26.4c0.2,2.3,0.6,4.7,1,7C346.7,190.6,347.1,193,347.6,195.4z"/>
	</g>
	<g>
		<path opacity="0.49" fill="#FFFFFF" d="M348.6,154.2c0,0.1-0.1,0.2-0.1,0.2C348.5,154.3,348.5,154.2,348.6,154.2z"/>
	</g>
	<g>
		<path opacity="0.49" fill="#FFFFFF" d="M345.1,164.5c-1,5.9-0.9,12-0.2,18.1c-0.2-2.6-0.4-5.1-0.4-7.7
			C344.5,171.5,344.6,168,345.1,164.5z"/>
	</g>
	<g>
		<g opacity="0.49">
			<path fill="#FFFFFF" d="M464.5,257.3c-0.7,0.5-0.5-2.4-0.5-3c0-1.1,0-2.1-0.1-3.2c-0.3-7.7-1.5-15.4-3.4-22.8
				c-4-15.7-10.6-30.8-17.8-45.2c-10.4-20.9-26.2-43.1-49.1-48.5c24.9,5.7,40.7,30.2,51.5,52.5c6.2,12.8,11.8,26,15.6,39.8
				c1,3.5,1.8,7,2.4,10.5c-1.8-10.5-5.1-20.8-9.1-30.8c-11.3-28.5-28.2-66.4-61.8-73.1c-10.5-2.1-22.2-0.8-31.3,4.7
				c-7.6-2.2-15.4-4.1-23.2-5.5c-16.9-3.1-35.1-5.2-51.9-0.5c-14.7,4.2-25.6,14.2-31.9,28c-6.9,15-9.3,32.3-11.2,48.6
				c-1.4,12-2,24-1.7,36.1c0.8,31.9,8.5,64.2,26,91.2c18.2,28.2,46.6,50.2,79.9,56.7c0,0,0-0.1,0-0.3c0,0.1,0,0.2,0,0.3
				c0-0.2,0.1-0.5,0.1-0.7c0-0.1,0-0.7,0-0.7c-59.1-11.4-95.9-67.5-103.5-124c-2.9-21.6-2.2-43.5,0.8-65.1
				c2.1-14.7,4.6-30.2,11.4-43.6c15.5-30.3,50.6-30.1,80-24.9c7.9,1.4,15.8,3.2,23.5,5.4c-3,2.1-5.7,4.7-7.9,7.9
				c-3.6,5.2-5.5,11.2-6.4,17.3c0.7-4,1.8-8,3.6-11.7c2.7-5.6,6.8-10,11.7-13.2c0.1,0,0.1,0,0.2,0.1c-5.2,3.5-9.4,8.4-12,14.6
				c2.4-5.4,6.1-10.1,11.6-13.8c0.3-0.2,0.6-0.4,0.9-0.6c9.5,2.7,18.8,6,27.8,9.9c8.8,3.7,17.3,7.9,25.6,12.7c4,2.3,8,4.7,11.8,7.2
				c1.9,1.3,3.9,2.5,5.8,3.9c1,0.7,3.1,3.1,4,1.9c0,0,0-0.7,0-0.7c-22.3-15.9-47.1-28-73.3-35.7c10.6-5.8,23.9-5.8,35.2-2.3
				c13,4.1,23.3,13.7,31.2,24.5c9.1,12.3,15.7,26.5,21.8,40.5c7.6,17.7,13.6,36.6,13,56.2c0,0.1,0,0.7,0,0.7c0.2,0,0.5,0,0.7,0
				c0,0,0,0,0,0c0-0.4,0-0.8,0-1.3C464.6,257.2,464.5,257.3,464.5,257.3z M342,391.1c-4.1-1-8.1-2.2-12-3.7
				C332.7,388.3,338,390,342,391.1z M255.3,159.4c-6.9,14.2-9.3,30.5-11.3,46c-1.6,12.3-2.4,24.6-2.2,37c0.4,30.5,7,61.4,22.4,87.9
				c11.8,20.3,28.7,37.9,49.2,49.5c-14.4-8.1-27.1-19.1-37.5-32c-19.7-24.5-30.4-54.9-33.7-85.9c-2.4-22.3-1-44.9,2.7-67.1
				c2.5-15,5.7-30.9,14.6-43.5c5.8-8.2,13.4-13.5,22-16.8C269.9,139.1,260.9,147.8,255.3,159.4z M337.7,133.5
				c-7.1-1.3-14.4-2.4-21.8-3c9.7,0.6,19.3,2.3,28.1,4.2C341.9,134.3,339.8,133.9,337.7,133.5z M344.1,134.8c1,0.2,2,0.4,3,0.7
				c0.5,0.1,1,0.2,1.4,0.3C347.1,135.4,345.6,135.1,344.1,134.8z M418.6,163.8c3.7,2.2,7.4,4.5,11,6.9c1.7,1.1,3.4,2.2,5,3.4
				c2.5,2-0.9-0.5-1.8-1.1c-16.8-11.6-35-21.1-54.1-28.2c5.7,2.1,11.3,4.4,16.8,6.9C403.5,155.4,411.2,159.4,418.6,163.8z
				 M375.7,133.9c-5,0.7-9.6,2.3-13.6,4.7c-0.1,0-0.1,0-0.2,0c5.5-3.2,12-5,18.7-5.2c1.2,0,2.4,0,3.6,0
				C381.4,133.3,378.6,133.4,375.7,133.9z"/>
		</g>
	</g>
	<g>
		<path opacity="0.49" fill="#FFFFFF" d="M348.4,154.4c-0.1,0.1-0.1,0.3-0.2,0.5C348.3,154.7,348.4,154.5,348.4,154.4z"/>
	</g>
	<g>
		<path opacity="0.49" fill="#FFFFFF" d="M463.3,238.4c0,0.1,0,0.2,0,0.3C463.3,238.6,463.3,238.5,463.3,238.4z"/>
	</g>
	<g>
		<path opacity="0.49" fill="#FFFFFF" d="M463.1,237.4c0.1,0.3,0.1,0.7,0.2,1C463.2,238.1,463.2,237.8,463.1,237.4z"/>
	</g>
	<g>
		<path opacity="0.49" fill="#FFFFFF" d="M464.7,257.1c0.9-1.4,0-7.5-0.2-9.3c-0.2-2.1-0.4-4.1-0.7-6.2c-0.1-1-0.3-2-0.5-3
			C464.3,244.7,464.8,250.9,464.7,257.1z"/>
	</g>
</g>
<g>
	<linearGradient id="SVGID_1_" gradientUnits="userSpaceOnUse" x1="380.5978" y1="396" x2="380.5978" y2="146.996">
		<stop  offset="0" style="stop-color:#AA0000"/>
		<stop  offset="0.618" style="stop-color:#FF0815"/>
		<stop  offset="0.6209" style="stop-color:#FF161D"/>
		<stop  offset="0.6252" style="stop-color:#FF2125"/>
		<stop  offset="0.6313" style="stop-color:#FF2829"/>
		<stop  offset="0.6481" style="stop-color:#FF2A2A"/>
		<stop  offset="0.8129" style="stop-color:#FD2929"/>
		<stop  offset="0.8723" style="stop-color:#F62424"/>
		<stop  offset="0.9146" style="stop-color:#EB1D1D"/>
		<stop  offset="0.9488" style="stop-color:#DA1111"/>
		<stop  offset="0.9778" style="stop-color:#C40303"/>
		<stop  offset="0.9831" style="stop-color:#BF0000"/>
	</linearGradient>
	<path fill="url(#SVGID_1_)" d="M231,181c-11.4,19.9-2.2,44,5,63c1.8,4.6,8.6,21.7,28,46c17.5,21.8,26.5,26,61,57
		c45.6,40.9,47.2,49,60,49c11.3,0,15.2-6.2,69-58c27.1-26.1,32-30.2,41-42c8.3-11,22.2-29.5,31-57c7.8-24.2,15.5-48.4,3-66
		c-11.7-16.5-36.5-25.1-49-26c-1.8-0.1-38,2.9-64,25.2c-1.7,1.5-3.4,3.1-5.1,4.7c-11,10-15,24-20,38c-1,3-5,7-7,6c-16-7-17-30-30-43
		c-2.6-2.5-5.4-4.7-8.4-6.8c-20.6-14.6-47.9-20-71.6-15.2C264.2,158,241.6,162.5,231,181z"/>
	<linearGradient id="SVGID_2_" gradientUnits="userSpaceOnUse" x1="380.5978" y1="396" x2="380.5978" y2="146.996">
		<stop  offset="0" style="stop-color:#0E0E0E"/>
		<stop  offset="0.5" style="stop-color:#000000"/>
		<stop  offset="0.5213" style="stop-color:#010101"/>
		<stop  offset="0.7262" style="stop-color:#0B0B0B"/>
		<stop  offset="1" style="stop-color:#0E0E0E"/>
	</linearGradient>
	<path opacity="0.51" fill="url(#SVGID_2_)" d="M231,181c-11.4,19.9-2.2,44,5,63c1.8,4.6,8.6,21.7,28,46c17.5,21.8,26.5,26,61,57
		c45.6,40.9,47.2,49,60,49c11.3,0,15.2-6.2,69-58c27.1-26.1,32-30.2,41-42c8.3-11,22.2-29.5,31-57c7.8-24.2,15.5-48.4,3-66
		c-11.7-16.5-36.5-25.1-49-26c-1.8-0.1-38,2.9-64,25.2c-1.7,1.5-3.4,3.1-5.1,4.7c-11,10-15,24-20,38c-1,3-5,7-7,6c-16-7-17-30-30-43
		c-2.6-2.5-5.4-4.7-8.4-6.8c-20.6-14.6-47.9-20-71.6-15.2C264.2,158,241.6,162.5,231,181z"/>
	<linearGradient id="SVGID_3_" gradientUnits="userSpaceOnUse" x1="380.5978" y1="146.996" x2="380.5978" y2="396">
		<stop  offset="0" style="stop-color:#FFFFFF;stop-opacity:0.77"/>
		<stop  offset="0.2033" style="stop-color:#FFFFFF;stop-opacity:0.65"/>
		<stop  offset="0.3448" style="stop-color:#FFFFFF;stop-opacity:0.65"/>
		<stop  offset="0.3462" style="stop-color:#FFFFFF;stop-opacity:0.65"/>
		<stop  offset="0.511" style="stop-color:#FFFFFF;stop-opacity:0"/>
		<stop  offset="0.5247" style="stop-color:#E1E1E1;stop-opacity:4.472275e-03"/>
		<stop  offset="0.5464" style="stop-color:#B8B8B8;stop-opacity:1.158136e-02"/>
		<stop  offset="0.5708" style="stop-color:#929292;stop-opacity:1.957367e-02"/>
		<stop  offset="0.5974" style="stop-color:#727272;stop-opacity:2.826838e-02"/>
		<stop  offset="0.6268" style="stop-color:#565656;stop-opacity:3.787606e-02"/>
		<stop  offset="0.6599" style="stop-color:#404040;stop-opacity:4.872554e-02"/>
		<stop  offset="0.6986" style="stop-color:#2F2F2F;stop-opacity:6.138782e-02"/>
		<stop  offset="0.7465" style="stop-color:#242424;stop-opacity:7.705475e-02"/>
		<stop  offset="0.8136" style="stop-color:#1D1D1D;stop-opacity:9.902187e-02"/>
		<stop  offset="1" style="stop-color:#1B1B1B;stop-opacity:0.16"/>
	</linearGradient>
	<path opacity="0.7" fill="url(#SVGID_3_)" d="M231,181c-11.4,19.9-2.2,44,5,63c1.8,4.6,8.6,21.7,28,46c17.5,21.8,26.5,26,61,57
		c45.6,40.9,47.2,49,60,49c11.3,0,15.2-6.2,69-58c27.1-26.1,32-30.2,41-42c8.3-11,22.2-29.5,31-57c7.8-24.2,15.5-48.4,3-66
		c-11.7-16.5-36.5-25.1-49-26c-1.8-0.1-38,2.9-64,25.2c-1.7,1.5-3.4,3.1-5.1,4.7c-11,10-15,24-20,38c-1,3-5,7-7,6c-16-7-17-30-30-43
		c-2.6-2.5-5.4-4.7-8.4-6.8c-20.6-14.6-47.9-20-71.6-15.2C264.2,158,241.6,162.5,231,181z"/>
	<path fill="none" stroke="#717171" stroke-width="0.5878" stroke-miterlimit="1" d="M231,181c-11.4,19.9-2.2,44,5,63
		c1.8,4.6,8.6,21.7,28,46c17.5,21.8,26.5,26,61,57c45.6,40.9,47.2,49,60,49c11.3,0,15.2-6.2,69-58c27.1-26.1,32-30.2,41-42
		c8.3-11,22.2-29.5,31-57c7.8-24.2,15.5-48.4,3-66c-11.7-16.5-36.5-25.1-49-26c-1.8-0.1-38,2.9-64,25.2c-1.7,1.5-3.4,3.1-5.1,4.7
		c-11,10-15,24-20,38c-1,3-5,7-7,6c-16-7-17-30-30-43c-2.6-2.5-5.4-4.7-8.4-6.8c-20.6-14.6-47.9-20-71.6-15.2
		C264.2,158,241.6,162.5,231,181z"/>
</g>
</svg>
