<?xml version="1.0" encoding="utf-8"?>
<!-- Generator: Adobe Illustrator 18.1.1, SVG Export Plug-In . SVG Version: 6.00 Build 0)  -->
<svg version="1.1" id="Lager_1" xmlns="http://www.w3.org/2000/svg" xmlns:xlink="http://www.w3.org/1999/xlink" x="0px" y="0px"
	 viewBox="0 0 960 560" enable-background="new 0 0 960 560" xml:space="preserve">
<g>
	
		<linearGradient id="SVGID_1_" gradientUnits="userSpaceOnUse" x1="380.6151" y1="164" x2="380.6151" y2="413.0023" gradientTransform="matrix(1 0 0 -1 0 560)">
		<stop  offset="0" style="stop-color:#AA0000"/>
		<stop  offset="0.618" style="stop-color:#FF0815"/>
		<stop  offset="0.6209" style="stop-color:#FF161D"/>
		<stop  offset="0.6252" style="stop-color:#FF2125"/>
		<stop  offset="0.6313" style="stop-color:#FF2829"/>
		<stop  offset="0.6481" style="stop-color:#FF2A2A"/>
		<stop  offset="0.8129" style="stop-color:#FD2929"/>
		<stop  offset="0.8723" style="stop-color:#F62424"/>
		<stop  offset="0.9146" style="stop-color:#EB1D1D"/>
		<stop  offset="0.9488" style="stop-color:#DA1111"/>
		<stop  offset="0.9778" style="stop-color:#C40303"/>
		<stop  offset="0.9831" style="stop-color:#BF0000"/>
	</linearGradient>
	<path fill="url(#SVGID_1_)" d="M231,181c-11.4,19.9-2.2,44,5,63c1.8,4.6,8.6,21.7,28,46c17.5,21.8,26.5,26,61,57
		c45.6,40.9,47.2,49,60,49c11.3,0,15.2-6.2,69-58c27.1-26.1,32-30.2,41-42c8.3-11,22.2-29.5,31-57c7.8-24.2,15.5-48.4,3-66
		c-11.7-16.5-36.5-25.1-49-26c-1.8-0.1-38,2.9-64,25.2c-1.7,1.5-3.4,3.1-5.1,4.7c-11,10-15,24-20,38c-1,3-5,7-7,6c-16-7-17-30-30-43
		c-2.6-2.5-5.4-4.7-8.4-6.8c-20.6-14.6-47.9-20-71.6-15.2C264.2,158,241.6,162.5,231,181z"/>
	
		<linearGradient id="SVGID_2_" gradientUnits="userSpaceOnUse" x1="380.6151" y1="164" x2="380.6151" y2="413.0023" gradientTransform="matrix(1 0 0 -1 0 560)">
		<stop  offset="0" style="stop-color:#0E0E0E"/>
		<stop  offset="0.5" style="stop-color:#000000"/>
		<stop  offset="0.5213" style="stop-color:#010101"/>
		<stop  offset="0.7262" style="stop-color:#0B0B0B"/>
		<stop  offset="1" style="stop-color:#0E0E0E"/>
	</linearGradient>
	<path opacity="0.51" fill="url(#SVGID_2_)" enable-background="new    " d="M231,181c-11.4,19.9-2.2,44,5,63
		c1.8,4.6,8.6,21.7,28,46c17.5,21.8,26.5,26,61,57c45.6,40.9,47.2,49,60,49c11.3,0,15.2-6.2,69-58c27.1-26.1,32-30.2,41-42
		c8.3-11,22.2-29.5,31-57c7.8-24.2,15.5-48.4,3-66c-11.7-16.5-36.5-25.1-49-26c-1.8-0.1-38,2.9-64,25.2c-1.7,1.5-3.4,3.1-5.1,4.7
		c-11,10-15,24-20,38c-1,3-5,7-7,6c-16-7-17-30-30-43c-2.6-2.5-5.4-4.7-8.4-6.8c-20.6-14.6-47.9-20-71.6-15.2
		C264.2,158,241.6,162.5,231,181z"/>
	
		<linearGradient id="SVGID_3_" gradientUnits="userSpaceOnUse" x1="380.6151" y1="413.0023" x2="380.6151" y2="164" gradientTransform="matrix(1 0 0 -1 0 560)">
		<stop  offset="0" style="stop-color:#FFFFFF;stop-opacity:0.77"/>
		<stop  offset="0.2033" style="stop-color:#FFFFFF;stop-opacity:0.65"/>
		<stop  offset="0.3448" style="stop-color:#FFFFFF;stop-opacity:0.65"/>
		<stop  offset="0.3462" style="stop-color:#FFFFFF;stop-opacity:0.65"/>
		<stop  offset="0.511" style="stop-color:#FFFFFF;stop-opacity:0"/>
		<stop  offset="0.5247" style="stop-color:#E1E1E1;stop-opacity:4.472275e-03"/>
		<stop  offset="0.5464" style="stop-color:#B8B8B8;stop-opacity:1.158136e-02"/>
		<stop  offset="0.5708" style="stop-color:#929292;stop-opacity:1.957367e-02"/>
		<stop  offset="0.5974" style="stop-color:#727272;stop-opacity:2.826838e-02"/>
		<stop  offset="0.6268" style="stop-color:#565656;stop-opacity:3.787606e-02"/>
		<stop  offset="0.6599" style="stop-color:#404040;stop-opacity:4.872554e-02"/>
		<stop  offset="0.6986" style="stop-color:#2F2F2F;stop-opacity:6.138782e-02"/>
		<stop  offset="0.7465" style="stop-color:#242424;stop-opacity:7.705475e-02"/>
		<stop  offset="0.8136" style="stop-color:#1D1D1D;stop-opacity:9.902187e-02"/>
		<stop  offset="1" style="stop-color:#1B1B1B;stop-opacity:0.16"/>
	</linearGradient>
	<path opacity="0.7" fill="url(#SVGID_3_)" enable-background="new    " d="M231,181c-11.4,19.9-2.2,44,5,63c1.8,4.6,8.6,21.7,28,46
		c17.5,21.8,26.5,26,61,57c45.6,40.9,47.2,49,60,49c11.3,0,15.2-6.2,69-58c27.1-26.1,32-30.2,41-42c8.3-11,22.2-29.5,31-57
		c7.8-24.2,15.5-48.4,3-66c-11.7-16.5-36.5-25.1-49-26c-1.8-0.1-38,2.9-64,25.2c-1.7,1.5-3.4,3.1-5.1,4.7c-11,10-15,24-20,38
		c-1,3-5,7-7,6c-16-7-17-30-30-43c-2.6-2.5-5.4-4.7-8.4-6.8c-20.6-14.6-47.9-20-71.6-15.2C264.2,158,241.6,162.5,231,181z"/>
	<path fill="none" stroke="#717171" stroke-width="0.5878" stroke-miterlimit="1" d="M231,181c-11.4,19.9-2.2,44,5,63
		c1.8,4.6,8.6,21.7,28,46c17.5,21.8,26.5,26,61,57c45.6,40.9,47.2,49,60,49c11.3,0,15.2-6.2,69-58c27.1-26.1,32-30.2,41-42
		c8.3-11,22.2-29.5,31-57c7.8-24.2,15.5-48.4,3-66c-11.7-16.5-36.5-25.1-49-26c-1.8-0.1-38,2.9-64,25.2c-1.7,1.5-3.4,3.1-5.1,4.7
		c-11,10-15,24-20,38c-1,3-5,7-7,6c-16-7-17-30-30-43c-2.6-2.5-5.4-4.7-8.4-6.8c-20.6-14.6-47.9-20-71.6-15.2
		C264.2,158,241.6,162.5,231,181z"/>
</g>
</svg>
