<?xml version="1.0" encoding="utf-8"?>
<!-- Generator: Adobe Illustrator 16.0.0, SVG Export Plug-In . SVG Version: 6.00 Build 0)  -->
<!DOCTYPE svg PUBLIC "-//W3C//DTD SVG 1.1//EN" "http://www.w3.org/Graphics/SVG/1.1/DTD/svg11.dtd">
<svg version="1.1" id="Lager_1" xmlns="http://www.w3.org/2000/svg" xmlns:xlink="http://www.w3.org/1999/xlink" x="0px" y="0px"
	 width="270px" height="260px" viewBox="147.5 161.5 270 260" enable-background="new 147.5 161.5 270 260" xml:space="preserve">
<path fill="#444343" d="M359.688,227.312c-4.062,0.125-7.688,3.812-11.062,5.688c-4.25,2.438-8.688,4.5-13.312,6.125
	c-8.688,3.125-17.688,4.75-26.875,5c3.188-8.875,6.5-17.75,9.938-26.5c3.938-10.062,8.562-19.938,12.375-30.062
	c1.25-3.312,1-7.375-2.688-9c-1.875-0.812-4.125-0.625-6.125-0.562c-2.875,0-5.812,0-8.688,0c-11,0.062-22,0.062-33,0.125
	c-12.688,0.062-25.312,0.062-38,0.125c-2.812,0-3.938,3.375-2.188,5.312c12.375,14,20.375,31.375,23.25,49.688
	c-0.312,1.125-0.125,2.125,0.375,2.875c0.562,4.188,0.812,8.438,0.812,12.688c-0.188-0.062-0.438-0.125-0.625-0.125
	c-18.438-2.062-36.375-7.5-52.812-16c-2.125-1.062-4.625,0.25-4.688,2.688c-0.438,17.25-0.188,34.438,0.75,51.688
	c0.062,1.5,1.375,3.375,3.125,3.125c18.312-2.312,36.375-6.125,53.938-11.625c0.188,40.562-0.438,82.938-19.375,119.812
	C244.5,399,244.375,400,244.438,400h-0.062c-4,0-4,6.375,0,6.375c28.938,0.188,57.938,0.438,86.875,0.625l0,0
	c2.625,0.938,6.25-2.125,4.688-5.562c-9.062-19.875-12.062-41.812-14.688-63.312c-1.312-10.75-2.562-21.5-4.438-32.188
	c-0.938-5.438-2.062-10.812-3.375-16.125c-0.125-0.438-0.25-0.938-0.375-1.375c-0.5-4.438-1.062-8.938-1.562-13.375
	c15.125,7.062,31.062,12,47.562,14.625c2.062,0.312,3.875-0.812,3.938-3c0.438-11.188,0.875-22.375,1.312-33.625
	c0.25-5.812,0.438-11.625,0.688-17.438C365.188,231.812,364.812,227.125,359.688,227.312z M280.438,304h-0.062
	c0.062-0.375,0.062-0.75,0.125-1.125c0-0.062,0-0.188,0-0.25c0,0.062,0.062,0.125,0.062,0.188
	C280.562,303.25,280.5,303.625,280.438,304z"/>
<path fill="#4D4D4D" d="M303,253.875c-6.125-1.125-12.375-1.375-18.562-0.688c-2.188,0.25-4.312,0.875-6.312-0.25
	c-0.312-0.25-0.5-0.625-0.562-1.062c-0.125,0.562-0.375,1-0.75,1.375c-0.875,0.875-1.875,0.938-3,0.688
	c0.188,0.062-0.25,3.062,0,3.125c1.125,0.25,2.125,0.125,3-0.688c0.375-0.375,0.688-0.812,0.75-1.375
	c0.062,0.438,0.25,0.75,0.562,1.062c2,1.125,4.125,0.5,6.312,0.25c6.188-0.75,12.438-0.438,18.562,0.688
	C302.812,257,303.188,253.938,303,253.875z"/>
<path fill="#4D4D4D" d="M302.938,264.688c-0.438-1.375-1.062-3.312-2.5-4.062c-1.75-0.875-3.562,0.625-5.062,1.375
	c-2.062,1.062-4.125,2.125-6.188,3.25c-0.312,0.125-2.75,1.812-3.125,1.625s-0.688-2.938-0.812-3.438
	c-0.312-1.438-0.25-1.562-1.812-1.562c-0.938,0-1.875,0.188-2.812,0.438c-1.938,0.562-3.625,1.625-5.188,2.812
	c-0.812,0.625-1.625,1.25-2.375,1.938c-1.312,1.125-1.062,1.125-1.312-0.562c-0.312-2.312-0.812-4.562-1.375-6.75v0.062
	c-0.188,2.5-0.312,5.062-0.5,7.562c-0.062,0.938,0.062,2.25,0,3c0.062-1-0.062-6.375,0.75-6.5c0.688-0.062,0.875,7.188,1.312,7.312
	c0.312,0.125,5.062-4,5.625-4.312c1.812-1.062,3.812-1.812,5.938-1.812c1.75,0,1.562,0.5,1.875,2.062
	c0.062,0.312,0.438,2.812,0.688,3c0.5,0.312,6.375-3.312,7.25-3.75c1.625-0.875,4.5-3.125,6.438-2.688
	c1.875,0.375,2.688,2.75,3.188,4.312C302.625,266.875,303.25,265.625,302.938,264.688z"/>
<path fill="#4D4D4D" d="M295.5,272.125c-2.188,3-6.25,2.562-9.562,2.562c-4.688,0-9.062,0-14.062,0v3.125c5,0,9.375,0,14.062,0
	c3.312,0,7.375,0.438,9.562-2.562C296,274.562,295.062,272.812,295.5,272.125z"/>
<path fill="#4D4D4D" d="M327.5,191.938c0.438-2.125,0.812-4.25,1.25-6.312c-9.562,17.438-19.188,34.875-28.75,52.312
	c-1.188,4.375,1.25,8,3.75,8.312c1.75,0.25,3.75-1.062,5-3.125C315,226.062,321.25,209,327.5,191.938z"/>
<path fill="#4D4D4D" d="M328.062,387.938c1.688,4.312,3.5,8.812,3.5,8.812c0.688,1.688,1.438,3.438,2.125,5.125
	c-8.938-51.188-13.5-73.625-15.875-82.938c-0.938-3.562-2.125-7.5-3.188-13.938c-2.625-15.688-3.812-16.5-3.188-20.25
	c0.188-1.25,0.625-2.938,0.312-5.375c-0.312-2.5-1.188-4.438-1.875-5.625c-2.062,1.25-4.188,2.5-6.25,3.75
	C315.562,338.688,326.062,382.812,328.062,387.938z"/>
<path fill="#6D6D6D" d="M300.625,256.25h-26.25v3.125h26.25V256.25z"/>
<path fill="#6D6D6D" d="M301.75,261.875c-3.875-1-6.875,1.25-10.125,3c-2.562,1.375-6.312,2.438-8.625-0.062
	c-0.625-0.688-0.812-2.438-1.688-2.812c-1.125-0.438-3,1.688-3.812,2.312c-1.75,1.375-5.312,3.75-6.938,1.75
	c0.125-0.812-0.562-2.188-0.125-2.75c-0.25,0.312-0.375,0.75-0.438,1.25l0.062-0.062v0.125c0,1-0.188,2.188-0.062,3
	c1.125,6.125,7.5-0.688,9.75-1.938c2.5-1.312,1.875,0.812,3.25,2.312c1.312,1.375,3.5,1.688,5.312,1.375
	c4.875-0.938,8.188-5.75,13.5-4.312C301.562,264.938,302.062,261.938,301.75,261.875z"/>
<path fill="#6D6D6D" d="M295.062,272.875c-6.5,3.812-13.875,4.938-21.25,3.312c0.188,0.062-0.25,3.062,0,3.125
	c7.312,1.625,14.75,0.438,21.25-3.312C295.5,275.75,294.625,273.188,295.062,272.875z"/>
</svg>
