<?xml version="1.0" encoding="utf-8"?>
<!-- Generator: Adobe Illustrator 18.1.1, SVG Export Plug-In . SVG Version: 6.00 Build 0)  -->
<svg version="1.1" id="Lager_1" xmlns="http://www.w3.org/2000/svg" xmlns:xlink="http://www.w3.org/1999/xlink" x="0px" y="0px"
	 viewBox="0 0 960 560" enable-background="new 0 0 960 560" xml:space="preserve">
<path fill="#FFFFFF" stroke="#0B6CAF" stroke-width="10" stroke-miterlimit="10" d="M600,191c1,9.5-4,19.1-10,25
	c-12.7,12.5-24.4,2.6-43,16c-8.9,6.4-18.6,17.5-21.2,20.5c-4.7,5.4-5,6.8-7.8,9.5c-13,12.5-28.1,16.5-34,18c-25.1,6.3-46.9-1.3-57-5
	c-20.7-7.6-20.7-14.4-38-17c-15.5-2.3-18.5,2.7-35-1c-15.2-3.4-17.7-8.8-29.1-8c-11.3,0.7-12.4,6.2-23.9,6c-3,0-16.2-0.2-24-9
	c-6.3-7.2-9.3-16.8-10.5-16.4c-0.6,0.2,0.4,2.3-0.5,3.4c-2.8,3.5-23.7-4-37-20c-3.6-4.3-10.4-12.5-12-25c-2.5-20.4,11-35.5,15-40
	c1.5-1.6,19-20.6,46-21c26.1-0.4,33.4,17,52,12c14.5-3.9,12.7-15,33-29c22.3-15.4,46-16.7,53-17c14.4-0.6,40.1-1.7,57,14
	c7,6.5,13.3,16.7,30,27c4,2.5,6,3.7,9,5c24.1,10.3,40.7-7.2,56,2c4.8,2.9,1.2,3.6,15,23C594.4,180.1,599.1,183,600,191z"/>
</svg>
