<?xml version="1.0" encoding="utf-8"?>
<!-- Generator: Adobe Illustrator 18.1.1, SVG Export Plug-In . SVG Version: 6.00 Build 0)  -->
<svg version="1.1" id="Lager_1" xmlns="http://www.w3.org/2000/svg" xmlns:xlink="http://www.w3.org/1999/xlink" x="0px" y="0px"
	 viewBox="0 0 960 560" enable-background="new 0 0 960 560" xml:space="preserve">
<path fill="#FFFFFF" stroke="#0B6CAF" stroke-width="10" stroke-miterlimit="10" d="M794.5,260.8c1.6,15.6-6.6,31.4-16.4,41
	c-20.8,20.5-40.1,4.3-70.6,26.3c-14.6,10.5-30.5,28.7-34.8,33.7c-7.7,8.9-8.2,11.2-12.8,15.6c-21.3,20.5-46.1,27.1-55.8,29.5
	c-41.2,10.3-77-2.1-93.6-8.2c-34-12.5-34-23.6-62.4-27.9c-25.4-3.8-30.4,4.4-57.5-1.6c-25-5.6-29.1-14.4-47.8-13.1
	c-18.5,1.1-20.4,10.2-39.2,9.8c-4.9,0-26.6-0.3-39.4-14.8c-10.3-11.8-15.3-27.6-17.2-26.9c-1,0.3,0.7,3.8-0.8,5.6
	c-4.6,5.7-38.9-6.6-60.7-32.8c-5.9-7.1-17.1-20.5-19.7-41c-4.1-33.5,18.1-58.3,24.6-65.7c2.5-2.6,31.2-33.8,75.5-34.5
	c42.8-0.7,54.8,27.9,85.4,19.7c23.8-6.4,20.8-24.6,54.2-47.6c36.6-25.3,75.5-27.4,87-27.9c23.6-1,65.8-2.8,93.6,23
	c11.5,10.7,21.8,27.4,49.2,44.3c6.6,4.1,9.8,6.1,14.8,8.2c39.6,16.9,66.8-11.8,91.9,3.3c7.9,4.8,2,5.9,24.6,37.8
	C785.3,242.9,793,247.6,794.5,260.8z"/>
</svg>
